<svg xmlns="http://www.w3.org/2000/svg" xmlns:xlink="http://www.w3.org/1999/xlink" contentStyleType="text/css" data-diagram-type="CLASS" height="1355px" preserveAspectRatio="none" style="width:1048px;height:1355px;background:#FFFFFF;" version="1.1" viewBox="0 0 1048 1355" width="1048px" zoomAndPan="magnify"><defs/><g><!--cluster Classes (Removed ? Unchanged ? Added)--><g class="cluster" data-entity="Classes .Removed . Unchanged . Added." data-source-line="3" data-uid="ent0002" id="cluster_Classes .Removed . Unchanged . Added."><rect fill="none" height="1342" rx="2.5" ry="2.5" style="stroke:#181818;stroke-width:1;" width="1035" x="7" y="7"/><text fill="#000000" font-family="sans-serif" font-size="14" font-weight="bold" lengthAdjust="spacing" textLength="293.3779" x="377.811" y="23.5332">Classes (Removed &#65533; Unchanged &#65533; Added)</text></g><!--class ClinicService--><g class="entity" data-entity="ClinicService" data-source-line="4" data-uid="ent0003" id="entity_ClinicService"><rect fill="#FFA07A" height="58.7031" rx="2.5" ry="2.5" style="stroke:#181818;stroke-width:0.5;" width="112.9102" x="348" y="1017.5"/><ellipse cx="363" cy="1038.8516" fill="#B4A7E5" rx="11" ry="11" style="stroke:#181818;stroke-width:1;"/><path d="M363.9531,1035.4922 L363.9531,1042.1484 L365.6719,1042.1484 Q366.2813,1042.1484 366.5469,1042.3828 Q366.8125,1042.6172 366.8125,1043.0078 Q366.8125,1043.3828 366.5469,1043.6172 Q366.2813,1043.8516 365.6719,1043.8516 L360.5313,1043.8516 Q359.9219,1043.8516 359.6563,1043.6172 Q359.3906,1043.3828 359.3906,1042.9922 Q359.3906,1042.6172 359.6563,1042.3828 Q359.9219,1042.1484 360.5313,1042.1484 L362.25,1042.1484 L362.25,1035.4922 L360.5313,1035.4922 Q359.9219,1035.4922 359.6563,1035.2578 Q359.3906,1035.0234 359.3906,1034.6328 Q359.3906,1034.2578 359.6563,1034.0234 Q359.9219,1033.7891 360.5313,1033.7891 L365.6719,1033.7891 Q366.2813,1033.7891 366.5469,1034.0234 Q366.8125,1034.2578 366.8125,1034.6328 Q366.8125,1035.0234 366.5469,1035.2578 Q366.2813,1035.4922 365.6719,1035.4922 L363.9531,1035.4922 Z " fill="#000000"/><text fill="#000000" font-family="sans-serif" font-size="12" font-style="italic" lengthAdjust="spacing" textLength="74.0215" x="380.4443" y="1034.957">&#171;REMOVED&#187;</text><text fill="#000000" font-family="sans-serif" font-size="14" font-style="italic" lengthAdjust="spacing" textLength="80.9102" x="377" y="1052.127">ClinicService</text><line style="stroke:#181818;stroke-width:0.5;" x1="349" x2="459.9102" y1="1060.2031" y2="1060.2031"/><line style="stroke:#181818;stroke-width:0.5;" x1="349" x2="459.9102" y1="1068.2031" y2="1068.2031"/></g><!--class ClinicServiceImpl--><g class="entity" data-entity="ClinicServiceImpl" data-source-line="6" data-uid="ent0004" id="entity_ClinicServiceImpl"><rect fill="#FFA07A" height="129.1406" rx="2.5" ry="2.5" style="stroke:#181818;stroke-width:0.5;" width="241.1543" x="585" y="981.5"/><ellipse cx="647.6479" cy="1002.8516" fill="#ADD1B2" rx="11" ry="11" style="stroke:#181818;stroke-width:1;"/><path d="M650.4136,998.7266 Q650.5698,998.5078 650.7573,998.3984 Q650.9448,998.2891 651.1636,998.2891 Q651.5386,998.2891 651.7729,998.5547 Q652.0073,998.8047 652.0073,999.4141 L652.0073,1000.8672 Q652.0073,1001.4766 651.7729,1001.7422 Q651.5386,1002.0078 651.1636,1002.0078 Q650.8198,1002.0078 650.6167,1001.8047 Q650.4136,1001.6172 650.3042,1001.1016 Q650.2573,1000.7422 650.0698,1000.5547 Q649.7417,1000.1797 649.1323,999.9609 Q648.5229,999.7422 647.8979,999.7422 Q647.1323,999.7422 646.4917,1000.0703 Q645.8667,1000.3984 645.3667,1001.1484 Q644.8823,1001.8984 644.8823,1002.9297 L644.8823,1004.0234 Q644.8823,1005.2578 645.7729,1006.0859 Q646.6636,1006.8984 648.2573,1006.8984 Q649.1948,1006.8984 649.8511,1006.6484 Q650.2417,1006.4922 650.6636,1006.0547 Q650.9292,1005.7891 651.0698,1005.7109 Q651.2261,1005.6328 651.4292,1005.6328 Q651.7573,1005.6328 652.0073,1005.8984 Q652.2729,1006.1484 652.2729,1006.4922 Q652.2729,1006.8359 651.9292,1007.2422 Q651.4292,1007.8203 650.6323,1008.1484 Q649.5542,1008.6016 648.2573,1008.6016 Q646.7417,1008.6016 645.5386,1007.9766 Q644.5542,1007.4766 643.8667,1006.4141 Q643.1792,1005.3359 643.1792,1004.0547 L643.1792,1002.8984 Q643.1792,1001.5703 643.7886,1000.4297 Q644.4136,999.2734 645.5073,998.6641 Q646.6011,998.0391 647.8354,998.0391 Q648.5698,998.0391 649.2104,998.2109 Q649.8667,998.3672 650.4136,998.7266 Z " fill="#000000"/><text fill="#000000" font-family="sans-serif" font-size="12" font-style="italic" lengthAdjust="spacing" textLength="74.0215" x="684.8164" y="998.957">&#171;REMOVED&#187;</text><text fill="#000000" font-family="sans-serif" font-size="14" lengthAdjust="spacing" textLength="107.3584" x="668.1479" y="1016.127">ClinicServiceImpl</text><line style="stroke:#181818;stroke-width:0.5;" x1="586" x2="825.1543" y1="1024.2031" y2="1024.2031"/><text fill="#000000" font-family="sans-serif" font-size="14" lengthAdjust="spacing" textLength="190.2646" x="591" y="1042.7363">+petRepository: PetRepository</text><text fill="#000000" font-family="sans-serif" font-size="14" lengthAdjust="spacing" textLength="189.4785" x="591" y="1060.3457">+vetRepository: VetRepository</text><text fill="#000000" font-family="sans-serif" font-size="14" lengthAdjust="spacing" textLength="229.1543" x="591" y="1077.9551">+ownerRepository: OwnerRepository</text><text fill="#000000" font-family="sans-serif" font-size="14" lengthAdjust="spacing" textLength="200.3477" x="591" y="1095.5645">+visitRepository: VisitRepository</text><line style="stroke:#181818;stroke-width:0.5;" x1="586" x2="825.1543" y1="1102.6406" y2="1102.6406"/></g><!--class PetClinicApplication--><g class="entity" data-entity="PetClinicApplication" data-source-line="12" data-uid="ent0005" id="entity_PetClinicApplication"><rect fill="#FFA07A" height="58.7031" rx="2.5" ry="2.5" style="stroke:#181818;stroke-width:0.5;" width="155.7305" x="45.5" y="363.5"/><ellipse cx="60.5" cy="384.8516" fill="#ADD1B2" rx="11" ry="11" style="stroke:#181818;stroke-width:1;"/><path d="M63.2656,380.7266 Q63.4219,380.5078 63.6094,380.3984 Q63.7969,380.2891 64.0156,380.2891 Q64.3906,380.2891 64.625,380.5547 Q64.8594,380.8047 64.8594,381.4141 L64.8594,382.8672 Q64.8594,383.4766 64.625,383.7422 Q64.3906,384.0078 64.0156,384.0078 Q63.6719,384.0078 63.4688,383.8047 Q63.2656,383.6172 63.1563,383.1016 Q63.1094,382.7422 62.9219,382.5547 Q62.5938,382.1797 61.9844,381.9609 Q61.375,381.7422 60.75,381.7422 Q59.9844,381.7422 59.3438,382.0703 Q58.7188,382.3984 58.2188,383.1484 Q57.7344,383.8984 57.7344,384.9297 L57.7344,386.0234 Q57.7344,387.2578 58.625,388.0859 Q59.5156,388.8984 61.1094,388.8984 Q62.0469,388.8984 62.7031,388.6484 Q63.0938,388.4922 63.5156,388.0547 Q63.7813,387.7891 63.9219,387.7109 Q64.0781,387.6328 64.2813,387.6328 Q64.6094,387.6328 64.8594,387.8984 Q65.125,388.1484 65.125,388.4922 Q65.125,388.8359 64.7813,389.2422 Q64.2813,389.8203 63.4844,390.1484 Q62.4063,390.6016 61.1094,390.6016 Q59.5938,390.6016 58.3906,389.9766 Q57.4063,389.4766 56.7188,388.4141 Q56.0313,387.3359 56.0313,386.0547 L56.0313,384.8984 Q56.0313,383.5703 56.6406,382.4297 Q57.2656,381.2734 58.3594,380.6641 Q59.4531,380.0391 60.6875,380.0391 Q61.4219,380.0391 62.0625,380.2109 Q62.7188,380.3672 63.2656,380.7266 Z " fill="#000000"/><text fill="#000000" font-family="sans-serif" font-size="12" font-style="italic" lengthAdjust="spacing" textLength="74.0215" x="99.3545" y="380.957">&#171;REMOVED&#187;</text><text fill="#000000" font-family="sans-serif" font-size="14" lengthAdjust="spacing" textLength="123.7305" x="74.5" y="398.127">PetClinicApplication</text><line style="stroke:#181818;stroke-width:0.5;" x1="46.5" x2="200.2305" y1="406.2031" y2="406.2031"/><line style="stroke:#181818;stroke-width:0.5;" x1="46.5" x2="200.2305" y1="414.2031" y2="414.2031"/></g><!--class VisitController--><g class="entity" data-entity="VisitController" data-source-line="14" data-uid="ent0006" id="entity_VisitController"><rect fill="#FFA07A" height="76.3125" rx="2.5" ry="2.5" style="stroke:#181818;stroke-width:0.5;" width="186.665" x="30" y="1046"/><ellipse cx="75.5137" cy="1067.3516" fill="#ADD1B2" rx="11" ry="11" style="stroke:#181818;stroke-width:1;"/><path d="M78.2793,1063.2266 Q78.4355,1063.0078 78.623,1062.8984 Q78.8105,1062.7891 79.0293,1062.7891 Q79.4043,1062.7891 79.6387,1063.0547 Q79.873,1063.3047 79.873,1063.9141 L79.873,1065.3672 Q79.873,1065.9766 79.6387,1066.2422 Q79.4043,1066.5078 79.0293,1066.5078 Q78.6855,1066.5078 78.4824,1066.3047 Q78.2793,1066.1172 78.1699,1065.6016 Q78.123,1065.2422 77.9355,1065.0547 Q77.6074,1064.6797 76.998,1064.4609 Q76.3887,1064.2422 75.7637,1064.2422 Q74.998,1064.2422 74.3574,1064.5703 Q73.7324,1064.8984 73.2324,1065.6484 Q72.748,1066.3984 72.748,1067.4297 L72.748,1068.5234 Q72.748,1069.7578 73.6387,1070.5859 Q74.5293,1071.3984 76.123,1071.3984 Q77.0605,1071.3984 77.7168,1071.1484 Q78.1074,1070.9922 78.5293,1070.5547 Q78.7949,1070.2891 78.9355,1070.2109 Q79.0918,1070.1328 79.2949,1070.1328 Q79.623,1070.1328 79.873,1070.3984 Q80.1387,1070.6484 80.1387,1070.9922 Q80.1387,1071.3359 79.7949,1071.7422 Q79.2949,1072.3203 78.498,1072.6484 Q77.4199,1073.1016 76.123,1073.1016 Q74.6074,1073.1016 73.4043,1072.4766 Q72.4199,1071.9766 71.7324,1070.9141 Q71.0449,1069.8359 71.0449,1068.5547 L71.0449,1067.3984 Q71.0449,1066.0703 71.6543,1064.9297 Q72.2793,1063.7734 73.373,1063.1641 Q74.4668,1062.5391 75.7012,1062.5391 Q76.4355,1062.5391 77.0762,1062.7109 Q77.7324,1062.8672 78.2793,1063.2266 Z " fill="#000000"/><text fill="#000000" font-family="sans-serif" font-size="12" font-style="italic" lengthAdjust="spacing" textLength="74.0215" x="102.5718" y="1063.457">&#171;REMOVED&#187;</text><text fill="#000000" font-family="sans-serif" font-size="14" lengthAdjust="spacing" textLength="87.1377" x="96.0137" y="1080.627">VisitController</text><line style="stroke:#181818;stroke-width:0.5;" x1="31" x2="215.665" y1="1088.7031" y2="1088.7031"/><text fill="#000000" font-family="sans-serif" font-size="14" lengthAdjust="spacing" textLength="174.665" x="36" y="1107.2363">+clinicService: ClinicService</text><line style="stroke:#181818;stroke-width:0.5;" x1="31" x2="215.665" y1="1114.3125" y2="1114.3125"/></g><!--class BaseEntity--><g class="entity" data-entity="BaseEntity" data-source-line="17" data-uid="ent0007" id="entity_BaseEntity"><rect fill="#F1F1F1" height="65.6094" rx="2.5" ry="2.5" style="stroke:#181818;stroke-width:0.5;" width="98.9238" x="74" y="589"/><ellipse cx="89" cy="605" fill="#ADD1B2" rx="11" ry="11" style="stroke:#181818;stroke-width:1;"/><path d="M91.7656,600.875 Q91.9219,600.6563 92.1094,600.5469 Q92.2969,600.4375 92.5156,600.4375 Q92.8906,600.4375 93.125,600.7031 Q93.3594,600.9531 93.3594,601.5625 L93.3594,603.0156 Q93.3594,603.625 93.125,603.8906 Q92.8906,604.1563 92.5156,604.1563 Q92.1719,604.1563 91.9688,603.9531 Q91.7656,603.7656 91.6563,603.25 Q91.6094,602.8906 91.4219,602.7031 Q91.0938,602.3281 90.4844,602.1094 Q89.875,601.8906 89.25,601.8906 Q88.4844,601.8906 87.8438,602.2188 Q87.2188,602.5469 86.7188,603.2969 Q86.2344,604.0469 86.2344,605.0781 L86.2344,606.1719 Q86.2344,607.4063 87.125,608.2344 Q88.0156,609.0469 89.6094,609.0469 Q90.5469,609.0469 91.2031,608.7969 Q91.5938,608.6406 92.0156,608.2031 Q92.2813,607.9375 92.4219,607.8594 Q92.5781,607.7813 92.7813,607.7813 Q93.1094,607.7813 93.3594,608.0469 Q93.625,608.2969 93.625,608.6406 Q93.625,608.9844 93.2813,609.3906 Q92.7813,609.9688 91.9844,610.2969 Q90.9063,610.75 89.6094,610.75 Q88.0938,610.75 86.8906,610.125 Q85.9063,609.625 85.2188,608.5625 Q84.5313,607.4844 84.5313,606.2031 L84.5313,605.0469 Q84.5313,603.7188 85.1406,602.5781 Q85.7656,601.4219 86.8594,600.8125 Q87.9531,600.1875 89.1875,600.1875 Q89.9219,600.1875 90.5625,600.3594 Q91.2188,600.5156 91.7656,600.875 Z " fill="#000000"/><text fill="#000000" font-family="sans-serif" font-size="14" lengthAdjust="spacing" textLength="66.9238" x="103" y="610.7285">BaseEntity</text><line style="stroke:#181818;stroke-width:0.5;" x1="75" x2="171.9238" y1="621" y2="621"/><text fill="#000000" font-family="sans-serif" font-size="14" lengthAdjust="spacing" textLength="70.4375" x="80" y="639.5332">+id: Integer</text><line style="stroke:#181818;stroke-width:0.5;" x1="75" x2="171.9238" y1="646.6094" y2="646.6094"/></g><!--class CallMonitoringAspect--><g class="entity" data-entity="CallMonitoringAspect" data-source-line="20" data-uid="ent0008" id="entity_CallMonitoringAspect"><rect fill="#F1F1F1" height="100.8281" rx="2.5" ry="2.5" style="stroke:#181818;stroke-width:0.5;" width="189.0303" x="29" y="227.5"/><ellipse cx="55.1366" cy="243.5" fill="#ADD1B2" rx="11" ry="11" style="stroke:#181818;stroke-width:1;"/><path d="M57.9022,239.375 Q58.0585,239.1563 58.246,239.0469 Q58.4335,238.9375 58.6522,238.9375 Q59.0272,238.9375 59.2616,239.2031 Q59.496,239.4531 59.496,240.0625 L59.496,241.5156 Q59.496,242.125 59.2616,242.3906 Q59.0272,242.6563 58.6522,242.6563 Q58.3085,242.6563 58.1054,242.4531 Q57.9022,242.2656 57.7929,241.75 Q57.746,241.3906 57.5585,241.2031 Q57.2304,240.8281 56.621,240.6094 Q56.0116,240.3906 55.3866,240.3906 Q54.621,240.3906 53.9804,240.7188 Q53.3554,241.0469 52.8554,241.7969 Q52.371,242.5469 52.371,243.5781 L52.371,244.6719 Q52.371,245.9063 53.2616,246.7344 Q54.1522,247.5469 55.746,247.5469 Q56.6835,247.5469 57.3397,247.2969 Q57.7304,247.1406 58.1522,246.7031 Q58.4179,246.4375 58.5585,246.3594 Q58.7147,246.2813 58.9179,246.2813 Q59.246,246.2813 59.496,246.5469 Q59.7616,246.7969 59.7616,247.1406 Q59.7616,247.4844 59.4179,247.8906 Q58.9179,248.4688 58.121,248.7969 Q57.0429,249.25 55.746,249.25 Q54.2304,249.25 53.0272,248.625 Q52.0429,248.125 51.3554,247.0625 Q50.6679,245.9844 50.6679,244.7031 L50.6679,243.5469 Q50.6679,242.2188 51.2772,241.0781 Q51.9022,239.9219 52.996,239.3125 Q54.0897,238.6875 55.3241,238.6875 Q56.0585,238.6875 56.6991,238.8594 Q57.3554,239.0156 57.9022,239.375 Z " fill="#000000"/><text fill="#000000" font-family="sans-serif" font-size="14" lengthAdjust="spacing" textLength="132.2822" x="71.6114" y="249.2285">CallMonitoringAspect</text><line style="stroke:#181818;stroke-width:0.5;" x1="30" x2="217.0303" y1="259.5" y2="259.5"/><text fill="#000000" font-family="sans-serif" font-size="14" lengthAdjust="spacing" textLength="115.6094" x="35" y="278.0332">+enabled: boolean</text><text fill="#000000" font-family="sans-serif" font-size="14" lengthAdjust="spacing" textLength="89.1064" x="35" y="295.6426">+callCount: int</text><text fill="#000000" font-family="sans-serif" font-size="14" lengthAdjust="spacing" textLength="177.0303" x="35" y="313.252">+accumulatedCallTime: long</text><line style="stroke:#181818;stroke-width:0.5;" x1="30" x2="217.0303" y1="320.3281" y2="320.3281"/></g><!--class NamedEntity--><g class="entity" data-entity="NamedEntity" data-source-line="25" data-uid="ent0009" id="entity_NamedEntity"><rect fill="#F1F1F1" height="65.6094" rx="2.5" ry="2.5" style="stroke:#181818;stroke-width:0.5;" width="112.1445" x="348.5" y="708"/><ellipse cx="363.5" cy="724" fill="#ADD1B2" rx="11" ry="11" style="stroke:#181818;stroke-width:1;"/><path d="M366.2656,719.875 Q366.4219,719.6563 366.6094,719.5469 Q366.7969,719.4375 367.0156,719.4375 Q367.3906,719.4375 367.625,719.7031 Q367.8594,719.9531 367.8594,720.5625 L367.8594,722.0156 Q367.8594,722.625 367.625,722.8906 Q367.3906,723.1563 367.0156,723.1563 Q366.6719,723.1563 366.4688,722.9531 Q366.2656,722.7656 366.1563,722.25 Q366.1094,721.8906 365.9219,721.7031 Q365.5938,721.3281 364.9844,721.1094 Q364.375,720.8906 363.75,720.8906 Q362.9844,720.8906 362.3438,721.2188 Q361.7188,721.5469 361.2188,722.2969 Q360.7344,723.0469 360.7344,724.0781 L360.7344,725.1719 Q360.7344,726.4063 361.625,727.2344 Q362.5156,728.0469 364.1094,728.0469 Q365.0469,728.0469 365.7031,727.7969 Q366.0938,727.6406 366.5156,727.2031 Q366.7813,726.9375 366.9219,726.8594 Q367.0781,726.7813 367.2813,726.7813 Q367.6094,726.7813 367.8594,727.0469 Q368.125,727.2969 368.125,727.6406 Q368.125,727.9844 367.7813,728.3906 Q367.2813,728.9688 366.4844,729.2969 Q365.4063,729.75 364.1094,729.75 Q362.5938,729.75 361.3906,729.125 Q360.4063,728.625 359.7188,727.5625 Q359.0313,726.4844 359.0313,725.2031 L359.0313,724.0469 Q359.0313,722.7188 359.6406,721.5781 Q360.2656,720.4219 361.3594,719.8125 Q362.4531,719.1875 363.6875,719.1875 Q364.4219,719.1875 365.0625,719.3594 Q365.7188,719.5156 366.2656,719.875 Z " fill="#000000"/><text fill="#000000" font-family="sans-serif" font-size="14" lengthAdjust="spacing" textLength="80.1445" x="377.5" y="729.7285">NamedEntity</text><line style="stroke:#181818;stroke-width:0.5;" x1="349.5" x2="459.6445" y1="740" y2="740"/><text fill="#000000" font-family="sans-serif" font-size="14" lengthAdjust="spacing" textLength="87.5479" x="354.5" y="758.5332">+name: String</text><line style="stroke:#181818;stroke-width:0.5;" x1="349.5" x2="459.6445" y1="765.6094" y2="765.6094"/></g><!--class Owner--><g class="entity" data-entity="Owner" data-source-line="28" data-uid="ent0010" id="entity_Owner"><rect fill="#F1F1F1" height="118.4375" rx="2.5" ry="2.5" style="stroke:#181818;stroke-width:0.5;" width="126.0303" x="893" y="487"/><ellipse cx="931.7582" cy="503" fill="#ADD1B2" rx="11" ry="11" style="stroke:#181818;stroke-width:1;"/><path d="M934.5238,498.875 Q934.68,498.6563 934.8675,498.5469 Q935.055,498.4375 935.2738,498.4375 Q935.6488,498.4375 935.8832,498.7031 Q936.1175,498.9531 936.1175,499.5625 L936.1175,501.0156 Q936.1175,501.625 935.8832,501.8906 Q935.6488,502.1563 935.2738,502.1563 Q934.93,502.1563 934.7269,501.9531 Q934.5238,501.7656 934.4144,501.25 Q934.3675,500.8906 934.18,500.7031 Q933.8519,500.3281 933.2425,500.1094 Q932.6332,499.8906 932.0082,499.8906 Q931.2425,499.8906 930.6019,500.2188 Q929.9769,500.5469 929.4769,501.2969 Q928.9925,502.0469 928.9925,503.0781 L928.9925,504.1719 Q928.9925,505.4063 929.8832,506.2344 Q930.7738,507.0469 932.3675,507.0469 Q933.305,507.0469 933.9613,506.7969 Q934.3519,506.6406 934.7738,506.2031 Q935.0394,505.9375 935.18,505.8594 Q935.3363,505.7813 935.5394,505.7813 Q935.8675,505.7813 936.1175,506.0469 Q936.3832,506.2969 936.3832,506.6406 Q936.3832,506.9844 936.0394,507.3906 Q935.5394,507.9688 934.7425,508.2969 Q933.6644,508.75 932.3675,508.75 Q930.8519,508.75 929.6488,508.125 Q928.6644,507.625 927.9769,506.5625 Q927.2894,505.4844 927.2894,504.2031 L927.2894,503.0469 Q927.2894,501.7188 927.8988,500.5781 Q928.5238,499.4219 929.6175,498.8125 Q930.7113,498.1875 931.9457,498.1875 Q932.68,498.1875 933.3207,498.3594 Q933.9769,498.5156 934.5238,498.875 Z " fill="#000000"/><text fill="#000000" font-family="sans-serif" font-size="14" lengthAdjust="spacing" textLength="41.2344" x="951.0377" y="508.7285">Owner</text><line style="stroke:#181818;stroke-width:0.5;" x1="894" x2="1018.0303" y1="519" y2="519"/><text fill="#000000" font-family="sans-serif" font-size="14" lengthAdjust="spacing" textLength="102.334" x="899" y="537.5332">+address: String</text><text fill="#000000" font-family="sans-serif" font-size="14" lengthAdjust="spacing" textLength="73.5273" x="899" y="555.1426">+city: String</text><text fill="#000000" font-family="sans-serif" font-size="14" lengthAdjust="spacing" textLength="114.0303" x="899" y="572.752">+telephone: String</text><text fill="#000000" font-family="sans-serif" font-size="14" lengthAdjust="spacing" textLength="63.4307" x="899" y="590.3613">+pets: Set</text><line style="stroke:#181818;stroke-width:0.5;" x1="894" x2="1018.0303" y1="597.4375" y2="597.4375"/></g><!--class OwnerRepository--><g class="entity" data-entity="OwnerRepository" data-source-line="34" data-uid="ent0011" id="entity_OwnerRepository"><rect fill="#F1F1F1" height="48" rx="2.5" ry="2.5" style="stroke:#181818;stroke-width:0.5;" width="140.1514" x="886" y="999"/><ellipse cx="901" cy="1015" fill="#B4A7E5" rx="11" ry="11" style="stroke:#181818;stroke-width:1;"/><path d="M901.9531,1011.6406 L901.9531,1018.2969 L903.6719,1018.2969 Q904.2813,1018.2969 904.5469,1018.5313 Q904.8125,1018.7656 904.8125,1019.1563 Q904.8125,1019.5313 904.5469,1019.7656 Q904.2813,1020 903.6719,1020 L898.5313,1020 Q897.9219,1020 897.6563,1019.7656 Q897.3906,1019.5313 897.3906,1019.1406 Q897.3906,1018.7656 897.6563,1018.5313 Q897.9219,1018.2969 898.5313,1018.2969 L900.25,1018.2969 L900.25,1011.6406 L898.5313,1011.6406 Q897.9219,1011.6406 897.6563,1011.4063 Q897.3906,1011.1719 897.3906,1010.7813 Q897.3906,1010.4063 897.6563,1010.1719 Q897.9219,1009.9375 898.5313,1009.9375 L903.6719,1009.9375 Q904.2813,1009.9375 904.5469,1010.1719 Q904.8125,1010.4063 904.8125,1010.7813 Q904.8125,1011.1719 904.5469,1011.4063 Q904.2813,1011.6406 903.6719,1011.6406 L901.9531,1011.6406 Z " fill="#000000"/><text fill="#000000" font-family="sans-serif" font-size="14" font-style="italic" lengthAdjust="spacing" textLength="108.1514" x="915" y="1020.7285">OwnerRepository</text><line style="stroke:#181818;stroke-width:0.5;" x1="887" x2="1025.1514" y1="1031" y2="1031"/><line style="stroke:#181818;stroke-width:0.5;" x1="887" x2="1025.1514" y1="1039" y2="1039"/></g><!--class OwnerResource--><g class="entity" data-entity="OwnerResource" data-source-line="36" data-uid="ent0012" id="entity_OwnerResource"><rect fill="#F1F1F1" height="65.6094" rx="2.5" ry="2.5" style="stroke:#181818;stroke-width:0.5;" width="200.6855" x="23" y="945"/><ellipse cx="68.5171" cy="961" fill="#ADD1B2" rx="11" ry="11" style="stroke:#181818;stroke-width:1;"/><path d="M71.2827,956.875 Q71.439,956.6563 71.6265,956.5469 Q71.814,956.4375 72.0327,956.4375 Q72.4077,956.4375 72.6421,956.7031 Q72.8765,956.9531 72.8765,957.5625 L72.8765,959.0156 Q72.8765,959.625 72.6421,959.8906 Q72.4077,960.1563 72.0327,960.1563 Q71.689,960.1563 71.4858,959.9531 Q71.2827,959.7656 71.1733,959.25 Q71.1265,958.8906 70.939,958.7031 Q70.6108,958.3281 70.0015,958.1094 Q69.3921,957.8906 68.7671,957.8906 Q68.0015,957.8906 67.3608,958.2188 Q66.7358,958.5469 66.2358,959.2969 Q65.7515,960.0469 65.7515,961.0781 L65.7515,962.1719 Q65.7515,963.4063 66.6421,964.2344 Q67.5327,965.0469 69.1265,965.0469 Q70.064,965.0469 70.7202,964.7969 Q71.1108,964.6406 71.5327,964.2031 Q71.7983,963.9375 71.939,963.8594 Q72.0952,963.7813 72.2983,963.7813 Q72.6265,963.7813 72.8765,964.0469 Q73.1421,964.2969 73.1421,964.6406 Q73.1421,964.9844 72.7983,965.3906 Q72.2983,965.9688 71.5015,966.2969 Q70.4233,966.75 69.1265,966.75 Q67.6108,966.75 66.4077,966.125 Q65.4233,965.625 64.7358,964.5625 Q64.0483,963.4844 64.0483,962.2031 L64.0483,961.0469 Q64.0483,959.7188 64.6577,958.5781 Q65.2827,957.4219 66.3765,956.8125 Q67.4702,956.1875 68.7046,956.1875 Q69.439,956.1875 70.0796,956.3594 Q70.7358,956.5156 71.2827,956.875 Z " fill="#000000"/><text fill="#000000" font-family="sans-serif" font-size="14" lengthAdjust="spacing" textLength="101.1514" x="89.0171" y="966.7285">OwnerResource</text><line style="stroke:#181818;stroke-width:0.5;" x1="24" x2="222.6855" y1="977" y2="977"/><text fill="#000000" font-family="sans-serif" font-size="14" lengthAdjust="spacing" textLength="188.6855" x="29" y="995.5332">+ownerService: OwnerService</text><line style="stroke:#181818;stroke-width:0.5;" x1="24" x2="222.6855" y1="1002.6094" y2="1002.6094"/></g><!--class Person--><g class="entity" data-entity="Person" data-source-line="39" data-uid="ent0013" id="entity_Person"><rect fill="#F1F1F1" height="83.2188" rx="2.5" ry="2.5" style="stroke:#181818;stroke-width:0.5;" width="124.4238" x="342.5" y="453.5"/><ellipse cx="379.1294" cy="469.5" fill="#ADD1B2" rx="11" ry="11" style="stroke:#181818;stroke-width:1;"/><path d="M381.8951,465.375 Q382.0513,465.1563 382.2388,465.0469 Q382.4263,464.9375 382.6451,464.9375 Q383.0201,464.9375 383.2544,465.2031 Q383.4888,465.4531 383.4888,466.0625 L383.4888,467.5156 Q383.4888,468.125 383.2544,468.3906 Q383.0201,468.6563 382.6451,468.6563 Q382.3013,468.6563 382.0982,468.4531 Q381.8951,468.2656 381.7857,467.75 Q381.7388,467.3906 381.5513,467.2031 Q381.2232,466.8281 380.6138,466.6094 Q380.0044,466.3906 379.3794,466.3906 Q378.6138,466.3906 377.9732,466.7188 Q377.3482,467.0469 376.8482,467.7969 Q376.3638,468.5469 376.3638,469.5781 L376.3638,470.6719 Q376.3638,471.9063 377.2544,472.7344 Q378.1451,473.5469 379.7388,473.5469 Q380.6763,473.5469 381.3326,473.2969 Q381.7232,473.1406 382.1451,472.7031 Q382.4107,472.4375 382.5513,472.3594 Q382.7076,472.2813 382.9107,472.2813 Q383.2388,472.2813 383.4888,472.5469 Q383.7544,472.7969 383.7544,473.1406 Q383.7544,473.4844 383.4107,473.8906 Q382.9107,474.4688 382.1138,474.7969 Q381.0357,475.25 379.7388,475.25 Q378.2232,475.25 377.0201,474.625 Q376.0357,474.125 375.3482,473.0625 Q374.6607,471.9844 374.6607,470.7031 L374.6607,469.5469 Q374.6607,468.2188 375.2701,467.0781 Q375.8951,465.9219 376.9888,465.3125 Q378.0826,464.6875 379.3169,464.6875 Q380.0513,464.6875 380.6919,464.8594 Q381.3482,465.0156 381.8951,465.375 Z " fill="#000000"/><text fill="#000000" font-family="sans-serif" font-size="14" lengthAdjust="spacing" textLength="44.3584" x="397.936" y="475.2285">Person</text><line style="stroke:#181818;stroke-width:0.5;" x1="343.5" x2="465.9238" y1="485.5" y2="485.5"/><text fill="#000000" font-family="sans-serif" font-size="14" lengthAdjust="spacing" textLength="112.4238" x="348.5" y="504.0332">+firstName: String</text><text fill="#000000" font-family="sans-serif" font-size="14" lengthAdjust="spacing" textLength="111.6582" x="348.5" y="521.6426">+lastName: String</text><line style="stroke:#181818;stroke-width:0.5;" x1="343.5" x2="465.9238" y1="528.7188" y2="528.7188"/></g><!--class Pet--><g class="entity" data-entity="Pet" data-source-line="43" data-uid="ent0014" id="entity_Pet"><rect fill="#F1F1F1" height="100.8281" rx="2.5" ry="2.5" style="stroke:#181818;stroke-width:0.5;" width="114.334" x="648.5" y="576.5"/><ellipse cx="691.0941" cy="592.5" fill="#ADD1B2" rx="11" ry="11" style="stroke:#181818;stroke-width:1;"/><path d="M693.8598,588.375 Q694.016,588.1563 694.2035,588.0469 Q694.391,587.9375 694.6098,587.9375 Q694.9848,587.9375 695.2191,588.2031 Q695.4535,588.4531 695.4535,589.0625 L695.4535,590.5156 Q695.4535,591.125 695.2191,591.3906 Q694.9848,591.6563 694.6098,591.6563 Q694.266,591.6563 694.0629,591.4531 Q693.8598,591.2656 693.7504,590.75 Q693.7035,590.3906 693.516,590.2031 Q693.1879,589.8281 692.5785,589.6094 Q691.9691,589.3906 691.3441,589.3906 Q690.5785,589.3906 689.9379,589.7188 Q689.3129,590.0469 688.8129,590.7969 Q688.3285,591.5469 688.3285,592.5781 L688.3285,593.6719 Q688.3285,594.9063 689.2191,595.7344 Q690.1098,596.5469 691.7035,596.5469 Q692.641,596.5469 693.2973,596.2969 Q693.6879,596.1406 694.1098,595.7031 Q694.3754,595.4375 694.516,595.3594 Q694.6723,595.2813 694.8754,595.2813 Q695.2035,595.2813 695.4535,595.5469 Q695.7191,595.7969 695.7191,596.1406 Q695.7191,596.4844 695.3754,596.8906 Q694.8754,597.4688 694.0785,597.7969 Q693.0004,598.25 691.7035,598.25 Q690.1879,598.25 688.9848,597.625 Q688.0004,597.125 687.3129,596.0625 Q686.6254,594.9844 686.6254,593.7031 L686.6254,592.5469 Q686.6254,591.2188 687.2348,590.0781 Q687.8598,588.9219 688.9535,588.3125 Q690.0473,587.6875 691.2816,587.6875 Q692.016,587.6875 692.6566,587.8594 Q693.3129,588.0156 693.8598,588.375 Z " fill="#000000"/><text fill="#000000" font-family="sans-serif" font-size="14" lengthAdjust="spacing" textLength="21.0137" x="711.2262" y="598.2285">Pet</text><line style="stroke:#181818;stroke-width:0.5;" x1="649.5" x2="761.834" y1="608.5" y2="608.5"/><text fill="#000000" font-family="sans-serif" font-size="14" lengthAdjust="spacing" textLength="102.334" x="654.5" y="627.0332">+birthDate: Date</text><text fill="#000000" font-family="sans-serif" font-size="14" lengthAdjust="spacing" textLength="94.5547" x="654.5" y="644.6426">+type: PetType</text><text fill="#000000" font-family="sans-serif" font-size="14" lengthAdjust="spacing" textLength="95.3203" x="654.5" y="662.252">+owner: Owner</text><line style="stroke:#181818;stroke-width:0.5;" x1="649.5" x2="761.834" y1="669.3281" y2="669.3281"/></g><!--class PetRepository--><g class="entity" data-entity="PetRepository" data-source-line="48" data-uid="ent0015" id="entity_PetRepository"><rect fill="#F1F1F1" height="48" rx="2.5" ry="2.5" style="stroke:#181818;stroke-width:0.5;" width="119.9307" x="896" y="893"/><ellipse cx="911" cy="909" fill="#B4A7E5" rx="11" ry="11" style="stroke:#181818;stroke-width:1;"/><path d="M911.9531,905.6406 L911.9531,912.2969 L913.6719,912.2969 Q914.2813,912.2969 914.5469,912.5313 Q914.8125,912.7656 914.8125,913.1563 Q914.8125,913.5313 914.5469,913.7656 Q914.2813,914 913.6719,914 L908.5313,914 Q907.9219,914 907.6563,913.7656 Q907.3906,913.5313 907.3906,913.1406 Q907.3906,912.7656 907.6563,912.5313 Q907.9219,912.2969 908.5313,912.2969 L910.25,912.2969 L910.25,905.6406 L908.5313,905.6406 Q907.9219,905.6406 907.6563,905.4063 Q907.3906,905.1719 907.3906,904.7813 Q907.3906,904.4063 907.6563,904.1719 Q907.9219,903.9375 908.5313,903.9375 L913.6719,903.9375 Q914.2813,903.9375 914.5469,904.1719 Q914.8125,904.4063 914.8125,904.7813 Q914.8125,905.1719 914.5469,905.4063 Q914.2813,905.6406 913.6719,905.6406 L911.9531,905.6406 Z " fill="#000000"/><text fill="#000000" font-family="sans-serif" font-size="14" font-style="italic" lengthAdjust="spacing" textLength="87.9307" x="925" y="914.7285">PetRepository</text><line style="stroke:#181818;stroke-width:0.5;" x1="897" x2="1014.9307" y1="925" y2="925"/><line style="stroke:#181818;stroke-width:0.5;" x1="897" x2="1014.9307" y1="933" y2="933"/></g><!--class PetResource--><g class="entity" data-entity="PetResource" data-source-line="50" data-uid="ent0016" id="entity_PetResource"><rect fill="#F1F1F1" height="83.2188" rx="2.5" ry="2.5" style="stroke:#181818;stroke-width:0.5;" width="200.6855" x="23" y="826.5"/><ellipse cx="78.6274" cy="842.5" fill="#ADD1B2" rx="11" ry="11" style="stroke:#181818;stroke-width:1;"/><path d="M81.3931,838.375 Q81.5493,838.1563 81.7368,838.0469 Q81.9243,837.9375 82.1431,837.9375 Q82.5181,837.9375 82.7524,838.2031 Q82.9868,838.4531 82.9868,839.0625 L82.9868,840.5156 Q82.9868,841.125 82.7524,841.3906 Q82.5181,841.6563 82.1431,841.6563 Q81.7993,841.6563 81.5962,841.4531 Q81.3931,841.2656 81.2837,840.75 Q81.2368,840.3906 81.0493,840.2031 Q80.7212,839.8281 80.1118,839.6094 Q79.5024,839.3906 78.8774,839.3906 Q78.1118,839.3906 77.4712,839.7188 Q76.8462,840.0469 76.3462,840.7969 Q75.8618,841.5469 75.8618,842.5781 L75.8618,843.6719 Q75.8618,844.9063 76.7524,845.7344 Q77.6431,846.5469 79.2368,846.5469 Q80.1743,846.5469 80.8306,846.2969 Q81.2212,846.1406 81.6431,845.7031 Q81.9087,845.4375 82.0493,845.3594 Q82.2056,845.2813 82.4087,845.2813 Q82.7368,845.2813 82.9868,845.5469 Q83.2524,845.7969 83.2524,846.1406 Q83.2524,846.4844 82.9087,846.8906 Q82.4087,847.4688 81.6118,847.7969 Q80.5337,848.25 79.2368,848.25 Q77.7212,848.25 76.5181,847.625 Q75.5337,847.125 74.8462,846.0625 Q74.1587,844.9844 74.1587,843.7031 L74.1587,842.5469 Q74.1587,841.2188 74.7681,840.0781 Q75.3931,838.9219 76.4868,838.3125 Q77.5806,837.6875 78.8149,837.6875 Q79.5493,837.6875 80.1899,837.8594 Q80.8462,838.0156 81.3931,838.375 Z " fill="#000000"/><text fill="#000000" font-family="sans-serif" font-size="14" lengthAdjust="spacing" textLength="80.9307" x="99.1274" y="848.2285">PetResource</text><line style="stroke:#181818;stroke-width:0.5;" x1="24" x2="222.6855" y1="858.5" y2="858.5"/><text fill="#000000" font-family="sans-serif" font-size="14" lengthAdjust="spacing" textLength="149.7959" x="29" y="877.0332">+petService: PetService</text><text fill="#000000" font-family="sans-serif" font-size="14" lengthAdjust="spacing" textLength="188.6855" x="29" y="894.6426">+ownerService: OwnerService</text><line style="stroke:#181818;stroke-width:0.5;" x1="24" x2="222.6855" y1="901.7188" y2="901.7188"/></g><!--class PetType--><g class="entity" data-entity="PetType" data-source-line="54" data-uid="ent0017" id="entity_PetType"><rect fill="#F1F1F1" height="48" rx="2.5" ry="2.5" style="stroke:#181818;stroke-width:0.5;" width="84.1377" x="914" y="665"/><ellipse cx="929" cy="681" fill="#ADD1B2" rx="11" ry="11" style="stroke:#181818;stroke-width:1;"/><path d="M931.7656,676.875 Q931.9219,676.6563 932.1094,676.5469 Q932.2969,676.4375 932.5156,676.4375 Q932.8906,676.4375 933.125,676.7031 Q933.3594,676.9531 933.3594,677.5625 L933.3594,679.0156 Q933.3594,679.625 933.125,679.8906 Q932.8906,680.1563 932.5156,680.1563 Q932.1719,680.1563 931.9688,679.9531 Q931.7656,679.7656 931.6563,679.25 Q931.6094,678.8906 931.4219,678.7031 Q931.0938,678.3281 930.4844,678.1094 Q929.875,677.8906 929.25,677.8906 Q928.4844,677.8906 927.8438,678.2188 Q927.2188,678.5469 926.7188,679.2969 Q926.2344,680.0469 926.2344,681.0781 L926.2344,682.1719 Q926.2344,683.4063 927.125,684.2344 Q928.0156,685.0469 929.6094,685.0469 Q930.5469,685.0469 931.2031,684.7969 Q931.5938,684.6406 932.0156,684.2031 Q932.2813,683.9375 932.4219,683.8594 Q932.5781,683.7813 932.7813,683.7813 Q933.1094,683.7813 933.3594,684.0469 Q933.625,684.2969 933.625,684.6406 Q933.625,684.9844 933.2813,685.3906 Q932.7813,685.9688 931.9844,686.2969 Q930.9063,686.75 929.6094,686.75 Q928.0938,686.75 926.8906,686.125 Q925.9063,685.625 925.2188,684.5625 Q924.5313,683.4844 924.5313,682.2031 L924.5313,681.0469 Q924.5313,679.7188 925.1406,678.5781 Q925.7656,677.4219 926.8594,676.8125 Q927.9531,676.1875 929.1875,676.1875 Q929.9219,676.1875 930.5625,676.3594 Q931.2188,676.5156 931.7656,676.875 Z " fill="#000000"/><text fill="#000000" font-family="sans-serif" font-size="14" lengthAdjust="spacing" textLength="52.1377" x="943" y="686.7285">PetType</text><line style="stroke:#181818;stroke-width:0.5;" x1="915" x2="997.1377" y1="697" y2="697"/><line style="stroke:#181818;stroke-width:0.5;" x1="915" x2="997.1377" y1="705" y2="705"/></g><!--class PetValidator--><g class="entity" data-entity="PetValidator" data-source-line="56" data-uid="ent0018" id="entity_PetValidator"><rect fill="#F1F1F1" height="48" rx="2.5" ry="2.5" style="stroke:#181818;stroke-width:0.5;" width="108.2686" x="69.5" y="144"/><ellipse cx="84.5" cy="160" fill="#ADD1B2" rx="11" ry="11" style="stroke:#181818;stroke-width:1;"/><path d="M87.2656,155.875 Q87.4219,155.6563 87.6094,155.5469 Q87.7969,155.4375 88.0156,155.4375 Q88.3906,155.4375 88.625,155.7031 Q88.8594,155.9531 88.8594,156.5625 L88.8594,158.0156 Q88.8594,158.625 88.625,158.8906 Q88.3906,159.1563 88.0156,159.1563 Q87.6719,159.1563 87.4688,158.9531 Q87.2656,158.7656 87.1563,158.25 Q87.1094,157.8906 86.9219,157.7031 Q86.5938,157.3281 85.9844,157.1094 Q85.375,156.8906 84.75,156.8906 Q83.9844,156.8906 83.3438,157.2188 Q82.7188,157.5469 82.2188,158.2969 Q81.7344,159.0469 81.7344,160.0781 L81.7344,161.1719 Q81.7344,162.4063 82.625,163.2344 Q83.5156,164.0469 85.1094,164.0469 Q86.0469,164.0469 86.7031,163.7969 Q87.0938,163.6406 87.5156,163.2031 Q87.7813,162.9375 87.9219,162.8594 Q88.0781,162.7813 88.2813,162.7813 Q88.6094,162.7813 88.8594,163.0469 Q89.125,163.2969 89.125,163.6406 Q89.125,163.9844 88.7813,164.3906 Q88.2813,164.9688 87.4844,165.2969 Q86.4063,165.75 85.1094,165.75 Q83.5938,165.75 82.3906,165.125 Q81.4063,164.625 80.7188,163.5625 Q80.0313,162.4844 80.0313,161.2031 L80.0313,160.0469 Q80.0313,158.7188 80.6406,157.5781 Q81.2656,156.4219 82.3594,155.8125 Q83.4531,155.1875 84.6875,155.1875 Q85.4219,155.1875 86.0625,155.3594 Q86.7188,155.5156 87.2656,155.875 Z " fill="#000000"/><text fill="#000000" font-family="sans-serif" font-size="14" lengthAdjust="spacing" textLength="76.2686" x="98.5" y="165.7285">PetValidator</text><line style="stroke:#181818;stroke-width:0.5;" x1="70.5" x2="176.7686" y1="176" y2="176"/><line style="stroke:#181818;stroke-width:0.5;" x1="70.5" x2="176.7686" y1="184" y2="184"/></g><!--class Specialty--><g class="entity" data-entity="Specialty" data-source-line="58" data-uid="ent0019" id="entity_Specialty"><rect fill="#F1F1F1" height="48" rx="2.5" ry="2.5" style="stroke:#181818;stroke-width:0.5;" width="88.8066" x="661" y="750"/><ellipse cx="676" cy="766" fill="#ADD1B2" rx="11" ry="11" style="stroke:#181818;stroke-width:1;"/><path d="M678.7656,761.875 Q678.9219,761.6563 679.1094,761.5469 Q679.2969,761.4375 679.5156,761.4375 Q679.8906,761.4375 680.125,761.7031 Q680.3594,761.9531 680.3594,762.5625 L680.3594,764.0156 Q680.3594,764.625 680.125,764.8906 Q679.8906,765.1563 679.5156,765.1563 Q679.1719,765.1563 678.9688,764.9531 Q678.7656,764.7656 678.6563,764.25 Q678.6094,763.8906 678.4219,763.7031 Q678.0938,763.3281 677.4844,763.1094 Q676.875,762.8906 676.25,762.8906 Q675.4844,762.8906 674.8438,763.2188 Q674.2188,763.5469 673.7188,764.2969 Q673.2344,765.0469 673.2344,766.0781 L673.2344,767.1719 Q673.2344,768.4063 674.125,769.2344 Q675.0156,770.0469 676.6094,770.0469 Q677.5469,770.0469 678.2031,769.7969 Q678.5938,769.6406 679.0156,769.2031 Q679.2813,768.9375 679.4219,768.8594 Q679.5781,768.7813 679.7813,768.7813 Q680.1094,768.7813 680.3594,769.0469 Q680.625,769.2969 680.625,769.6406 Q680.625,769.9844 680.2813,770.3906 Q679.7813,770.9688 678.9844,771.2969 Q677.9063,771.75 676.6094,771.75 Q675.0938,771.75 673.8906,771.125 Q672.9063,770.625 672.2188,769.5625 Q671.5313,768.4844 671.5313,767.2031 L671.5313,766.0469 Q671.5313,764.7188 672.1406,763.5781 Q672.7656,762.4219 673.8594,761.8125 Q674.9531,761.1875 676.1875,761.1875 Q676.9219,761.1875 677.5625,761.3594 Q678.2188,761.5156 678.7656,761.875 Z " fill="#000000"/><text fill="#000000" font-family="sans-serif" font-size="14" lengthAdjust="spacing" textLength="56.8066" x="690" y="771.7285">Specialty</text><line style="stroke:#181818;stroke-width:0.5;" x1="662" x2="748.8066" y1="782" y2="782"/><line style="stroke:#181818;stroke-width:0.5;" x1="662" x2="748.8066" y1="790" y2="790"/></g><!--class Vet--><g class="entity" data-entity="Vet" data-source-line="60" data-uid="ent0020" id="entity_Vet"><rect fill="#F1F1F1" height="65.6094" rx="2.5" ry="2.5" style="stroke:#181818;stroke-width:0.5;" width="114.334" x="648.5" y="475"/><ellipse cx="691.0941" cy="491" fill="#ADD1B2" rx="11" ry="11" style="stroke:#181818;stroke-width:1;"/><path d="M693.8598,486.875 Q694.016,486.6563 694.2035,486.5469 Q694.391,486.4375 694.6098,486.4375 Q694.9848,486.4375 695.2191,486.7031 Q695.4535,486.9531 695.4535,487.5625 L695.4535,489.0156 Q695.4535,489.625 695.2191,489.8906 Q694.9848,490.1563 694.6098,490.1563 Q694.266,490.1563 694.0629,489.9531 Q693.8598,489.7656 693.7504,489.25 Q693.7035,488.8906 693.516,488.7031 Q693.1879,488.3281 692.5785,488.1094 Q691.9691,487.8906 691.3441,487.8906 Q690.5785,487.8906 689.9379,488.2188 Q689.3129,488.5469 688.8129,489.2969 Q688.3285,490.0469 688.3285,491.0781 L688.3285,492.1719 Q688.3285,493.4063 689.2191,494.2344 Q690.1098,495.0469 691.7035,495.0469 Q692.641,495.0469 693.2973,494.7969 Q693.6879,494.6406 694.1098,494.2031 Q694.3754,493.9375 694.516,493.8594 Q694.6723,493.7813 694.8754,493.7813 Q695.2035,493.7813 695.4535,494.0469 Q695.7191,494.2969 695.7191,494.6406 Q695.7191,494.9844 695.3754,495.3906 Q694.8754,495.9688 694.0785,496.2969 Q693.0004,496.75 691.7035,496.75 Q690.1879,496.75 688.9848,496.125 Q688.0004,495.625 687.3129,494.5625 Q686.6254,493.4844 686.6254,492.2031 L686.6254,491.0469 Q686.6254,489.7188 687.2348,488.5781 Q687.8598,487.4219 688.9535,486.8125 Q690.0473,486.1875 691.2816,486.1875 Q692.016,486.1875 692.6566,486.3594 Q693.3129,486.5156 693.8598,486.875 Z " fill="#000000"/><text fill="#000000" font-family="sans-serif" font-size="14" lengthAdjust="spacing" textLength="21.0137" x="711.2262" y="496.7285">Vet</text><line style="stroke:#181818;stroke-width:0.5;" x1="649.5" x2="761.834" y1="507" y2="507"/><text fill="#000000" font-family="sans-serif" font-size="14" lengthAdjust="spacing" textLength="102.334" x="654.5" y="525.5332">+specialties: Set</text><line style="stroke:#181818;stroke-width:0.5;" x1="649.5" x2="761.834" y1="532.6094" y2="532.6094"/></g><!--class VetRepository--><g class="entity" data-entity="VetRepository" data-source-line="63" data-uid="ent0021" id="entity_VetRepository"><rect fill="#F1F1F1" height="48" rx="2.5" ry="2.5" style="stroke:#181818;stroke-width:0.5;" width="119.9307" x="896" y="1133"/><ellipse cx="911" cy="1149" fill="#B4A7E5" rx="11" ry="11" style="stroke:#181818;stroke-width:1;"/><path d="M911.9531,1145.6406 L911.9531,1152.2969 L913.6719,1152.2969 Q914.2813,1152.2969 914.5469,1152.5313 Q914.8125,1152.7656 914.8125,1153.1563 Q914.8125,1153.5313 914.5469,1153.7656 Q914.2813,1154 913.6719,1154 L908.5313,1154 Q907.9219,1154 907.6563,1153.7656 Q907.3906,1153.5313 907.3906,1153.1406 Q907.3906,1152.7656 907.6563,1152.5313 Q907.9219,1152.2969 908.5313,1152.2969 L910.25,1152.2969 L910.25,1145.6406 L908.5313,1145.6406 Q907.9219,1145.6406 907.6563,1145.4063 Q907.3906,1145.1719 907.3906,1144.7813 Q907.3906,1144.4063 907.6563,1144.1719 Q907.9219,1143.9375 908.5313,1143.9375 L913.6719,1143.9375 Q914.2813,1143.9375 914.5469,1144.1719 Q914.8125,1144.4063 914.8125,1144.7813 Q914.8125,1145.1719 914.5469,1145.4063 Q914.2813,1145.6406 913.6719,1145.6406 L911.9531,1145.6406 Z " fill="#000000"/><text fill="#000000" font-family="sans-serif" font-size="14" font-style="italic" lengthAdjust="spacing" textLength="87.9307" x="925" y="1154.7285">VetRepository</text><line style="stroke:#181818;stroke-width:0.5;" x1="897" x2="1014.9307" y1="1165" y2="1165"/><line style="stroke:#181818;stroke-width:0.5;" x1="897" x2="1014.9307" y1="1173" y2="1173"/></g><!--class VetResource--><g class="entity" data-entity="VetResource" data-source-line="65" data-uid="ent0022" id="entity_VetResource"><rect fill="#F1F1F1" height="65.6094" rx="2.5" ry="2.5" style="stroke:#181818;stroke-width:0.5;" width="161.0098" x="43" y="1157"/><ellipse cx="79.6356" cy="1173" fill="#ADD1B2" rx="11" ry="11" style="stroke:#181818;stroke-width:1;"/><path d="M82.4012,1168.875 Q82.5575,1168.6563 82.745,1168.5469 Q82.9325,1168.4375 83.1512,1168.4375 Q83.5262,1168.4375 83.7606,1168.7031 Q83.995,1168.9531 83.995,1169.5625 L83.995,1171.0156 Q83.995,1171.625 83.7606,1171.8906 Q83.5262,1172.1563 83.1512,1172.1563 Q82.8075,1172.1563 82.6043,1171.9531 Q82.4012,1171.7656 82.2918,1171.25 Q82.245,1170.8906 82.0575,1170.7031 Q81.7293,1170.3281 81.12,1170.1094 Q80.5106,1169.8906 79.8856,1169.8906 Q79.12,1169.8906 78.4793,1170.2188 Q77.8543,1170.5469 77.3543,1171.2969 Q76.87,1172.0469 76.87,1173.0781 L76.87,1174.1719 Q76.87,1175.4063 77.7606,1176.2344 Q78.6512,1177.0469 80.245,1177.0469 Q81.1825,1177.0469 81.8387,1176.7969 Q82.2293,1176.6406 82.6512,1176.2031 Q82.9168,1175.9375 83.0575,1175.8594 Q83.2137,1175.7813 83.4168,1175.7813 Q83.745,1175.7813 83.995,1176.0469 Q84.2606,1176.2969 84.2606,1176.6406 Q84.2606,1176.9844 83.9168,1177.3906 Q83.4168,1177.9688 82.62,1178.2969 Q81.5418,1178.75 80.245,1178.75 Q78.7293,1178.75 77.5262,1178.125 Q76.5418,1177.625 75.8543,1176.5625 Q75.1668,1175.4844 75.1668,1174.2031 L75.1668,1173.0469 Q75.1668,1171.7188 75.7762,1170.5781 Q76.4012,1169.4219 77.495,1168.8125 Q78.5887,1168.1875 79.8231,1168.1875 Q80.5575,1168.1875 81.1981,1168.3594 Q81.8543,1168.5156 82.4012,1168.875 Z " fill="#000000"/><text fill="#000000" font-family="sans-serif" font-size="14" lengthAdjust="spacing" textLength="80.9307" x="98.4435" y="1178.7285">VetResource</text><line style="stroke:#181818;stroke-width:0.5;" x1="44" x2="203.0098" y1="1189" y2="1189"/><text fill="#000000" font-family="sans-serif" font-size="14" lengthAdjust="spacing" textLength="149.0098" x="49" y="1207.5332">+vetService: VetService</text><line style="stroke:#181818;stroke-width:0.5;" x1="44" x2="203.0098" y1="1214.6094" y2="1214.6094"/></g><!--class Vets--><g class="entity" data-entity="Vets" data-source-line="68" data-uid="ent0023" id="entity_Vets"><rect fill="#F1F1F1" height="65.6094" rx="2.5" ry="2.5" style="stroke:#181818;stroke-width:0.5;" width="75.417" x="86" y="43"/><ellipse cx="107.9315" cy="59" fill="#ADD1B2" rx="11" ry="11" style="stroke:#181818;stroke-width:1;"/><path d="M110.6971,54.875 Q110.8534,54.6563 111.0409,54.5469 Q111.2284,54.4375 111.4471,54.4375 Q111.8221,54.4375 112.0565,54.7031 Q112.2909,54.9531 112.2909,55.5625 L112.2909,57.0156 Q112.2909,57.625 112.0565,57.8906 Q111.8221,58.1563 111.4471,58.1563 Q111.1034,58.1563 110.9002,57.9531 Q110.6971,57.7656 110.5877,57.25 Q110.5409,56.8906 110.3534,56.7031 Q110.0252,56.3281 109.4159,56.1094 Q108.8065,55.8906 108.1815,55.8906 Q107.4159,55.8906 106.7752,56.2188 Q106.1502,56.5469 105.6502,57.2969 Q105.1659,58.0469 105.1659,59.0781 L105.1659,60.1719 Q105.1659,61.4063 106.0565,62.2344 Q106.9471,63.0469 108.5409,63.0469 Q109.4784,63.0469 110.1346,62.7969 Q110.5252,62.6406 110.9471,62.2031 Q111.2127,61.9375 111.3534,61.8594 Q111.5096,61.7813 111.7127,61.7813 Q112.0409,61.7813 112.2909,62.0469 Q112.5565,62.2969 112.5565,62.6406 Q112.5565,62.9844 112.2127,63.3906 Q111.7127,63.9688 110.9159,64.2969 Q109.8377,64.75 108.5409,64.75 Q107.0252,64.75 105.8221,64.125 Q104.8377,63.625 104.1502,62.5625 Q103.4627,61.4844 103.4627,60.2031 L103.4627,59.0469 Q103.4627,57.7188 104.0721,56.5781 Q104.6971,55.4219 105.7909,54.8125 Q106.8846,54.1875 108.119,54.1875 Q108.8534,54.1875 109.494,54.3594 Q110.1502,54.5156 110.6971,54.875 Z " fill="#000000"/><text fill="#000000" font-family="sans-serif" font-size="14" lengthAdjust="spacing" textLength="28.0137" x="123.4718" y="64.7285">Vets</text><line style="stroke:#181818;stroke-width:0.5;" x1="87" x2="160.417" y1="75" y2="75"/><text fill="#000000" font-family="sans-serif" font-size="14" lengthAdjust="spacing" textLength="63.417" x="92" y="93.5332">+vets: List</text><line style="stroke:#181818;stroke-width:0.5;" x1="87" x2="160.417" y1="100.6094" y2="100.6094"/></g><!--class Visit--><g class="entity" data-entity="Visit" data-source-line="71" data-uid="ent0024" id="entity_Visit"><rect fill="#F1F1F1" height="100.8281" rx="2.5" ry="2.5" style="stroke:#181818;stroke-width:0.5;" width="132.2305" x="338.5" y="571.5"/><ellipse cx="387.1411" cy="587.5" fill="#ADD1B2" rx="11" ry="11" style="stroke:#181818;stroke-width:1;"/><path d="M389.9067,583.375 Q390.063,583.1563 390.2505,583.0469 Q390.438,582.9375 390.6567,582.9375 Q391.0317,582.9375 391.2661,583.2031 Q391.5005,583.4531 391.5005,584.0625 L391.5005,585.5156 Q391.5005,586.125 391.2661,586.3906 Q391.0317,586.6563 390.6567,586.6563 Q390.313,586.6563 390.1099,586.4531 Q389.9067,586.2656 389.7974,585.75 Q389.7505,585.3906 389.563,585.2031 Q389.2349,584.8281 388.6255,584.6094 Q388.0161,584.3906 387.3911,584.3906 Q386.6255,584.3906 385.9849,584.7188 Q385.3599,585.0469 384.8599,585.7969 Q384.3755,586.5469 384.3755,587.5781 L384.3755,588.6719 Q384.3755,589.9063 385.2661,590.7344 Q386.1567,591.5469 387.7505,591.5469 Q388.688,591.5469 389.3442,591.2969 Q389.7349,591.1406 390.1567,590.7031 Q390.4224,590.4375 390.563,590.3594 Q390.7192,590.2813 390.9224,590.2813 Q391.2505,590.2813 391.5005,590.5469 Q391.7661,590.7969 391.7661,591.1406 Q391.7661,591.4844 391.4224,591.8906 Q390.9224,592.4688 390.1255,592.7969 Q389.0474,593.25 387.7505,593.25 Q386.2349,593.25 385.0317,592.625 Q384.0474,592.125 383.3599,591.0625 Q382.6724,589.9844 382.6724,588.7031 L382.6724,587.5469 Q382.6724,586.2188 383.2817,585.0781 Q383.9067,583.9219 385.0005,583.3125 Q386.0942,582.6875 387.3286,582.6875 Q388.063,582.6875 388.7036,582.8594 Q389.3599,583.0156 389.9067,583.375 Z " fill="#000000"/><text fill="#000000" font-family="sans-serif" font-size="14" lengthAdjust="spacing" textLength="26.4482" x="407.6411" y="593.2285">Visit</text><line style="stroke:#181818;stroke-width:0.5;" x1="339.5" x2="469.7305" y1="603.5" y2="603.5"/><text fill="#000000" font-family="sans-serif" font-size="14" lengthAdjust="spacing" textLength="72.7754" x="344.5" y="622.0332">+date: Date</text><text fill="#000000" font-family="sans-serif" font-size="14" lengthAdjust="spacing" textLength="120.2305" x="344.5" y="639.6426">+description: String</text><text fill="#000000" font-family="sans-serif" font-size="14" lengthAdjust="spacing" textLength="61.8789" x="344.5" y="657.252">+petId: int</text><line style="stroke:#181818;stroke-width:0.5;" x1="339.5" x2="469.7305" y1="664.3281" y2="664.3281"/></g><!--class VisitRepository--><g class="entity" data-entity="VisitRepository" data-source-line="76" data-uid="ent0025" id="entity_VisitRepository"><rect fill="#F1F1F1" height="48" rx="2.5" ry="2.5" style="stroke:#181818;stroke-width:0.5;" width="125.3652" x="893.5" y="1244"/><ellipse cx="908.5" cy="1260" fill="#B4A7E5" rx="11" ry="11" style="stroke:#181818;stroke-width:1;"/><path d="M909.4531,1256.6406 L909.4531,1263.2969 L911.1719,1263.2969 Q911.7813,1263.2969 912.0469,1263.5313 Q912.3125,1263.7656 912.3125,1264.1563 Q912.3125,1264.5313 912.0469,1264.7656 Q911.7813,1265 911.1719,1265 L906.0313,1265 Q905.4219,1265 905.1563,1264.7656 Q904.8906,1264.5313 904.8906,1264.1406 Q904.8906,1263.7656 905.1563,1263.5313 Q905.4219,1263.2969 906.0313,1263.2969 L907.75,1263.2969 L907.75,1256.6406 L906.0313,1256.6406 Q905.4219,1256.6406 905.1563,1256.4063 Q904.8906,1256.1719 904.8906,1255.7813 Q904.8906,1255.4063 905.1563,1255.1719 Q905.4219,1254.9375 906.0313,1254.9375 L911.1719,1254.9375 Q911.7813,1254.9375 912.0469,1255.1719 Q912.3125,1255.4063 912.3125,1255.7813 Q912.3125,1256.1719 912.0469,1256.4063 Q911.7813,1256.6406 911.1719,1256.6406 L909.4531,1256.6406 Z " fill="#000000"/><text fill="#000000" font-family="sans-serif" font-size="14" font-style="italic" lengthAdjust="spacing" textLength="93.3652" x="922.5" y="1265.7285">VisitRepository</text><line style="stroke:#181818;stroke-width:0.5;" x1="894.5" x2="1017.8652" y1="1276" y2="1276"/><line style="stroke:#181818;stroke-width:0.5;" x1="894.5" x2="1017.8652" y1="1284" y2="1284"/></g><!--class AbstractResourceController--><g class="entity" data-entity="AbstractResourceController" data-source-line="78" data-uid="ent0026" id="entity_AbstractResourceController"><rect fill="#90EE90" height="58.7031" rx="2.5" ry="2.5" style="stroke:#181818;stroke-width:0.5;" width="203.958" x="302.5" y="353.5"/><ellipse cx="317.5" cy="374.8516" fill="#ADD1B2" rx="11" ry="11" style="stroke:#181818;stroke-width:1;"/><path d="M320.2656,370.7266 Q320.4219,370.5078 320.6094,370.3984 Q320.7969,370.2891 321.0156,370.2891 Q321.3906,370.2891 321.625,370.5547 Q321.8594,370.8047 321.8594,371.4141 L321.8594,372.8672 Q321.8594,373.4766 321.625,373.7422 Q321.3906,374.0078 321.0156,374.0078 Q320.6719,374.0078 320.4688,373.8047 Q320.2656,373.6172 320.1563,373.1016 Q320.1094,372.7422 319.9219,372.5547 Q319.5938,372.1797 318.9844,371.9609 Q318.375,371.7422 317.75,371.7422 Q316.9844,371.7422 316.3438,372.0703 Q315.7188,372.3984 315.2188,373.1484 Q314.7344,373.8984 314.7344,374.9297 L314.7344,376.0234 Q314.7344,377.2578 315.625,378.0859 Q316.5156,378.8984 318.1094,378.8984 Q319.0469,378.8984 319.7031,378.6484 Q320.0938,378.4922 320.5156,378.0547 Q320.7813,377.7891 320.9219,377.7109 Q321.0781,377.6328 321.2813,377.6328 Q321.6094,377.6328 321.8594,377.8984 Q322.125,378.1484 322.125,378.4922 Q322.125,378.8359 321.7813,379.2422 Q321.2813,379.8203 320.4844,380.1484 Q319.4063,380.6016 318.1094,380.6016 Q316.5938,380.6016 315.3906,379.9766 Q314.4063,379.4766 313.7188,378.4141 Q313.0313,377.3359 313.0313,376.0547 L313.0313,374.8984 Q313.0313,373.5703 313.6406,372.4297 Q314.2656,371.2734 315.3594,370.6641 Q316.4531,370.0391 317.6875,370.0391 Q318.4219,370.0391 319.0625,370.2109 Q319.7188,370.3672 320.2656,370.7266 Z " fill="#000000"/><text fill="#000000" font-family="sans-serif" font-size="12" font-style="italic" lengthAdjust="spacing" textLength="55.3535" x="389.8022" y="370.957">&#171;ADDED&#187;</text><text fill="#000000" font-family="sans-serif" font-size="14" lengthAdjust="spacing" textLength="171.958" x="331.5" y="388.127">AbstractResourceController</text><line style="stroke:#181818;stroke-width:0.5;" x1="303.5" x2="505.458" y1="396.2031" y2="396.2031"/><line style="stroke:#181818;stroke-width:0.5;" x1="303.5" x2="505.458" y1="404.2031" y2="404.2031"/></g><!--class CacheConfig--><g class="entity" data-entity="CacheConfig" data-source-line="80" data-uid="ent0027" id="entity_CacheConfig"><rect fill="#90EE90" height="58.7031" rx="2.5" ry="2.5" style="stroke:#181818;stroke-width:0.5;" width="112.9375" x="348" y="259.5"/><ellipse cx="363" cy="280.8516" fill="#ADD1B2" rx="11" ry="11" style="stroke:#181818;stroke-width:1;"/><path d="M365.7656,276.7266 Q365.9219,276.5078 366.1094,276.3984 Q366.2969,276.2891 366.5156,276.2891 Q366.8906,276.2891 367.125,276.5547 Q367.3594,276.8047 367.3594,277.4141 L367.3594,278.8672 Q367.3594,279.4766 367.125,279.7422 Q366.8906,280.0078 366.5156,280.0078 Q366.1719,280.0078 365.9688,279.8047 Q365.7656,279.6172 365.6563,279.1016 Q365.6094,278.7422 365.4219,278.5547 Q365.0938,278.1797 364.4844,277.9609 Q363.875,277.7422 363.25,277.7422 Q362.4844,277.7422 361.8438,278.0703 Q361.2188,278.3984 360.7188,279.1484 Q360.2344,279.8984 360.2344,280.9297 L360.2344,282.0234 Q360.2344,283.2578 361.125,284.0859 Q362.0156,284.8984 363.6094,284.8984 Q364.5469,284.8984 365.2031,284.6484 Q365.5938,284.4922 366.0156,284.0547 Q366.2813,283.7891 366.4219,283.7109 Q366.5781,283.6328 366.7813,283.6328 Q367.1094,283.6328 367.3594,283.8984 Q367.625,284.1484 367.625,284.4922 Q367.625,284.8359 367.2813,285.2422 Q366.7813,285.8203 365.9844,286.1484 Q364.9063,286.6016 363.6094,286.6016 Q362.0938,286.6016 360.8906,285.9766 Q359.9063,285.4766 359.2188,284.4141 Q358.5313,283.3359 358.5313,282.0547 L358.5313,280.8984 Q358.5313,279.5703 359.1406,278.4297 Q359.7656,277.2734 360.8594,276.6641 Q361.9531,276.0391 363.1875,276.0391 Q363.9219,276.0391 364.5625,276.2109 Q365.2188,276.3672 365.7656,276.7266 Z " fill="#000000"/><text fill="#000000" font-family="sans-serif" font-size="12" font-style="italic" lengthAdjust="spacing" textLength="55.3535" x="389.792" y="276.957">&#171;ADDED&#187;</text><text fill="#000000" font-family="sans-serif" font-size="14" lengthAdjust="spacing" textLength="80.9375" x="377" y="294.127">CacheConfig</text><line style="stroke:#181818;stroke-width:0.5;" x1="349" x2="459.9375" y1="302.2031" y2="302.2031"/><line style="stroke:#181818;stroke-width:0.5;" x1="349" x2="459.9375" y1="310.2031" y2="310.2031"/></g><!--class ClientsServiceApplication--><g class="entity" data-entity="ClientsServiceApplication" data-source-line="82" data-uid="ent0028" id="entity_ClientsServiceApplication"><rect fill="#90EE90" height="58.7031" rx="2.5" ry="2.5" style="stroke:#181818;stroke-width:0.5;" width="189.9648" x="309.5" y="165.5"/><ellipse cx="324.5" cy="186.8516" fill="#ADD1B2" rx="11" ry="11" style="stroke:#181818;stroke-width:1;"/><path d="M327.2656,182.7266 Q327.4219,182.5078 327.6094,182.3984 Q327.7969,182.2891 328.0156,182.2891 Q328.3906,182.2891 328.625,182.5547 Q328.8594,182.8047 328.8594,183.4141 L328.8594,184.8672 Q328.8594,185.4766 328.625,185.7422 Q328.3906,186.0078 328.0156,186.0078 Q327.6719,186.0078 327.4688,185.8047 Q327.2656,185.6172 327.1563,185.1016 Q327.1094,184.7422 326.9219,184.5547 Q326.5938,184.1797 325.9844,183.9609 Q325.375,183.7422 324.75,183.7422 Q323.9844,183.7422 323.3438,184.0703 Q322.7188,184.3984 322.2188,185.1484 Q321.7344,185.8984 321.7344,186.9297 L321.7344,188.0234 Q321.7344,189.2578 322.625,190.0859 Q323.5156,190.8984 325.1094,190.8984 Q326.0469,190.8984 326.7031,190.6484 Q327.0938,190.4922 327.5156,190.0547 Q327.7813,189.7891 327.9219,189.7109 Q328.0781,189.6328 328.2813,189.6328 Q328.6094,189.6328 328.8594,189.8984 Q329.125,190.1484 329.125,190.4922 Q329.125,190.8359 328.7813,191.2422 Q328.2813,191.8203 327.4844,192.1484 Q326.4063,192.6016 325.1094,192.6016 Q323.5938,192.6016 322.3906,191.9766 Q321.4063,191.4766 320.7188,190.4141 Q320.0313,189.3359 320.0313,188.0547 L320.0313,186.8984 Q320.0313,185.5703 320.6406,184.4297 Q321.2656,183.2734 322.3594,182.6641 Q323.4531,182.0391 324.6875,182.0391 Q325.4219,182.0391 326.0625,182.2109 Q326.7188,182.3672 327.2656,182.7266 Z " fill="#000000"/><text fill="#000000" font-family="sans-serif" font-size="12" font-style="italic" lengthAdjust="spacing" textLength="55.3535" x="389.8057" y="182.957">&#171;ADDED&#187;</text><text fill="#000000" font-family="sans-serif" font-size="14" lengthAdjust="spacing" textLength="157.9648" x="338.5" y="200.127">ClientsServiceApplication</text><line style="stroke:#181818;stroke-width:0.5;" x1="310.5" x2="498.4648" y1="208.2031" y2="208.2031"/><line style="stroke:#181818;stroke-width:0.5;" x1="310.5" x2="498.4648" y1="216.2031" y2="216.2031"/></g><!--class ConfigServerApplication--><g class="entity" data-entity="ConfigServerApplication" data-source-line="84" data-uid="ent0029" id="entity_ConfigServerApplication"><rect fill="#90EE90" height="58.7031" rx="2.5" ry="2.5" style="stroke:#181818;stroke-width:0.5;" width="182.1924" x="313.5" y="71.5"/><ellipse cx="328.5" cy="92.8516" fill="#ADD1B2" rx="11" ry="11" style="stroke:#181818;stroke-width:1;"/><path d="M331.2656,88.7266 Q331.4219,88.5078 331.6094,88.3984 Q331.7969,88.2891 332.0156,88.2891 Q332.3906,88.2891 332.625,88.5547 Q332.8594,88.8047 332.8594,89.4141 L332.8594,90.8672 Q332.8594,91.4766 332.625,91.7422 Q332.3906,92.0078 332.0156,92.0078 Q331.6719,92.0078 331.4688,91.8047 Q331.2656,91.6172 331.1563,91.1016 Q331.1094,90.7422 330.9219,90.5547 Q330.5938,90.1797 329.9844,89.9609 Q329.375,89.7422 328.75,89.7422 Q327.9844,89.7422 327.3438,90.0703 Q326.7188,90.3984 326.2188,91.1484 Q325.7344,91.8984 325.7344,92.9297 L325.7344,94.0234 Q325.7344,95.2578 326.625,96.0859 Q327.5156,96.8984 329.1094,96.8984 Q330.0469,96.8984 330.7031,96.6484 Q331.0938,96.4922 331.5156,96.0547 Q331.7813,95.7891 331.9219,95.7109 Q332.0781,95.6328 332.2813,95.6328 Q332.6094,95.6328 332.8594,95.8984 Q333.125,96.1484 333.125,96.4922 Q333.125,96.8359 332.7813,97.2422 Q332.2813,97.8203 331.4844,98.1484 Q330.4063,98.6016 329.1094,98.6016 Q327.5938,98.6016 326.3906,97.9766 Q325.4063,97.4766 324.7188,96.4141 Q324.0313,95.3359 324.0313,94.0547 L324.0313,92.8984 Q324.0313,91.5703 324.6406,90.4297 Q325.2656,89.2734 326.3594,88.6641 Q327.4531,88.0391 328.6875,88.0391 Q329.4219,88.0391 330.0625,88.2109 Q330.7188,88.3672 331.2656,88.7266 Z " fill="#000000"/><text fill="#000000" font-family="sans-serif" font-size="12" font-style="italic" lengthAdjust="spacing" textLength="55.3535" x="389.9194" y="88.957">&#171;ADDED&#187;</text><text fill="#000000" font-family="sans-serif" font-size="14" lengthAdjust="spacing" textLength="150.1924" x="342.5" y="106.127">ConfigServerApplication</text><line style="stroke:#181818;stroke-width:0.5;" x1="314.5" x2="494.6924" y1="114.2031" y2="114.2031"/><line style="stroke:#181818;stroke-width:0.5;" x1="314.5" x2="494.6924" y1="122.2031" y2="122.2031"/></g><!--class DiscoveryServerApplication--><g class="entity" data-entity="DiscoveryServerApplication" data-source-line="86" data-uid="ent0030" id="entity_DiscoveryServerApplication"><rect fill="#90EE90" height="58.7031" rx="2.5" ry="2.5" style="stroke:#181818;stroke-width:0.5;" width="203.1787" x="604" y="343.5"/><ellipse cx="619" cy="364.8516" fill="#ADD1B2" rx="11" ry="11" style="stroke:#181818;stroke-width:1;"/><path d="M621.7656,360.7266 Q621.9219,360.5078 622.1094,360.3984 Q622.2969,360.2891 622.5156,360.2891 Q622.8906,360.2891 623.125,360.5547 Q623.3594,360.8047 623.3594,361.4141 L623.3594,362.8672 Q623.3594,363.4766 623.125,363.7422 Q622.8906,364.0078 622.5156,364.0078 Q622.1719,364.0078 621.9688,363.8047 Q621.7656,363.6172 621.6563,363.1016 Q621.6094,362.7422 621.4219,362.5547 Q621.0938,362.1797 620.4844,361.9609 Q619.875,361.7422 619.25,361.7422 Q618.4844,361.7422 617.8438,362.0703 Q617.2188,362.3984 616.7188,363.1484 Q616.2344,363.8984 616.2344,364.9297 L616.2344,366.0234 Q616.2344,367.2578 617.125,368.0859 Q618.0156,368.8984 619.6094,368.8984 Q620.5469,368.8984 621.2031,368.6484 Q621.5938,368.4922 622.0156,368.0547 Q622.2813,367.7891 622.4219,367.7109 Q622.5781,367.6328 622.7813,367.6328 Q623.1094,367.6328 623.3594,367.8984 Q623.625,368.1484 623.625,368.4922 Q623.625,368.8359 623.2813,369.2422 Q622.7813,369.8203 621.9844,370.1484 Q620.9063,370.6016 619.6094,370.6016 Q618.0938,370.6016 616.8906,369.9766 Q615.9063,369.4766 615.2188,368.4141 Q614.5313,367.3359 614.5313,366.0547 L614.5313,364.8984 Q614.5313,363.5703 615.1406,362.4297 Q615.7656,361.2734 616.8594,360.6641 Q617.9531,360.0391 619.1875,360.0391 Q619.9219,360.0391 620.5625,360.2109 Q621.2188,360.3672 621.7656,360.7266 Z " fill="#000000"/><text fill="#000000" font-family="sans-serif" font-size="12" font-style="italic" lengthAdjust="spacing" textLength="55.3535" x="690.9126" y="360.957">&#171;ADDED&#187;</text><text fill="#000000" font-family="sans-serif" font-size="14" lengthAdjust="spacing" textLength="171.1787" x="633" y="378.127">DiscoveryServerApplication</text><line style="stroke:#181818;stroke-width:0.5;" x1="605" x2="806.1787" y1="386.2031" y2="386.2031"/><line style="stroke:#181818;stroke-width:0.5;" x1="605" x2="806.1787" y1="394.2031" y2="394.2031"/></g><!--class OwnerService--><g class="entity" data-entity="OwnerService" data-source-line="88" data-uid="ent0031" id="entity_OwnerService"><rect fill="#90EE90" height="76.3125" rx="2.5" ry="2.5" style="stroke:#181818;stroke-width:0.5;" width="241.1543" x="284" y="906"/><ellipse cx="356.3687" cy="927.3516" fill="#ADD1B2" rx="11" ry="11" style="stroke:#181818;stroke-width:1;"/><path d="M359.1343,923.2266 Q359.2905,923.0078 359.478,922.8984 Q359.6655,922.7891 359.8843,922.7891 Q360.2593,922.7891 360.4937,923.0547 Q360.728,923.3047 360.728,923.9141 L360.728,925.3672 Q360.728,925.9766 360.4937,926.2422 Q360.2593,926.5078 359.8843,926.5078 Q359.5405,926.5078 359.3374,926.3047 Q359.1343,926.1172 359.0249,925.6016 Q358.978,925.2422 358.7905,925.0547 Q358.4624,924.6797 357.853,924.4609 Q357.2437,924.2422 356.6187,924.2422 Q355.853,924.2422 355.2124,924.5703 Q354.5874,924.8984 354.0874,925.6484 Q353.603,926.3984 353.603,927.4297 L353.603,928.5234 Q353.603,929.7578 354.4937,930.5859 Q355.3843,931.3984 356.978,931.3984 Q357.9155,931.3984 358.5718,931.1484 Q358.9624,930.9922 359.3843,930.5547 Q359.6499,930.2891 359.7905,930.2109 Q359.9468,930.1328 360.1499,930.1328 Q360.478,930.1328 360.728,930.3984 Q360.9937,930.6484 360.9937,930.9922 Q360.9937,931.3359 360.6499,931.7422 Q360.1499,932.3203 359.353,932.6484 Q358.2749,933.1016 356.978,933.1016 Q355.4624,933.1016 354.2593,932.4766 Q353.2749,931.9766 352.5874,930.9141 Q351.8999,929.8359 351.8999,928.5547 L351.8999,927.3984 Q351.8999,926.0703 352.5093,924.9297 Q353.1343,923.7734 354.228,923.1641 Q355.3218,922.5391 356.5562,922.5391 Q357.2905,922.5391 357.9312,922.7109 Q358.5874,922.8672 359.1343,923.2266 Z " fill="#000000"/><text fill="#000000" font-family="sans-serif" font-size="12" font-style="italic" lengthAdjust="spacing" textLength="55.3535" x="393.1504" y="923.457">&#171;ADDED&#187;</text><text fill="#000000" font-family="sans-serif" font-size="14" lengthAdjust="spacing" textLength="87.917" x="376.8687" y="940.627">OwnerService</text><line style="stroke:#181818;stroke-width:0.5;" x1="285" x2="524.1543" y1="948.7031" y2="948.7031"/><text fill="#000000" font-family="sans-serif" font-size="14" lengthAdjust="spacing" textLength="229.1543" x="290" y="967.2363">+ownerRepository: OwnerRepository</text><line style="stroke:#181818;stroke-width:0.5;" x1="285" x2="524.1543" y1="974.3125" y2="974.3125"/></g><!--class PetService--><g class="entity" data-entity="PetService" data-source-line="91" data-uid="ent0032" id="entity_PetService"><rect fill="#90EE90" height="76.3125" rx="2.5" ry="2.5" style="stroke:#181818;stroke-width:0.5;" width="202.2646" x="604.5" y="833"/><ellipse cx="667.5342" cy="854.3516" fill="#ADD1B2" rx="11" ry="11" style="stroke:#181818;stroke-width:1;"/><path d="M670.2998,850.2266 Q670.4561,850.0078 670.6436,849.8984 Q670.8311,849.7891 671.0498,849.7891 Q671.4248,849.7891 671.6592,850.0547 Q671.8936,850.3047 671.8936,850.9141 L671.8936,852.3672 Q671.8936,852.9766 671.6592,853.2422 Q671.4248,853.5078 671.0498,853.5078 Q670.7061,853.5078 670.5029,853.3047 Q670.2998,853.1172 670.1904,852.6016 Q670.1436,852.2422 669.9561,852.0547 Q669.6279,851.6797 669.0186,851.4609 Q668.4092,851.2422 667.7842,851.2422 Q667.0186,851.2422 666.3779,851.5703 Q665.7529,851.8984 665.2529,852.6484 Q664.7686,853.3984 664.7686,854.4297 L664.7686,855.5234 Q664.7686,856.7578 665.6592,857.5859 Q666.5498,858.3984 668.1436,858.3984 Q669.0811,858.3984 669.7373,858.1484 Q670.1279,857.9922 670.5498,857.5547 Q670.8154,857.2891 670.9561,857.2109 Q671.1123,857.1328 671.3154,857.1328 Q671.6436,857.1328 671.8936,857.3984 Q672.1592,857.6484 672.1592,857.9922 Q672.1592,858.3359 671.8154,858.7422 Q671.3154,859.3203 670.5186,859.6484 Q669.4404,860.1016 668.1436,860.1016 Q666.6279,860.1016 665.4248,859.4766 Q664.4404,858.9766 663.7529,857.9141 Q663.0654,856.8359 663.0654,855.5547 L663.0654,854.3984 Q663.0654,853.0703 663.6748,851.9297 Q664.2998,850.7734 665.3936,850.1641 Q666.4873,849.5391 667.7217,849.5391 Q668.4561,849.5391 669.0967,849.7109 Q669.7529,849.8672 670.2998,850.2266 Z " fill="#000000"/><text fill="#000000" font-family="sans-serif" font-size="12" font-style="italic" lengthAdjust="spacing" textLength="55.3535" x="694.2056" y="850.457">&#171;ADDED&#187;</text><text fill="#000000" font-family="sans-serif" font-size="14" lengthAdjust="spacing" textLength="67.6963" x="688.0342" y="867.627">PetService</text><line style="stroke:#181818;stroke-width:0.5;" x1="605.5" x2="805.7646" y1="875.7031" y2="875.7031"/><text fill="#000000" font-family="sans-serif" font-size="14" lengthAdjust="spacing" textLength="190.2646" x="610.5" y="894.2363">+petRepository: PetRepository</text><line style="stroke:#181818;stroke-width:0.5;" x1="605.5" x2="805.7646" y1="901.3125" y2="901.3125"/></g><!--class PetclinicProperties--><g class="entity" data-entity="PetclinicProperties" data-source-line="94" data-uid="ent0033" id="entity_PetclinicProperties"><rect fill="#90EE90" height="76.3125" rx="2.5" ry="2.5" style="stroke:#181818;stroke-width:0.5;" width="147.9375" x="631.5" y="232"/><ellipse cx="646.5" cy="253.3516" fill="#ADD1B2" rx="11" ry="11" style="stroke:#181818;stroke-width:1;"/><path d="M649.2656,249.2266 Q649.4219,249.0078 649.6094,248.8984 Q649.7969,248.7891 650.0156,248.7891 Q650.3906,248.7891 650.625,249.0547 Q650.8594,249.3047 650.8594,249.9141 L650.8594,251.3672 Q650.8594,251.9766 650.625,252.2422 Q650.3906,252.5078 650.0156,252.5078 Q649.6719,252.5078 649.4688,252.3047 Q649.2656,252.1172 649.1563,251.6016 Q649.1094,251.2422 648.9219,251.0547 Q648.5938,250.6797 647.9844,250.4609 Q647.375,250.2422 646.75,250.2422 Q645.9844,250.2422 645.3438,250.5703 Q644.7188,250.8984 644.2188,251.6484 Q643.7344,252.3984 643.7344,253.4297 L643.7344,254.5234 Q643.7344,255.7578 644.625,256.5859 Q645.5156,257.3984 647.1094,257.3984 Q648.0469,257.3984 648.7031,257.1484 Q649.0938,256.9922 649.5156,256.5547 Q649.7813,256.2891 649.9219,256.2109 Q650.0781,256.1328 650.2813,256.1328 Q650.6094,256.1328 650.8594,256.3984 Q651.125,256.6484 651.125,256.9922 Q651.125,257.3359 650.7813,257.7422 Q650.2813,258.3203 649.4844,258.6484 Q648.4063,259.1016 647.1094,259.1016 Q645.5938,259.1016 644.3906,258.4766 Q643.4063,257.9766 642.7188,256.9141 Q642.0313,255.8359 642.0313,254.5547 L642.0313,253.3984 Q642.0313,252.0703 642.6406,250.9297 Q643.2656,249.7734 644.3594,249.1641 Q645.4531,248.5391 646.6875,248.5391 Q647.4219,248.5391 648.0625,248.7109 Q648.7188,248.8672 649.2656,249.2266 Z " fill="#000000"/><text fill="#000000" font-family="sans-serif" font-size="12" font-style="italic" lengthAdjust="spacing" textLength="55.3535" x="690.792" y="249.457">&#171;ADDED&#187;</text><text fill="#000000" font-family="sans-serif" font-size="14" lengthAdjust="spacing" textLength="115.9375" x="660.5" y="266.627">PetclinicProperties</text><line style="stroke:#181818;stroke-width:0.5;" x1="632.5" x2="778.4375" y1="274.7031" y2="274.7031"/><text fill="#000000" font-family="sans-serif" font-size="14" lengthAdjust="spacing" textLength="110.1338" x="637.5" y="293.2363">+database: String</text><line style="stroke:#181818;stroke-width:0.5;" x1="632.5" x2="778.4375" y1="300.3125" y2="300.3125"/></g><!--class VetService--><g class="entity" data-entity="VetService" data-source-line="97" data-uid="ent0034" id="entity_VetService"><rect fill="#90EE90" height="76.3125" rx="2.5" ry="2.5" style="stroke:#181818;stroke-width:0.5;" width="201.4785" x="605" y="1146"/><ellipse cx="667.6411" cy="1167.3516" fill="#ADD1B2" rx="11" ry="11" style="stroke:#181818;stroke-width:1;"/><path d="M670.4067,1163.2266 Q670.563,1163.0078 670.7505,1162.8984 Q670.938,1162.7891 671.1567,1162.7891 Q671.5317,1162.7891 671.7661,1163.0547 Q672.0005,1163.3047 672.0005,1163.9141 L672.0005,1165.3672 Q672.0005,1165.9766 671.7661,1166.2422 Q671.5317,1166.5078 671.1567,1166.5078 Q670.813,1166.5078 670.6099,1166.3047 Q670.4067,1166.1172 670.2974,1165.6016 Q670.2505,1165.2422 670.063,1165.0547 Q669.7349,1164.6797 669.1255,1164.4609 Q668.5161,1164.2422 667.8911,1164.2422 Q667.1255,1164.2422 666.4849,1164.5703 Q665.8599,1164.8984 665.3599,1165.6484 Q664.8755,1166.3984 664.8755,1167.4297 L664.8755,1168.5234 Q664.8755,1169.7578 665.7661,1170.5859 Q666.6567,1171.3984 668.2505,1171.3984 Q669.188,1171.3984 669.8442,1171.1484 Q670.2349,1170.9922 670.6567,1170.5547 Q670.9224,1170.2891 671.063,1170.2109 Q671.2192,1170.1328 671.4224,1170.1328 Q671.7505,1170.1328 672.0005,1170.3984 Q672.2661,1170.6484 672.2661,1170.9922 Q672.2661,1171.3359 671.9224,1171.7422 Q671.4224,1172.3203 670.6255,1172.6484 Q669.5474,1173.1016 668.2505,1173.1016 Q666.7349,1173.1016 665.5317,1172.4766 Q664.5474,1171.9766 663.8599,1170.9141 Q663.1724,1169.8359 663.1724,1168.5547 L663.1724,1167.3984 Q663.1724,1166.0703 663.7817,1164.9297 Q664.4067,1163.7734 665.5005,1163.1641 Q666.5942,1162.5391 667.8286,1162.5391 Q668.563,1162.5391 669.2036,1162.7109 Q669.8599,1162.8672 670.4067,1163.2266 Z " fill="#000000"/><text fill="#000000" font-family="sans-serif" font-size="12" font-style="italic" lengthAdjust="spacing" textLength="55.3535" x="694.3125" y="1163.457">&#171;ADDED&#187;</text><text fill="#000000" font-family="sans-serif" font-size="14" lengthAdjust="spacing" textLength="67.6963" x="688.1411" y="1180.627">VetService</text><line style="stroke:#181818;stroke-width:0.5;" x1="606" x2="805.4785" y1="1188.7031" y2="1188.7031"/><text fill="#000000" font-family="sans-serif" font-size="14" lengthAdjust="spacing" textLength="189.4785" x="611" y="1207.2363">+vetRepository: VetRepository</text><line style="stroke:#181818;stroke-width:0.5;" x1="606" x2="805.4785" y1="1214.3125" y2="1214.3125"/></g><!--class VetsServiceApplication--><g class="entity" data-entity="VetsServiceApplication" data-source-line="100" data-uid="ent0035" id="entity_VetsServiceApplication"><rect fill="#90EE90" height="58.7031" rx="2.5" ry="2.5" style="stroke:#181818;stroke-width:0.5;" width="175.1855" x="618" y="137.5"/><ellipse cx="633" cy="158.8516" fill="#ADD1B2" rx="11" ry="11" style="stroke:#181818;stroke-width:1;"/><path d="M635.7656,154.7266 Q635.9219,154.5078 636.1094,154.3984 Q636.2969,154.2891 636.5156,154.2891 Q636.8906,154.2891 637.125,154.5547 Q637.3594,154.8047 637.3594,155.4141 L637.3594,156.8672 Q637.3594,157.4766 637.125,157.7422 Q636.8906,158.0078 636.5156,158.0078 Q636.1719,158.0078 635.9688,157.8047 Q635.7656,157.6172 635.6563,157.1016 Q635.6094,156.7422 635.4219,156.5547 Q635.0938,156.1797 634.4844,155.9609 Q633.875,155.7422 633.25,155.7422 Q632.4844,155.7422 631.8438,156.0703 Q631.2188,156.3984 630.7188,157.1484 Q630.2344,157.8984 630.2344,158.9297 L630.2344,160.0234 Q630.2344,161.2578 631.125,162.0859 Q632.0156,162.8984 633.6094,162.8984 Q634.5469,162.8984 635.2031,162.6484 Q635.5938,162.4922 636.0156,162.0547 Q636.2813,161.7891 636.4219,161.7109 Q636.5781,161.6328 636.7813,161.6328 Q637.1094,161.6328 637.3594,161.8984 Q637.625,162.1484 637.625,162.4922 Q637.625,162.8359 637.2813,163.2422 Q636.7813,163.8203 635.9844,164.1484 Q634.9063,164.6016 633.6094,164.6016 Q632.0938,164.6016 630.8906,163.9766 Q629.9063,163.4766 629.2188,162.4141 Q628.5313,161.3359 628.5313,160.0547 L628.5313,158.8984 Q628.5313,157.5703 629.1406,156.4297 Q629.7656,155.2734 630.8594,154.6641 Q631.9531,154.0391 633.1875,154.0391 Q633.9219,154.0391 634.5625,154.2109 Q635.2188,154.3672 635.7656,154.7266 Z " fill="#000000"/><text fill="#000000" font-family="sans-serif" font-size="12" font-style="italic" lengthAdjust="spacing" textLength="55.3535" x="690.916" y="154.957">&#171;ADDED&#187;</text><text fill="#000000" font-family="sans-serif" font-size="14" lengthAdjust="spacing" textLength="143.1855" x="647" y="172.127">VetsServiceApplication</text><line style="stroke:#181818;stroke-width:0.5;" x1="619" x2="792.1855" y1="180.2031" y2="180.2031"/><line style="stroke:#181818;stroke-width:0.5;" x1="619" x2="792.1855" y1="188.2031" y2="188.2031"/></g><!--class VisitResource--><g class="entity" data-entity="VisitResource" data-source-line="102" data-uid="ent0036" id="entity_VisitResource"><rect fill="#90EE90" height="76.3125" rx="2.5" ry="2.5" style="stroke:#181818;stroke-width:0.5;" width="171.8789" x="318.5" y="1257"/><ellipse cx="357.5812" cy="1278.3516" fill="#ADD1B2" rx="11" ry="11" style="stroke:#181818;stroke-width:1;"/><path d="M360.3468,1274.2266 Q360.503,1274.0078 360.6905,1273.8984 Q360.878,1273.7891 361.0968,1273.7891 Q361.4718,1273.7891 361.7062,1274.0547 Q361.9405,1274.3047 361.9405,1274.9141 L361.9405,1276.3672 Q361.9405,1276.9766 361.7062,1277.2422 Q361.4718,1277.5078 361.0968,1277.5078 Q360.753,1277.5078 360.5499,1277.3047 Q360.3468,1277.1172 360.2374,1276.6016 Q360.1905,1276.2422 360.003,1276.0547 Q359.6749,1275.6797 359.0655,1275.4609 Q358.4562,1275.2422 357.8312,1275.2422 Q357.0655,1275.2422 356.4249,1275.5703 Q355.7999,1275.8984 355.2999,1276.6484 Q354.8155,1277.3984 354.8155,1278.4297 L354.8155,1279.5234 Q354.8155,1280.7578 355.7062,1281.5859 Q356.5968,1282.3984 358.1905,1282.3984 Q359.128,1282.3984 359.7843,1282.1484 Q360.1749,1281.9922 360.5968,1281.5547 Q360.8624,1281.2891 361.003,1281.2109 Q361.1593,1281.1328 361.3624,1281.1328 Q361.6905,1281.1328 361.9405,1281.3984 Q362.2062,1281.6484 362.2062,1281.9922 Q362.2062,1282.3359 361.8624,1282.7422 Q361.3624,1283.3203 360.5655,1283.6484 Q359.4874,1284.1016 358.1905,1284.1016 Q356.6749,1284.1016 355.4718,1283.4766 Q354.4874,1282.9766 353.7999,1281.9141 Q353.1124,1280.8359 353.1124,1279.5547 L353.1124,1278.3984 Q353.1124,1277.0703 353.7218,1275.9297 Q354.3468,1274.7734 355.4405,1274.1641 Q356.5343,1273.5391 357.7687,1273.5391 Q358.503,1273.5391 359.1437,1273.7109 Q359.7999,1273.8672 360.3468,1274.2266 Z " fill="#000000"/><text fill="#000000" font-family="sans-serif" font-size="12" font-style="italic" lengthAdjust="spacing" textLength="55.3535" x="392.4384" y="1274.457">&#171;ADDED&#187;</text><text fill="#000000" font-family="sans-serif" font-size="14" lengthAdjust="spacing" textLength="86.3652" x="376.9325" y="1291.627">VisitResource</text><line style="stroke:#181818;stroke-width:0.5;" x1="319.5" x2="489.3789" y1="1299.7031" y2="1299.7031"/><text fill="#000000" font-family="sans-serif" font-size="14" lengthAdjust="spacing" textLength="159.8789" x="324.5" y="1318.2363">+visitService: VisitService</text><line style="stroke:#181818;stroke-width:0.5;" x1="319.5" x2="489.3789" y1="1325.3125" y2="1325.3125"/></g><!--class VisitService--><g class="entity" data-entity="VisitService" data-source-line="105" data-uid="ent0037" id="entity_VisitService"><rect fill="#90EE90" height="76.3125" rx="2.5" ry="2.5" style="stroke:#181818;stroke-width:0.5;" width="212.3477" x="599.5" y="1257"/><ellipse cx="664.8584" cy="1278.3516" fill="#ADD1B2" rx="11" ry="11" style="stroke:#181818;stroke-width:1;"/><path d="M667.624,1274.2266 Q667.7803,1274.0078 667.9678,1273.8984 Q668.1553,1273.7891 668.374,1273.7891 Q668.749,1273.7891 668.9834,1274.0547 Q669.2178,1274.3047 669.2178,1274.9141 L669.2178,1276.3672 Q669.2178,1276.9766 668.9834,1277.2422 Q668.749,1277.5078 668.374,1277.5078 Q668.0303,1277.5078 667.8271,1277.3047 Q667.624,1277.1172 667.5146,1276.6016 Q667.4678,1276.2422 667.2803,1276.0547 Q666.9521,1275.6797 666.3428,1275.4609 Q665.7334,1275.2422 665.1084,1275.2422 Q664.3428,1275.2422 663.7021,1275.5703 Q663.0771,1275.8984 662.5771,1276.6484 Q662.0928,1277.3984 662.0928,1278.4297 L662.0928,1279.5234 Q662.0928,1280.7578 662.9834,1281.5859 Q663.874,1282.3984 665.4678,1282.3984 Q666.4053,1282.3984 667.0615,1282.1484 Q667.4521,1281.9922 667.874,1281.5547 Q668.1396,1281.2891 668.2803,1281.2109 Q668.4365,1281.1328 668.6396,1281.1328 Q668.9678,1281.1328 669.2178,1281.3984 Q669.4834,1281.6484 669.4834,1281.9922 Q669.4834,1282.3359 669.1396,1282.7422 Q668.6396,1283.3203 667.8428,1283.6484 Q666.7646,1284.1016 665.4678,1284.1016 Q663.9521,1284.1016 662.749,1283.4766 Q661.7646,1282.9766 661.0771,1281.9141 Q660.3896,1280.8359 660.3896,1279.5547 L660.3896,1278.3984 Q660.3896,1277.0703 660.999,1275.9297 Q661.624,1274.7734 662.7178,1274.1641 Q663.8115,1273.5391 665.0459,1273.5391 Q665.7803,1273.5391 666.4209,1273.7109 Q667.0771,1273.8672 667.624,1274.2266 Z " fill="#000000"/><text fill="#000000" font-family="sans-serif" font-size="12" font-style="italic" lengthAdjust="spacing" textLength="55.3535" x="694.2471" y="1274.457">&#171;ADDED&#187;</text><text fill="#000000" font-family="sans-serif" font-size="14" lengthAdjust="spacing" textLength="73.1309" x="685.3584" y="1291.627">VisitService</text><line style="stroke:#181818;stroke-width:0.5;" x1="600.5" x2="810.8477" y1="1299.7031" y2="1299.7031"/><text fill="#000000" font-family="sans-serif" font-size="14" lengthAdjust="spacing" textLength="200.3477" x="605.5" y="1318.2363">+visitRepository: VisitRepository</text><line style="stroke:#181818;stroke-width:0.5;" x1="600.5" x2="810.8477" y1="1325.3125" y2="1325.3125"/></g><!--class VisitsServiceApplication--><g class="entity" data-entity="VisitsServiceApplication" data-source-line="108" data-uid="ent0038" id="entity_VisitsServiceApplication"><rect fill="#90EE90" height="58.7031" rx="2.5" ry="2.5" style="stroke:#181818;stroke-width:0.5;" width="180.6201" x="615" y="43.5"/><ellipse cx="630" cy="64.8516" fill="#ADD1B2" rx="11" ry="11" style="stroke:#181818;stroke-width:1;"/><path d="M632.7656,60.7266 Q632.9219,60.5078 633.1094,60.3984 Q633.2969,60.2891 633.5156,60.2891 Q633.8906,60.2891 634.125,60.5547 Q634.3594,60.8047 634.3594,61.4141 L634.3594,62.8672 Q634.3594,63.4766 634.125,63.7422 Q633.8906,64.0078 633.5156,64.0078 Q633.1719,64.0078 632.9688,63.8047 Q632.7656,63.6172 632.6563,63.1016 Q632.6094,62.7422 632.4219,62.5547 Q632.0938,62.1797 631.4844,61.9609 Q630.875,61.7422 630.25,61.7422 Q629.4844,61.7422 628.8438,62.0703 Q628.2188,62.3984 627.7188,63.1484 Q627.2344,63.8984 627.2344,64.9297 L627.2344,66.0234 Q627.2344,67.2578 628.125,68.0859 Q629.0156,68.8984 630.6094,68.8984 Q631.5469,68.8984 632.2031,68.6484 Q632.5938,68.4922 633.0156,68.0547 Q633.2813,67.7891 633.4219,67.7109 Q633.5781,67.6328 633.7813,67.6328 Q634.1094,67.6328 634.3594,67.8984 Q634.625,68.1484 634.625,68.4922 Q634.625,68.8359 634.2813,69.2422 Q633.7813,69.8203 632.9844,70.1484 Q631.9063,70.6016 630.6094,70.6016 Q629.0938,70.6016 627.8906,69.9766 Q626.9063,69.4766 626.2188,68.4141 Q625.5313,67.3359 625.5313,66.0547 L625.5313,64.8984 Q625.5313,63.5703 626.1406,62.4297 Q626.7656,61.2734 627.8594,60.6641 Q628.9531,60.0391 630.1875,60.0391 Q630.9219,60.0391 631.5625,60.2109 Q632.2188,60.3672 632.7656,60.7266 Z " fill="#000000"/><text fill="#000000" font-family="sans-serif" font-size="12" font-style="italic" lengthAdjust="spacing" textLength="55.3535" x="690.6333" y="60.957">&#171;ADDED&#187;</text><text fill="#000000" font-family="sans-serif" font-size="14" lengthAdjust="spacing" textLength="148.6201" x="644" y="78.127">VisitsServiceApplication</text><line style="stroke:#181818;stroke-width:0.5;" x1="616" x2="794.6201" y1="86.2031" y2="86.2031"/><line style="stroke:#181818;stroke-width:0.5;" x1="616" x2="794.6201" y1="94.2031" y2="94.2031"/></g><!--class WebConfig--><g class="entity" data-entity="WebConfig" data-source-line="110" data-uid="ent0039" id="entity_WebConfig"><rect fill="#90EE90" height="58.7031" rx="2.5" ry="2.5" style="stroke:#181818;stroke-width:0.5;" width="101.2549" x="905.5" y="343.5"/><ellipse cx="920.5" cy="364.8516" fill="#ADD1B2" rx="11" ry="11" style="stroke:#181818;stroke-width:1;"/><path d="M923.2656,360.7266 Q923.4219,360.5078 923.6094,360.3984 Q923.7969,360.2891 924.0156,360.2891 Q924.3906,360.2891 924.625,360.5547 Q924.8594,360.8047 924.8594,361.4141 L924.8594,362.8672 Q924.8594,363.4766 924.625,363.7422 Q924.3906,364.0078 924.0156,364.0078 Q923.6719,364.0078 923.4688,363.8047 Q923.2656,363.6172 923.1563,363.1016 Q923.1094,362.7422 922.9219,362.5547 Q922.5938,362.1797 921.9844,361.9609 Q921.375,361.7422 920.75,361.7422 Q919.9844,361.7422 919.3438,362.0703 Q918.7188,362.3984 918.2188,363.1484 Q917.7344,363.8984 917.7344,364.9297 L917.7344,366.0234 Q917.7344,367.2578 918.625,368.0859 Q919.5156,368.8984 921.1094,368.8984 Q922.0469,368.8984 922.7031,368.6484 Q923.0938,368.4922 923.5156,368.0547 Q923.7813,367.7891 923.9219,367.7109 Q924.0781,367.6328 924.2813,367.6328 Q924.6094,367.6328 924.8594,367.8984 Q925.125,368.1484 925.125,368.4922 Q925.125,368.8359 924.7813,369.2422 Q924.2813,369.8203 923.4844,370.1484 Q922.4063,370.6016 921.1094,370.6016 Q919.5938,370.6016 918.3906,369.9766 Q917.4063,369.4766 916.7188,368.4141 Q916.0313,367.3359 916.0313,366.0547 L916.0313,364.8984 Q916.0313,363.5703 916.6406,362.4297 Q917.2656,361.2734 918.3594,360.6641 Q919.4531,360.0391 920.6875,360.0391 Q921.4219,360.0391 922.0625,360.2109 Q922.7188,360.3672 923.2656,360.7266 Z " fill="#000000"/><text fill="#000000" font-family="sans-serif" font-size="12" font-style="italic" lengthAdjust="spacing" textLength="55.3535" x="941.4507" y="360.957">&#171;ADDED&#187;</text><text fill="#000000" font-family="sans-serif" font-size="14" lengthAdjust="spacing" textLength="69.2549" x="934.5" y="378.127">WebConfig</text><line style="stroke:#181818;stroke-width:0.5;" x1="906.5" x2="1005.7549" y1="386.2031" y2="386.2031"/><line style="stroke:#181818;stroke-width:0.5;" x1="906.5" x2="1005.7549" y1="394.2031" y2="394.2031"/></g><!--reverse link ClinicService to ClinicServiceImpl--><g class="link" data-entity-1="ClinicService" data-entity-2="ClinicServiceImpl" data-source-line="113" data-uid="lnk40" id="link_ClinicService_ClinicServiceImpl"><path codeLine="113" d="M479.0399,1046.7531 C513.8299,1046.6431 542.04,1046.54 584.84,1046.4" fill="none" id="ClinicService-backto-ClinicServiceImpl" style="stroke:#FF0000;stroke-width:1;stroke-dasharray:1,3;"/><polygon fill="none" points="461.04,1046.81,479.0589,1052.7531,479.0209,1040.7531,461.04,1046.81" style="stroke:#FF0000;stroke-width:1;"/></g><!--link ClinicServiceImpl to OwnerRepository--><g class="link" data-entity-1="ClinicServiceImpl" data-entity-2="OwnerRepository" data-source-line="114" data-uid="lnk41" id="link_ClinicServiceImpl_OwnerRepository"><path codeLine="114" d="M826.02,1034.94 C846.53,1033.04 861.2454,1031.6719 879.8654,1029.9519" fill="none" id="ClinicServiceImpl-to-OwnerRepository" style="stroke:#FF0000;stroke-width:1;stroke-dasharray:1,3;"/><polygon fill="#FF0000" points="885.84,1029.4,876.5102,1026.2448,880.8612,1029.8599,877.2461,1034.2109,885.84,1029.4" style="stroke:#FF0000;stroke-width:1;"/></g><!--link ClinicServiceImpl to PetRepository--><g class="link" data-entity-1="ClinicServiceImpl" data-entity-2="PetRepository" data-source-line="115" data-uid="lnk42" id="link_ClinicServiceImpl_PetRepository"><path codeLine="115" d="M826.02,983.96 C855.36,968.72 879.7353,956.0755 903.2253,943.8755" fill="none" id="ClinicServiceImpl-to-PetRepository" style="stroke:#FF0000;stroke-width:1;stroke-dasharray:1,3;"/><polygon fill="#FF0000" points="908.55,941.11,898.7193,941.7084,904.1128,943.4146,902.4066,948.808,908.55,941.11" style="stroke:#FF0000;stroke-width:1;"/></g><!--link ClinicServiceImpl to VetRepository--><g class="link" data-entity-1="ClinicServiceImpl" data-entity-2="VetRepository" data-source-line="116" data-uid="lnk43" id="link_ClinicServiceImpl_VetRepository"><path codeLine="116" d="M826.02,1099.39 C852.38,1111.16 873.5419,1120.6124 895.7219,1130.5224" fill="none" id="ClinicServiceImpl-to-VetRepository" style="stroke:#FF0000;stroke-width:1;stroke-dasharray:1,3;"/><polygon fill="#FF0000" points="901.2,1132.97,894.6146,1125.6466,896.6349,1130.9303,891.3512,1132.9507,901.2,1132.97" style="stroke:#FF0000;stroke-width:1;"/></g><!--link ClinicServiceImpl to VisitRepository--><g class="link" data-entity-1="ClinicServiceImpl" data-entity-2="VisitRepository" data-source-line="117" data-uid="lnk44" id="link_ClinicServiceImpl_VisitRepository"><path codeLine="117" d="M805.26,1110.66 C812.45,1116.31 819.45,1122.12 826,1128 C856.49,1155.38 858.27,1167.84 886,1198 C900.32,1213.58 912.7078,1226.2569 926.0578,1239.5469" fill="none" id="ClinicServiceImpl-to-VisitRepository" style="stroke:#FF0000;stroke-width:1;stroke-dasharray:1,3;"/><polygon fill="#FF0000" points="930.31,1243.78,926.7538,1234.5956,926.7665,1240.2524,921.1097,1240.2652,930.31,1243.78" style="stroke:#FF0000;stroke-width:1;"/></g><!--link OwnerResource to ClinicService--><g class="link" data-entity-1="OwnerResource" data-entity-2="ClinicService" data-source-line="118" data-uid="lnk45" id="link_OwnerResource_ClinicService"><path codeLine="118" d="M224.04,1002.62 C265.67,1012.91 306.6555,1023.0495 342.0355,1031.7995" fill="none" id="OwnerResource-to-ClinicService" style="stroke:#FF0000;stroke-width:1;stroke-dasharray:1,3;"/><polygon fill="#FF0000" points="347.86,1033.24,340.0836,1027.1963,343.0062,1032.0396,338.1629,1034.9623,347.86,1033.24" style="stroke:#FF0000;stroke-width:1;"/></g><!--link PetResource to ClinicService--><g class="link" data-entity-1="PetResource" data-entity-2="ClinicService" data-source-line="119" data-uid="lnk46" id="link_PetResource_ClinicService"><path codeLine="119" d="M200.8,909.52 C208.91,915.02 216.82,920.88 224,927 C255.71,954.01 250.32,974.49 284,999 C303.07,1012.88 321.0767,1021.4319 342.2867,1029.0919" fill="none" id="PetResource-to-ClinicService" style="stroke:#FF0000;stroke-width:1;stroke-dasharray:1,3;"/><polygon fill="#FF0000" points="347.93,1031.13,340.8238,1024.3107,343.2273,1029.4316,338.1064,1031.8351,347.93,1031.13" style="stroke:#FF0000;stroke-width:1;"/></g><!--link VetResource to ClinicService--><g class="link" data-entity-1="VetResource" data-entity-2="ClinicService" data-source-line="120" data-uid="lnk47" id="link_VetResource_ClinicService"><path codeLine="120" d="M189.21,1156.83 C237.18,1132.25 296.5601,1101.8059 342.2901,1078.3759" fill="none" id="VetResource-to-ClinicService" style="stroke:#FF0000;stroke-width:1;stroke-dasharray:1,3;"/><polygon fill="#FF0000" points="347.63,1075.64,337.7962,1076.184,343.1801,1077.9199,341.4441,1083.3038,347.63,1075.64" style="stroke:#FF0000;stroke-width:1;"/></g><!--link Visit to Pet--><g class="link" data-entity-1="Visit" data-entity-2="Pet" data-source-line="121" data-uid="lnk48" id="link_Visit_Pet"><path codeLine="121" d="M470.75,623.09 C523.84,623.98 591.9908,625.1201 642.4408,625.9601" fill="none" id="Visit-to-Pet" style="stroke:#FF0000;stroke-width:1;stroke-dasharray:1,3;"/><polygon fill="#FF0000" points="648.44,626.06,639.5078,621.9107,643.4407,625.9768,639.3747,629.9096,648.44,626.06" style="stroke:#FF0000;stroke-width:1;"/></g><!--link VisitController to ClinicService--><g class="link" data-entity-1="VisitController" data-entity-2="ClinicService" data-source-line="122" data-uid="lnk49" id="link_VisitController_ClinicService"><path codeLine="122" d="M217.02,1071.73 C260.32,1065.99 304.5121,1060.1292 341.8921,1055.1692" fill="none" id="VisitController-to-ClinicService" style="stroke:#FF0000;stroke-width:1;stroke-dasharray:1,3;"/><polygon fill="#FF0000" points="347.84,1054.38,338.392,1051.5986,342.8834,1055.0377,339.4444,1059.5291,347.84,1054.38" style="stroke:#FF0000;stroke-width:1;"/></g><!--reverse link BaseEntity to NamedEntity--><g class="link" data-entity-1="BaseEntity" data-entity-2="NamedEntity" data-source-line="123" data-uid="lnk50" id="link_BaseEntity_NamedEntity"><path codeLine="123" d="M189.6569,649.7919 C238.5169,670.6319 297.19,695.66 348.28,717.45" fill="none" id="BaseEntity-backto-NamedEntity" style="stroke:#181818;stroke-width:1;"/><polygon fill="none" points="173.1,642.73,187.3029,655.3109,192.0108,644.273,173.1,642.73" style="stroke:#181818;stroke-width:1;"/></g><!--reverse link BaseEntity to Person--><g class="link" data-entity-1="BaseEntity" data-entity-2="Person" data-source-line="124" data-uid="lnk51" id="link_BaseEntity_Person"><path codeLine="124" d="M189.4825,592.4226 C236.4725,571.0326 291.46,546 342.3,522.86" fill="none" id="BaseEntity-backto-Person" style="stroke:#181818;stroke-width:1;"/><polygon fill="none" points="173.1,599.88,191.9683,597.8835,186.9967,586.9618,173.1,599.88" style="stroke:#181818;stroke-width:1;"/></g><!--reverse link BaseEntity to Visit--><g class="link" data-entity-1="BaseEntity" data-entity-2="Visit" data-source-line="125" data-uid="lnk52" id="link_BaseEntity_Visit"><path codeLine="125" d="M191.1,622 C236.92,622 287.92,622 338.47,622" fill="none" id="BaseEntity-backto-Visit" style="stroke:#181818;stroke-width:1;"/><polygon fill="none" points="173.1,622,191.1,628,191.1,616,173.1,622" style="stroke:#181818;stroke-width:1;"/></g><!--reverse link NamedEntity to Pet--><g class="link" data-entity-1="NamedEntity" data-entity-2="Pet" data-source-line="126" data-uid="lnk53" id="link_NamedEntity_Pet"><path codeLine="126" d="M477.5094,713.5484 C530.9194,693.1884 594.64,668.89 648.36,648.4" fill="none" id="NamedEntity-backto-Pet" style="stroke:#181818;stroke-width:1;"/><polygon fill="none" points="460.69,719.96,479.6466,719.1549,475.3722,707.942,460.69,719.96" style="stroke:#181818;stroke-width:1;"/></g><!--reverse link NamedEntity to PetType--><g class="link" data-entity-1="NamedEntity" data-entity-2="PetType" data-source-line="127" data-uid="lnk54" id="link_NamedEntity_PetType"><path codeLine="127" d="M478.62,734.0844 C588.85,723.6544 816.06,702.15 913.7,692.91" fill="none" id="NamedEntity-backto-PetType" style="stroke:#181818;stroke-width:1;"/><polygon fill="none" points="460.7,735.78,479.1852,740.0577,478.0548,728.1111,460.7,735.78" style="stroke:#181818;stroke-width:1;"/></g><!--reverse link NamedEntity to Specialty--><g class="link" data-entity-1="NamedEntity" data-entity-2="Specialty" data-source-line="128" data-uid="lnk55" id="link_NamedEntity_Specialty"><path codeLine="128" d="M478.5813,749.0648 C536.2913,755.4348 607.8,763.33 660.8,769.18" fill="none" id="NamedEntity-backto-Specialty" style="stroke:#181818;stroke-width:1;"/><polygon fill="none" points="460.69,747.09,477.9231,755.0286,479.2396,743.1011,460.69,747.09" style="stroke:#181818;stroke-width:1;"/></g><!--reverse link Person to Owner--><g class="link" data-entity-1="Person" data-entity-2="Owner" data-source-line="129" data-uid="lnk56" id="link_Person_Owner"><path codeLine="129" d="M483.8866,470.0672 C567.1266,446.0872 702.65,418.58 826,457 C849.64,464.36 872.77,477.74 892.77,491.92" fill="none" id="Person-backto-Owner" style="stroke:#181818;stroke-width:1;"/><polygon fill="none" points="466.59,475.05,485.5475,475.8327,482.2256,464.3016,466.59,475.05" style="stroke:#181818;stroke-width:1;"/></g><!--reverse link Person to Vet--><g class="link" data-entity-1="Person" data-entity-2="Vet" data-source-line="130" data-uid="lnk57" id="link_Person_Vet"><path codeLine="130" d="M484.713,498.4427 C538.013,500.7627 596.67,503.31 648.4,505.56" fill="none" id="Person-backto-Vet" style="stroke:#181818;stroke-width:1;"/><polygon fill="none" points="466.73,497.66,484.4521,504.4371,484.9739,492.4484,466.73,497.66" style="stroke:#181818;stroke-width:1;"/></g><!--link Pet to Owner--><g class="link" data-entity-1="Pet" data-entity-2="Owner" data-source-line="131" data-uid="lnk58" id="link_Pet_Owner"><path codeLine="131" d="M762.58,608.72 C801.23,596.12 846.9253,581.2292 886.8753,568.2092" fill="none" id="Pet-to-Owner" style="stroke:#181818;stroke-width:1;"/><polygon fill="#181818" points="892.58,566.35,882.7835,565.3357,887.8261,567.8993,885.2624,572.9419,892.58,566.35" style="stroke:#181818;stroke-width:1;"/></g><!--link Pet to PetType--><g class="link" data-entity-1="Pet" data-entity-2="PetType" data-source-line="132" data-uid="lnk59" id="link_Pet_PetType"><path codeLine="132" d="M762.58,640.99 C808.53,652.46 866.6784,666.9678 908.0084,677.2778" fill="none" id="Pet-to-PetType" style="stroke:#181818;stroke-width:1;"/><polygon fill="#181818" points="913.83,678.73,906.0658,672.6706,908.9787,677.5198,904.1294,680.4327,913.83,678.73" style="stroke:#181818;stroke-width:1;"/></g><!--link OwnerResource to OwnerService--><g class="link" data-entity-1="OwnerResource" data-entity-2="OwnerService" data-source-line="133" data-uid="lnk60" id="link_OwnerResource_OwnerService"><path codeLine="133" d="M224.04,965.87 C243.45,963.5 258.0239,961.7244 278.0039,959.2944" fill="none" id="OwnerResource-to-OwnerService" style="stroke:#008000;stroke-width:1;stroke-dasharray:1,3;"/><polygon fill="#008000" points="283.96,958.57,274.5429,955.6858,278.9966,959.1737,275.5088,963.6273,283.96,958.57" style="stroke:#008000;stroke-width:1;"/></g><!--link OwnerService to OwnerRepository--><g class="link" data-entity-1="OwnerService" data-entity-2="OwnerRepository" data-source-line="134" data-uid="lnk61" id="link_OwnerService_OwnerRepository"><path codeLine="134" d="M525.02,937.72 C610.13,936.14 726.57,939.85 826,964 C856.51,971.41 883.3146,983.2868 907.8746,996.1468" fill="none" id="OwnerService-to-OwnerRepository" style="stroke:#008000;stroke-width:1;stroke-dasharray:1,3;"/><polygon fill="#008000" points="913.19,998.93,907.0724,991.2115,908.7605,996.6106,903.3614,998.2988,913.19,998.93" style="stroke:#008000;stroke-width:1;"/></g><!--link PetResource to OwnerService--><g class="link" data-entity-1="PetResource" data-entity-2="OwnerService" data-source-line="135" data-uid="lnk62" id="link_PetResource_OwnerService"><path codeLine="135" d="M224.04,895.12 C243.45,900.4 258.1915,904.4111 278.1715,909.8611" fill="none" id="PetResource-to-OwnerService" style="stroke:#008000;stroke-width:1;stroke-dasharray:1,3;"/><polygon fill="#008000" points="283.96,911.44,276.3299,905.2126,279.1362,910.1242,274.2246,912.9306,283.96,911.44" style="stroke:#008000;stroke-width:1;"/></g><!--link PetResource to PetService--><g class="link" data-entity-1="PetResource" data-entity-2="PetService" data-source-line="136" data-uid="lnk63" id="link_PetResource_PetService"><path codeLine="136" d="M224.21,868.52 C330.44,869.07 491.6801,869.899 598.1501,870.449" fill="none" id="PetResource-to-PetService" style="stroke:#008000;stroke-width:1;stroke-dasharray:1,3;"/><polygon fill="#008000" points="604.15,870.48,595.1708,866.4336,599.1501,870.4542,595.1295,874.4335,604.15,870.48" style="stroke:#008000;stroke-width:1;"/></g><!--link PetService to PetRepository--><g class="link" data-entity-1="PetService" data-entity-2="PetRepository" data-source-line="137" data-uid="lnk64" id="link_PetService_PetRepository"><path codeLine="137" d="M806.5,889.51 C836.85,895.13 863.3003,900.0275 890.0303,904.9775" fill="none" id="PetService-to-PetRepository" style="stroke:#008000;stroke-width:1;stroke-dasharray:1,3;"/><polygon fill="#008000" points="895.93,906.07,887.8088,900.4981,891.0136,905.1596,886.3521,908.3643,895.93,906.07" style="stroke:#008000;stroke-width:1;"/></g><!--link VetResource to VetService--><g class="link" data-entity-1="VetResource" data-entity-2="VetService" data-source-line="138" data-uid="lnk65" id="link_VetResource_VetService"><path codeLine="138" d="M204.23,1189.18 C308.56,1188.1 485.4103,1186.2619 598.7803,1185.0919" fill="none" id="VetResource-to-VetService" style="stroke:#008000;stroke-width:1;stroke-dasharray:1,3;"/><polygon fill="#008000" points="604.78,1185.03,595.7392,1181.1231,599.7803,1185.0816,595.8218,1189.1227,604.78,1185.03" style="stroke:#008000;stroke-width:1;"/></g><!--link VetService to VetRepository--><g class="link" data-entity-1="VetService" data-entity-2="VetRepository" data-source-line="139" data-uid="lnk66" id="link_VetService_VetRepository"><path codeLine="139" d="M806.14,1173.17 C836.52,1169.87 862.985,1166.9974 889.795,1164.0874" fill="none" id="VetService-to-VetRepository" style="stroke:#008000;stroke-width:1;stroke-dasharray:1,3;"/><polygon fill="#008000" points="895.76,1163.44,886.3809,1160.4345,890.7892,1163.9795,887.2442,1168.3878,895.76,1163.44" style="stroke:#008000;stroke-width:1;"/></g><!--link VisitResource to VisitService--><g class="link" data-entity-1="VisitResource" data-entity-2="VisitService" data-source-line="140" data-uid="lnk67" id="link_VisitResource_VisitService"><path codeLine="140" d="M490.78,1295 C524.61,1295 557.86,1295 593.42,1295" fill="none" id="VisitResource-to-VisitService" style="stroke:#008000;stroke-width:1;stroke-dasharray:1,3;"/><polygon fill="#008000" points="599.42,1295,590.42,1291,594.42,1295,590.42,1299,599.42,1295" style="stroke:#008000;stroke-width:1;"/></g><!--link VisitService to VisitRepository--><g class="link" data-entity-1="VisitService" data-entity-2="VisitRepository" data-source-line="141" data-uid="lnk68" id="link_VisitService_VisitRepository"><path codeLine="141" d="M811.53,1283.59 C839.34,1280.57 862.515,1278.0475 887.205,1275.3675" fill="none" id="VisitService-to-VisitRepository" style="stroke:#008000;stroke-width:1;stroke-dasharray:1,3;"/><polygon fill="#008000" points="893.17,1274.72,883.7909,1271.7146,888.1992,1275.2596,884.6542,1279.6679,893.17,1274.72" style="stroke:#008000;stroke-width:1;"/></g><!--SRC=[dLRTRjiW5BxtKw3rPjEMQjTHLIbBgYbI_zHqtiMq2mmd3Ye12qYchEsZJNkalSB0iLt0Rkpq8f4vVD_X_74u-e690YkyHeHZhIV6A9Pj3Co950ls6z3dXCFI82EHOldA8CeK4CEaI0fC7d0EwDtKCK6ZztUmbbkWwD_VF-YR82iiycereHJeXtVexEpEigsSm_avUamGOiA0Mc82QCgPO6G1QilioY8lhcxIYvd5dLowenUOhwKeIS_sLzeRakRhWXyc8lGH5M3ke92Q6QbsOtJhBol8DeIa7H3vIu3oGJUXeDR4x3BG5Ge2PwmfUtycHS4PmIxCGmDHwfrAOPJa75H_68WVkN4Oo43p5wpXGXXcTWsNqJ6QsyJbeC9iOCwlf72UCP5FT66JtP10u8o3PMPISi2YjiDofd8ZpDZLGYN4X6pM6uuDKAVpdgsjYLoAF3Zk6g-1HgO9xA0Bumm8m6L-6XYcL87M7hAqnMgAH0Ou52if89BRAd9iCDKXBtKS5KAKfsfNousos4U_cffSt7Yhg42KzbAuP4gRwz1X9xVOM1mKMQCWOygiPZRAO-J-QvTt1PJtujv- -0PMbhKy3gvGv6-v5tbhOzVuUjjy7nkAqhpsQIdcZ69hIRIriCN8C3UnWQaN3rrX6BoIs_I0fsc7frlFqzJtDA1f7szFlcJQj2zt0w9nmYXeebZXsaMxIkUqlbYHAs4ZYfoPPDeeJ1gFWiuocSsyll9L0RJQCYOhnrcoV1YUCn16L_49szy0TdcG8uCwbZjZcjX7I-tUHlVhym1Xu8iH5F8mhJslMQ1nt_9lbIn0kHhlKMth36Us-NUsaNIeWJrlQNWHtbW0LIrNbw_77eTzkPJUggroe8V7lF7btblz_0xPW4lrd4IZrDFfwOyJ1VGJbSQ-g3_RKrFIdgD60MLqtYhN0PIm6WSGqgC9KQZ3vxK53wSS_stgWQP7GCjctHMB91xIUZHvazVPqsZappkjlVreq1AN9oR-e5IXkuNbYz_QQ9xEf1f0Ikb-5l0bDaWkfcXKLqkpgbMtqfExkesBhFO_QAwlWRtaH_aygBi7wuqbNYlk1deMf8UrUYD0Ub1hU0_2zjO5zxjOqBbU0xze_my0]--></g></svg>