<svg xmlns="http://www.w3.org/2000/svg" xmlns:xlink="http://www.w3.org/1999/xlink" contentStyleType="text/css" data-diagram-type="CLASS" height="1565px" preserveAspectRatio="none" style="width:1368px;height:1565px;background:#FFFFFF;" version="1.1" viewBox="0 0 1368 1565" width="1368px" zoomAndPan="magnify"><defs/><g><!--cluster Classes (Removed ? Unchanged ? Added)--><g class="cluster" data-entity="Classes .Removed . Unchanged . Added." data-source-line="3" data-uid="ent0002" id="cluster_Classes .Removed . Unchanged . Added."><rect fill="none" height="1552" rx="2.5" ry="2.5" style="stroke:#181818;stroke-width:1;" width="1355" x="7" y="7"/><text fill="#000000" font-family="sans-serif" font-size="14" font-weight="bold" lengthAdjust="spacing" textLength="293.3779" x="537.811" y="23.5332">Classes (Removed &#65533; Unchanged &#65533; Added)</text></g><!--class ApiGatewayApplication--><g class="entity" data-entity="ApiGatewayApplication" data-source-line="4" data-uid="ent0003" id="entity_ApiGatewayApplication"><rect fill="#F1F1F1" height="65.6094" rx="2.5" ry="2.5" style="stroke:#181818;stroke-width:0.5;" width="175.9717" x="97.5" y="476"/><ellipse cx="112.5" cy="492" fill="#ADD1B2" rx="11" ry="11" style="stroke:#181818;stroke-width:1;"/><path d="M115.2656,487.875 Q115.4219,487.6563 115.6094,487.5469 Q115.7969,487.4375 116.0156,487.4375 Q116.3906,487.4375 116.625,487.7031 Q116.8594,487.9531 116.8594,488.5625 L116.8594,490.0156 Q116.8594,490.625 116.625,490.8906 Q116.3906,491.1563 116.0156,491.1563 Q115.6719,491.1563 115.4688,490.9531 Q115.2656,490.7656 115.1563,490.25 Q115.1094,489.8906 114.9219,489.7031 Q114.5938,489.3281 113.9844,489.1094 Q113.375,488.8906 112.75,488.8906 Q111.9844,488.8906 111.3438,489.2188 Q110.7188,489.5469 110.2188,490.2969 Q109.7344,491.0469 109.7344,492.0781 L109.7344,493.1719 Q109.7344,494.4063 110.625,495.2344 Q111.5156,496.0469 113.1094,496.0469 Q114.0469,496.0469 114.7031,495.7969 Q115.0938,495.6406 115.5156,495.2031 Q115.7813,494.9375 115.9219,494.8594 Q116.0781,494.7813 116.2813,494.7813 Q116.6094,494.7813 116.8594,495.0469 Q117.125,495.2969 117.125,495.6406 Q117.125,495.9844 116.7813,496.3906 Q116.2813,496.9688 115.4844,497.2969 Q114.4063,497.75 113.1094,497.75 Q111.5938,497.75 110.3906,497.125 Q109.4063,496.625 108.7188,495.5625 Q108.0313,494.4844 108.0313,493.2031 L108.0313,492.0469 Q108.0313,490.7188 108.6406,489.5781 Q109.2656,488.4219 110.3594,487.8125 Q111.4531,487.1875 112.6875,487.1875 Q113.4219,487.1875 114.0625,487.3594 Q114.7188,487.5156 115.2656,487.875 Z " fill="#000000"/><text fill="#000000" font-family="sans-serif" font-size="14" lengthAdjust="spacing" textLength="143.9717" x="126.5" y="497.7285">ApiGatewayApplication</text><line style="stroke:#181818;stroke-width:0.5;" x1="98.5" x2="272.4717" y1="508" y2="508"/><text fill="#000000" font-family="sans-serif" font-size="14" lengthAdjust="spacing" textLength="138.1133" x="103.5" y="526.5332">+indexHtml: Resource</text><line style="stroke:#181818;stroke-width:0.5;" x1="98.5" x2="272.4717" y1="533.6094" y2="533.6094"/></g><!--class ApiGatewayController--><g class="entity" data-entity="ApiGatewayController" data-source-line="7" data-uid="ent0004" id="entity_ApiGatewayController"><rect fill="#F1F1F1" height="100.8281" rx="2.5" ry="2.5" style="stroke:#181818;stroke-width:0.5;" width="325.1611" x="23" y="577.5"/><ellipse cx="113.2446" cy="593.5" fill="#ADD1B2" rx="11" ry="11" style="stroke:#181818;stroke-width:1;"/><path d="M116.0103,589.375 Q116.1665,589.1563 116.354,589.0469 Q116.5415,588.9375 116.7603,588.9375 Q117.1353,588.9375 117.3696,589.2031 Q117.604,589.4531 117.604,590.0625 L117.604,591.5156 Q117.604,592.125 117.3696,592.3906 Q117.1353,592.6563 116.7603,592.6563 Q116.4165,592.6563 116.2134,592.4531 Q116.0103,592.2656 115.9009,591.75 Q115.854,591.3906 115.6665,591.2031 Q115.3384,590.8281 114.729,590.6094 Q114.1196,590.3906 113.4946,590.3906 Q112.729,590.3906 112.0884,590.7188 Q111.4634,591.0469 110.9634,591.7969 Q110.479,592.5469 110.479,593.5781 L110.479,594.6719 Q110.479,595.9063 111.3696,596.7344 Q112.2603,597.5469 113.854,597.5469 Q114.7915,597.5469 115.4478,597.2969 Q115.8384,597.1406 116.2603,596.7031 Q116.5259,596.4375 116.6665,596.3594 Q116.8228,596.2813 117.0259,596.2813 Q117.354,596.2813 117.604,596.5469 Q117.8696,596.7969 117.8696,597.1406 Q117.8696,597.4844 117.5259,597.8906 Q117.0259,598.4688 116.229,598.7969 Q115.1509,599.25 113.854,599.25 Q112.3384,599.25 111.1353,598.625 Q110.1509,598.125 109.4634,597.0625 Q108.7759,595.9844 108.7759,594.7031 L108.7759,593.5469 Q108.7759,592.2188 109.3853,591.0781 Q110.0103,589.9219 111.104,589.3125 Q112.1978,588.6875 113.4321,588.6875 Q114.1665,588.6875 114.8071,588.8594 Q115.4634,589.0156 116.0103,589.375 Z " fill="#000000"/><text fill="#000000" font-family="sans-serif" font-size="14" lengthAdjust="spacing" textLength="136.1719" x="133.7446" y="599.2285">ApiGatewayController</text><line style="stroke:#181818;stroke-width:0.5;" x1="24" x2="347.1611" y1="609.5" y2="609.5"/><text fill="#000000" font-family="sans-serif" font-size="14" lengthAdjust="spacing" textLength="313.1611" x="29" y="628.0332">+customersServiceClient: CustomersServiceClient</text><text fill="#000000" font-family="sans-serif" font-size="14" lengthAdjust="spacing" textLength="245.4648" x="29" y="645.6426">+visitsServiceClient: VisitsServiceClient</text><text fill="#000000" font-family="sans-serif" font-size="14" lengthAdjust="spacing" textLength="267.251" x="29" y="663.252">+cbFactory: ReactiveCircuitBreakerFactory</text><line style="stroke:#181818;stroke-width:0.5;" x1="24" x2="347.1611" y1="670.3281" y2="670.3281"/></g><!--class CacheConfig--><g class="entity" data-entity="CacheConfig" data-source-line="12" data-uid="ent0005" id="entity_CacheConfig"><rect fill="#F1F1F1" height="48" rx="2.5" ry="2.5" style="stroke:#181818;stroke-width:0.5;" width="112.9375" x="129" y="393"/><ellipse cx="144" cy="409" fill="#ADD1B2" rx="11" ry="11" style="stroke:#181818;stroke-width:1;"/><path d="M146.7656,404.875 Q146.9219,404.6563 147.1094,404.5469 Q147.2969,404.4375 147.5156,404.4375 Q147.8906,404.4375 148.125,404.7031 Q148.3594,404.9531 148.3594,405.5625 L148.3594,407.0156 Q148.3594,407.625 148.125,407.8906 Q147.8906,408.1563 147.5156,408.1563 Q147.1719,408.1563 146.9688,407.9531 Q146.7656,407.7656 146.6563,407.25 Q146.6094,406.8906 146.4219,406.7031 Q146.0938,406.3281 145.4844,406.1094 Q144.875,405.8906 144.25,405.8906 Q143.4844,405.8906 142.8438,406.2188 Q142.2188,406.5469 141.7188,407.2969 Q141.2344,408.0469 141.2344,409.0781 L141.2344,410.1719 Q141.2344,411.4063 142.125,412.2344 Q143.0156,413.0469 144.6094,413.0469 Q145.5469,413.0469 146.2031,412.7969 Q146.5938,412.6406 147.0156,412.2031 Q147.2813,411.9375 147.4219,411.8594 Q147.5781,411.7813 147.7813,411.7813 Q148.1094,411.7813 148.3594,412.0469 Q148.625,412.2969 148.625,412.6406 Q148.625,412.9844 148.2813,413.3906 Q147.7813,413.9688 146.9844,414.2969 Q145.9063,414.75 144.6094,414.75 Q143.0938,414.75 141.8906,414.125 Q140.9063,413.625 140.2188,412.5625 Q139.5313,411.4844 139.5313,410.2031 L139.5313,409.0469 Q139.5313,407.7188 140.1406,406.5781 Q140.7656,405.4219 141.8594,404.8125 Q142.9531,404.1875 144.1875,404.1875 Q144.9219,404.1875 145.5625,404.3594 Q146.2188,404.5156 146.7656,404.875 Z " fill="#000000"/><text fill="#000000" font-family="sans-serif" font-size="14" lengthAdjust="spacing" textLength="80.9375" x="158" y="414.7285">CacheConfig</text><line style="stroke:#181818;stroke-width:0.5;" x1="130" x2="240.9375" y1="425" y2="425"/><line style="stroke:#181818;stroke-width:0.5;" x1="130" x2="240.9375" y1="433" y2="433"/></g><!--class ConfigServerApplication--><g class="entity" data-entity="ConfigServerApplication" data-source-line="14" data-uid="ent0006" id="entity_ConfigServerApplication"><rect fill="#F1F1F1" height="48" rx="2.5" ry="2.5" style="stroke:#181818;stroke-width:0.5;" width="182.1924" x="94.5" y="310"/><ellipse cx="109.5" cy="326" fill="#ADD1B2" rx="11" ry="11" style="stroke:#181818;stroke-width:1;"/><path d="M112.2656,321.875 Q112.4219,321.6563 112.6094,321.5469 Q112.7969,321.4375 113.0156,321.4375 Q113.3906,321.4375 113.625,321.7031 Q113.8594,321.9531 113.8594,322.5625 L113.8594,324.0156 Q113.8594,324.625 113.625,324.8906 Q113.3906,325.1563 113.0156,325.1563 Q112.6719,325.1563 112.4688,324.9531 Q112.2656,324.7656 112.1563,324.25 Q112.1094,323.8906 111.9219,323.7031 Q111.5938,323.3281 110.9844,323.1094 Q110.375,322.8906 109.75,322.8906 Q108.9844,322.8906 108.3438,323.2188 Q107.7188,323.5469 107.2188,324.2969 Q106.7344,325.0469 106.7344,326.0781 L106.7344,327.1719 Q106.7344,328.4063 107.625,329.2344 Q108.5156,330.0469 110.1094,330.0469 Q111.0469,330.0469 111.7031,329.7969 Q112.0938,329.6406 112.5156,329.2031 Q112.7813,328.9375 112.9219,328.8594 Q113.0781,328.7813 113.2813,328.7813 Q113.6094,328.7813 113.8594,329.0469 Q114.125,329.2969 114.125,329.6406 Q114.125,329.9844 113.7813,330.3906 Q113.2813,330.9688 112.4844,331.2969 Q111.4063,331.75 110.1094,331.75 Q108.5938,331.75 107.3906,331.125 Q106.4063,330.625 105.7188,329.5625 Q105.0313,328.4844 105.0313,327.2031 L105.0313,326.0469 Q105.0313,324.7188 105.6406,323.5781 Q106.2656,322.4219 107.3594,321.8125 Q108.4531,321.1875 109.6875,321.1875 Q110.4219,321.1875 111.0625,321.3594 Q111.7188,321.5156 112.2656,321.875 Z " fill="#000000"/><text fill="#000000" font-family="sans-serif" font-size="14" lengthAdjust="spacing" textLength="150.1924" x="123.5" y="331.7285">ConfigServerApplication</text><line style="stroke:#181818;stroke-width:0.5;" x1="95.5" x2="275.6924" y1="342" y2="342"/><line style="stroke:#181818;stroke-width:0.5;" x1="95.5" x2="275.6924" y1="350" y2="350"/></g><!--class CustomersServiceApplication--><g class="entity" data-entity="CustomersServiceApplication" data-source-line="16" data-uid="ent0007" id="entity_CustomersServiceApplication"><rect fill="#F1F1F1" height="48" rx="2.5" ry="2.5" style="stroke:#181818;stroke-width:0.5;" width="214.8545" x="78" y="227"/><ellipse cx="93" cy="243" fill="#ADD1B2" rx="11" ry="11" style="stroke:#181818;stroke-width:1;"/><path d="M95.7656,238.875 Q95.9219,238.6563 96.1094,238.5469 Q96.2969,238.4375 96.5156,238.4375 Q96.8906,238.4375 97.125,238.7031 Q97.3594,238.9531 97.3594,239.5625 L97.3594,241.0156 Q97.3594,241.625 97.125,241.8906 Q96.8906,242.1563 96.5156,242.1563 Q96.1719,242.1563 95.9688,241.9531 Q95.7656,241.7656 95.6563,241.25 Q95.6094,240.8906 95.4219,240.7031 Q95.0938,240.3281 94.4844,240.1094 Q93.875,239.8906 93.25,239.8906 Q92.4844,239.8906 91.8438,240.2188 Q91.2188,240.5469 90.7188,241.2969 Q90.2344,242.0469 90.2344,243.0781 L90.2344,244.1719 Q90.2344,245.4063 91.125,246.2344 Q92.0156,247.0469 93.6094,247.0469 Q94.5469,247.0469 95.2031,246.7969 Q95.5938,246.6406 96.0156,246.2031 Q96.2813,245.9375 96.4219,245.8594 Q96.5781,245.7813 96.7813,245.7813 Q97.1094,245.7813 97.3594,246.0469 Q97.625,246.2969 97.625,246.6406 Q97.625,246.9844 97.2813,247.3906 Q96.7813,247.9688 95.9844,248.2969 Q94.9063,248.75 93.6094,248.75 Q92.0938,248.75 90.8906,248.125 Q89.9063,247.625 89.2188,246.5625 Q88.5313,245.4844 88.5313,244.2031 L88.5313,243.0469 Q88.5313,241.7188 89.1406,240.5781 Q89.7656,239.4219 90.8594,238.8125 Q91.9531,238.1875 93.1875,238.1875 Q93.9219,238.1875 94.5625,238.3594 Q95.2188,238.5156 95.7656,238.875 Z " fill="#000000"/><text fill="#000000" font-family="sans-serif" font-size="14" lengthAdjust="spacing" textLength="182.8545" x="107" y="248.7285">CustomersServiceApplication</text><line style="stroke:#181818;stroke-width:0.5;" x1="79" x2="291.8545" y1="259" y2="259"/><line style="stroke:#181818;stroke-width:0.5;" x1="79" x2="291.8545" y1="267" y2="267"/></g><!--class CustomersServiceClient--><g class="entity" data-entity="CustomersServiceClient" data-source-line="18" data-uid="ent0008" id="entity_CustomersServiceClient"><rect fill="#F1F1F1" height="65.6094" rx="2.5" ry="2.5" style="stroke:#181818;stroke-width:0.5;" width="197.5889" x="416.5" y="737"/><ellipse cx="438.4438" cy="753" fill="#ADD1B2" rx="11" ry="11" style="stroke:#181818;stroke-width:1;"/><path d="M441.2094,748.875 Q441.3657,748.6563 441.5532,748.5469 Q441.7407,748.4375 441.9594,748.4375 Q442.3344,748.4375 442.5688,748.7031 Q442.8032,748.9531 442.8032,749.5625 L442.8032,751.0156 Q442.8032,751.625 442.5688,751.8906 Q442.3344,752.1563 441.9594,752.1563 Q441.6157,752.1563 441.4125,751.9531 Q441.2094,751.7656 441.1,751.25 Q441.0532,750.8906 440.8657,750.7031 Q440.5375,750.3281 439.9282,750.1094 Q439.3188,749.8906 438.6938,749.8906 Q437.9282,749.8906 437.2875,750.2188 Q436.6625,750.5469 436.1625,751.2969 Q435.6782,752.0469 435.6782,753.0781 L435.6782,754.1719 Q435.6782,755.4063 436.5688,756.2344 Q437.4594,757.0469 439.0532,757.0469 Q439.9907,757.0469 440.6469,756.7969 Q441.0375,756.6406 441.4594,756.2031 Q441.725,755.9375 441.8657,755.8594 Q442.0219,755.7813 442.225,755.7813 Q442.5532,755.7813 442.8032,756.0469 Q443.0688,756.2969 443.0688,756.6406 Q443.0688,756.9844 442.725,757.3906 Q442.225,757.9688 441.4282,758.2969 Q440.35,758.75 439.0532,758.75 Q437.5375,758.75 436.3344,758.125 Q435.35,757.625 434.6625,756.5625 Q433.975,755.4844 433.975,754.2031 L433.975,753.0469 Q433.975,751.7188 434.5844,750.5781 Q435.2094,749.4219 436.3032,748.8125 Q437.3969,748.1875 438.6313,748.1875 Q439.3657,748.1875 440.0063,748.3594 Q440.6625,748.5156 441.2094,748.875 Z " fill="#000000"/><text fill="#000000" font-family="sans-serif" font-size="14" lengthAdjust="spacing" textLength="150.1582" x="453.9869" y="758.7285">CustomersServiceClient</text><line style="stroke:#181818;stroke-width:0.5;" x1="417.5" x2="613.0889" y1="769" y2="769"/><text fill="#000000" font-family="sans-serif" font-size="14" lengthAdjust="spacing" textLength="185.5889" x="422.5" y="787.5332">+webClientBuilder: WebClient</text><line style="stroke:#181818;stroke-width:0.5;" x1="417.5" x2="613.0889" y1="794.6094" y2="794.6094"/></g><!--class DiscoveryServerApplication--><g class="entity" data-entity="DiscoveryServerApplication" data-source-line="21" data-uid="ent0009" id="entity_DiscoveryServerApplication"><rect fill="#F1F1F1" height="48" rx="2.5" ry="2.5" style="stroke:#181818;stroke-width:0.5;" width="203.1787" x="84" y="144"/><ellipse cx="99" cy="160" fill="#ADD1B2" rx="11" ry="11" style="stroke:#181818;stroke-width:1;"/><path d="M101.7656,155.875 Q101.9219,155.6563 102.1094,155.5469 Q102.2969,155.4375 102.5156,155.4375 Q102.8906,155.4375 103.125,155.7031 Q103.3594,155.9531 103.3594,156.5625 L103.3594,158.0156 Q103.3594,158.625 103.125,158.8906 Q102.8906,159.1563 102.5156,159.1563 Q102.1719,159.1563 101.9688,158.9531 Q101.7656,158.7656 101.6563,158.25 Q101.6094,157.8906 101.4219,157.7031 Q101.0938,157.3281 100.4844,157.1094 Q99.875,156.8906 99.25,156.8906 Q98.4844,156.8906 97.8438,157.2188 Q97.2188,157.5469 96.7188,158.2969 Q96.2344,159.0469 96.2344,160.0781 L96.2344,161.1719 Q96.2344,162.4063 97.125,163.2344 Q98.0156,164.0469 99.6094,164.0469 Q100.5469,164.0469 101.2031,163.7969 Q101.5938,163.6406 102.0156,163.2031 Q102.2813,162.9375 102.4219,162.8594 Q102.5781,162.7813 102.7813,162.7813 Q103.1094,162.7813 103.3594,163.0469 Q103.625,163.2969 103.625,163.6406 Q103.625,163.9844 103.2813,164.3906 Q102.7813,164.9688 101.9844,165.2969 Q100.9063,165.75 99.6094,165.75 Q98.0938,165.75 96.8906,165.125 Q95.9063,164.625 95.2188,163.5625 Q94.5313,162.4844 94.5313,161.2031 L94.5313,160.0469 Q94.5313,158.7188 95.1406,157.5781 Q95.7656,156.4219 96.8594,155.8125 Q97.9531,155.1875 99.1875,155.1875 Q99.9219,155.1875 100.5625,155.3594 Q101.2188,155.5156 101.7656,155.875 Z " fill="#000000"/><text fill="#000000" font-family="sans-serif" font-size="14" lengthAdjust="spacing" textLength="171.1787" x="113" y="165.7285">DiscoveryServerApplication</text><line style="stroke:#181818;stroke-width:0.5;" x1="85" x2="286.1787" y1="176" y2="176"/><line style="stroke:#181818;stroke-width:0.5;" x1="85" x2="286.1787" y1="184" y2="184"/></g><!--class Mapper--><g class="entity" data-entity="Mapper" data-source-line="23" data-uid="ent0010" id="entity_Mapper"><rect fill="#F1F1F1" height="48" rx="2.5" ry="2.5" style="stroke:#181818;stroke-width:0.5;" width="79.4688" x="146" y="1056"/><ellipse cx="161" cy="1072" fill="#B4A7E5" rx="11" ry="11" style="stroke:#181818;stroke-width:1;"/><path d="M161.9531,1068.6406 L161.9531,1075.2969 L163.6719,1075.2969 Q164.2813,1075.2969 164.5469,1075.5313 Q164.8125,1075.7656 164.8125,1076.1563 Q164.8125,1076.5313 164.5469,1076.7656 Q164.2813,1077 163.6719,1077 L158.5313,1077 Q157.9219,1077 157.6563,1076.7656 Q157.3906,1076.5313 157.3906,1076.1406 Q157.3906,1075.7656 157.6563,1075.5313 Q157.9219,1075.2969 158.5313,1075.2969 L160.25,1075.2969 L160.25,1068.6406 L158.5313,1068.6406 Q157.9219,1068.6406 157.6563,1068.4063 Q157.3906,1068.1719 157.3906,1067.7813 Q157.3906,1067.4063 157.6563,1067.1719 Q157.9219,1066.9375 158.5313,1066.9375 L163.6719,1066.9375 Q164.2813,1066.9375 164.5469,1067.1719 Q164.8125,1067.4063 164.8125,1067.7813 Q164.8125,1068.1719 164.5469,1068.4063 Q164.2813,1068.6406 163.6719,1068.6406 L161.9531,1068.6406 Z " fill="#000000"/><text fill="#000000" font-family="sans-serif" font-size="14" font-style="italic" lengthAdjust="spacing" textLength="47.4688" x="175" y="1077.7285">Mapper</text><line style="stroke:#181818;stroke-width:0.5;" x1="147" x2="224.4688" y1="1088" y2="1088"/><line style="stroke:#181818;stroke-width:0.5;" x1="147" x2="224.4688" y1="1096" y2="1096"/></g><!--class MetricConfig--><g class="entity" data-entity="MetricConfig" data-source-line="25" data-uid="ent0011" id="entity_MetricConfig"><rect fill="#F1F1F1" height="48" rx="2.5" ry="2.5" style="stroke:#181818;stroke-width:0.5;" width="110.5791" x="460" y="535"/><ellipse cx="475" cy="551" fill="#ADD1B2" rx="11" ry="11" style="stroke:#181818;stroke-width:1;"/><path d="M477.7656,546.875 Q477.9219,546.6563 478.1094,546.5469 Q478.2969,546.4375 478.5156,546.4375 Q478.8906,546.4375 479.125,546.7031 Q479.3594,546.9531 479.3594,547.5625 L479.3594,549.0156 Q479.3594,549.625 479.125,549.8906 Q478.8906,550.1563 478.5156,550.1563 Q478.1719,550.1563 477.9688,549.9531 Q477.7656,549.7656 477.6563,549.25 Q477.6094,548.8906 477.4219,548.7031 Q477.0938,548.3281 476.4844,548.1094 Q475.875,547.8906 475.25,547.8906 Q474.4844,547.8906 473.8438,548.2188 Q473.2188,548.5469 472.7188,549.2969 Q472.2344,550.0469 472.2344,551.0781 L472.2344,552.1719 Q472.2344,553.4063 473.125,554.2344 Q474.0156,555.0469 475.6094,555.0469 Q476.5469,555.0469 477.2031,554.7969 Q477.5938,554.6406 478.0156,554.2031 Q478.2813,553.9375 478.4219,553.8594 Q478.5781,553.7813 478.7813,553.7813 Q479.1094,553.7813 479.3594,554.0469 Q479.625,554.2969 479.625,554.6406 Q479.625,554.9844 479.2813,555.3906 Q478.7813,555.9688 477.9844,556.2969 Q476.9063,556.75 475.6094,556.75 Q474.0938,556.75 472.8906,556.125 Q471.9063,555.625 471.2188,554.5625 Q470.5313,553.4844 470.5313,552.2031 L470.5313,551.0469 Q470.5313,549.7188 471.1406,548.5781 Q471.7656,547.4219 472.8594,546.8125 Q473.9531,546.1875 475.1875,546.1875 Q475.9219,546.1875 476.5625,546.3594 Q477.2188,546.5156 477.7656,546.875 Z " fill="#000000"/><text fill="#000000" font-family="sans-serif" font-size="14" lengthAdjust="spacing" textLength="78.5791" x="489" y="556.7285">MetricConfig</text><line style="stroke:#181818;stroke-width:0.5;" x1="461" x2="569.5791" y1="567" y2="567"/><line style="stroke:#181818;stroke-width:0.5;" x1="461" x2="569.5791" y1="575" y2="575"/></g><!--class Owner--><g class="entity" data-entity="Owner" data-source-line="27" data-uid="ent0012" id="entity_Owner"><rect fill="#F1F1F1" height="171.2656" rx="2.5" ry="2.5" style="stroke:#181818;stroke-width:0.5;" width="126.0303" x="452.5" y="838.5"/><ellipse cx="491.2582" cy="854.5" fill="#ADD1B2" rx="11" ry="11" style="stroke:#181818;stroke-width:1;"/><path d="M494.0238,850.375 Q494.18,850.1563 494.3675,850.0469 Q494.555,849.9375 494.7738,849.9375 Q495.1488,849.9375 495.3832,850.2031 Q495.6175,850.4531 495.6175,851.0625 L495.6175,852.5156 Q495.6175,853.125 495.3832,853.3906 Q495.1488,853.6563 494.7738,853.6563 Q494.43,853.6563 494.2269,853.4531 Q494.0238,853.2656 493.9144,852.75 Q493.8675,852.3906 493.68,852.2031 Q493.3519,851.8281 492.7425,851.6094 Q492.1332,851.3906 491.5082,851.3906 Q490.7425,851.3906 490.1019,851.7188 Q489.4769,852.0469 488.9769,852.7969 Q488.4925,853.5469 488.4925,854.5781 L488.4925,855.6719 Q488.4925,856.9063 489.3832,857.7344 Q490.2738,858.5469 491.8675,858.5469 Q492.805,858.5469 493.4613,858.2969 Q493.8519,858.1406 494.2738,857.7031 Q494.5394,857.4375 494.68,857.3594 Q494.8363,857.2813 495.0394,857.2813 Q495.3675,857.2813 495.6175,857.5469 Q495.8832,857.7969 495.8832,858.1406 Q495.8832,858.4844 495.5394,858.8906 Q495.0394,859.4688 494.2425,859.7969 Q493.1644,860.25 491.8675,860.25 Q490.3519,860.25 489.1488,859.625 Q488.1644,859.125 487.4769,858.0625 Q486.7894,856.9844 486.7894,855.7031 L486.7894,854.5469 Q486.7894,853.2188 487.3988,852.0781 Q488.0238,850.9219 489.1175,850.3125 Q490.2113,849.6875 491.4457,849.6875 Q492.18,849.6875 492.8207,849.8594 Q493.4769,850.0156 494.0238,850.375 Z " fill="#000000"/><text fill="#000000" font-family="sans-serif" font-size="14" lengthAdjust="spacing" textLength="41.2344" x="510.5377" y="860.2285">Owner</text><line style="stroke:#181818;stroke-width:0.5;" x1="453.5" x2="577.5303" y1="870.5" y2="870.5"/><text fill="#000000" font-family="sans-serif" font-size="14" lengthAdjust="spacing" textLength="70.4375" x="458.5" y="889.0332">+id: Integer</text><text fill="#000000" font-family="sans-serif" font-size="14" lengthAdjust="spacing" textLength="112.4238" x="458.5" y="906.6426">+firstName: String</text><text fill="#000000" font-family="sans-serif" font-size="14" lengthAdjust="spacing" textLength="111.6582" x="458.5" y="924.252">+lastName: String</text><text fill="#000000" font-family="sans-serif" font-size="14" lengthAdjust="spacing" textLength="102.334" x="458.5" y="941.8613">+address: String</text><text fill="#000000" font-family="sans-serif" font-size="14" lengthAdjust="spacing" textLength="73.5273" x="458.5" y="959.4707">+city: String</text><text fill="#000000" font-family="sans-serif" font-size="14" lengthAdjust="spacing" textLength="114.0303" x="458.5" y="977.0801">+telephone: String</text><text fill="#000000" font-family="sans-serif" font-size="14" lengthAdjust="spacing" textLength="63.4307" x="458.5" y="994.6895">+pets: Set</text><line style="stroke:#181818;stroke-width:0.5;" x1="453.5" x2="577.5303" y1="1001.7656" y2="1001.7656"/></g><!--class OwnerDetails--><g class="entity" data-entity="OwnerDetails" data-source-line="36" data-uid="ent0013" id="entity_OwnerDetails"><rect fill="#F1F1F1" height="171.2656" rx="2.5" ry="2.5" style="stroke:#181818;stroke-width:0.5;" width="126.0303" x="452.5" y="328.5"/><ellipse cx="472.0013" cy="344.5" fill="#ADD1B2" rx="11" ry="11" style="stroke:#181818;stroke-width:1;"/><path d="M474.7669,340.375 Q474.9232,340.1563 475.1107,340.0469 Q475.2982,339.9375 475.5169,339.9375 Q475.8919,339.9375 476.1263,340.2031 Q476.3607,340.4531 476.3607,341.0625 L476.3607,342.5156 Q476.3607,343.125 476.1263,343.3906 Q475.8919,343.6563 475.5169,343.6563 Q475.1732,343.6563 474.9701,343.4531 Q474.7669,343.2656 474.6576,342.75 Q474.6107,342.3906 474.4232,342.2031 Q474.0951,341.8281 473.4857,341.6094 Q472.8763,341.3906 472.2513,341.3906 Q471.4857,341.3906 470.8451,341.7188 Q470.2201,342.0469 469.7201,342.7969 Q469.2357,343.5469 469.2357,344.5781 L469.2357,345.6719 Q469.2357,346.9063 470.1263,347.7344 Q471.0169,348.5469 472.6107,348.5469 Q473.5482,348.5469 474.2044,348.2969 Q474.5951,348.1406 475.0169,347.7031 Q475.2826,347.4375 475.4232,347.3594 Q475.5794,347.2813 475.7826,347.2813 Q476.1107,347.2813 476.3607,347.5469 Q476.6263,347.7969 476.6263,348.1406 Q476.6263,348.4844 476.2826,348.8906 Q475.7826,349.4688 474.9857,349.7969 Q473.9076,350.25 472.6107,350.25 Q471.0951,350.25 469.8919,349.625 Q468.9076,349.125 468.2201,348.0625 Q467.5326,346.9844 467.5326,345.7031 L467.5326,344.5469 Q467.5326,343.2188 468.1419,342.0781 Q468.7669,340.9219 469.8607,340.3125 Q470.9544,339.6875 472.1888,339.6875 Q472.9232,339.6875 473.5638,339.8594 Q474.2201,340.0156 474.7669,340.375 Z " fill="#000000"/><text fill="#000000" font-family="sans-serif" font-size="14" lengthAdjust="spacing" textLength="84.0273" x="487.0016" y="350.2285">OwnerDetails</text><line style="stroke:#181818;stroke-width:0.5;" x1="453.5" x2="577.5303" y1="360.5" y2="360.5"/><text fill="#000000" font-family="sans-serif" font-size="14" lengthAdjust="spacing" textLength="41.6377" x="458.5" y="379.0332">+id: int</text><text fill="#000000" font-family="sans-serif" font-size="14" lengthAdjust="spacing" textLength="112.4238" x="458.5" y="396.6426">+firstName: String</text><text fill="#000000" font-family="sans-serif" font-size="14" lengthAdjust="spacing" textLength="111.6582" x="458.5" y="414.252">+lastName: String</text><text fill="#000000" font-family="sans-serif" font-size="14" lengthAdjust="spacing" textLength="102.334" x="458.5" y="431.8613">+address: String</text><text fill="#000000" font-family="sans-serif" font-size="14" lengthAdjust="spacing" textLength="73.5273" x="458.5" y="449.4707">+city: String</text><text fill="#000000" font-family="sans-serif" font-size="14" lengthAdjust="spacing" textLength="114.0303" x="458.5" y="467.0801">+telephone: String</text><text fill="#000000" font-family="sans-serif" font-size="14" lengthAdjust="spacing" textLength="64.2031" x="458.5" y="484.6895">+pets: List</text><line style="stroke:#181818;stroke-width:0.5;" x1="453.5" x2="577.5303" y1="491.7656" y2="491.7656"/></g><!--class OwnerEntityMapper--><g class="entity" data-entity="OwnerEntityMapper" data-source-line="45" data-uid="ent0014" id="entity_OwnerEntityMapper"><rect fill="#F1F1F1" height="48" rx="2.5" ry="2.5" style="stroke:#181818;stroke-width:0.5;" width="155.7168" x="437.5" y="1163"/><ellipse cx="452.5" cy="1179" fill="#ADD1B2" rx="11" ry="11" style="stroke:#181818;stroke-width:1;"/><path d="M455.2656,1174.875 Q455.4219,1174.6563 455.6094,1174.5469 Q455.7969,1174.4375 456.0156,1174.4375 Q456.3906,1174.4375 456.625,1174.7031 Q456.8594,1174.9531 456.8594,1175.5625 L456.8594,1177.0156 Q456.8594,1177.625 456.625,1177.8906 Q456.3906,1178.1563 456.0156,1178.1563 Q455.6719,1178.1563 455.4688,1177.9531 Q455.2656,1177.7656 455.1563,1177.25 Q455.1094,1176.8906 454.9219,1176.7031 Q454.5938,1176.3281 453.9844,1176.1094 Q453.375,1175.8906 452.75,1175.8906 Q451.9844,1175.8906 451.3438,1176.2188 Q450.7188,1176.5469 450.2188,1177.2969 Q449.7344,1178.0469 449.7344,1179.0781 L449.7344,1180.1719 Q449.7344,1181.4063 450.625,1182.2344 Q451.5156,1183.0469 453.1094,1183.0469 Q454.0469,1183.0469 454.7031,1182.7969 Q455.0938,1182.6406 455.5156,1182.2031 Q455.7813,1181.9375 455.9219,1181.8594 Q456.0781,1181.7813 456.2813,1181.7813 Q456.6094,1181.7813 456.8594,1182.0469 Q457.125,1182.2969 457.125,1182.6406 Q457.125,1182.9844 456.7813,1183.3906 Q456.2813,1183.9688 455.4844,1184.2969 Q454.4063,1184.75 453.1094,1184.75 Q451.5938,1184.75 450.3906,1184.125 Q449.4063,1183.625 448.7188,1182.5625 Q448.0313,1181.4844 448.0313,1180.2031 L448.0313,1179.0469 Q448.0313,1177.7188 448.6406,1176.5781 Q449.2656,1175.4219 450.3594,1174.8125 Q451.4531,1174.1875 452.6875,1174.1875 Q453.4219,1174.1875 454.0625,1174.3594 Q454.7188,1174.5156 455.2656,1174.875 Z " fill="#000000"/><text fill="#000000" font-family="sans-serif" font-size="14" lengthAdjust="spacing" textLength="123.7168" x="466.5" y="1184.7285">OwnerEntityMapper</text><line style="stroke:#181818;stroke-width:0.5;" x1="438.5" x2="592.2168" y1="1195" y2="1195"/><line style="stroke:#181818;stroke-width:0.5;" x1="438.5" x2="592.2168" y1="1203" y2="1203"/></g><!--class OwnerRepository--><g class="entity" data-entity="OwnerRepository" data-source-line="47" data-uid="ent0015" id="entity_OwnerRepository"><rect fill="#F1F1F1" height="48" rx="2.5" ry="2.5" style="stroke:#181818;stroke-width:0.5;" width="140.1514" x="445.5" y="1246"/><ellipse cx="460.5" cy="1262" fill="#B4A7E5" rx="11" ry="11" style="stroke:#181818;stroke-width:1;"/><path d="M461.4531,1258.6406 L461.4531,1265.2969 L463.1719,1265.2969 Q463.7813,1265.2969 464.0469,1265.5313 Q464.3125,1265.7656 464.3125,1266.1563 Q464.3125,1266.5313 464.0469,1266.7656 Q463.7813,1267 463.1719,1267 L458.0313,1267 Q457.4219,1267 457.1563,1266.7656 Q456.8906,1266.5313 456.8906,1266.1406 Q456.8906,1265.7656 457.1563,1265.5313 Q457.4219,1265.2969 458.0313,1265.2969 L459.75,1265.2969 L459.75,1258.6406 L458.0313,1258.6406 Q457.4219,1258.6406 457.1563,1258.4063 Q456.8906,1258.1719 456.8906,1257.7813 Q456.8906,1257.4063 457.1563,1257.1719 Q457.4219,1256.9375 458.0313,1256.9375 L463.1719,1256.9375 Q463.7813,1256.9375 464.0469,1257.1719 Q464.3125,1257.4063 464.3125,1257.7813 Q464.3125,1258.1719 464.0469,1258.4063 Q463.7813,1258.6406 463.1719,1258.6406 L461.4531,1258.6406 Z " fill="#000000"/><text fill="#000000" font-family="sans-serif" font-size="14" font-style="italic" lengthAdjust="spacing" textLength="108.1514" x="474.5" y="1267.7285">OwnerRepository</text><line style="stroke:#181818;stroke-width:0.5;" x1="446.5" x2="584.6514" y1="1278" y2="1278"/><line style="stroke:#181818;stroke-width:0.5;" x1="446.5" x2="584.6514" y1="1286" y2="1286"/></g><!--class OwnerResource--><g class="entity" data-entity="OwnerResource" data-source-line="49" data-uid="ent0016" id="entity_OwnerResource"><rect fill="#F1F1F1" height="83.2188" rx="2.5" ry="2.5" style="stroke:#181818;stroke-width:0.5;" width="272.2852" x="49.5" y="1139.5"/><ellipse cx="130.8169" cy="1155.5" fill="#ADD1B2" rx="11" ry="11" style="stroke:#181818;stroke-width:1;"/><path d="M133.5825,1151.375 Q133.7388,1151.1563 133.9263,1151.0469 Q134.1138,1150.9375 134.3325,1150.9375 Q134.7075,1150.9375 134.9419,1151.2031 Q135.1763,1151.4531 135.1763,1152.0625 L135.1763,1153.5156 Q135.1763,1154.125 134.9419,1154.3906 Q134.7075,1154.6563 134.3325,1154.6563 Q133.9888,1154.6563 133.7856,1154.4531 Q133.5825,1154.2656 133.4731,1153.75 Q133.4263,1153.3906 133.2388,1153.2031 Q132.9106,1152.8281 132.3013,1152.6094 Q131.6919,1152.3906 131.0669,1152.3906 Q130.3013,1152.3906 129.6606,1152.7188 Q129.0356,1153.0469 128.5356,1153.7969 Q128.0513,1154.5469 128.0513,1155.5781 L128.0513,1156.6719 Q128.0513,1157.9063 128.9419,1158.7344 Q129.8325,1159.5469 131.4263,1159.5469 Q132.3638,1159.5469 133.02,1159.2969 Q133.4106,1159.1406 133.8325,1158.7031 Q134.0981,1158.4375 134.2388,1158.3594 Q134.395,1158.2813 134.5981,1158.2813 Q134.9263,1158.2813 135.1763,1158.5469 Q135.4419,1158.7969 135.4419,1159.1406 Q135.4419,1159.4844 135.0981,1159.8906 Q134.5981,1160.4688 133.8013,1160.7969 Q132.7231,1161.25 131.4263,1161.25 Q129.9106,1161.25 128.7075,1160.625 Q127.7231,1160.125 127.0356,1159.0625 Q126.3481,1157.9844 126.3481,1156.7031 L126.3481,1155.5469 Q126.3481,1154.2188 126.9575,1153.0781 Q127.5825,1151.9219 128.6763,1151.3125 Q129.77,1150.6875 131.0044,1150.6875 Q131.7388,1150.6875 132.3794,1150.8594 Q133.0356,1151.0156 133.5825,1151.375 Z " fill="#000000"/><text fill="#000000" font-family="sans-serif" font-size="14" lengthAdjust="spacing" textLength="101.1514" x="151.3169" y="1161.2285">OwnerResource</text><line style="stroke:#181818;stroke-width:0.5;" x1="50.5" x2="320.7852" y1="1171.5" y2="1171.5"/><text fill="#000000" font-family="sans-serif" font-size="14" lengthAdjust="spacing" textLength="229.1543" x="55.5" y="1190.0332">+ownerRepository: OwnerRepository</text><text fill="#000000" font-family="sans-serif" font-size="14" lengthAdjust="spacing" textLength="260.2852" x="55.5" y="1207.6426">+ownerEntityMapper: OwnerEntityMapper</text><line style="stroke:#181818;stroke-width:0.5;" x1="50.5" x2="320.7852" y1="1214.7188" y2="1214.7188"/></g><!--class Pet--><g class="entity" data-entity="Pet" data-source-line="53" data-uid="ent0017" id="entity_Pet"><rect fill="#F1F1F1" height="136.0469" rx="2.5" ry="2.5" style="stroke:#181818;stroke-width:0.5;" width="114.334" x="128.5" y="714"/><ellipse cx="171.0941" cy="730" fill="#ADD1B2" rx="11" ry="11" style="stroke:#181818;stroke-width:1;"/><path d="M173.8598,725.875 Q174.016,725.6563 174.2035,725.5469 Q174.391,725.4375 174.6098,725.4375 Q174.9848,725.4375 175.2191,725.7031 Q175.4535,725.9531 175.4535,726.5625 L175.4535,728.0156 Q175.4535,728.625 175.2191,728.8906 Q174.9848,729.1563 174.6098,729.1563 Q174.266,729.1563 174.0629,728.9531 Q173.8598,728.7656 173.7504,728.25 Q173.7035,727.8906 173.516,727.7031 Q173.1879,727.3281 172.5785,727.1094 Q171.9691,726.8906 171.3441,726.8906 Q170.5785,726.8906 169.9379,727.2188 Q169.3129,727.5469 168.8129,728.2969 Q168.3285,729.0469 168.3285,730.0781 L168.3285,731.1719 Q168.3285,732.4063 169.2191,733.2344 Q170.1098,734.0469 171.7035,734.0469 Q172.641,734.0469 173.2973,733.7969 Q173.6879,733.6406 174.1098,733.2031 Q174.3754,732.9375 174.516,732.8594 Q174.6723,732.7813 174.8754,732.7813 Q175.2035,732.7813 175.4535,733.0469 Q175.7191,733.2969 175.7191,733.6406 Q175.7191,733.9844 175.3754,734.3906 Q174.8754,734.9688 174.0785,735.2969 Q173.0004,735.75 171.7035,735.75 Q170.1879,735.75 168.9848,735.125 Q168.0004,734.625 167.3129,733.5625 Q166.6254,732.4844 166.6254,731.2031 L166.6254,730.0469 Q166.6254,728.7188 167.2348,727.5781 Q167.8598,726.4219 168.9535,725.8125 Q170.0473,725.1875 171.2816,725.1875 Q172.016,725.1875 172.6566,725.3594 Q173.3129,725.5156 173.8598,725.875 Z " fill="#000000"/><text fill="#000000" font-family="sans-serif" font-size="14" lengthAdjust="spacing" textLength="21.0137" x="191.2262" y="735.7285">Pet</text><line style="stroke:#181818;stroke-width:0.5;" x1="129.5" x2="241.834" y1="746" y2="746"/><text fill="#000000" font-family="sans-serif" font-size="14" lengthAdjust="spacing" textLength="70.4375" x="134.5" y="764.5332">+id: Integer</text><text fill="#000000" font-family="sans-serif" font-size="14" lengthAdjust="spacing" textLength="87.5479" x="134.5" y="782.1426">+name: String</text><text fill="#000000" font-family="sans-serif" font-size="14" lengthAdjust="spacing" textLength="102.334" x="134.5" y="799.752">+birthDate: Date</text><text fill="#000000" font-family="sans-serif" font-size="14" lengthAdjust="spacing" textLength="94.5547" x="134.5" y="817.3613">+type: PetType</text><text fill="#000000" font-family="sans-serif" font-size="14" lengthAdjust="spacing" textLength="95.3203" x="134.5" y="834.9707">+owner: Owner</text><line style="stroke:#181818;stroke-width:0.5;" x1="129.5" x2="241.834" y1="842.0469" y2="842.0469"/></g><!--class PetDetails--><g class="entity" data-entity="PetDetails" data-source-line="60" data-uid="ent0018" id="entity_PetDetails"><rect fill="#F1F1F1" height="136.0469" rx="2.5" ry="2.5" style="stroke:#181818;stroke-width:0.5;" width="121.334" x="125" y="885"/><ellipse cx="151.4873" cy="901" fill="#ADD1B2" rx="11" ry="11" style="stroke:#181818;stroke-width:1;"/><path d="M154.2529,896.875 Q154.4092,896.6563 154.5967,896.5469 Q154.7842,896.4375 155.0029,896.4375 Q155.3779,896.4375 155.6123,896.7031 Q155.8467,896.9531 155.8467,897.5625 L155.8467,899.0156 Q155.8467,899.625 155.6123,899.8906 Q155.3779,900.1563 155.0029,900.1563 Q154.6592,900.1563 154.4561,899.9531 Q154.2529,899.7656 154.1436,899.25 Q154.0967,898.8906 153.9092,898.7031 Q153.5811,898.3281 152.9717,898.1094 Q152.3623,897.8906 151.7373,897.8906 Q150.9717,897.8906 150.3311,898.2188 Q149.7061,898.5469 149.2061,899.2969 Q148.7217,900.0469 148.7217,901.0781 L148.7217,902.1719 Q148.7217,903.4063 149.6123,904.2344 Q150.5029,905.0469 152.0967,905.0469 Q153.0342,905.0469 153.6904,904.7969 Q154.0811,904.6406 154.5029,904.2031 Q154.7686,903.9375 154.9092,903.8594 Q155.0654,903.7813 155.2686,903.7813 Q155.5967,903.7813 155.8467,904.0469 Q156.1123,904.2969 156.1123,904.6406 Q156.1123,904.9844 155.7686,905.3906 Q155.2686,905.9688 154.4717,906.2969 Q153.3936,906.75 152.0967,906.75 Q150.5811,906.75 149.3779,906.125 Q148.3936,905.625 147.7061,904.5625 Q147.0186,903.4844 147.0186,902.2031 L147.0186,901.0469 Q147.0186,899.7188 147.6279,898.5781 Q148.2529,897.4219 149.3467,896.8125 Q150.4404,896.1875 151.6748,896.1875 Q152.4092,896.1875 153.0498,896.3594 Q153.7061,896.5156 154.2529,896.875 Z " fill="#000000"/><text fill="#000000" font-family="sans-serif" font-size="14" lengthAdjust="spacing" textLength="63.8066" x="168.04" y="906.7285">PetDetails</text><line style="stroke:#181818;stroke-width:0.5;" x1="126" x2="245.334" y1="917" y2="917"/><text fill="#000000" font-family="sans-serif" font-size="14" lengthAdjust="spacing" textLength="41.6377" x="131" y="935.5332">+id: int</text><text fill="#000000" font-family="sans-serif" font-size="14" lengthAdjust="spacing" textLength="87.5479" x="131" y="953.1426">+name: String</text><text fill="#000000" font-family="sans-serif" font-size="14" lengthAdjust="spacing" textLength="109.334" x="131" y="970.752">+birthDate: String</text><text fill="#000000" font-family="sans-serif" font-size="14" lengthAdjust="spacing" textLength="94.5547" x="131" y="988.3613">+type: PetType</text><text fill="#000000" font-family="sans-serif" font-size="14" lengthAdjust="spacing" textLength="68.8516" x="131" y="1005.9707">+visits: List</text><line style="stroke:#181818;stroke-width:0.5;" x1="126" x2="245.334" y1="1013.0469" y2="1013.0469"/></g><!--class PetRepository--><g class="entity" data-entity="PetRepository" data-source-line="67" data-uid="ent0019" id="entity_PetRepository"><rect fill="#F1F1F1" height="48" rx="2.5" ry="2.5" style="stroke:#181818;stroke-width:0.5;" width="119.9307" x="455.5" y="1329"/><ellipse cx="470.5" cy="1345" fill="#B4A7E5" rx="11" ry="11" style="stroke:#181818;stroke-width:1;"/><path d="M471.4531,1341.6406 L471.4531,1348.2969 L473.1719,1348.2969 Q473.7813,1348.2969 474.0469,1348.5313 Q474.3125,1348.7656 474.3125,1349.1563 Q474.3125,1349.5313 474.0469,1349.7656 Q473.7813,1350 473.1719,1350 L468.0313,1350 Q467.4219,1350 467.1563,1349.7656 Q466.8906,1349.5313 466.8906,1349.1406 Q466.8906,1348.7656 467.1563,1348.5313 Q467.4219,1348.2969 468.0313,1348.2969 L469.75,1348.2969 L469.75,1341.6406 L468.0313,1341.6406 Q467.4219,1341.6406 467.1563,1341.4063 Q466.8906,1341.1719 466.8906,1340.7813 Q466.8906,1340.4063 467.1563,1340.1719 Q467.4219,1339.9375 468.0313,1339.9375 L473.1719,1339.9375 Q473.7813,1339.9375 474.0469,1340.1719 Q474.3125,1340.4063 474.3125,1340.7813 Q474.3125,1341.1719 474.0469,1341.4063 Q473.7813,1341.6406 473.1719,1341.6406 L471.4531,1341.6406 Z " fill="#000000"/><text fill="#000000" font-family="sans-serif" font-size="14" font-style="italic" lengthAdjust="spacing" textLength="87.9307" x="484.5" y="1350.7285">PetRepository</text><line style="stroke:#181818;stroke-width:0.5;" x1="456.5" x2="574.4307" y1="1361" y2="1361"/><line style="stroke:#181818;stroke-width:0.5;" x1="456.5" x2="574.4307" y1="1369" y2="1369"/></g><!--class PetResource--><g class="entity" data-entity="PetResource" data-source-line="69" data-uid="ent0020" id="entity_PetResource"><rect fill="#F1F1F1" height="83.2188" rx="2.5" ry="2.5" style="stroke:#181818;stroke-width:0.5;" width="241.1543" x="65" y="1257.5"/><ellipse cx="140.8618" cy="1273.5" fill="#ADD1B2" rx="11" ry="11" style="stroke:#181818;stroke-width:1;"/><path d="M143.6274,1269.375 Q143.7837,1269.1563 143.9712,1269.0469 Q144.1587,1268.9375 144.3774,1268.9375 Q144.7524,1268.9375 144.9868,1269.2031 Q145.2212,1269.4531 145.2212,1270.0625 L145.2212,1271.5156 Q145.2212,1272.125 144.9868,1272.3906 Q144.7524,1272.6563 144.3774,1272.6563 Q144.0337,1272.6563 143.8306,1272.4531 Q143.6274,1272.2656 143.5181,1271.75 Q143.4712,1271.3906 143.2837,1271.2031 Q142.9556,1270.8281 142.3462,1270.6094 Q141.7368,1270.3906 141.1118,1270.3906 Q140.3462,1270.3906 139.7056,1270.7188 Q139.0806,1271.0469 138.5806,1271.7969 Q138.0962,1272.5469 138.0962,1273.5781 L138.0962,1274.6719 Q138.0962,1275.9063 138.9868,1276.7344 Q139.8774,1277.5469 141.4712,1277.5469 Q142.4087,1277.5469 143.0649,1277.2969 Q143.4556,1277.1406 143.8774,1276.7031 Q144.1431,1276.4375 144.2837,1276.3594 Q144.4399,1276.2813 144.6431,1276.2813 Q144.9712,1276.2813 145.2212,1276.5469 Q145.4868,1276.7969 145.4868,1277.1406 Q145.4868,1277.4844 145.1431,1277.8906 Q144.6431,1278.4688 143.8462,1278.7969 Q142.7681,1279.25 141.4712,1279.25 Q139.9556,1279.25 138.7524,1278.625 Q137.7681,1278.125 137.0806,1277.0625 Q136.3931,1275.9844 136.3931,1274.7031 L136.3931,1273.5469 Q136.3931,1272.2188 137.0024,1271.0781 Q137.6274,1269.9219 138.7212,1269.3125 Q139.8149,1268.6875 141.0493,1268.6875 Q141.7837,1268.6875 142.4243,1268.8594 Q143.0806,1269.0156 143.6274,1269.375 Z " fill="#000000"/><text fill="#000000" font-family="sans-serif" font-size="14" lengthAdjust="spacing" textLength="80.9307" x="161.3618" y="1279.2285">PetResource</text><line style="stroke:#181818;stroke-width:0.5;" x1="66" x2="305.1543" y1="1289.5" y2="1289.5"/><text fill="#000000" font-family="sans-serif" font-size="14" lengthAdjust="spacing" textLength="190.2646" x="71" y="1308.0332">+petRepository: PetRepository</text><text fill="#000000" font-family="sans-serif" font-size="14" lengthAdjust="spacing" textLength="229.1543" x="71" y="1325.6426">+ownerRepository: OwnerRepository</text><line style="stroke:#181818;stroke-width:0.5;" x1="66" x2="305.1543" y1="1332.7188" y2="1332.7188"/></g><!--class PetType--><g class="entity" data-entity="PetType" data-source-line="73" data-uid="ent0021" id="entity_PetType"><rect fill="#F1F1F1" height="83.2188" rx="2.5" ry="2.5" style="stroke:#181818;stroke-width:0.5;" width="99.5479" x="465.5" y="1044.5"/><ellipse cx="487.4346" cy="1060.5" fill="#ADD1B2" rx="11" ry="11" style="stroke:#181818;stroke-width:1;"/><path d="M490.2002,1056.375 Q490.3564,1056.1563 490.5439,1056.0469 Q490.7314,1055.9375 490.9502,1055.9375 Q491.3252,1055.9375 491.5596,1056.2031 Q491.7939,1056.4531 491.7939,1057.0625 L491.7939,1058.5156 Q491.7939,1059.125 491.5596,1059.3906 Q491.3252,1059.6563 490.9502,1059.6563 Q490.6064,1059.6563 490.4033,1059.4531 Q490.2002,1059.2656 490.0908,1058.75 Q490.0439,1058.3906 489.8564,1058.2031 Q489.5283,1057.8281 488.9189,1057.6094 Q488.3096,1057.3906 487.6846,1057.3906 Q486.9189,1057.3906 486.2783,1057.7188 Q485.6533,1058.0469 485.1533,1058.7969 Q484.6689,1059.5469 484.6689,1060.5781 L484.6689,1061.6719 Q484.6689,1062.9063 485.5596,1063.7344 Q486.4502,1064.5469 488.0439,1064.5469 Q488.9814,1064.5469 489.6377,1064.2969 Q490.0283,1064.1406 490.4502,1063.7031 Q490.7158,1063.4375 490.8564,1063.3594 Q491.0127,1063.2813 491.2158,1063.2813 Q491.5439,1063.2813 491.7939,1063.5469 Q492.0596,1063.7969 492.0596,1064.1406 Q492.0596,1064.4844 491.7158,1064.8906 Q491.2158,1065.4688 490.4189,1065.7969 Q489.3408,1066.25 488.0439,1066.25 Q486.5283,1066.25 485.3252,1065.625 Q484.3408,1065.125 483.6533,1064.0625 Q482.9658,1062.9844 482.9658,1061.7031 L482.9658,1060.5469 Q482.9658,1059.2188 483.5752,1058.0781 Q484.2002,1056.9219 485.2939,1056.3125 Q486.3877,1055.6875 487.6221,1055.6875 Q488.3564,1055.6875 488.9971,1055.8594 Q489.6533,1056.0156 490.2002,1056.375 Z " fill="#000000"/><text fill="#000000" font-family="sans-serif" font-size="14" lengthAdjust="spacing" textLength="52.1377" x="502.9756" y="1066.2285">PetType</text><line style="stroke:#181818;stroke-width:0.5;" x1="466.5" x2="564.0479" y1="1076.5" y2="1076.5"/><text fill="#000000" font-family="sans-serif" font-size="14" lengthAdjust="spacing" textLength="70.4375" x="471.5" y="1095.0332">+id: Integer</text><text fill="#000000" font-family="sans-serif" font-size="14" lengthAdjust="spacing" textLength="87.5479" x="471.5" y="1112.6426">+name: String</text><line style="stroke:#181818;stroke-width:0.5;" x1="466.5" x2="564.0479" y1="1119.7188" y2="1119.7188"/></g><!--class ResourceNotFoundException--><g class="entity" data-entity="ResourceNotFoundException" data-source-line="77" data-uid="ent0022" id="entity_ResourceNotFoundException"><rect fill="#F1F1F1" height="48" rx="2.5" ry="2.5" style="stroke:#181818;stroke-width:0.5;" width="214.8818" x="408" y="245"/><ellipse cx="423" cy="261" fill="#ADD1B2" rx="11" ry="11" style="stroke:#181818;stroke-width:1;"/><path d="M425.7656,256.875 Q425.9219,256.6563 426.1094,256.5469 Q426.2969,256.4375 426.5156,256.4375 Q426.8906,256.4375 427.125,256.7031 Q427.3594,256.9531 427.3594,257.5625 L427.3594,259.0156 Q427.3594,259.625 427.125,259.8906 Q426.8906,260.1563 426.5156,260.1563 Q426.1719,260.1563 425.9688,259.9531 Q425.7656,259.7656 425.6563,259.25 Q425.6094,258.8906 425.4219,258.7031 Q425.0938,258.3281 424.4844,258.1094 Q423.875,257.8906 423.25,257.8906 Q422.4844,257.8906 421.8438,258.2188 Q421.2188,258.5469 420.7188,259.2969 Q420.2344,260.0469 420.2344,261.0781 L420.2344,262.1719 Q420.2344,263.4063 421.125,264.2344 Q422.0156,265.0469 423.6094,265.0469 Q424.5469,265.0469 425.2031,264.7969 Q425.5938,264.6406 426.0156,264.2031 Q426.2813,263.9375 426.4219,263.8594 Q426.5781,263.7813 426.7813,263.7813 Q427.1094,263.7813 427.3594,264.0469 Q427.625,264.2969 427.625,264.6406 Q427.625,264.9844 427.2813,265.3906 Q426.7813,265.9688 425.9844,266.2969 Q424.9063,266.75 423.6094,266.75 Q422.0938,266.75 420.8906,266.125 Q419.9063,265.625 419.2188,264.5625 Q418.5313,263.4844 418.5313,262.2031 L418.5313,261.0469 Q418.5313,259.7188 419.1406,258.5781 Q419.7656,257.4219 420.8594,256.8125 Q421.9531,256.1875 423.1875,256.1875 Q423.9219,256.1875 424.5625,256.3594 Q425.2188,256.5156 425.7656,256.875 Z " fill="#000000"/><text fill="#000000" font-family="sans-serif" font-size="14" lengthAdjust="spacing" textLength="182.8818" x="437" y="266.7285">ResourceNotFoundException</text><line style="stroke:#181818;stroke-width:0.5;" x1="409" x2="621.8818" y1="277" y2="277"/><line style="stroke:#181818;stroke-width:0.5;" x1="409" x2="621.8818" y1="285" y2="285"/></g><!--class Specialty--><g class="entity" data-entity="Specialty" data-source-line="79" data-uid="ent0023" id="entity_Specialty"><rect fill="#F1F1F1" height="83.2188" rx="2.5" ry="2.5" style="stroke:#181818;stroke-width:0.5;" width="99.5479" x="465.5" y="126.5"/><ellipse cx="485.3335" cy="142.5" fill="#ADD1B2" rx="11" ry="11" style="stroke:#181818;stroke-width:1;"/><path d="M488.0992,138.375 Q488.2554,138.1563 488.4429,138.0469 Q488.6304,137.9375 488.8492,137.9375 Q489.2242,137.9375 489.4585,138.2031 Q489.6929,138.4531 489.6929,139.0625 L489.6929,140.5156 Q489.6929,141.125 489.4585,141.3906 Q489.2242,141.6563 488.8492,141.6563 Q488.5054,141.6563 488.3023,141.4531 Q488.0992,141.2656 487.9898,140.75 Q487.9429,140.3906 487.7554,140.2031 Q487.4273,139.8281 486.8179,139.6094 Q486.2085,139.3906 485.5835,139.3906 Q484.8179,139.3906 484.1773,139.7188 Q483.5523,140.0469 483.0523,140.7969 Q482.5679,141.5469 482.5679,142.5781 L482.5679,143.6719 Q482.5679,144.9063 483.4585,145.7344 Q484.3492,146.5469 485.9429,146.5469 Q486.8804,146.5469 487.5367,146.2969 Q487.9273,146.1406 488.3492,145.7031 Q488.6148,145.4375 488.7554,145.3594 Q488.9117,145.2813 489.1148,145.2813 Q489.4429,145.2813 489.6929,145.5469 Q489.9585,145.7969 489.9585,146.1406 Q489.9585,146.4844 489.6148,146.8906 Q489.1148,147.4688 488.3179,147.7969 Q487.2398,148.25 485.9429,148.25 Q484.4273,148.25 483.2242,147.625 Q482.2398,147.125 481.5523,146.0625 Q480.8648,144.9844 480.8648,143.7031 L480.8648,142.5469 Q480.8648,141.2188 481.4742,140.0781 Q482.0992,138.9219 483.1929,138.3125 Q484.2867,137.6875 485.521,137.6875 Q486.2554,137.6875 486.896,137.8594 Q487.5523,138.0156 488.0992,138.375 Z " fill="#000000"/><text fill="#000000" font-family="sans-serif" font-size="14" lengthAdjust="spacing" textLength="56.8066" x="500.4077" y="148.2285">Specialty</text><line style="stroke:#181818;stroke-width:0.5;" x1="466.5" x2="564.0479" y1="158.5" y2="158.5"/><text fill="#000000" font-family="sans-serif" font-size="14" lengthAdjust="spacing" textLength="70.4375" x="471.5" y="177.0332">+id: Integer</text><text fill="#000000" font-family="sans-serif" font-size="14" lengthAdjust="spacing" textLength="87.5479" x="471.5" y="194.6426">+name: String</text><line style="stroke:#181818;stroke-width:0.5;" x1="466.5" x2="564.0479" y1="201.7188" y2="201.7188"/></g><!--class SpringBootAdminApplication--><g class="entity" data-entity="SpringBootAdminApplication" data-source-line="83" data-uid="ent0024" id="entity_SpringBootAdminApplication"><rect fill="#F1F1F1" height="48" rx="2.5" ry="2.5" style="stroke:#181818;stroke-width:0.5;" width="209.4404" x="411" y="43"/><ellipse cx="426" cy="59" fill="#ADD1B2" rx="11" ry="11" style="stroke:#181818;stroke-width:1;"/><path d="M428.7656,54.875 Q428.9219,54.6563 429.1094,54.5469 Q429.2969,54.4375 429.5156,54.4375 Q429.8906,54.4375 430.125,54.7031 Q430.3594,54.9531 430.3594,55.5625 L430.3594,57.0156 Q430.3594,57.625 430.125,57.8906 Q429.8906,58.1563 429.5156,58.1563 Q429.1719,58.1563 428.9688,57.9531 Q428.7656,57.7656 428.6563,57.25 Q428.6094,56.8906 428.4219,56.7031 Q428.0938,56.3281 427.4844,56.1094 Q426.875,55.8906 426.25,55.8906 Q425.4844,55.8906 424.8438,56.2188 Q424.2188,56.5469 423.7188,57.2969 Q423.2344,58.0469 423.2344,59.0781 L423.2344,60.1719 Q423.2344,61.4063 424.125,62.2344 Q425.0156,63.0469 426.6094,63.0469 Q427.5469,63.0469 428.2031,62.7969 Q428.5938,62.6406 429.0156,62.2031 Q429.2813,61.9375 429.4219,61.8594 Q429.5781,61.7813 429.7813,61.7813 Q430.1094,61.7813 430.3594,62.0469 Q430.625,62.2969 430.625,62.6406 Q430.625,62.9844 430.2813,63.3906 Q429.7813,63.9688 428.9844,64.2969 Q427.9063,64.75 426.6094,64.75 Q425.0938,64.75 423.8906,64.125 Q422.9063,63.625 422.2188,62.5625 Q421.5313,61.4844 421.5313,60.2031 L421.5313,59.0469 Q421.5313,57.7188 422.1406,56.5781 Q422.7656,55.4219 423.8594,54.8125 Q424.9531,54.1875 426.1875,54.1875 Q426.9219,54.1875 427.5625,54.3594 Q428.2188,54.5156 428.7656,54.875 Z " fill="#000000"/><text fill="#000000" font-family="sans-serif" font-size="14" lengthAdjust="spacing" textLength="177.4404" x="440" y="64.7285">SpringBootAdminApplication</text><line style="stroke:#181818;stroke-width:0.5;" x1="412" x2="619.4404" y1="75" y2="75"/><line style="stroke:#181818;stroke-width:0.5;" x1="412" x2="619.4404" y1="83" y2="83"/></g><!--class Vet--><g class="entity" data-entity="Vet" data-source-line="85" data-uid="ent0025" id="entity_Vet"><rect fill="#F1F1F1" height="118.4375" rx="2.5" ry="2.5" style="stroke:#181818;stroke-width:0.5;" width="124.4238" x="708.5" y="533"/><ellipse cx="755.9551" cy="549" fill="#ADD1B2" rx="11" ry="11" style="stroke:#181818;stroke-width:1;"/><path d="M758.7207,544.875 Q758.877,544.6563 759.0645,544.5469 Q759.252,544.4375 759.4707,544.4375 Q759.8457,544.4375 760.0801,544.7031 Q760.3145,544.9531 760.3145,545.5625 L760.3145,547.0156 Q760.3145,547.625 760.0801,547.8906 Q759.8457,548.1563 759.4707,548.1563 Q759.127,548.1563 758.9238,547.9531 Q758.7207,547.7656 758.6113,547.25 Q758.5645,546.8906 758.377,546.7031 Q758.0488,546.3281 757.4395,546.1094 Q756.8301,545.8906 756.2051,545.8906 Q755.4395,545.8906 754.7988,546.2188 Q754.1738,546.5469 753.6738,547.2969 Q753.1895,548.0469 753.1895,549.0781 L753.1895,550.1719 Q753.1895,551.4063 754.0801,552.2344 Q754.9707,553.0469 756.5645,553.0469 Q757.502,553.0469 758.1582,552.7969 Q758.5488,552.6406 758.9707,552.2031 Q759.2363,551.9375 759.377,551.8594 Q759.5332,551.7813 759.7363,551.7813 Q760.0645,551.7813 760.3145,552.0469 Q760.5801,552.2969 760.5801,552.6406 Q760.5801,552.9844 760.2363,553.3906 Q759.7363,553.9688 758.9395,554.2969 Q757.8613,554.75 756.5645,554.75 Q755.0488,554.75 753.8457,554.125 Q752.8613,553.625 752.1738,552.5625 Q751.4863,551.4844 751.4863,550.2031 L751.4863,549.0469 Q751.4863,547.7188 752.0957,546.5781 Q752.7207,545.4219 753.8145,544.8125 Q754.9082,544.1875 756.1426,544.1875 Q756.877,544.1875 757.5176,544.3594 Q758.1738,544.5156 758.7207,544.875 Z " fill="#000000"/><text fill="#000000" font-family="sans-serif" font-size="14" lengthAdjust="spacing" textLength="21.0137" x="776.4551" y="554.7285">Vet</text><line style="stroke:#181818;stroke-width:0.5;" x1="709.5" x2="831.9238" y1="565" y2="565"/><text fill="#000000" font-family="sans-serif" font-size="14" lengthAdjust="spacing" textLength="70.4375" x="714.5" y="583.5332">+id: Integer</text><text fill="#000000" font-family="sans-serif" font-size="14" lengthAdjust="spacing" textLength="112.4238" x="714.5" y="601.1426">+firstName: String</text><text fill="#000000" font-family="sans-serif" font-size="14" lengthAdjust="spacing" textLength="111.6582" x="714.5" y="618.752">+lastName: String</text><text fill="#000000" font-family="sans-serif" font-size="14" lengthAdjust="spacing" textLength="102.334" x="714.5" y="636.3613">+specialties: Set</text><line style="stroke:#181818;stroke-width:0.5;" x1="709.5" x2="831.9238" y1="643.4375" y2="643.4375"/></g><!--class VetRepository--><g class="entity" data-entity="VetRepository" data-source-line="91" data-uid="ent0026" id="entity_VetRepository"><rect fill="#F1F1F1" height="48" rx="2.5" ry="2.5" style="stroke:#181818;stroke-width:0.5;" width="119.9307" x="455.5" y="1412"/><ellipse cx="470.5" cy="1428" fill="#B4A7E5" rx="11" ry="11" style="stroke:#181818;stroke-width:1;"/><path d="M471.4531,1424.6406 L471.4531,1431.2969 L473.1719,1431.2969 Q473.7813,1431.2969 474.0469,1431.5313 Q474.3125,1431.7656 474.3125,1432.1563 Q474.3125,1432.5313 474.0469,1432.7656 Q473.7813,1433 473.1719,1433 L468.0313,1433 Q467.4219,1433 467.1563,1432.7656 Q466.8906,1432.5313 466.8906,1432.1406 Q466.8906,1431.7656 467.1563,1431.5313 Q467.4219,1431.2969 468.0313,1431.2969 L469.75,1431.2969 L469.75,1424.6406 L468.0313,1424.6406 Q467.4219,1424.6406 467.1563,1424.4063 Q466.8906,1424.1719 466.8906,1423.7813 Q466.8906,1423.4063 467.1563,1423.1719 Q467.4219,1422.9375 468.0313,1422.9375 L473.1719,1422.9375 Q473.7813,1422.9375 474.0469,1423.1719 Q474.3125,1423.4063 474.3125,1423.7813 Q474.3125,1424.1719 474.0469,1424.4063 Q473.7813,1424.6406 473.1719,1424.6406 L471.4531,1424.6406 Z " fill="#000000"/><text fill="#000000" font-family="sans-serif" font-size="14" font-style="italic" lengthAdjust="spacing" textLength="87.9307" x="484.5" y="1433.7285">VetRepository</text><line style="stroke:#181818;stroke-width:0.5;" x1="456.5" x2="574.4307" y1="1444" y2="1444"/><line style="stroke:#181818;stroke-width:0.5;" x1="456.5" x2="574.4307" y1="1452" y2="1452"/></g><!--class VetResource--><g class="entity" data-entity="VetResource" data-source-line="93" data-uid="ent0027" id="entity_VetResource"><rect fill="#F1F1F1" height="65.6094" rx="2.5" ry="2.5" style="stroke:#181818;stroke-width:0.5;" width="201.4785" x="85" y="1376"/><ellipse cx="141.0239" cy="1392" fill="#ADD1B2" rx="11" ry="11" style="stroke:#181818;stroke-width:1;"/><path d="M143.7896,1387.875 Q143.9458,1387.6563 144.1333,1387.5469 Q144.3208,1387.4375 144.5396,1387.4375 Q144.9146,1387.4375 145.1489,1387.7031 Q145.3833,1387.9531 145.3833,1388.5625 L145.3833,1390.0156 Q145.3833,1390.625 145.1489,1390.8906 Q144.9146,1391.1563 144.5396,1391.1563 Q144.1958,1391.1563 143.9927,1390.9531 Q143.7896,1390.7656 143.6802,1390.25 Q143.6333,1389.8906 143.4458,1389.7031 Q143.1177,1389.3281 142.5083,1389.1094 Q141.8989,1388.8906 141.2739,1388.8906 Q140.5083,1388.8906 139.8677,1389.2188 Q139.2427,1389.5469 138.7427,1390.2969 Q138.2583,1391.0469 138.2583,1392.0781 L138.2583,1393.1719 Q138.2583,1394.4063 139.1489,1395.2344 Q140.0396,1396.0469 141.6333,1396.0469 Q142.5708,1396.0469 143.2271,1395.7969 Q143.6177,1395.6406 144.0396,1395.2031 Q144.3052,1394.9375 144.4458,1394.8594 Q144.6021,1394.7813 144.8052,1394.7813 Q145.1333,1394.7813 145.3833,1395.0469 Q145.6489,1395.2969 145.6489,1395.6406 Q145.6489,1395.9844 145.3052,1396.3906 Q144.8052,1396.9688 144.0083,1397.2969 Q142.9302,1397.75 141.6333,1397.75 Q140.1177,1397.75 138.9146,1397.125 Q137.9302,1396.625 137.2427,1395.5625 Q136.5552,1394.4844 136.5552,1393.2031 L136.5552,1392.0469 Q136.5552,1390.7188 137.1646,1389.5781 Q137.7896,1388.4219 138.8833,1387.8125 Q139.9771,1387.1875 141.2114,1387.1875 Q141.9458,1387.1875 142.5864,1387.3594 Q143.2427,1387.5156 143.7896,1387.875 Z " fill="#000000"/><text fill="#000000" font-family="sans-serif" font-size="14" lengthAdjust="spacing" textLength="80.9307" x="161.5239" y="1397.7285">VetResource</text><line style="stroke:#181818;stroke-width:0.5;" x1="86" x2="285.4785" y1="1408" y2="1408"/><text fill="#000000" font-family="sans-serif" font-size="14" lengthAdjust="spacing" textLength="189.4785" x="91" y="1426.5332">+vetRepository: VetRepository</text><line style="stroke:#181818;stroke-width:0.5;" x1="86" x2="285.4785" y1="1433.6094" y2="1433.6094"/></g><!--class VetsProperties--><g class="entity" data-entity="VetsProperties" data-source-line="96" data-uid="ent0028" id="entity_VetsProperties"><rect fill="#F1F1F1" height="65.6094" rx="2.5" ry="2.5" style="stroke:#181818;stroke-width:0.5;" width="123.8203" x="708.5" y="432"/><ellipse cx="723.5" cy="448" fill="#ADD1B2" rx="11" ry="11" style="stroke:#181818;stroke-width:1;"/><path d="M726.2656,443.875 Q726.4219,443.6563 726.6094,443.5469 Q726.7969,443.4375 727.0156,443.4375 Q727.3906,443.4375 727.625,443.7031 Q727.8594,443.9531 727.8594,444.5625 L727.8594,446.0156 Q727.8594,446.625 727.625,446.8906 Q727.3906,447.1563 727.0156,447.1563 Q726.6719,447.1563 726.4688,446.9531 Q726.2656,446.7656 726.1563,446.25 Q726.1094,445.8906 725.9219,445.7031 Q725.5938,445.3281 724.9844,445.1094 Q724.375,444.8906 723.75,444.8906 Q722.9844,444.8906 722.3438,445.2188 Q721.7188,445.5469 721.2188,446.2969 Q720.7344,447.0469 720.7344,448.0781 L720.7344,449.1719 Q720.7344,450.4063 721.625,451.2344 Q722.5156,452.0469 724.1094,452.0469 Q725.0469,452.0469 725.7031,451.7969 Q726.0938,451.6406 726.5156,451.2031 Q726.7813,450.9375 726.9219,450.8594 Q727.0781,450.7813 727.2813,450.7813 Q727.6094,450.7813 727.8594,451.0469 Q728.125,451.2969 728.125,451.6406 Q728.125,451.9844 727.7813,452.3906 Q727.2813,452.9688 726.4844,453.2969 Q725.4063,453.75 724.1094,453.75 Q722.5938,453.75 721.3906,453.125 Q720.4063,452.625 719.7188,451.5625 Q719.0313,450.4844 719.0313,449.2031 L719.0313,448.0469 Q719.0313,446.7188 719.6406,445.5781 Q720.2656,444.4219 721.3594,443.8125 Q722.4531,443.1875 723.6875,443.1875 Q724.4219,443.1875 725.0625,443.3594 Q725.7188,443.5156 726.2656,443.875 Z " fill="#000000"/><text fill="#000000" font-family="sans-serif" font-size="14" lengthAdjust="spacing" textLength="91.8203" x="737.5" y="453.7285">VetsProperties</text><line style="stroke:#181818;stroke-width:0.5;" x1="709.5" x2="831.3203" y1="464" y2="464"/><text fill="#000000" font-family="sans-serif" font-size="14" lengthAdjust="spacing" textLength="93.7822" x="714.5" y="482.5332">+cache: Cache</text><line style="stroke:#181818;stroke-width:0.5;" x1="709.5" x2="831.3203" y1="489.6094" y2="489.6094"/></g><!--class VetsServiceApplication--><g class="entity" data-entity="VetsServiceApplication" data-source-line="99" data-uid="ent0029" id="entity_VetsServiceApplication"><rect fill="#F1F1F1" height="48" rx="2.5" ry="2.5" style="stroke:#181818;stroke-width:0.5;" width="175.1855" x="683" y="349"/><ellipse cx="698" cy="365" fill="#ADD1B2" rx="11" ry="11" style="stroke:#181818;stroke-width:1;"/><path d="M700.7656,360.875 Q700.9219,360.6563 701.1094,360.5469 Q701.2969,360.4375 701.5156,360.4375 Q701.8906,360.4375 702.125,360.7031 Q702.3594,360.9531 702.3594,361.5625 L702.3594,363.0156 Q702.3594,363.625 702.125,363.8906 Q701.8906,364.1563 701.5156,364.1563 Q701.1719,364.1563 700.9688,363.9531 Q700.7656,363.7656 700.6563,363.25 Q700.6094,362.8906 700.4219,362.7031 Q700.0938,362.3281 699.4844,362.1094 Q698.875,361.8906 698.25,361.8906 Q697.4844,361.8906 696.8438,362.2188 Q696.2188,362.5469 695.7188,363.2969 Q695.2344,364.0469 695.2344,365.0781 L695.2344,366.1719 Q695.2344,367.4063 696.125,368.2344 Q697.0156,369.0469 698.6094,369.0469 Q699.5469,369.0469 700.2031,368.7969 Q700.5938,368.6406 701.0156,368.2031 Q701.2813,367.9375 701.4219,367.8594 Q701.5781,367.7813 701.7813,367.7813 Q702.1094,367.7813 702.3594,368.0469 Q702.625,368.2969 702.625,368.6406 Q702.625,368.9844 702.2813,369.3906 Q701.7813,369.9688 700.9844,370.2969 Q699.9063,370.75 698.6094,370.75 Q697.0938,370.75 695.8906,370.125 Q694.9063,369.625 694.2188,368.5625 Q693.5313,367.4844 693.5313,366.2031 L693.5313,365.0469 Q693.5313,363.7188 694.1406,362.5781 Q694.7656,361.4219 695.8594,360.8125 Q696.9531,360.1875 698.1875,360.1875 Q698.9219,360.1875 699.5625,360.3594 Q700.2188,360.5156 700.7656,360.875 Z " fill="#000000"/><text fill="#000000" font-family="sans-serif" font-size="14" lengthAdjust="spacing" textLength="143.1855" x="712" y="370.7285">VetsServiceApplication</text><line style="stroke:#181818;stroke-width:0.5;" x1="684" x2="857.1855" y1="381" y2="381"/><line style="stroke:#181818;stroke-width:0.5;" x1="684" x2="857.1855" y1="389" y2="389"/></g><!--class Visit--><g class="entity" data-entity="Visit" data-source-line="101" data-uid="ent0030" id="entity_Visit"><rect fill="#F1F1F1" height="118.4375" rx="2.5" ry="2.5" style="stroke:#181818;stroke-width:0.5;" width="132.2305" x="704.5" y="196"/><ellipse cx="753.1411" cy="212" fill="#ADD1B2" rx="11" ry="11" style="stroke:#181818;stroke-width:1;"/><path d="M755.9067,207.875 Q756.063,207.6563 756.2505,207.5469 Q756.438,207.4375 756.6567,207.4375 Q757.0317,207.4375 757.2661,207.7031 Q757.5005,207.9531 757.5005,208.5625 L757.5005,210.0156 Q757.5005,210.625 757.2661,210.8906 Q757.0317,211.1563 756.6567,211.1563 Q756.313,211.1563 756.1099,210.9531 Q755.9067,210.7656 755.7974,210.25 Q755.7505,209.8906 755.563,209.7031 Q755.2349,209.3281 754.6255,209.1094 Q754.0161,208.8906 753.3911,208.8906 Q752.6255,208.8906 751.9849,209.2188 Q751.3599,209.5469 750.8599,210.2969 Q750.3755,211.0469 750.3755,212.0781 L750.3755,213.1719 Q750.3755,214.4063 751.2661,215.2344 Q752.1567,216.0469 753.7505,216.0469 Q754.688,216.0469 755.3442,215.7969 Q755.7349,215.6406 756.1567,215.2031 Q756.4224,214.9375 756.563,214.8594 Q756.7192,214.7813 756.9224,214.7813 Q757.2505,214.7813 757.5005,215.0469 Q757.7661,215.2969 757.7661,215.6406 Q757.7661,215.9844 757.4224,216.3906 Q756.9224,216.9688 756.1255,217.2969 Q755.0474,217.75 753.7505,217.75 Q752.2349,217.75 751.0317,217.125 Q750.0474,216.625 749.3599,215.5625 Q748.6724,214.4844 748.6724,213.2031 L748.6724,212.0469 Q748.6724,210.7188 749.2817,209.5781 Q749.9067,208.4219 751.0005,207.8125 Q752.0942,207.1875 753.3286,207.1875 Q754.063,207.1875 754.7036,207.3594 Q755.3599,207.5156 755.9067,207.875 Z " fill="#000000"/><text fill="#000000" font-family="sans-serif" font-size="14" lengthAdjust="spacing" textLength="26.4482" x="773.6411" y="217.7285">Visit</text><line style="stroke:#181818;stroke-width:0.5;" x1="705.5" x2="835.7305" y1="228" y2="228"/><text fill="#000000" font-family="sans-serif" font-size="14" lengthAdjust="spacing" textLength="70.4375" x="710.5" y="246.5332">+id: Integer</text><text fill="#000000" font-family="sans-serif" font-size="14" lengthAdjust="spacing" textLength="72.7754" x="710.5" y="264.1426">+date: Date</text><text fill="#000000" font-family="sans-serif" font-size="14" lengthAdjust="spacing" textLength="120.2305" x="710.5" y="281.752">+description: String</text><text fill="#000000" font-family="sans-serif" font-size="14" lengthAdjust="spacing" textLength="61.8789" x="710.5" y="299.3613">+petId: int</text><line style="stroke:#181818;stroke-width:0.5;" x1="705.5" x2="835.7305" y1="306.4375" y2="306.4375"/></g><!--class VisitDetails--><g class="entity" data-entity="VisitDetails" data-source-line="107" data-uid="ent0031" id="entity_VisitDetails"><rect fill="#F1F1F1" height="118.4375" rx="2.5" ry="2.5" style="stroke:#181818;stroke-width:0.5;" width="132.2305" x="704.5" y="43"/><ellipse cx="733.4452" cy="59" fill="#ADD1B2" rx="11" ry="11" style="stroke:#181818;stroke-width:1;"/><path d="M736.2108,54.875 Q736.367,54.6563 736.5545,54.5469 Q736.742,54.4375 736.9608,54.4375 Q737.3358,54.4375 737.5702,54.7031 Q737.8045,54.9531 737.8045,55.5625 L737.8045,57.0156 Q737.8045,57.625 737.5702,57.8906 Q737.3358,58.1563 736.9608,58.1563 Q736.617,58.1563 736.4139,57.9531 Q736.2108,57.7656 736.1014,57.25 Q736.0545,56.8906 735.867,56.7031 Q735.5389,56.3281 734.9295,56.1094 Q734.3202,55.8906 733.6952,55.8906 Q732.9295,55.8906 732.2889,56.2188 Q731.6639,56.5469 731.1639,57.2969 Q730.6795,58.0469 730.6795,59.0781 L730.6795,60.1719 Q730.6795,61.4063 731.5702,62.2344 Q732.4608,63.0469 734.0545,63.0469 Q734.992,63.0469 735.6483,62.7969 Q736.0389,62.6406 736.4608,62.2031 Q736.7264,61.9375 736.867,61.8594 Q737.0233,61.7813 737.2264,61.7813 Q737.5545,61.7813 737.8045,62.0469 Q738.0702,62.2969 738.0702,62.6406 Q738.0702,62.9844 737.7264,63.3906 Q737.2264,63.9688 736.4295,64.2969 Q735.3514,64.75 734.0545,64.75 Q732.5389,64.75 731.3358,64.125 Q730.3514,63.625 729.6639,62.5625 Q728.9764,61.4844 728.9764,60.2031 L728.9764,59.0469 Q728.9764,57.7188 729.5858,56.5781 Q730.2108,55.4219 731.3045,54.8125 Q732.3983,54.1875 733.6327,54.1875 Q734.367,54.1875 735.0077,54.3594 Q735.6639,54.5156 736.2108,54.875 Z " fill="#000000"/><text fill="#000000" font-family="sans-serif" font-size="14" lengthAdjust="spacing" textLength="69.2412" x="750.5441" y="64.7285">VisitDetails</text><line style="stroke:#181818;stroke-width:0.5;" x1="705.5" x2="835.7305" y1="75" y2="75"/><text fill="#000000" font-family="sans-serif" font-size="14" lengthAdjust="spacing" textLength="70.4375" x="710.5" y="93.5332">+id: Integer</text><text fill="#000000" font-family="sans-serif" font-size="14" lengthAdjust="spacing" textLength="90.6787" x="710.5" y="111.1426">+petId: Integer</text><text fill="#000000" font-family="sans-serif" font-size="14" lengthAdjust="spacing" textLength="79.7754" x="710.5" y="128.752">+date: String</text><text fill="#000000" font-family="sans-serif" font-size="14" lengthAdjust="spacing" textLength="120.2305" x="710.5" y="146.3613">+description: String</text><line style="stroke:#181818;stroke-width:0.5;" x1="705.5" x2="835.7305" y1="153.4375" y2="153.4375"/></g><!--class VisitRepository--><g class="entity" data-entity="VisitRepository" data-source-line="113" data-uid="ent0032" id="entity_VisitRepository"><rect fill="#F1F1F1" height="48" rx="2.5" ry="2.5" style="stroke:#181818;stroke-width:0.5;" width="125.3652" x="453" y="1495"/><ellipse cx="468" cy="1511" fill="#B4A7E5" rx="11" ry="11" style="stroke:#181818;stroke-width:1;"/><path d="M468.9531,1507.6406 L468.9531,1514.2969 L470.6719,1514.2969 Q471.2813,1514.2969 471.5469,1514.5313 Q471.8125,1514.7656 471.8125,1515.1563 Q471.8125,1515.5313 471.5469,1515.7656 Q471.2813,1516 470.6719,1516 L465.5313,1516 Q464.9219,1516 464.6563,1515.7656 Q464.3906,1515.5313 464.3906,1515.1406 Q464.3906,1514.7656 464.6563,1514.5313 Q464.9219,1514.2969 465.5313,1514.2969 L467.25,1514.2969 L467.25,1507.6406 L465.5313,1507.6406 Q464.9219,1507.6406 464.6563,1507.4063 Q464.3906,1507.1719 464.3906,1506.7813 Q464.3906,1506.4063 464.6563,1506.1719 Q464.9219,1505.9375 465.5313,1505.9375 L470.6719,1505.9375 Q471.2813,1505.9375 471.5469,1506.1719 Q471.8125,1506.4063 471.8125,1506.7813 Q471.8125,1507.1719 471.5469,1507.4063 Q471.2813,1507.6406 470.6719,1507.6406 L468.9531,1507.6406 Z " fill="#000000"/><text fill="#000000" font-family="sans-serif" font-size="14" font-style="italic" lengthAdjust="spacing" textLength="93.3652" x="482" y="1516.7285">VisitRepository</text><line style="stroke:#181818;stroke-width:0.5;" x1="454" x2="577.3652" y1="1527" y2="1527"/><line style="stroke:#181818;stroke-width:0.5;" x1="454" x2="577.3652" y1="1535" y2="1535"/></g><!--class VisitResource--><g class="entity" data-entity="VisitResource" data-source-line="115" data-uid="ent0033" id="entity_VisitResource"><rect fill="#F1F1F1" height="65.6094" rx="2.5" ry="2.5" style="stroke:#181818;stroke-width:0.5;" width="212.3477" x="79.5" y="1477"/><ellipse cx="138.2412" cy="1493" fill="#ADD1B2" rx="11" ry="11" style="stroke:#181818;stroke-width:1;"/><path d="M141.0068,1488.875 Q141.1631,1488.6563 141.3506,1488.5469 Q141.5381,1488.4375 141.7568,1488.4375 Q142.1318,1488.4375 142.3662,1488.7031 Q142.6006,1488.9531 142.6006,1489.5625 L142.6006,1491.0156 Q142.6006,1491.625 142.3662,1491.8906 Q142.1318,1492.1563 141.7568,1492.1563 Q141.4131,1492.1563 141.21,1491.9531 Q141.0068,1491.7656 140.8975,1491.25 Q140.8506,1490.8906 140.6631,1490.7031 Q140.335,1490.3281 139.7256,1490.1094 Q139.1162,1489.8906 138.4912,1489.8906 Q137.7256,1489.8906 137.085,1490.2188 Q136.46,1490.5469 135.96,1491.2969 Q135.4756,1492.0469 135.4756,1493.0781 L135.4756,1494.1719 Q135.4756,1495.4063 136.3662,1496.2344 Q137.2568,1497.0469 138.8506,1497.0469 Q139.7881,1497.0469 140.4443,1496.7969 Q140.835,1496.6406 141.2568,1496.2031 Q141.5225,1495.9375 141.6631,1495.8594 Q141.8193,1495.7813 142.0225,1495.7813 Q142.3506,1495.7813 142.6006,1496.0469 Q142.8662,1496.2969 142.8662,1496.6406 Q142.8662,1496.9844 142.5225,1497.3906 Q142.0225,1497.9688 141.2256,1498.2969 Q140.1475,1498.75 138.8506,1498.75 Q137.335,1498.75 136.1318,1498.125 Q135.1475,1497.625 134.46,1496.5625 Q133.7725,1495.4844 133.7725,1494.2031 L133.7725,1493.0469 Q133.7725,1491.7188 134.3818,1490.5781 Q135.0068,1489.4219 136.1006,1488.8125 Q137.1943,1488.1875 138.4287,1488.1875 Q139.1631,1488.1875 139.8037,1488.3594 Q140.46,1488.5156 141.0068,1488.875 Z " fill="#000000"/><text fill="#000000" font-family="sans-serif" font-size="14" lengthAdjust="spacing" textLength="86.3652" x="158.7412" y="1498.7285">VisitResource</text><line style="stroke:#181818;stroke-width:0.5;" x1="80.5" x2="290.8477" y1="1509" y2="1509"/><text fill="#000000" font-family="sans-serif" font-size="14" lengthAdjust="spacing" textLength="200.3477" x="85.5" y="1527.5332">+visitRepository: VisitRepository</text><line style="stroke:#181818;stroke-width:0.5;" x1="80.5" x2="290.8477" y1="1534.6094" y2="1534.6094"/></g><!--class Visits--><g class="entity" data-entity="Visits" data-source-line="118" data-uid="ent0034" id="entity_Visits"><rect fill="#F1F1F1" height="65.6094" rx="2.5" ry="2.5" style="stroke:#181818;stroke-width:0.5;" width="83.1895" x="967" y="559"/><ellipse cx="989.9835" cy="575" fill="#ADD1B2" rx="11" ry="11" style="stroke:#181818;stroke-width:1;"/><path d="M992.7492,570.875 Q992.9054,570.6563 993.0929,570.5469 Q993.2804,570.4375 993.4992,570.4375 Q993.8742,570.4375 994.1085,570.7031 Q994.3429,570.9531 994.3429,571.5625 L994.3429,573.0156 Q994.3429,573.625 994.1085,573.8906 Q993.8742,574.1563 993.4992,574.1563 Q993.1554,574.1563 992.9523,573.9531 Q992.7492,573.7656 992.6398,573.25 Q992.5929,572.8906 992.4054,572.7031 Q992.0773,572.3281 991.4679,572.1094 Q990.8585,571.8906 990.2335,571.8906 Q989.4679,571.8906 988.8273,572.2188 Q988.2023,572.5469 987.7023,573.2969 Q987.2179,574.0469 987.2179,575.0781 L987.2179,576.1719 Q987.2179,577.4063 988.1085,578.2344 Q988.9992,579.0469 990.5929,579.0469 Q991.5304,579.0469 992.1867,578.7969 Q992.5773,578.6406 992.9992,578.2031 Q993.2648,577.9375 993.4054,577.8594 Q993.5617,577.7813 993.7648,577.7813 Q994.0929,577.7813 994.3429,578.0469 Q994.6085,578.2969 994.6085,578.6406 Q994.6085,578.9844 994.2648,579.3906 Q993.7648,579.9688 992.9679,580.2969 Q991.8898,580.75 990.5929,580.75 Q989.0773,580.75 987.8742,580.125 Q986.8898,579.625 986.2023,578.5625 Q985.5148,577.4844 985.5148,576.2031 L985.5148,575.0469 Q985.5148,573.7188 986.1242,572.5781 Q986.7492,571.4219 987.8429,570.8125 Q988.9367,570.1875 990.171,570.1875 Q990.9054,570.1875 991.546,570.3594 Q992.2023,570.5156 992.7492,570.875 Z " fill="#000000"/><text fill="#000000" font-family="sans-serif" font-size="14" lengthAdjust="spacing" textLength="33.4482" x="1005.7577" y="580.7285">Visits</text><line style="stroke:#181818;stroke-width:0.5;" x1="968" x2="1049.1895" y1="591" y2="591"/><text fill="#000000" font-family="sans-serif" font-size="14" lengthAdjust="spacing" textLength="71.1895" x="973" y="609.5332">+items: List</text><line style="stroke:#181818;stroke-width:0.5;" x1="968" x2="1049.1895" y1="616.6094" y2="616.6094"/></g><!--class VisitsServiceApplication--><g class="entity" data-entity="VisitsServiceApplication" data-source-line="121" data-uid="ent0035" id="entity_VisitsServiceApplication"><rect fill="#F1F1F1" height="48" rx="2.5" ry="2.5" style="stroke:#181818;stroke-width:0.5;" width="180.6201" x="918" y="476"/><ellipse cx="933" cy="492" fill="#ADD1B2" rx="11" ry="11" style="stroke:#181818;stroke-width:1;"/><path d="M935.7656,487.875 Q935.9219,487.6563 936.1094,487.5469 Q936.2969,487.4375 936.5156,487.4375 Q936.8906,487.4375 937.125,487.7031 Q937.3594,487.9531 937.3594,488.5625 L937.3594,490.0156 Q937.3594,490.625 937.125,490.8906 Q936.8906,491.1563 936.5156,491.1563 Q936.1719,491.1563 935.9688,490.9531 Q935.7656,490.7656 935.6563,490.25 Q935.6094,489.8906 935.4219,489.7031 Q935.0938,489.3281 934.4844,489.1094 Q933.875,488.8906 933.25,488.8906 Q932.4844,488.8906 931.8438,489.2188 Q931.2188,489.5469 930.7188,490.2969 Q930.2344,491.0469 930.2344,492.0781 L930.2344,493.1719 Q930.2344,494.4063 931.125,495.2344 Q932.0156,496.0469 933.6094,496.0469 Q934.5469,496.0469 935.2031,495.7969 Q935.5938,495.6406 936.0156,495.2031 Q936.2813,494.9375 936.4219,494.8594 Q936.5781,494.7813 936.7813,494.7813 Q937.1094,494.7813 937.3594,495.0469 Q937.625,495.2969 937.625,495.6406 Q937.625,495.9844 937.2813,496.3906 Q936.7813,496.9688 935.9844,497.2969 Q934.9063,497.75 933.6094,497.75 Q932.0938,497.75 930.8906,497.125 Q929.9063,496.625 929.2188,495.5625 Q928.5313,494.4844 928.5313,493.2031 L928.5313,492.0469 Q928.5313,490.7188 929.1406,489.5781 Q929.7656,488.4219 930.8594,487.8125 Q931.9531,487.1875 933.1875,487.1875 Q933.9219,487.1875 934.5625,487.3594 Q935.2188,487.5156 935.7656,487.875 Z " fill="#000000"/><text fill="#000000" font-family="sans-serif" font-size="14" lengthAdjust="spacing" textLength="148.6201" x="947" y="497.7285">VisitsServiceApplication</text><line style="stroke:#181818;stroke-width:0.5;" x1="919" x2="1097.6201" y1="508" y2="508"/><line style="stroke:#181818;stroke-width:0.5;" x1="919" x2="1097.6201" y1="516" y2="516"/></g><!--class VisitsServiceClient--><g class="entity" data-entity="VisitsServiceClient" data-source-line="123" data-uid="ent0036" id="entity_VisitsServiceClient"><rect fill="#F1F1F1" height="83.2188" rx="2.5" ry="2.5" style="stroke:#181818;stroke-width:0.5;" width="197.5889" x="416.5" y="618.5"/><ellipse cx="453.8493" cy="634.5" fill="#ADD1B2" rx="11" ry="11" style="stroke:#181818;stroke-width:1;"/><path d="M456.6149,630.375 Q456.7711,630.1563 456.9586,630.0469 Q457.1461,629.9375 457.3649,629.9375 Q457.7399,629.9375 457.9743,630.2031 Q458.2086,630.4531 458.2086,631.0625 L458.2086,632.5156 Q458.2086,633.125 457.9743,633.3906 Q457.7399,633.6563 457.3649,633.6563 Q457.0211,633.6563 456.818,633.4531 Q456.6149,633.2656 456.5055,632.75 Q456.4586,632.3906 456.2711,632.2031 Q455.943,631.8281 455.3336,631.6094 Q454.7243,631.3906 454.0993,631.3906 Q453.3336,631.3906 452.693,631.7188 Q452.068,632.0469 451.568,632.7969 Q451.0836,633.5469 451.0836,634.5781 L451.0836,635.6719 Q451.0836,636.9063 451.9743,637.7344 Q452.8649,638.5469 454.4586,638.5469 Q455.3961,638.5469 456.0524,638.2969 Q456.443,638.1406 456.8649,637.7031 Q457.1305,637.4375 457.2711,637.3594 Q457.4274,637.2813 457.6305,637.2813 Q457.9586,637.2813 458.2086,637.5469 Q458.4743,637.7969 458.4743,638.1406 Q458.4743,638.4844 458.1305,638.8906 Q457.6305,639.4688 456.8336,639.7969 Q455.7555,640.25 454.4586,640.25 Q452.943,640.25 451.7399,639.625 Q450.7555,639.125 450.068,638.0625 Q449.3805,636.9844 449.3805,635.7031 L449.3805,634.5469 Q449.3805,633.2188 449.9899,632.0781 Q450.6149,630.9219 451.7086,630.3125 Q452.8024,629.6875 454.0368,629.6875 Q454.7711,629.6875 455.4118,629.8594 Q456.068,630.0156 456.6149,630.375 Z " fill="#000000"/><text fill="#000000" font-family="sans-serif" font-size="14" lengthAdjust="spacing" textLength="115.9238" x="472.8158" y="640.2285">VisitsServiceClient</text><line style="stroke:#181818;stroke-width:0.5;" x1="417.5" x2="613.0889" y1="650.5" y2="650.5"/><text fill="#000000" font-family="sans-serif" font-size="14" lengthAdjust="spacing" textLength="114.0098" x="422.5" y="669.0332">+hostname: String</text><text fill="#000000" font-family="sans-serif" font-size="14" lengthAdjust="spacing" textLength="185.5889" x="422.5" y="686.6426">+webClientBuilder: WebClient</text><line style="stroke:#181818;stroke-width:0.5;" x1="417.5" x2="613.0889" y1="693.7188" y2="693.7188"/></g><!--class AIBeanConfiguration--><g class="entity" data-entity="AIBeanConfiguration" data-source-line="127" data-uid="ent0037" id="entity_AIBeanConfiguration"><rect fill="#90EE90" height="58.7031" rx="2.5" ry="2.5" style="stroke:#181818;stroke-width:0.5;" width="161.1992" x="928" y="381.5"/><ellipse cx="943" cy="402.8516" fill="#ADD1B2" rx="11" ry="11" style="stroke:#181818;stroke-width:1;"/><path d="M945.7656,398.7266 Q945.9219,398.5078 946.1094,398.3984 Q946.2969,398.2891 946.5156,398.2891 Q946.8906,398.2891 947.125,398.5547 Q947.3594,398.8047 947.3594,399.4141 L947.3594,400.8672 Q947.3594,401.4766 947.125,401.7422 Q946.8906,402.0078 946.5156,402.0078 Q946.1719,402.0078 945.9688,401.8047 Q945.7656,401.6172 945.6563,401.1016 Q945.6094,400.7422 945.4219,400.5547 Q945.0938,400.1797 944.4844,399.9609 Q943.875,399.7422 943.25,399.7422 Q942.4844,399.7422 941.8438,400.0703 Q941.2188,400.3984 940.7188,401.1484 Q940.2344,401.8984 940.2344,402.9297 L940.2344,404.0234 Q940.2344,405.2578 941.125,406.0859 Q942.0156,406.8984 943.6094,406.8984 Q944.5469,406.8984 945.2031,406.6484 Q945.5938,406.4922 946.0156,406.0547 Q946.2813,405.7891 946.4219,405.7109 Q946.5781,405.6328 946.7813,405.6328 Q947.1094,405.6328 947.3594,405.8984 Q947.625,406.1484 947.625,406.4922 Q947.625,406.8359 947.2813,407.2422 Q946.7813,407.8203 945.9844,408.1484 Q944.9063,408.6016 943.6094,408.6016 Q942.0938,408.6016 940.8906,407.9766 Q939.9063,407.4766 939.2188,406.4141 Q938.5313,405.3359 938.5313,404.0547 L938.5313,402.8984 Q938.5313,401.5703 939.1406,400.4297 Q939.7656,399.2734 940.8594,398.6641 Q941.9531,398.0391 943.1875,398.0391 Q943.9219,398.0391 944.5625,398.2109 Q945.2188,398.3672 945.7656,398.7266 Z " fill="#000000"/><text fill="#000000" font-family="sans-serif" font-size="12" font-style="italic" lengthAdjust="spacing" textLength="55.3535" x="993.9229" y="398.957">&#171;ADDED&#187;</text><text fill="#000000" font-family="sans-serif" font-size="14" lengthAdjust="spacing" textLength="129.1992" x="957" y="416.127">AIBeanConfiguration</text><line style="stroke:#181818;stroke-width:0.5;" x1="929" x2="1088.1992" y1="424.2031" y2="424.2031"/><line style="stroke:#181818;stroke-width:0.5;" x1="929" x2="1088.1992" y1="432.2031" y2="432.2031"/></g><!--class AIDataProvider--><g class="entity" data-entity="AIDataProvider" data-source-line="129" data-uid="ent0038" id="entity_AIDataProvider"><rect fill="#90EE90" height="111.5313" rx="2.5" ry="2.5" style="stroke:#181818;stroke-width:0.5;" width="173.4648" x="922" y="234"/><ellipse cx="957.9404" cy="255.3516" fill="#ADD1B2" rx="11" ry="11" style="stroke:#181818;stroke-width:1;"/><path d="M960.706,251.2266 Q960.8623,251.0078 961.0498,250.8984 Q961.2373,250.7891 961.456,250.7891 Q961.831,250.7891 962.0654,251.0547 Q962.2998,251.3047 962.2998,251.9141 L962.2998,253.3672 Q962.2998,253.9766 962.0654,254.2422 Q961.831,254.5078 961.456,254.5078 Q961.1123,254.5078 960.9091,254.3047 Q960.706,254.1172 960.5966,253.6016 Q960.5498,253.2422 960.3623,253.0547 Q960.0341,252.6797 959.4248,252.4609 Q958.8154,252.2422 958.1904,252.2422 Q957.4248,252.2422 956.7841,252.5703 Q956.1591,252.8984 955.6591,253.6484 Q955.1748,254.3984 955.1748,255.4297 L955.1748,256.5234 Q955.1748,257.7578 956.0654,258.5859 Q956.956,259.3984 958.5498,259.3984 Q959.4873,259.3984 960.1435,259.1484 Q960.5341,258.9922 960.956,258.5547 Q961.2216,258.2891 961.3623,258.2109 Q961.5185,258.1328 961.7216,258.1328 Q962.0498,258.1328 962.2998,258.3984 Q962.5654,258.6484 962.5654,258.9922 Q962.5654,259.3359 962.2216,259.7422 Q961.7216,260.3203 960.9248,260.6484 Q959.8466,261.1016 958.5498,261.1016 Q957.0341,261.1016 955.831,260.4766 Q954.8466,259.9766 954.1591,258.9141 Q953.4716,257.8359 953.4716,256.5547 L953.4716,255.3984 Q953.4716,254.0703 954.081,252.9297 Q954.706,251.7734 955.7998,251.1641 Q956.8935,250.5391 958.1279,250.5391 Q958.8623,250.5391 959.5029,250.7109 Q960.1591,250.8672 960.706,251.2266 Z " fill="#000000"/><text fill="#000000" font-family="sans-serif" font-size="12" font-style="italic" lengthAdjust="spacing" textLength="55.3535" x="996.3824" y="251.457">&#171;ADDED&#187;</text><text fill="#000000" font-family="sans-serif" font-size="14" lengthAdjust="spacing" textLength="94.9307" x="976.5938" y="268.627">AIDataProvider</text><line style="stroke:#181818;stroke-width:0.5;" x1="923" x2="1094.4648" y1="276.7031" y2="276.7031"/><text fill="#000000" font-family="sans-serif" font-size="14" lengthAdjust="spacing" textLength="161.4648" x="928" y="295.2363">+vectorStore: VectorStore</text><text fill="#000000" font-family="sans-serif" font-size="14" lengthAdjust="spacing" textLength="161.4648" x="928" y="312.8457">+ownersHostname: String</text><text fill="#000000" font-family="sans-serif" font-size="14" lengthAdjust="spacing" textLength="142.0098" x="928" y="330.4551">+webClient: WebClient</text><line style="stroke:#181818;stroke-width:0.5;" x1="923" x2="1094.4648" y1="337.5313" y2="337.5313"/></g><!--class FallbackController--><g class="entity" data-entity="FallbackController" data-source-line="134" data-uid="ent0039" id="entity_FallbackController"><rect fill="#90EE90" height="58.7031" rx="2.5" ry="2.5" style="stroke:#181818;stroke-width:0.5;" width="144.8203" x="936" y="139.5"/><ellipse cx="951" cy="160.8516" fill="#ADD1B2" rx="11" ry="11" style="stroke:#181818;stroke-width:1;"/><path d="M953.7656,156.7266 Q953.9219,156.5078 954.1094,156.3984 Q954.2969,156.2891 954.5156,156.2891 Q954.8906,156.2891 955.125,156.5547 Q955.3594,156.8047 955.3594,157.4141 L955.3594,158.8672 Q955.3594,159.4766 955.125,159.7422 Q954.8906,160.0078 954.5156,160.0078 Q954.1719,160.0078 953.9688,159.8047 Q953.7656,159.6172 953.6563,159.1016 Q953.6094,158.7422 953.4219,158.5547 Q953.0938,158.1797 952.4844,157.9609 Q951.875,157.7422 951.25,157.7422 Q950.4844,157.7422 949.8438,158.0703 Q949.2188,158.3984 948.7188,159.1484 Q948.2344,159.8984 948.2344,160.9297 L948.2344,162.0234 Q948.2344,163.2578 949.125,164.0859 Q950.0156,164.8984 951.6094,164.8984 Q952.5469,164.8984 953.2031,164.6484 Q953.5938,164.4922 954.0156,164.0547 Q954.2813,163.7891 954.4219,163.7109 Q954.5781,163.6328 954.7813,163.6328 Q955.1094,163.6328 955.3594,163.8984 Q955.625,164.1484 955.625,164.4922 Q955.625,164.8359 955.2813,165.2422 Q954.7813,165.8203 953.9844,166.1484 Q952.9063,166.6016 951.6094,166.6016 Q950.0938,166.6016 948.8906,165.9766 Q947.9063,165.4766 947.2188,164.4141 Q946.5313,163.3359 946.5313,162.0547 L946.5313,160.8984 Q946.5313,159.5703 947.1406,158.4297 Q947.7656,157.2734 948.8594,156.6641 Q949.9531,156.0391 951.1875,156.0391 Q951.9219,156.0391 952.5625,156.2109 Q953.2188,156.3672 953.7656,156.7266 Z " fill="#000000"/><text fill="#000000" font-family="sans-serif" font-size="12" font-style="italic" lengthAdjust="spacing" textLength="55.3535" x="993.7334" y="156.957">&#171;ADDED&#187;</text><text fill="#000000" font-family="sans-serif" font-size="14" lengthAdjust="spacing" textLength="112.8203" x="965" y="174.127">FallbackController</text><line style="stroke:#181818;stroke-width:0.5;" x1="937" x2="1079.8203" y1="182.2031" y2="182.2031"/><line style="stroke:#181818;stroke-width:0.5;" x1="937" x2="1079.8203" y1="190.2031" y2="190.2031"/></g><!--class GenAIServiceApplication--><g class="entity" data-entity="GenAIServiceApplication" data-source-line="136" data-uid="ent0040" id="entity_GenAIServiceApplication"><rect fill="#90EE90" height="58.7031" rx="2.5" ry="2.5" style="stroke:#181818;stroke-width:0.5;" width="186.8613" x="1159" y="562.5"/><ellipse cx="1174" cy="583.8516" fill="#ADD1B2" rx="11" ry="11" style="stroke:#181818;stroke-width:1;"/><path d="M1176.7656,579.7266 Q1176.9219,579.5078 1177.1094,579.3984 Q1177.2969,579.2891 1177.5156,579.2891 Q1177.8906,579.2891 1178.125,579.5547 Q1178.3594,579.8047 1178.3594,580.4141 L1178.3594,581.8672 Q1178.3594,582.4766 1178.125,582.7422 Q1177.8906,583.0078 1177.5156,583.0078 Q1177.1719,583.0078 1176.9688,582.8047 Q1176.7656,582.6172 1176.6563,582.1016 Q1176.6094,581.7422 1176.4219,581.5547 Q1176.0938,581.1797 1175.4844,580.9609 Q1174.875,580.7422 1174.25,580.7422 Q1173.4844,580.7422 1172.8438,581.0703 Q1172.2188,581.3984 1171.7188,582.1484 Q1171.2344,582.8984 1171.2344,583.9297 L1171.2344,585.0234 Q1171.2344,586.2578 1172.125,587.0859 Q1173.0156,587.8984 1174.6094,587.8984 Q1175.5469,587.8984 1176.2031,587.6484 Q1176.5938,587.4922 1177.0156,587.0547 Q1177.2813,586.7891 1177.4219,586.7109 Q1177.5781,586.6328 1177.7813,586.6328 Q1178.1094,586.6328 1178.3594,586.8984 Q1178.625,587.1484 1178.625,587.4922 Q1178.625,587.8359 1178.2813,588.2422 Q1177.7813,588.8203 1176.9844,589.1484 Q1175.9063,589.6016 1174.6094,589.6016 Q1173.0938,589.6016 1171.8906,588.9766 Q1170.9063,588.4766 1170.2188,587.4141 Q1169.5313,586.3359 1169.5313,585.0547 L1169.5313,583.8984 Q1169.5313,582.5703 1170.1406,581.4297 Q1170.7656,580.2734 1171.8594,579.6641 Q1172.9531,579.0391 1174.1875,579.0391 Q1174.9219,579.0391 1175.5625,579.2109 Q1176.2188,579.3672 1176.7656,579.7266 Z " fill="#000000"/><text fill="#000000" font-family="sans-serif" font-size="12" font-style="italic" lengthAdjust="spacing" textLength="55.3535" x="1237.7539" y="579.957">&#171;ADDED&#187;</text><text fill="#000000" font-family="sans-serif" font-size="14" lengthAdjust="spacing" textLength="154.8613" x="1188" y="597.127">GenAIServiceApplication</text><line style="stroke:#181818;stroke-width:0.5;" x1="1160" x2="1344.8613" y1="605.2031" y2="605.2031"/><line style="stroke:#181818;stroke-width:0.5;" x1="1160" x2="1344.8613" y1="613.2031" y2="613.2031"/></g><!--class VectorStoreController--><g class="entity" data-entity="VectorStoreController" data-source-line="138" data-uid="ent0041" id="entity_VectorStoreController"><rect fill="#90EE90" height="111.5313" rx="2.5" ry="2.5" style="stroke:#181818;stroke-width:0.5;" width="173.4648" x="1166" y="415"/><ellipse cx="1184.0832" cy="436.3516" fill="#ADD1B2" rx="11" ry="11" style="stroke:#181818;stroke-width:1;"/><path d="M1186.8488,432.2266 Q1187.0051,432.0078 1187.1926,431.8984 Q1187.3801,431.7891 1187.5988,431.7891 Q1187.9738,431.7891 1188.2082,432.0547 Q1188.4426,432.3047 1188.4426,432.9141 L1188.4426,434.3672 Q1188.4426,434.9766 1188.2082,435.2422 Q1187.9738,435.5078 1187.5988,435.5078 Q1187.2551,435.5078 1187.052,435.3047 Q1186.8488,435.1172 1186.7395,434.6016 Q1186.6926,434.2422 1186.5051,434.0547 Q1186.177,433.6797 1185.5676,433.4609 Q1184.9582,433.2422 1184.3332,433.2422 Q1183.5676,433.2422 1182.927,433.5703 Q1182.302,433.8984 1181.802,434.6484 Q1181.3176,435.3984 1181.3176,436.4297 L1181.3176,437.5234 Q1181.3176,438.7578 1182.2082,439.5859 Q1183.0988,440.3984 1184.6926,440.3984 Q1185.6301,440.3984 1186.2863,440.1484 Q1186.677,439.9922 1187.0988,439.5547 Q1187.3645,439.2891 1187.5051,439.2109 Q1187.6613,439.1328 1187.8645,439.1328 Q1188.1926,439.1328 1188.4426,439.3984 Q1188.7082,439.6484 1188.7082,439.9922 Q1188.7082,440.3359 1188.3645,440.7422 Q1187.8645,441.3203 1187.0676,441.6484 Q1185.9895,442.1016 1184.6926,442.1016 Q1183.177,442.1016 1181.9738,441.4766 Q1180.9895,440.9766 1180.302,439.9141 Q1179.6145,438.8359 1179.6145,437.5547 L1179.6145,436.3984 Q1179.6145,435.0703 1180.2238,433.9297 Q1180.8488,432.7734 1181.9426,432.1641 Q1183.0363,431.5391 1184.2707,431.5391 Q1185.0051,431.5391 1185.6457,431.7109 Q1186.302,431.8672 1186.8488,432.2266 Z " fill="#000000"/><text fill="#000000" font-family="sans-serif" font-size="12" font-style="italic" lengthAdjust="spacing" textLength="55.3535" x="1238.3982" y="432.457">&#171;ADDED&#187;</text><text fill="#000000" font-family="sans-serif" font-size="14" lengthAdjust="spacing" textLength="134.6133" x="1198.7684" y="449.627">VectorStoreController</text><line style="stroke:#181818;stroke-width:0.5;" x1="1167" x2="1338.4648" y1="457.7031" y2="457.7031"/><text fill="#000000" font-family="sans-serif" font-size="14" lengthAdjust="spacing" textLength="98.4648" x="1172" y="476.2363">+logger: Logger</text><text fill="#000000" font-family="sans-serif" font-size="14" lengthAdjust="spacing" textLength="161.4648" x="1172" y="493.8457">+vectorStore: VectorStore</text><text fill="#000000" font-family="sans-serif" font-size="14" lengthAdjust="spacing" textLength="142.0098" x="1172" y="511.4551">+webClient: WebClient</text><line style="stroke:#181818;stroke-width:0.5;" x1="1167" x2="1338.4648" y1="518.5313" y2="518.5313"/></g><!--link ApiGatewayController to CustomersServiceClient--><g class="link" data-entity-1="ApiGatewayController" data-entity-2="CustomersServiceClient" data-source-line="144" data-uid="lnk42" id="link_ApiGatewayController_CustomersServiceClient"><path codeLine="144" d="M307.43,678.61 C321.13,684.44 334.88,690.32 348,696 C378.48,709.19 406.4903,721.566 435.3903,734.456" fill="none" id="ApiGatewayController-to-CustomersServiceClient" style="stroke:#181818;stroke-width:1;"/><polygon fill="#181818" points="440.87,736.9,434.2799,729.5808,436.3036,734.8633,431.0212,736.887,440.87,736.9" style="stroke:#181818;stroke-width:1;"/></g><!--link ApiGatewayController to VisitsServiceClient--><g class="link" data-entity-1="ApiGatewayController" data-entity-2="VisitsServiceClient" data-source-line="145" data-uid="lnk43" id="link_ApiGatewayController_VisitsServiceClient"><path codeLine="145" d="M348.1,643.77 C371.38,646.04 388.7583,647.7378 410.2983,649.8378" fill="none" id="ApiGatewayController-to-VisitsServiceClient" style="stroke:#181818;stroke-width:1;"/><polygon fill="#181818" points="416.27,650.42,407.7006,645.5656,411.2936,649.9348,406.9243,653.5278,416.27,650.42" style="stroke:#181818;stroke-width:1;"/></g><!--reverse link Mapper to OwnerEntityMapper--><g class="link" data-entity-1="Mapper" data-entity-2="OwnerEntityMapper" data-source-line="146" data-uid="lnk44" id="link_Mapper_OwnerEntityMapper"><path codeLine="146" d="M242.5633,1092.785 C275.5233,1100.525 306.52,1108.56 348,1122 C353.46,1123.77 408.26,1145.22 453.52,1163" fill="none" id="Mapper-backto-OwnerEntityMapper" style="stroke:#181818;stroke-width:1;stroke-dasharray:7,7;"/><polygon fill="none" points="225.04,1088.67,241.1917,1098.6261,243.935,1086.9439,225.04,1088.67" style="stroke:#181818;stroke-width:1;"/></g><!--link OwnerResource to OwnerEntityMapper--><g class="link" data-entity-1="OwnerResource" data-entity-2="OwnerEntityMapper" data-source-line="147" data-uid="lnk45" id="link_OwnerResource_OwnerEntityMapper"><path codeLine="147" d="M321.8,1183.48 C361.16,1184.19 396.781,1184.8503 431.241,1185.4803" fill="none" id="OwnerResource-to-OwnerEntityMapper" style="stroke:#181818;stroke-width:1;"/><polygon fill="#181818" points="437.24,1185.59,428.3146,1181.4262,432.2408,1185.4986,428.1684,1189.4248,437.24,1185.59" style="stroke:#181818;stroke-width:1;"/></g><!--link OwnerResource to OwnerRepository--><g class="link" data-entity-1="OwnerResource" data-entity-2="OwnerRepository" data-source-line="148" data-uid="lnk46" id="link_OwnerResource_OwnerRepository"><path codeLine="148" d="M321.8,1217.71 C364.33,1229.25 403.7295,1239.9383 439.6495,1249.6883" fill="none" id="OwnerResource-to-OwnerRepository" style="stroke:#181818;stroke-width:1;"/><polygon fill="#181818" points="445.44,1251.26,437.8021,1245.0421,440.6146,1249.9502,435.7065,1252.7627,445.44,1251.26" style="stroke:#181818;stroke-width:1;"/></g><!--link Pet to Owner--><g class="link" data-entity-1="Pet" data-entity-2="Owner" data-source-line="149" data-uid="lnk47" id="link_Pet_Owner"><path codeLine="149" d="M242.51,806.25 C300.79,831.48 386.3037,868.5065 446.7837,894.6865" fill="none" id="Pet-to-Owner" style="stroke:#181818;stroke-width:1;"/><polygon fill="#181818" points="452.29,897.07,445.6196,889.8239,447.7014,895.0838,442.4416,897.1656,452.29,897.07" style="stroke:#181818;stroke-width:1;"/></g><!--link Pet to PetType--><g class="link" data-entity-1="Pet" data-entity-2="PetType" data-source-line="150" data-uid="lnk48" id="link_Pet_PetType"><path codeLine="150" d="M242.83,799.97 C277.31,813.52 320.03,835.27 348,867 C398.22,923.97 358.39,969.5 408,1027 C423.33,1044.76 439.961,1055.6442 460.031,1065.1842" fill="none" id="Pet-to-PetType" style="stroke:#181818;stroke-width:1;"/><polygon fill="#181818" points="465.45,1067.76,459.0388,1060.2836,460.9342,1065.6135,455.6043,1067.5089,465.45,1067.76" style="stroke:#181818;stroke-width:1;"/></g><!--link PetDetails to PetType--><g class="link" data-entity-1="PetDetails" data-entity-2="PetType" data-source-line="151" data-uid="lnk49" id="link_PetDetails_PetType"><path codeLine="151" d="M246.28,977.24 C309.1,1002.71 401.2096,1040.0656 459.7396,1063.7956" fill="none" id="PetDetails-to-PetType" style="stroke:#181818;stroke-width:1;"/><polygon fill="#181818" points="465.3,1066.05,458.4623,1058.9615,460.6663,1064.1714,455.4565,1066.3754,465.3,1066.05" style="stroke:#181818;stroke-width:1;"/></g><!--link PetResource to OwnerRepository--><g class="link" data-entity-1="PetResource" data-entity-2="OwnerRepository" data-source-line="152" data-uid="lnk50" id="link_PetResource_OwnerRepository"><path codeLine="152" d="M306.31,1288.41 C352.97,1284.28 398.8233,1280.2284 439.0933,1276.6684" fill="none" id="PetResource-to-OwnerRepository" style="stroke:#181818;stroke-width:1;"/><polygon fill="#181818" points="445.07,1276.14,435.7527,1272.9481,440.0894,1276.5803,436.4572,1280.917,445.07,1276.14" style="stroke:#181818;stroke-width:1;"/></g><!--link PetResource to PetRepository--><g class="link" data-entity-1="PetResource" data-entity-2="PetRepository" data-source-line="153" data-uid="lnk51" id="link_PetResource_PetRepository"><path codeLine="153" d="M306.31,1318.72 C357,1327.07 407.8596,1335.4457 449.2996,1342.2657" fill="none" id="PetResource-to-PetRepository" style="stroke:#181818;stroke-width:1;"/><polygon fill="#181818" points="455.22,1343.24,446.989,1337.8316,450.2864,1342.428,445.6899,1345.7254,455.22,1343.24" style="stroke:#181818;stroke-width:1;"/></g><!--link VetResource to VetRepository--><g class="link" data-entity-1="VetResource" data-entity-2="VetRepository" data-source-line="154" data-uid="lnk52" id="link_VetResource_VetRepository"><path codeLine="154" d="M286.25,1417.21 C341.47,1421.76 402.2602,1426.7577 449.2702,1430.6277" fill="none" id="VetResource-to-VetRepository" style="stroke:#181818;stroke-width:1;"/><polygon fill="#181818" points="455.25,1431.12,446.6085,1426.3951,450.2669,1430.7098,445.9522,1434.3681,455.25,1431.12" style="stroke:#181818;stroke-width:1;"/></g><!--link VisitResource to VisitRepository--><g class="link" data-entity-1="VisitResource" data-entity-2="VisitRepository" data-source-line="155" data-uid="lnk53" id="link_VisitResource_VisitRepository"><path codeLine="155" d="M291.63,1512.88 C344.85,1514.34 401.6022,1515.906 446.9422,1517.146" fill="none" id="VisitResource-to-VisitRepository" style="stroke:#181818;stroke-width:1;"/><polygon fill="#181818" points="452.94,1517.31,444.0527,1513.0654,447.9419,1517.1733,443.834,1521.0625,452.94,1517.31" style="stroke:#181818;stroke-width:1;"/></g><!--SRC=[nLRDRXen4Bxp55PwQLKbwdc58YsG7wGaZQ2bP-CTbb4MUsKR4jhcqQe-KbyXzkwoh8qNjhtq40BZcVd6ytb-r1Fod4gw8YoZIiLQIvolDOoPu5Fy3kHJBuE59beGYUbIamGbC8s2ztBAdcWAv6neBK6HznDOYGqavC_lN-GhPqlAq-fNd2IGV3WZ_Vx4M1jv1fUNv4UFbB0apl66QdYcspZFCsJK8XJdX7mao1DukTMhB28JK68j6PYJru3rK70jHPQ1h8tPMccn0gcc83V8O9WXS1sHOL1U6MrGeVOjPeV27SRycZ8jvDO6QBxX1eOesHhrG09z0baTEr4FALk22NY1QH5iuwGGMY2GVZuQMju5kckMiTSPUePvAHciCKj0HkJRJkAu6Q5YXb-vROyCkGQve0p8FStpYeMzXtimpui5x_pvcJT8moGYO-Ch1Lb95YYLVg0hYCZKEE5f9JV68J5D4WbAULA6Ukk9D6IGBmNt7UIWhJNemoX7e2bcoWaMwxVmVmAzGnM8z8fhuyYZOizHeJE1N9XtRLvdY95TlTMN5QvDv3jfgZNXeyE87BH7q4VOvuU9cwFKov4f-uZOprsMjhaH66TVp9TcB1M-ZtcSo-EmBZq1uBABEEJiaszKMrDVd7c9pvlwaMlUdHi7muRQFUbxqrri3q9VYpLFhbuOv86-Cys18Stqzbz0fhaL3OJGSR92tjxTPaTVpb-Mewf2Hd2gVq_Rx0Xjim1j6vUscKUROwmUfJ1rOS7tuyjEYQWS5WVw9pj_CRAEP2VnwoS1nIGMP1xscN5T71v2g8fSeCewXEwWXF4z2YnaEmdbgK-3QnFvJWvTD6wZOHLgiSu-S8A3bj6x54e7capNYHoF1q1vEK_NiWJlz-FHw6fargjtTtPZkv40VaZns51EpMlReF5-nAHymNPtcPe_iE-t_j5iEkhsn4NQRd1Disnk5id6ujRb0ZV0ut4Wyrri6rVeX5fq2v6cbeQxud-tnBJU_RKNN5ZFpo_Rbj9M_T1AMetx_i-BYy3CTQUwzT5Pfr4jTbhNylhNRlervgedFkNKENT7tCmxTJkfM_LrQlOQRm00]--></g></svg>