<svg xmlns="http://www.w3.org/2000/svg" xmlns:xlink="http://www.w3.org/1999/xlink" contentStyleType="text/css" data-diagram-type="CLASS" height="849px" preserveAspectRatio="none" style="width:927px;height:849px;background:#FFFFFF;" version="1.1" viewBox="0 0 927 849" width="927px" zoomAndPan="magnify"><defs/><g><!--cluster Classes (Removed ? Unchanged ? Added)--><g class="cluster" data-entity="Classes .Removed . Unchanged . Added." data-source-line="3" data-uid="ent0002" id="cluster_Classes .Removed . Unchanged . Added."><rect fill="none" height="836" rx="2.5" ry="2.5" style="stroke:#181818;stroke-width:1;" width="914" x="7" y="7"/><text fill="#000000" font-family="sans-serif" font-size="14" font-weight="bold" lengthAdjust="spacing" textLength="293.3779" x="317.311" y="23.5332">Classes (Removed &#65533; Unchanged &#65533; Added)</text></g><!--class EntityUtils--><g class="entity" data-entity="EntityUtils" data-source-line="4" data-uid="ent0003" id="entity_EntityUtils"><rect fill="#FFA07A" height="58.7031" rx="2.5" ry="2.5" style="stroke:#181818;stroke-width:0.5;" width="102.0215" x="66.5" y="262.5"/><ellipse cx="81.5" cy="283.8516" fill="#ADD1B2" rx="11" ry="11" style="stroke:#181818;stroke-width:1;"/><path d="M84.2656,279.7266 Q84.4219,279.5078 84.6094,279.3984 Q84.7969,279.2891 85.0156,279.2891 Q85.3906,279.2891 85.625,279.5547 Q85.8594,279.8047 85.8594,280.4141 L85.8594,281.8672 Q85.8594,282.4766 85.625,282.7422 Q85.3906,283.0078 85.0156,283.0078 Q84.6719,283.0078 84.4688,282.8047 Q84.2656,282.6172 84.1563,282.1016 Q84.1094,281.7422 83.9219,281.5547 Q83.5938,281.1797 82.9844,280.9609 Q82.375,280.7422 81.75,280.7422 Q80.9844,280.7422 80.3438,281.0703 Q79.7188,281.3984 79.2188,282.1484 Q78.7344,282.8984 78.7344,283.9297 L78.7344,285.0234 Q78.7344,286.2578 79.625,287.0859 Q80.5156,287.8984 82.1094,287.8984 Q83.0469,287.8984 83.7031,287.6484 Q84.0938,287.4922 84.5156,287.0547 Q84.7813,286.7891 84.9219,286.7109 Q85.0781,286.6328 85.2813,286.6328 Q85.6094,286.6328 85.8594,286.8984 Q86.125,287.1484 86.125,287.4922 Q86.125,287.8359 85.7813,288.2422 Q85.2813,288.8203 84.4844,289.1484 Q83.4063,289.6016 82.1094,289.6016 Q80.5938,289.6016 79.3906,288.9766 Q78.4063,288.4766 77.7188,287.4141 Q77.0313,286.3359 77.0313,285.0547 L77.0313,283.8984 Q77.0313,282.5703 77.6406,281.4297 Q78.2656,280.2734 79.3594,279.6641 Q80.4531,279.0391 81.6875,279.0391 Q82.4219,279.0391 83.0625,279.2109 Q83.7188,279.3672 84.2656,279.7266 Z " fill="#000000"/><text fill="#000000" font-family="sans-serif" font-size="12" font-style="italic" lengthAdjust="spacing" textLength="74.0215" x="93.5" y="279.957">&#171;REMOVED&#187;</text><text fill="#000000" font-family="sans-serif" font-size="14" lengthAdjust="spacing" textLength="62.2344" x="99.3936" y="297.127">EntityUtils</text><line style="stroke:#181818;stroke-width:0.5;" x1="67.5" x2="167.5215" y1="305.2031" y2="305.2031"/><line style="stroke:#181818;stroke-width:0.5;" x1="67.5" x2="167.5215" y1="313.2031" y2="313.2031"/></g><!--class BaseEntity--><g class="entity" data-entity="BaseEntity" data-source-line="6" data-uid="ent0004" id="entity_BaseEntity"><rect fill="#F1F1F1" height="65.6094" rx="2.5" ry="2.5" style="stroke:#181818;stroke-width:0.5;" width="98.9238" x="68" y="357"/><ellipse cx="83" cy="373" fill="#ADD1B2" rx="11" ry="11" style="stroke:#181818;stroke-width:1;"/><path d="M85.7656,368.875 Q85.9219,368.6563 86.1094,368.5469 Q86.2969,368.4375 86.5156,368.4375 Q86.8906,368.4375 87.125,368.7031 Q87.3594,368.9531 87.3594,369.5625 L87.3594,371.0156 Q87.3594,371.625 87.125,371.8906 Q86.8906,372.1563 86.5156,372.1563 Q86.1719,372.1563 85.9688,371.9531 Q85.7656,371.7656 85.6563,371.25 Q85.6094,370.8906 85.4219,370.7031 Q85.0938,370.3281 84.4844,370.1094 Q83.875,369.8906 83.25,369.8906 Q82.4844,369.8906 81.8438,370.2188 Q81.2188,370.5469 80.7188,371.2969 Q80.2344,372.0469 80.2344,373.0781 L80.2344,374.1719 Q80.2344,375.4063 81.125,376.2344 Q82.0156,377.0469 83.6094,377.0469 Q84.5469,377.0469 85.2031,376.7969 Q85.5938,376.6406 86.0156,376.2031 Q86.2813,375.9375 86.4219,375.8594 Q86.5781,375.7813 86.7813,375.7813 Q87.1094,375.7813 87.3594,376.0469 Q87.625,376.2969 87.625,376.6406 Q87.625,376.9844 87.2813,377.3906 Q86.7813,377.9688 85.9844,378.2969 Q84.9063,378.75 83.6094,378.75 Q82.0938,378.75 80.8906,378.125 Q79.9063,377.625 79.2188,376.5625 Q78.5313,375.4844 78.5313,374.2031 L78.5313,373.0469 Q78.5313,371.7188 79.1406,370.5781 Q79.7656,369.4219 80.8594,368.8125 Q81.9531,368.1875 83.1875,368.1875 Q83.9219,368.1875 84.5625,368.3594 Q85.2188,368.5156 85.7656,368.875 Z " fill="#000000"/><text fill="#000000" font-family="sans-serif" font-size="14" lengthAdjust="spacing" textLength="66.9238" x="97" y="378.7285">BaseEntity</text><line style="stroke:#181818;stroke-width:0.5;" x1="69" x2="165.9238" y1="389" y2="389"/><text fill="#000000" font-family="sans-serif" font-size="14" lengthAdjust="spacing" textLength="70.4375" x="74" y="407.5332">+id: Integer</text><line style="stroke:#181818;stroke-width:0.5;" x1="69" x2="165.9238" y1="414.6094" y2="414.6094"/></g><!--class CallMonitoringAspect--><g class="entity" data-entity="CallMonitoringAspect" data-source-line="9" data-uid="ent0005" id="entity_CallMonitoringAspect"><rect fill="#F1F1F1" height="100.8281" rx="2.5" ry="2.5" style="stroke:#181818;stroke-width:0.5;" width="189.0303" x="23" y="126.5"/><ellipse cx="49.1366" cy="142.5" fill="#ADD1B2" rx="11" ry="11" style="stroke:#181818;stroke-width:1;"/><path d="M51.9022,138.375 Q52.0585,138.1563 52.246,138.0469 Q52.4335,137.9375 52.6522,137.9375 Q53.0272,137.9375 53.2616,138.2031 Q53.496,138.4531 53.496,139.0625 L53.496,140.5156 Q53.496,141.125 53.2616,141.3906 Q53.0272,141.6563 52.6522,141.6563 Q52.3085,141.6563 52.1054,141.4531 Q51.9022,141.2656 51.7929,140.75 Q51.746,140.3906 51.5585,140.2031 Q51.2304,139.8281 50.621,139.6094 Q50.0116,139.3906 49.3866,139.3906 Q48.621,139.3906 47.9804,139.7188 Q47.3554,140.0469 46.8554,140.7969 Q46.371,141.5469 46.371,142.5781 L46.371,143.6719 Q46.371,144.9063 47.2616,145.7344 Q48.1522,146.5469 49.746,146.5469 Q50.6835,146.5469 51.3397,146.2969 Q51.7304,146.1406 52.1522,145.7031 Q52.4179,145.4375 52.5585,145.3594 Q52.7147,145.2813 52.9179,145.2813 Q53.246,145.2813 53.496,145.5469 Q53.7616,145.7969 53.7616,146.1406 Q53.7616,146.4844 53.4179,146.8906 Q52.9179,147.4688 52.121,147.7969 Q51.0429,148.25 49.746,148.25 Q48.2304,148.25 47.0272,147.625 Q46.0429,147.125 45.3554,146.0625 Q44.6679,144.9844 44.6679,143.7031 L44.6679,142.5469 Q44.6679,141.2188 45.2772,140.0781 Q45.9022,138.9219 46.996,138.3125 Q48.0897,137.6875 49.3241,137.6875 Q50.0585,137.6875 50.6991,137.8594 Q51.3554,138.0156 51.9022,138.375 Z " fill="#000000"/><text fill="#000000" font-family="sans-serif" font-size="14" lengthAdjust="spacing" textLength="132.2822" x="65.6114" y="148.2285">CallMonitoringAspect</text><line style="stroke:#181818;stroke-width:0.5;" x1="24" x2="211.0303" y1="158.5" y2="158.5"/><text fill="#000000" font-family="sans-serif" font-size="14" lengthAdjust="spacing" textLength="115.6094" x="29" y="177.0332">+enabled: boolean</text><text fill="#000000" font-family="sans-serif" font-size="14" lengthAdjust="spacing" textLength="89.1064" x="29" y="194.6426">+callCount: int</text><text fill="#000000" font-family="sans-serif" font-size="14" lengthAdjust="spacing" textLength="177.0303" x="29" y="212.252">+accumulatedCallTime: long</text><line style="stroke:#181818;stroke-width:0.5;" x1="24" x2="211.0303" y1="219.3281" y2="219.3281"/></g><!--class ClinicService--><g class="entity" data-entity="ClinicService" data-source-line="14" data-uid="ent0006" id="entity_ClinicService"><rect fill="#F1F1F1" height="48" rx="2.5" ry="2.5" style="stroke:#181818;stroke-width:0.5;" width="112.9102" x="281.5" y="666"/><ellipse cx="296.5" cy="682" fill="#B4A7E5" rx="11" ry="11" style="stroke:#181818;stroke-width:1;"/><path d="M297.4531,678.6406 L297.4531,685.2969 L299.1719,685.2969 Q299.7813,685.2969 300.0469,685.5313 Q300.3125,685.7656 300.3125,686.1563 Q300.3125,686.5313 300.0469,686.7656 Q299.7813,687 299.1719,687 L294.0313,687 Q293.4219,687 293.1563,686.7656 Q292.8906,686.5313 292.8906,686.1406 Q292.8906,685.7656 293.1563,685.5313 Q293.4219,685.2969 294.0313,685.2969 L295.75,685.2969 L295.75,678.6406 L294.0313,678.6406 Q293.4219,678.6406 293.1563,678.4063 Q292.8906,678.1719 292.8906,677.7813 Q292.8906,677.4063 293.1563,677.1719 Q293.4219,676.9375 294.0313,676.9375 L299.1719,676.9375 Q299.7813,676.9375 300.0469,677.1719 Q300.3125,677.4063 300.3125,677.7813 Q300.3125,678.1719 300.0469,678.4063 Q299.7813,678.6406 299.1719,678.6406 L297.4531,678.6406 Z " fill="#000000"/><text fill="#000000" font-family="sans-serif" font-size="14" font-style="italic" lengthAdjust="spacing" textLength="80.9102" x="310.5" y="687.7285">ClinicService</text><line style="stroke:#181818;stroke-width:0.5;" x1="282.5" x2="393.4102" y1="698" y2="698"/><line style="stroke:#181818;stroke-width:0.5;" x1="282.5" x2="393.4102" y1="706" y2="706"/></g><!--class ClinicServiceImpl--><g class="entity" data-entity="ClinicServiceImpl" data-source-line="16" data-uid="ent0007" id="entity_ClinicServiceImpl"><rect fill="#F1F1F1" height="118.4375" rx="2.5" ry="2.5" style="stroke:#181818;stroke-width:0.5;" width="241.1543" x="464" y="631"/><ellipse cx="526.6479" cy="647" fill="#ADD1B2" rx="11" ry="11" style="stroke:#181818;stroke-width:1;"/><path d="M529.4136,642.875 Q529.5698,642.6563 529.7573,642.5469 Q529.9448,642.4375 530.1636,642.4375 Q530.5386,642.4375 530.7729,642.7031 Q531.0073,642.9531 531.0073,643.5625 L531.0073,645.0156 Q531.0073,645.625 530.7729,645.8906 Q530.5386,646.1563 530.1636,646.1563 Q529.8198,646.1563 529.6167,645.9531 Q529.4136,645.7656 529.3042,645.25 Q529.2573,644.8906 529.0698,644.7031 Q528.7417,644.3281 528.1323,644.1094 Q527.5229,643.8906 526.8979,643.8906 Q526.1323,643.8906 525.4917,644.2188 Q524.8667,644.5469 524.3667,645.2969 Q523.8823,646.0469 523.8823,647.0781 L523.8823,648.1719 Q523.8823,649.4063 524.7729,650.2344 Q525.6636,651.0469 527.2573,651.0469 Q528.1948,651.0469 528.8511,650.7969 Q529.2417,650.6406 529.6636,650.2031 Q529.9292,649.9375 530.0698,649.8594 Q530.2261,649.7813 530.4292,649.7813 Q530.7573,649.7813 531.0073,650.0469 Q531.2729,650.2969 531.2729,650.6406 Q531.2729,650.9844 530.9292,651.3906 Q530.4292,651.9688 529.6323,652.2969 Q528.5542,652.75 527.2573,652.75 Q525.7417,652.75 524.5386,652.125 Q523.5542,651.625 522.8667,650.5625 Q522.1792,649.4844 522.1792,648.2031 L522.1792,647.0469 Q522.1792,645.7188 522.7886,644.5781 Q523.4136,643.4219 524.5073,642.8125 Q525.6011,642.1875 526.8354,642.1875 Q527.5698,642.1875 528.2104,642.3594 Q528.8667,642.5156 529.4136,642.875 Z " fill="#000000"/><text fill="#000000" font-family="sans-serif" font-size="14" lengthAdjust="spacing" textLength="107.3584" x="547.1479" y="652.7285">ClinicServiceImpl</text><line style="stroke:#181818;stroke-width:0.5;" x1="465" x2="704.1543" y1="663" y2="663"/><text fill="#000000" font-family="sans-serif" font-size="14" lengthAdjust="spacing" textLength="190.2646" x="470" y="681.5332">+petRepository: PetRepository</text><text fill="#000000" font-family="sans-serif" font-size="14" lengthAdjust="spacing" textLength="189.4785" x="470" y="699.1426">+vetRepository: VetRepository</text><text fill="#000000" font-family="sans-serif" font-size="14" lengthAdjust="spacing" textLength="229.1543" x="470" y="716.752">+ownerRepository: OwnerRepository</text><text fill="#000000" font-family="sans-serif" font-size="14" lengthAdjust="spacing" textLength="200.3477" x="470" y="734.3613">+visitRepository: VisitRepository</text><line style="stroke:#181818;stroke-width:0.5;" x1="465" x2="704.1543" y1="741.4375" y2="741.4375"/></g><!--class NamedEntity--><g class="entity" data-entity="NamedEntity" data-source-line="22" data-uid="ent0008" id="entity_NamedEntity"><rect fill="#F1F1F1" height="65.6094" rx="2.5" ry="2.5" style="stroke:#181818;stroke-width:0.5;" width="112.1445" x="282" y="485"/><ellipse cx="297" cy="501" fill="#ADD1B2" rx="11" ry="11" style="stroke:#181818;stroke-width:1;"/><path d="M299.7656,496.875 Q299.9219,496.6563 300.1094,496.5469 Q300.2969,496.4375 300.5156,496.4375 Q300.8906,496.4375 301.125,496.7031 Q301.3594,496.9531 301.3594,497.5625 L301.3594,499.0156 Q301.3594,499.625 301.125,499.8906 Q300.8906,500.1563 300.5156,500.1563 Q300.1719,500.1563 299.9688,499.9531 Q299.7656,499.7656 299.6563,499.25 Q299.6094,498.8906 299.4219,498.7031 Q299.0938,498.3281 298.4844,498.1094 Q297.875,497.8906 297.25,497.8906 Q296.4844,497.8906 295.8438,498.2188 Q295.2188,498.5469 294.7188,499.2969 Q294.2344,500.0469 294.2344,501.0781 L294.2344,502.1719 Q294.2344,503.4063 295.125,504.2344 Q296.0156,505.0469 297.6094,505.0469 Q298.5469,505.0469 299.2031,504.7969 Q299.5938,504.6406 300.0156,504.2031 Q300.2813,503.9375 300.4219,503.8594 Q300.5781,503.7813 300.7813,503.7813 Q301.1094,503.7813 301.3594,504.0469 Q301.625,504.2969 301.625,504.6406 Q301.625,504.9844 301.2813,505.3906 Q300.7813,505.9688 299.9844,506.2969 Q298.9063,506.75 297.6094,506.75 Q296.0938,506.75 294.8906,506.125 Q293.9063,505.625 293.2188,504.5625 Q292.5313,503.4844 292.5313,502.2031 L292.5313,501.0469 Q292.5313,499.7188 293.1406,498.5781 Q293.7656,497.4219 294.8594,496.8125 Q295.9531,496.1875 297.1875,496.1875 Q297.9219,496.1875 298.5625,496.3594 Q299.2188,496.5156 299.7656,496.875 Z " fill="#000000"/><text fill="#000000" font-family="sans-serif" font-size="14" lengthAdjust="spacing" textLength="80.1445" x="311" y="506.7285">NamedEntity</text><line style="stroke:#181818;stroke-width:0.5;" x1="283" x2="393.1445" y1="517" y2="517"/><text fill="#000000" font-family="sans-serif" font-size="14" lengthAdjust="spacing" textLength="87.5479" x="288" y="535.5332">+name: String</text><line style="stroke:#181818;stroke-width:0.5;" x1="283" x2="393.1445" y1="542.6094" y2="542.6094"/></g><!--class Owner--><g class="entity" data-entity="Owner" data-source-line="25" data-uid="ent0009" id="entity_Owner"><rect fill="#F1F1F1" height="118.4375" rx="2.5" ry="2.5" style="stroke:#181818;stroke-width:0.5;" width="126.0303" x="772" y="254"/><ellipse cx="810.7582" cy="270" fill="#ADD1B2" rx="11" ry="11" style="stroke:#181818;stroke-width:1;"/><path d="M813.5238,265.875 Q813.68,265.6563 813.8675,265.5469 Q814.055,265.4375 814.2738,265.4375 Q814.6488,265.4375 814.8832,265.7031 Q815.1175,265.9531 815.1175,266.5625 L815.1175,268.0156 Q815.1175,268.625 814.8832,268.8906 Q814.6488,269.1563 814.2738,269.1563 Q813.93,269.1563 813.7269,268.9531 Q813.5238,268.7656 813.4144,268.25 Q813.3675,267.8906 813.18,267.7031 Q812.8519,267.3281 812.2425,267.1094 Q811.6332,266.8906 811.0082,266.8906 Q810.2425,266.8906 809.6019,267.2188 Q808.9769,267.5469 808.4769,268.2969 Q807.9925,269.0469 807.9925,270.0781 L807.9925,271.1719 Q807.9925,272.4063 808.8832,273.2344 Q809.7738,274.0469 811.3675,274.0469 Q812.305,274.0469 812.9613,273.7969 Q813.3519,273.6406 813.7738,273.2031 Q814.0394,272.9375 814.18,272.8594 Q814.3363,272.7813 814.5394,272.7813 Q814.8675,272.7813 815.1175,273.0469 Q815.3832,273.2969 815.3832,273.6406 Q815.3832,273.9844 815.0394,274.3906 Q814.5394,274.9688 813.7425,275.2969 Q812.6644,275.75 811.3675,275.75 Q809.8519,275.75 808.6488,275.125 Q807.6644,274.625 806.9769,273.5625 Q806.2894,272.4844 806.2894,271.2031 L806.2894,270.0469 Q806.2894,268.7188 806.8988,267.5781 Q807.5238,266.4219 808.6175,265.8125 Q809.7113,265.1875 810.9457,265.1875 Q811.68,265.1875 812.3207,265.3594 Q812.9769,265.5156 813.5238,265.875 Z " fill="#000000"/><text fill="#000000" font-family="sans-serif" font-size="14" lengthAdjust="spacing" textLength="41.2344" x="830.0377" y="275.7285">Owner</text><line style="stroke:#181818;stroke-width:0.5;" x1="773" x2="897.0303" y1="286" y2="286"/><text fill="#000000" font-family="sans-serif" font-size="14" lengthAdjust="spacing" textLength="102.334" x="778" y="304.5332">+address: String</text><text fill="#000000" font-family="sans-serif" font-size="14" lengthAdjust="spacing" textLength="73.5273" x="778" y="322.1426">+city: String</text><text fill="#000000" font-family="sans-serif" font-size="14" lengthAdjust="spacing" textLength="114.0303" x="778" y="339.752">+telephone: String</text><text fill="#000000" font-family="sans-serif" font-size="14" lengthAdjust="spacing" textLength="63.4307" x="778" y="357.3613">+pets: Set</text><line style="stroke:#181818;stroke-width:0.5;" x1="773" x2="897.0303" y1="364.4375" y2="364.4375"/></g><!--class OwnerRepository--><g class="entity" data-entity="OwnerRepository" data-source-line="31" data-uid="ent0010" id="entity_OwnerRepository"><rect fill="#F1F1F1" height="48" rx="2.5" ry="2.5" style="stroke:#181818;stroke-width:0.5;" width="140.1514" x="765" y="596"/><ellipse cx="780" cy="612" fill="#B4A7E5" rx="11" ry="11" style="stroke:#181818;stroke-width:1;"/><path d="M780.9531,608.6406 L780.9531,615.2969 L782.6719,615.2969 Q783.2813,615.2969 783.5469,615.5313 Q783.8125,615.7656 783.8125,616.1563 Q783.8125,616.5313 783.5469,616.7656 Q783.2813,617 782.6719,617 L777.5313,617 Q776.9219,617 776.6563,616.7656 Q776.3906,616.5313 776.3906,616.1406 Q776.3906,615.7656 776.6563,615.5313 Q776.9219,615.2969 777.5313,615.2969 L779.25,615.2969 L779.25,608.6406 L777.5313,608.6406 Q776.9219,608.6406 776.6563,608.4063 Q776.3906,608.1719 776.3906,607.7813 Q776.3906,607.4063 776.6563,607.1719 Q776.9219,606.9375 777.5313,606.9375 L782.6719,606.9375 Q783.2813,606.9375 783.5469,607.1719 Q783.8125,607.4063 783.8125,607.7813 Q783.8125,608.1719 783.5469,608.4063 Q783.2813,608.6406 782.6719,608.6406 L780.9531,608.6406 Z " fill="#000000"/><text fill="#000000" font-family="sans-serif" font-size="14" font-style="italic" lengthAdjust="spacing" textLength="108.1514" x="794" y="617.7285">OwnerRepository</text><line style="stroke:#181818;stroke-width:0.5;" x1="766" x2="904.1514" y1="628" y2="628"/><line style="stroke:#181818;stroke-width:0.5;" x1="766" x2="904.1514" y1="636" y2="636"/></g><!--class OwnerResource--><g class="entity" data-entity="OwnerResource" data-source-line="33" data-uid="ent0011" id="entity_OwnerResource"><rect fill="#F1F1F1" height="65.6094" rx="2.5" ry="2.5" style="stroke:#181818;stroke-width:0.5;" width="186.665" x="24" y="458"/><ellipse cx="63.0812" cy="474" fill="#ADD1B2" rx="11" ry="11" style="stroke:#181818;stroke-width:1;"/><path d="M65.8468,469.875 Q66.003,469.6563 66.1905,469.5469 Q66.378,469.4375 66.5968,469.4375 Q66.9718,469.4375 67.2062,469.7031 Q67.4405,469.9531 67.4405,470.5625 L67.4405,472.0156 Q67.4405,472.625 67.2062,472.8906 Q66.9718,473.1563 66.5968,473.1563 Q66.253,473.1563 66.0499,472.9531 Q65.8468,472.7656 65.7374,472.25 Q65.6905,471.8906 65.503,471.7031 Q65.1749,471.3281 64.5655,471.1094 Q63.9562,470.8906 63.3312,470.8906 Q62.5655,470.8906 61.9249,471.2188 Q61.2999,471.5469 60.7999,472.2969 Q60.3155,473.0469 60.3155,474.0781 L60.3155,475.1719 Q60.3155,476.4063 61.2062,477.2344 Q62.0968,478.0469 63.6905,478.0469 Q64.628,478.0469 65.2843,477.7969 Q65.6749,477.6406 66.0968,477.2031 Q66.3624,476.9375 66.503,476.8594 Q66.6593,476.7813 66.8624,476.7813 Q67.1905,476.7813 67.4405,477.0469 Q67.7062,477.2969 67.7062,477.6406 Q67.7062,477.9844 67.3624,478.3906 Q66.8624,478.9688 66.0655,479.2969 Q64.9874,479.75 63.6905,479.75 Q62.1749,479.75 60.9718,479.125 Q59.9874,478.625 59.2999,477.5625 Q58.6124,476.4844 58.6124,475.2031 L58.6124,474.0469 Q58.6124,472.7188 59.2218,471.5781 Q59.8468,470.4219 60.9405,469.8125 Q62.0343,469.1875 63.2687,469.1875 Q64.003,469.1875 64.6437,469.3594 Q65.2999,469.5156 65.8468,469.875 Z " fill="#000000"/><text fill="#000000" font-family="sans-serif" font-size="14" lengthAdjust="spacing" textLength="101.1514" x="82.4325" y="479.7285">OwnerResource</text><line style="stroke:#181818;stroke-width:0.5;" x1="25" x2="209.665" y1="490" y2="490"/><text fill="#000000" font-family="sans-serif" font-size="14" lengthAdjust="spacing" textLength="174.665" x="30" y="508.5332">+clinicService: ClinicService</text><line style="stroke:#181818;stroke-width:0.5;" x1="25" x2="209.665" y1="515.6094" y2="515.6094"/></g><!--class Person--><g class="entity" data-entity="Person" data-source-line="36" data-uid="ent0012" id="entity_Person"><rect fill="#F1F1F1" height="83.2188" rx="2.5" ry="2.5" style="stroke:#181818;stroke-width:0.5;" width="124.4238" x="276" y="230.5"/><ellipse cx="312.6294" cy="246.5" fill="#ADD1B2" rx="11" ry="11" style="stroke:#181818;stroke-width:1;"/><path d="M315.3951,242.375 Q315.5513,242.1563 315.7388,242.0469 Q315.9263,241.9375 316.1451,241.9375 Q316.5201,241.9375 316.7544,242.2031 Q316.9888,242.4531 316.9888,243.0625 L316.9888,244.5156 Q316.9888,245.125 316.7544,245.3906 Q316.5201,245.6563 316.1451,245.6563 Q315.8013,245.6563 315.5982,245.4531 Q315.3951,245.2656 315.2857,244.75 Q315.2388,244.3906 315.0513,244.2031 Q314.7232,243.8281 314.1138,243.6094 Q313.5044,243.3906 312.8794,243.3906 Q312.1138,243.3906 311.4732,243.7188 Q310.8482,244.0469 310.3482,244.7969 Q309.8638,245.5469 309.8638,246.5781 L309.8638,247.6719 Q309.8638,248.9063 310.7544,249.7344 Q311.6451,250.5469 313.2388,250.5469 Q314.1763,250.5469 314.8326,250.2969 Q315.2232,250.1406 315.6451,249.7031 Q315.9107,249.4375 316.0513,249.3594 Q316.2076,249.2813 316.4107,249.2813 Q316.7388,249.2813 316.9888,249.5469 Q317.2544,249.7969 317.2544,250.1406 Q317.2544,250.4844 316.9107,250.8906 Q316.4107,251.4688 315.6138,251.7969 Q314.5357,252.25 313.2388,252.25 Q311.7232,252.25 310.5201,251.625 Q309.5357,251.125 308.8482,250.0625 Q308.1607,248.9844 308.1607,247.7031 L308.1607,246.5469 Q308.1607,245.2188 308.7701,244.0781 Q309.3951,242.9219 310.4888,242.3125 Q311.5826,241.6875 312.8169,241.6875 Q313.5513,241.6875 314.1919,241.8594 Q314.8482,242.0156 315.3951,242.375 Z " fill="#000000"/><text fill="#000000" font-family="sans-serif" font-size="14" lengthAdjust="spacing" textLength="44.3584" x="331.436" y="252.2285">Person</text><line style="stroke:#181818;stroke-width:0.5;" x1="277" x2="399.4238" y1="262.5" y2="262.5"/><text fill="#000000" font-family="sans-serif" font-size="14" lengthAdjust="spacing" textLength="112.4238" x="282" y="281.0332">+firstName: String</text><text fill="#000000" font-family="sans-serif" font-size="14" lengthAdjust="spacing" textLength="111.6582" x="282" y="298.6426">+lastName: String</text><line style="stroke:#181818;stroke-width:0.5;" x1="277" x2="399.4238" y1="305.7188" y2="305.7188"/></g><!--class Pet--><g class="entity" data-entity="Pet" data-source-line="40" data-uid="ent0013" id="entity_Pet"><rect fill="#F1F1F1" height="118.4375" rx="2.5" ry="2.5" style="stroke:#181818;stroke-width:0.5;" width="114.334" x="527.5" y="346"/><ellipse cx="570.0941" cy="362" fill="#ADD1B2" rx="11" ry="11" style="stroke:#181818;stroke-width:1;"/><path d="M572.8598,357.875 Q573.016,357.6563 573.2035,357.5469 Q573.391,357.4375 573.6098,357.4375 Q573.9848,357.4375 574.2191,357.7031 Q574.4535,357.9531 574.4535,358.5625 L574.4535,360.0156 Q574.4535,360.625 574.2191,360.8906 Q573.9848,361.1563 573.6098,361.1563 Q573.266,361.1563 573.0629,360.9531 Q572.8598,360.7656 572.7504,360.25 Q572.7035,359.8906 572.516,359.7031 Q572.1879,359.3281 571.5785,359.1094 Q570.9691,358.8906 570.3441,358.8906 Q569.5785,358.8906 568.9379,359.2188 Q568.3129,359.5469 567.8129,360.2969 Q567.3285,361.0469 567.3285,362.0781 L567.3285,363.1719 Q567.3285,364.4063 568.2191,365.2344 Q569.1098,366.0469 570.7035,366.0469 Q571.641,366.0469 572.2973,365.7969 Q572.6879,365.6406 573.1098,365.2031 Q573.3754,364.9375 573.516,364.8594 Q573.6723,364.7813 573.8754,364.7813 Q574.2035,364.7813 574.4535,365.0469 Q574.7191,365.2969 574.7191,365.6406 Q574.7191,365.9844 574.3754,366.3906 Q573.8754,366.9688 573.0785,367.2969 Q572.0004,367.75 570.7035,367.75 Q569.1879,367.75 567.9848,367.125 Q567.0004,366.625 566.3129,365.5625 Q565.6254,364.4844 565.6254,363.2031 L565.6254,362.0469 Q565.6254,360.7188 566.2348,359.5781 Q566.8598,358.4219 567.9535,357.8125 Q569.0473,357.1875 570.2816,357.1875 Q571.016,357.1875 571.6566,357.3594 Q572.3129,357.5156 572.8598,357.875 Z " fill="#000000"/><text fill="#000000" font-family="sans-serif" font-size="14" lengthAdjust="spacing" textLength="21.0137" x="590.2262" y="367.7285">Pet</text><line style="stroke:#181818;stroke-width:0.5;" x1="528.5" x2="640.834" y1="378" y2="378"/><text fill="#000000" font-family="sans-serif" font-size="14" lengthAdjust="spacing" textLength="102.334" x="533.5" y="396.5332">+birthDate: Date</text><text fill="#000000" font-family="sans-serif" font-size="14" lengthAdjust="spacing" textLength="94.5547" x="533.5" y="414.1426">+type: PetType</text><text fill="#000000" font-family="sans-serif" font-size="14" lengthAdjust="spacing" textLength="95.3203" x="533.5" y="431.752">+owner: Owner</text><text fill="#000000" font-family="sans-serif" font-size="14" lengthAdjust="spacing" textLength="68.0791" x="533.5" y="449.3613">+visits: Set</text><line style="stroke:#181818;stroke-width:0.5;" x1="528.5" x2="640.834" y1="456.4375" y2="456.4375"/></g><!--class PetClinicApplication--><g class="entity" data-entity="PetClinicApplication" data-source-line="46" data-uid="ent0014" id="entity_PetClinicApplication"><rect fill="#F1F1F1" height="48" rx="2.5" ry="2.5" style="stroke:#181818;stroke-width:0.5;" width="155.7305" x="39.5" y="43"/><ellipse cx="54.5" cy="59" fill="#ADD1B2" rx="11" ry="11" style="stroke:#181818;stroke-width:1;"/><path d="M57.2656,54.875 Q57.4219,54.6563 57.6094,54.5469 Q57.7969,54.4375 58.0156,54.4375 Q58.3906,54.4375 58.625,54.7031 Q58.8594,54.9531 58.8594,55.5625 L58.8594,57.0156 Q58.8594,57.625 58.625,57.8906 Q58.3906,58.1563 58.0156,58.1563 Q57.6719,58.1563 57.4688,57.9531 Q57.2656,57.7656 57.1563,57.25 Q57.1094,56.8906 56.9219,56.7031 Q56.5938,56.3281 55.9844,56.1094 Q55.375,55.8906 54.75,55.8906 Q53.9844,55.8906 53.3438,56.2188 Q52.7188,56.5469 52.2188,57.2969 Q51.7344,58.0469 51.7344,59.0781 L51.7344,60.1719 Q51.7344,61.4063 52.625,62.2344 Q53.5156,63.0469 55.1094,63.0469 Q56.0469,63.0469 56.7031,62.7969 Q57.0938,62.6406 57.5156,62.2031 Q57.7813,61.9375 57.9219,61.8594 Q58.0781,61.7813 58.2813,61.7813 Q58.6094,61.7813 58.8594,62.0469 Q59.125,62.2969 59.125,62.6406 Q59.125,62.9844 58.7813,63.3906 Q58.2813,63.9688 57.4844,64.2969 Q56.4063,64.75 55.1094,64.75 Q53.5938,64.75 52.3906,64.125 Q51.4063,63.625 50.7188,62.5625 Q50.0313,61.4844 50.0313,60.2031 L50.0313,59.0469 Q50.0313,57.7188 50.6406,56.5781 Q51.2656,55.4219 52.3594,54.8125 Q53.4531,54.1875 54.6875,54.1875 Q55.4219,54.1875 56.0625,54.3594 Q56.7188,54.5156 57.2656,54.875 Z " fill="#000000"/><text fill="#000000" font-family="sans-serif" font-size="14" lengthAdjust="spacing" textLength="123.7305" x="68.5" y="64.7285">PetClinicApplication</text><line style="stroke:#181818;stroke-width:0.5;" x1="40.5" x2="194.2305" y1="75" y2="75"/><line style="stroke:#181818;stroke-width:0.5;" x1="40.5" x2="194.2305" y1="83" y2="83"/></g><!--class PetRepository--><g class="entity" data-entity="PetRepository" data-source-line="48" data-uid="ent0015" id="entity_PetRepository"><rect fill="#F1F1F1" height="48" rx="2.5" ry="2.5" style="stroke:#181818;stroke-width:0.5;" width="119.9307" x="775" y="513"/><ellipse cx="790" cy="529" fill="#B4A7E5" rx="11" ry="11" style="stroke:#181818;stroke-width:1;"/><path d="M790.9531,525.6406 L790.9531,532.2969 L792.6719,532.2969 Q793.2813,532.2969 793.5469,532.5313 Q793.8125,532.7656 793.8125,533.1563 Q793.8125,533.5313 793.5469,533.7656 Q793.2813,534 792.6719,534 L787.5313,534 Q786.9219,534 786.6563,533.7656 Q786.3906,533.5313 786.3906,533.1406 Q786.3906,532.7656 786.6563,532.5313 Q786.9219,532.2969 787.5313,532.2969 L789.25,532.2969 L789.25,525.6406 L787.5313,525.6406 Q786.9219,525.6406 786.6563,525.4063 Q786.3906,525.1719 786.3906,524.7813 Q786.3906,524.4063 786.6563,524.1719 Q786.9219,523.9375 787.5313,523.9375 L792.6719,523.9375 Q793.2813,523.9375 793.5469,524.1719 Q793.8125,524.4063 793.8125,524.7813 Q793.8125,525.1719 793.5469,525.4063 Q793.2813,525.6406 792.6719,525.6406 L790.9531,525.6406 Z " fill="#000000"/><text fill="#000000" font-family="sans-serif" font-size="14" font-style="italic" lengthAdjust="spacing" textLength="87.9307" x="804" y="534.7285">PetRepository</text><line style="stroke:#181818;stroke-width:0.5;" x1="776" x2="893.9307" y1="545" y2="545"/><line style="stroke:#181818;stroke-width:0.5;" x1="776" x2="893.9307" y1="553" y2="553"/></g><!--class PetResource--><g class="entity" data-entity="PetResource" data-source-line="50" data-uid="ent0016" id="entity_PetResource"><rect fill="#F1F1F1" height="65.6094" rx="2.5" ry="2.5" style="stroke:#181818;stroke-width:0.5;" width="186.665" x="24" y="559"/><ellipse cx="72.6172" cy="575" fill="#ADD1B2" rx="11" ry="11" style="stroke:#181818;stroke-width:1;"/><path d="M75.3828,570.875 Q75.5391,570.6563 75.7266,570.5469 Q75.9141,570.4375 76.1328,570.4375 Q76.5078,570.4375 76.7422,570.7031 Q76.9766,570.9531 76.9766,571.5625 L76.9766,573.0156 Q76.9766,573.625 76.7422,573.8906 Q76.5078,574.1563 76.1328,574.1563 Q75.7891,574.1563 75.5859,573.9531 Q75.3828,573.7656 75.2734,573.25 Q75.2266,572.8906 75.0391,572.7031 Q74.7109,572.3281 74.1016,572.1094 Q73.4922,571.8906 72.8672,571.8906 Q72.1016,571.8906 71.4609,572.2188 Q70.8359,572.5469 70.3359,573.2969 Q69.8516,574.0469 69.8516,575.0781 L69.8516,576.1719 Q69.8516,577.4063 70.7422,578.2344 Q71.6328,579.0469 73.2266,579.0469 Q74.1641,579.0469 74.8203,578.7969 Q75.2109,578.6406 75.6328,578.2031 Q75.8984,577.9375 76.0391,577.8594 Q76.1953,577.7813 76.3984,577.7813 Q76.7266,577.7813 76.9766,578.0469 Q77.2422,578.2969 77.2422,578.6406 Q77.2422,578.9844 76.8984,579.3906 Q76.3984,579.9688 75.6016,580.2969 Q74.5234,580.75 73.2266,580.75 Q71.7109,580.75 70.5078,580.125 Q69.5234,579.625 68.8359,578.5625 Q68.1484,577.4844 68.1484,576.2031 L68.1484,575.0469 Q68.1484,573.7188 68.7578,572.5781 Q69.3828,571.4219 70.4766,570.8125 Q71.5703,570.1875 72.8047,570.1875 Q73.5391,570.1875 74.1797,570.3594 Q74.8359,570.5156 75.3828,570.875 Z " fill="#000000"/><text fill="#000000" font-family="sans-serif" font-size="14" lengthAdjust="spacing" textLength="80.9307" x="93.1172" y="580.7285">PetResource</text><line style="stroke:#181818;stroke-width:0.5;" x1="25" x2="209.665" y1="591" y2="591"/><text fill="#000000" font-family="sans-serif" font-size="14" lengthAdjust="spacing" textLength="174.665" x="30" y="609.5332">+clinicService: ClinicService</text><line style="stroke:#181818;stroke-width:0.5;" x1="25" x2="209.665" y1="616.6094" y2="616.6094"/></g><!--class PetType--><g class="entity" data-entity="PetType" data-source-line="53" data-uid="ent0017" id="entity_PetType"><rect fill="#F1F1F1" height="48" rx="2.5" ry="2.5" style="stroke:#181818;stroke-width:0.5;" width="84.1377" x="793" y="413"/><ellipse cx="808" cy="429" fill="#ADD1B2" rx="11" ry="11" style="stroke:#181818;stroke-width:1;"/><path d="M810.7656,424.875 Q810.9219,424.6563 811.1094,424.5469 Q811.2969,424.4375 811.5156,424.4375 Q811.8906,424.4375 812.125,424.7031 Q812.3594,424.9531 812.3594,425.5625 L812.3594,427.0156 Q812.3594,427.625 812.125,427.8906 Q811.8906,428.1563 811.5156,428.1563 Q811.1719,428.1563 810.9688,427.9531 Q810.7656,427.7656 810.6563,427.25 Q810.6094,426.8906 810.4219,426.7031 Q810.0938,426.3281 809.4844,426.1094 Q808.875,425.8906 808.25,425.8906 Q807.4844,425.8906 806.8438,426.2188 Q806.2188,426.5469 805.7188,427.2969 Q805.2344,428.0469 805.2344,429.0781 L805.2344,430.1719 Q805.2344,431.4063 806.125,432.2344 Q807.0156,433.0469 808.6094,433.0469 Q809.5469,433.0469 810.2031,432.7969 Q810.5938,432.6406 811.0156,432.2031 Q811.2813,431.9375 811.4219,431.8594 Q811.5781,431.7813 811.7813,431.7813 Q812.1094,431.7813 812.3594,432.0469 Q812.625,432.2969 812.625,432.6406 Q812.625,432.9844 812.2813,433.3906 Q811.7813,433.9688 810.9844,434.2969 Q809.9063,434.75 808.6094,434.75 Q807.0938,434.75 805.8906,434.125 Q804.9063,433.625 804.2188,432.5625 Q803.5313,431.4844 803.5313,430.2031 L803.5313,429.0469 Q803.5313,427.7188 804.1406,426.5781 Q804.7656,425.4219 805.8594,424.8125 Q806.9531,424.1875 808.1875,424.1875 Q808.9219,424.1875 809.5625,424.3594 Q810.2188,424.5156 810.7656,424.875 Z " fill="#000000"/><text fill="#000000" font-family="sans-serif" font-size="14" lengthAdjust="spacing" textLength="52.1377" x="822" y="434.7285">PetType</text><line style="stroke:#181818;stroke-width:0.5;" x1="794" x2="876.1377" y1="445" y2="445"/><line style="stroke:#181818;stroke-width:0.5;" x1="794" x2="876.1377" y1="453" y2="453"/></g><!--class PetValidator--><g class="entity" data-entity="PetValidator" data-source-line="55" data-uid="ent0018" id="entity_PetValidator"><rect fill="#F1F1F1" height="48" rx="2.5" ry="2.5" style="stroke:#181818;stroke-width:0.5;" width="108.2686" x="284" y="147"/><ellipse cx="299" cy="163" fill="#ADD1B2" rx="11" ry="11" style="stroke:#181818;stroke-width:1;"/><path d="M301.7656,158.875 Q301.9219,158.6563 302.1094,158.5469 Q302.2969,158.4375 302.5156,158.4375 Q302.8906,158.4375 303.125,158.7031 Q303.3594,158.9531 303.3594,159.5625 L303.3594,161.0156 Q303.3594,161.625 303.125,161.8906 Q302.8906,162.1563 302.5156,162.1563 Q302.1719,162.1563 301.9688,161.9531 Q301.7656,161.7656 301.6563,161.25 Q301.6094,160.8906 301.4219,160.7031 Q301.0938,160.3281 300.4844,160.1094 Q299.875,159.8906 299.25,159.8906 Q298.4844,159.8906 297.8438,160.2188 Q297.2188,160.5469 296.7188,161.2969 Q296.2344,162.0469 296.2344,163.0781 L296.2344,164.1719 Q296.2344,165.4063 297.125,166.2344 Q298.0156,167.0469 299.6094,167.0469 Q300.5469,167.0469 301.2031,166.7969 Q301.5938,166.6406 302.0156,166.2031 Q302.2813,165.9375 302.4219,165.8594 Q302.5781,165.7813 302.7813,165.7813 Q303.1094,165.7813 303.3594,166.0469 Q303.625,166.2969 303.625,166.6406 Q303.625,166.9844 303.2813,167.3906 Q302.7813,167.9688 301.9844,168.2969 Q300.9063,168.75 299.6094,168.75 Q298.0938,168.75 296.8906,168.125 Q295.9063,167.625 295.2188,166.5625 Q294.5313,165.4844 294.5313,164.2031 L294.5313,163.0469 Q294.5313,161.7188 295.1406,160.5781 Q295.7656,159.4219 296.8594,158.8125 Q297.9531,158.1875 299.1875,158.1875 Q299.9219,158.1875 300.5625,158.3594 Q301.2188,158.5156 301.7656,158.875 Z " fill="#000000"/><text fill="#000000" font-family="sans-serif" font-size="14" lengthAdjust="spacing" textLength="76.2686" x="313" y="168.7285">PetValidator</text><line style="stroke:#181818;stroke-width:0.5;" x1="285" x2="391.2686" y1="179" y2="179"/><line style="stroke:#181818;stroke-width:0.5;" x1="285" x2="391.2686" y1="187" y2="187"/></g><!--class Specialty--><g class="entity" data-entity="Specialty" data-source-line="57" data-uid="ent0019" id="entity_Specialty"><rect fill="#F1F1F1" height="48" rx="2.5" ry="2.5" style="stroke:#181818;stroke-width:0.5;" width="88.8066" x="540" y="536"/><ellipse cx="555" cy="552" fill="#ADD1B2" rx="11" ry="11" style="stroke:#181818;stroke-width:1;"/><path d="M557.7656,547.875 Q557.9219,547.6563 558.1094,547.5469 Q558.2969,547.4375 558.5156,547.4375 Q558.8906,547.4375 559.125,547.7031 Q559.3594,547.9531 559.3594,548.5625 L559.3594,550.0156 Q559.3594,550.625 559.125,550.8906 Q558.8906,551.1563 558.5156,551.1563 Q558.1719,551.1563 557.9688,550.9531 Q557.7656,550.7656 557.6563,550.25 Q557.6094,549.8906 557.4219,549.7031 Q557.0938,549.3281 556.4844,549.1094 Q555.875,548.8906 555.25,548.8906 Q554.4844,548.8906 553.8438,549.2188 Q553.2188,549.5469 552.7188,550.2969 Q552.2344,551.0469 552.2344,552.0781 L552.2344,553.1719 Q552.2344,554.4063 553.125,555.2344 Q554.0156,556.0469 555.6094,556.0469 Q556.5469,556.0469 557.2031,555.7969 Q557.5938,555.6406 558.0156,555.2031 Q558.2813,554.9375 558.4219,554.8594 Q558.5781,554.7813 558.7813,554.7813 Q559.1094,554.7813 559.3594,555.0469 Q559.625,555.2969 559.625,555.6406 Q559.625,555.9844 559.2813,556.3906 Q558.7813,556.9688 557.9844,557.2969 Q556.9063,557.75 555.6094,557.75 Q554.0938,557.75 552.8906,557.125 Q551.9063,556.625 551.2188,555.5625 Q550.5313,554.4844 550.5313,553.2031 L550.5313,552.0469 Q550.5313,550.7188 551.1406,549.5781 Q551.7656,548.4219 552.8594,547.8125 Q553.9531,547.1875 555.1875,547.1875 Q555.9219,547.1875 556.5625,547.3594 Q557.2188,547.5156 557.7656,547.875 Z " fill="#000000"/><text fill="#000000" font-family="sans-serif" font-size="14" lengthAdjust="spacing" textLength="56.8066" x="569" y="557.7285">Specialty</text><line style="stroke:#181818;stroke-width:0.5;" x1="541" x2="627.8066" y1="568" y2="568"/><line style="stroke:#181818;stroke-width:0.5;" x1="541" x2="627.8066" y1="576" y2="576"/></g><!--class Vet--><g class="entity" data-entity="Vet" data-source-line="59" data-uid="ent0020" id="entity_Vet"><rect fill="#F1F1F1" height="65.6094" rx="2.5" ry="2.5" style="stroke:#181818;stroke-width:0.5;" width="114.334" x="527.5" y="208"/><ellipse cx="570.0941" cy="224" fill="#ADD1B2" rx="11" ry="11" style="stroke:#181818;stroke-width:1;"/><path d="M572.8598,219.875 Q573.016,219.6563 573.2035,219.5469 Q573.391,219.4375 573.6098,219.4375 Q573.9848,219.4375 574.2191,219.7031 Q574.4535,219.9531 574.4535,220.5625 L574.4535,222.0156 Q574.4535,222.625 574.2191,222.8906 Q573.9848,223.1563 573.6098,223.1563 Q573.266,223.1563 573.0629,222.9531 Q572.8598,222.7656 572.7504,222.25 Q572.7035,221.8906 572.516,221.7031 Q572.1879,221.3281 571.5785,221.1094 Q570.9691,220.8906 570.3441,220.8906 Q569.5785,220.8906 568.9379,221.2188 Q568.3129,221.5469 567.8129,222.2969 Q567.3285,223.0469 567.3285,224.0781 L567.3285,225.1719 Q567.3285,226.4063 568.2191,227.2344 Q569.1098,228.0469 570.7035,228.0469 Q571.641,228.0469 572.2973,227.7969 Q572.6879,227.6406 573.1098,227.2031 Q573.3754,226.9375 573.516,226.8594 Q573.6723,226.7813 573.8754,226.7813 Q574.2035,226.7813 574.4535,227.0469 Q574.7191,227.2969 574.7191,227.6406 Q574.7191,227.9844 574.3754,228.3906 Q573.8754,228.9688 573.0785,229.2969 Q572.0004,229.75 570.7035,229.75 Q569.1879,229.75 567.9848,229.125 Q567.0004,228.625 566.3129,227.5625 Q565.6254,226.4844 565.6254,225.2031 L565.6254,224.0469 Q565.6254,222.7188 566.2348,221.5781 Q566.8598,220.4219 567.9535,219.8125 Q569.0473,219.1875 570.2816,219.1875 Q571.016,219.1875 571.6566,219.3594 Q572.3129,219.5156 572.8598,219.875 Z " fill="#000000"/><text fill="#000000" font-family="sans-serif" font-size="14" lengthAdjust="spacing" textLength="21.0137" x="590.2262" y="229.7285">Vet</text><line style="stroke:#181818;stroke-width:0.5;" x1="528.5" x2="640.834" y1="240" y2="240"/><text fill="#000000" font-family="sans-serif" font-size="14" lengthAdjust="spacing" textLength="102.334" x="533.5" y="258.5332">+specialties: Set</text><line style="stroke:#181818;stroke-width:0.5;" x1="528.5" x2="640.834" y1="265.6094" y2="265.6094"/></g><!--class VetRepository--><g class="entity" data-entity="VetRepository" data-source-line="62" data-uid="ent0021" id="entity_VetRepository"><rect fill="#F1F1F1" height="48" rx="2.5" ry="2.5" style="stroke:#181818;stroke-width:0.5;" width="119.9307" x="775" y="762"/><ellipse cx="790" cy="778" fill="#B4A7E5" rx="11" ry="11" style="stroke:#181818;stroke-width:1;"/><path d="M790.9531,774.6406 L790.9531,781.2969 L792.6719,781.2969 Q793.2813,781.2969 793.5469,781.5313 Q793.8125,781.7656 793.8125,782.1563 Q793.8125,782.5313 793.5469,782.7656 Q793.2813,783 792.6719,783 L787.5313,783 Q786.9219,783 786.6563,782.7656 Q786.3906,782.5313 786.3906,782.1406 Q786.3906,781.7656 786.6563,781.5313 Q786.9219,781.2969 787.5313,781.2969 L789.25,781.2969 L789.25,774.6406 L787.5313,774.6406 Q786.9219,774.6406 786.6563,774.4063 Q786.3906,774.1719 786.3906,773.7813 Q786.3906,773.4063 786.6563,773.1719 Q786.9219,772.9375 787.5313,772.9375 L792.6719,772.9375 Q793.2813,772.9375 793.5469,773.1719 Q793.8125,773.4063 793.8125,773.7813 Q793.8125,774.1719 793.5469,774.4063 Q793.2813,774.6406 792.6719,774.6406 L790.9531,774.6406 Z " fill="#000000"/><text fill="#000000" font-family="sans-serif" font-size="14" font-style="italic" lengthAdjust="spacing" textLength="87.9307" x="804" y="783.7285">VetRepository</text><line style="stroke:#181818;stroke-width:0.5;" x1="776" x2="893.9307" y1="794" y2="794"/><line style="stroke:#181818;stroke-width:0.5;" x1="776" x2="893.9307" y1="802" y2="802"/></g><!--class VetResource--><g class="entity" data-entity="VetResource" data-source-line="64" data-uid="ent0022" id="entity_VetResource"><rect fill="#F1F1F1" height="65.6094" rx="2.5" ry="2.5" style="stroke:#181818;stroke-width:0.5;" width="186.665" x="24" y="660"/><ellipse cx="72.6172" cy="676" fill="#ADD1B2" rx="11" ry="11" style="stroke:#181818;stroke-width:1;"/><path d="M75.3828,671.875 Q75.5391,671.6563 75.7266,671.5469 Q75.9141,671.4375 76.1328,671.4375 Q76.5078,671.4375 76.7422,671.7031 Q76.9766,671.9531 76.9766,672.5625 L76.9766,674.0156 Q76.9766,674.625 76.7422,674.8906 Q76.5078,675.1563 76.1328,675.1563 Q75.7891,675.1563 75.5859,674.9531 Q75.3828,674.7656 75.2734,674.25 Q75.2266,673.8906 75.0391,673.7031 Q74.7109,673.3281 74.1016,673.1094 Q73.4922,672.8906 72.8672,672.8906 Q72.1016,672.8906 71.4609,673.2188 Q70.8359,673.5469 70.3359,674.2969 Q69.8516,675.0469 69.8516,676.0781 L69.8516,677.1719 Q69.8516,678.4063 70.7422,679.2344 Q71.6328,680.0469 73.2266,680.0469 Q74.1641,680.0469 74.8203,679.7969 Q75.2109,679.6406 75.6328,679.2031 Q75.8984,678.9375 76.0391,678.8594 Q76.1953,678.7813 76.3984,678.7813 Q76.7266,678.7813 76.9766,679.0469 Q77.2422,679.2969 77.2422,679.6406 Q77.2422,679.9844 76.8984,680.3906 Q76.3984,680.9688 75.6016,681.2969 Q74.5234,681.75 73.2266,681.75 Q71.7109,681.75 70.5078,681.125 Q69.5234,680.625 68.8359,679.5625 Q68.1484,678.4844 68.1484,677.2031 L68.1484,676.0469 Q68.1484,674.7188 68.7578,673.5781 Q69.3828,672.4219 70.4766,671.8125 Q71.5703,671.1875 72.8047,671.1875 Q73.5391,671.1875 74.1797,671.3594 Q74.8359,671.5156 75.3828,671.875 Z " fill="#000000"/><text fill="#000000" font-family="sans-serif" font-size="14" lengthAdjust="spacing" textLength="80.9307" x="93.1172" y="681.7285">VetResource</text><line style="stroke:#181818;stroke-width:0.5;" x1="25" x2="209.665" y1="692" y2="692"/><text fill="#000000" font-family="sans-serif" font-size="14" lengthAdjust="spacing" textLength="174.665" x="30" y="710.5332">+clinicService: ClinicService</text><line style="stroke:#181818;stroke-width:0.5;" x1="25" x2="209.665" y1="717.6094" y2="717.6094"/></g><!--class Vets--><g class="entity" data-entity="Vets" data-source-line="67" data-uid="ent0023" id="entity_Vets"><rect fill="#F1F1F1" height="65.6094" rx="2.5" ry="2.5" style="stroke:#181818;stroke-width:0.5;" width="75.417" x="300.5" y="46"/><ellipse cx="322.4315" cy="62" fill="#ADD1B2" rx="11" ry="11" style="stroke:#181818;stroke-width:1;"/><path d="M325.1971,57.875 Q325.3534,57.6563 325.5409,57.5469 Q325.7284,57.4375 325.9471,57.4375 Q326.3221,57.4375 326.5565,57.7031 Q326.7909,57.9531 326.7909,58.5625 L326.7909,60.0156 Q326.7909,60.625 326.5565,60.8906 Q326.3221,61.1563 325.9471,61.1563 Q325.6034,61.1563 325.4002,60.9531 Q325.1971,60.7656 325.0877,60.25 Q325.0409,59.8906 324.8534,59.7031 Q324.5252,59.3281 323.9159,59.1094 Q323.3065,58.8906 322.6815,58.8906 Q321.9159,58.8906 321.2752,59.2188 Q320.6502,59.5469 320.1502,60.2969 Q319.6659,61.0469 319.6659,62.0781 L319.6659,63.1719 Q319.6659,64.4063 320.5565,65.2344 Q321.4471,66.0469 323.0409,66.0469 Q323.9784,66.0469 324.6346,65.7969 Q325.0252,65.6406 325.4471,65.2031 Q325.7127,64.9375 325.8534,64.8594 Q326.0096,64.7813 326.2127,64.7813 Q326.5409,64.7813 326.7909,65.0469 Q327.0565,65.2969 327.0565,65.6406 Q327.0565,65.9844 326.7127,66.3906 Q326.2127,66.9688 325.4159,67.2969 Q324.3377,67.75 323.0409,67.75 Q321.5252,67.75 320.3221,67.125 Q319.3377,66.625 318.6502,65.5625 Q317.9627,64.4844 317.9627,63.2031 L317.9627,62.0469 Q317.9627,60.7188 318.5721,59.5781 Q319.1971,58.4219 320.2909,57.8125 Q321.3846,57.1875 322.619,57.1875 Q323.3534,57.1875 323.994,57.3594 Q324.6502,57.5156 325.1971,57.875 Z " fill="#000000"/><text fill="#000000" font-family="sans-serif" font-size="14" lengthAdjust="spacing" textLength="28.0137" x="337.9718" y="67.7285">Vets</text><line style="stroke:#181818;stroke-width:0.5;" x1="301.5" x2="374.917" y1="78" y2="78"/><text fill="#000000" font-family="sans-serif" font-size="14" lengthAdjust="spacing" textLength="63.417" x="306.5" y="96.5332">+vets: List</text><line style="stroke:#181818;stroke-width:0.5;" x1="301.5" x2="374.917" y1="103.6094" y2="103.6094"/></g><!--class Visit--><g class="entity" data-entity="Visit" data-source-line="70" data-uid="ent0024" id="entity_Visit"><rect fill="#F1F1F1" height="100.8281" rx="2.5" ry="2.5" style="stroke:#181818;stroke-width:0.5;" width="132.2305" x="272" y="348.5"/><ellipse cx="320.6411" cy="364.5" fill="#ADD1B2" rx="11" ry="11" style="stroke:#181818;stroke-width:1;"/><path d="M323.4067,360.375 Q323.563,360.1563 323.7505,360.0469 Q323.938,359.9375 324.1567,359.9375 Q324.5317,359.9375 324.7661,360.2031 Q325.0005,360.4531 325.0005,361.0625 L325.0005,362.5156 Q325.0005,363.125 324.7661,363.3906 Q324.5317,363.6563 324.1567,363.6563 Q323.813,363.6563 323.6099,363.4531 Q323.4067,363.2656 323.2974,362.75 Q323.2505,362.3906 323.063,362.2031 Q322.7349,361.8281 322.1255,361.6094 Q321.5161,361.3906 320.8911,361.3906 Q320.1255,361.3906 319.4849,361.7188 Q318.8599,362.0469 318.3599,362.7969 Q317.8755,363.5469 317.8755,364.5781 L317.8755,365.6719 Q317.8755,366.9063 318.7661,367.7344 Q319.6567,368.5469 321.2505,368.5469 Q322.188,368.5469 322.8442,368.2969 Q323.2349,368.1406 323.6567,367.7031 Q323.9224,367.4375 324.063,367.3594 Q324.2192,367.2813 324.4224,367.2813 Q324.7505,367.2813 325.0005,367.5469 Q325.2661,367.7969 325.2661,368.1406 Q325.2661,368.4844 324.9224,368.8906 Q324.4224,369.4688 323.6255,369.7969 Q322.5474,370.25 321.2505,370.25 Q319.7349,370.25 318.5317,369.625 Q317.5474,369.125 316.8599,368.0625 Q316.1724,366.9844 316.1724,365.7031 L316.1724,364.5469 Q316.1724,363.2188 316.7817,362.0781 Q317.4067,360.9219 318.5005,360.3125 Q319.5942,359.6875 320.8286,359.6875 Q321.563,359.6875 322.2036,359.8594 Q322.8599,360.0156 323.4067,360.375 Z " fill="#000000"/><text fill="#000000" font-family="sans-serif" font-size="14" lengthAdjust="spacing" textLength="26.4482" x="341.1411" y="370.2285">Visit</text><line style="stroke:#181818;stroke-width:0.5;" x1="273" x2="403.2305" y1="380.5" y2="380.5"/><text fill="#000000" font-family="sans-serif" font-size="14" lengthAdjust="spacing" textLength="72.7754" x="278" y="399.0332">+date: Date</text><text fill="#000000" font-family="sans-serif" font-size="14" lengthAdjust="spacing" textLength="120.2305" x="278" y="416.6426">+description: String</text><text fill="#000000" font-family="sans-serif" font-size="14" lengthAdjust="spacing" textLength="56.4307" x="278" y="434.252">+pet: Pet</text><line style="stroke:#181818;stroke-width:0.5;" x1="273" x2="403.2305" y1="441.3281" y2="441.3281"/></g><!--class VisitController--><g class="entity" data-entity="VisitController" data-source-line="75" data-uid="ent0025" id="entity_VisitController"><rect fill="#F1F1F1" height="65.6094" rx="2.5" ry="2.5" style="stroke:#181818;stroke-width:0.5;" width="186.665" x="24" y="761"/><ellipse cx="69.5137" cy="777" fill="#ADD1B2" rx="11" ry="11" style="stroke:#181818;stroke-width:1;"/><path d="M72.2793,772.875 Q72.4355,772.6563 72.623,772.5469 Q72.8105,772.4375 73.0293,772.4375 Q73.4043,772.4375 73.6387,772.7031 Q73.873,772.9531 73.873,773.5625 L73.873,775.0156 Q73.873,775.625 73.6387,775.8906 Q73.4043,776.1563 73.0293,776.1563 Q72.6855,776.1563 72.4824,775.9531 Q72.2793,775.7656 72.1699,775.25 Q72.123,774.8906 71.9355,774.7031 Q71.6074,774.3281 70.998,774.1094 Q70.3887,773.8906 69.7637,773.8906 Q68.998,773.8906 68.3574,774.2188 Q67.7324,774.5469 67.2324,775.2969 Q66.748,776.0469 66.748,777.0781 L66.748,778.1719 Q66.748,779.4063 67.6387,780.2344 Q68.5293,781.0469 70.123,781.0469 Q71.0605,781.0469 71.7168,780.7969 Q72.1074,780.6406 72.5293,780.2031 Q72.7949,779.9375 72.9355,779.8594 Q73.0918,779.7813 73.2949,779.7813 Q73.623,779.7813 73.873,780.0469 Q74.1387,780.2969 74.1387,780.6406 Q74.1387,780.9844 73.7949,781.3906 Q73.2949,781.9688 72.498,782.2969 Q71.4199,782.75 70.123,782.75 Q68.6074,782.75 67.4043,782.125 Q66.4199,781.625 65.7324,780.5625 Q65.0449,779.4844 65.0449,778.2031 L65.0449,777.0469 Q65.0449,775.7188 65.6543,774.5781 Q66.2793,773.4219 67.373,772.8125 Q68.4668,772.1875 69.7012,772.1875 Q70.4355,772.1875 71.0762,772.3594 Q71.7324,772.5156 72.2793,772.875 Z " fill="#000000"/><text fill="#000000" font-family="sans-serif" font-size="14" lengthAdjust="spacing" textLength="87.1377" x="90.0137" y="782.7285">VisitController</text><line style="stroke:#181818;stroke-width:0.5;" x1="25" x2="209.665" y1="793" y2="793"/><text fill="#000000" font-family="sans-serif" font-size="14" lengthAdjust="spacing" textLength="174.665" x="30" y="811.5332">+clinicService: ClinicService</text><line style="stroke:#181818;stroke-width:0.5;" x1="25" x2="209.665" y1="818.6094" y2="818.6094"/></g><!--class VisitRepository--><g class="entity" data-entity="VisitRepository" data-source-line="78" data-uid="ent0026" id="entity_VisitRepository"><rect fill="#F1F1F1" height="48" rx="2.5" ry="2.5" style="stroke:#181818;stroke-width:0.5;" width="125.3652" x="772.5" y="679"/><ellipse cx="787.5" cy="695" fill="#B4A7E5" rx="11" ry="11" style="stroke:#181818;stroke-width:1;"/><path d="M788.4531,691.6406 L788.4531,698.2969 L790.1719,698.2969 Q790.7813,698.2969 791.0469,698.5313 Q791.3125,698.7656 791.3125,699.1563 Q791.3125,699.5313 791.0469,699.7656 Q790.7813,700 790.1719,700 L785.0313,700 Q784.4219,700 784.1563,699.7656 Q783.8906,699.5313 783.8906,699.1406 Q783.8906,698.7656 784.1563,698.5313 Q784.4219,698.2969 785.0313,698.2969 L786.75,698.2969 L786.75,691.6406 L785.0313,691.6406 Q784.4219,691.6406 784.1563,691.4063 Q783.8906,691.1719 783.8906,690.7813 Q783.8906,690.4063 784.1563,690.1719 Q784.4219,689.9375 785.0313,689.9375 L790.1719,689.9375 Q790.7813,689.9375 791.0469,690.1719 Q791.3125,690.4063 791.3125,690.7813 Q791.3125,691.1719 791.0469,691.4063 Q790.7813,691.6406 790.1719,691.6406 L788.4531,691.6406 Z " fill="#000000"/><text fill="#000000" font-family="sans-serif" font-size="14" font-style="italic" lengthAdjust="spacing" textLength="93.3652" x="801.5" y="700.7285">VisitRepository</text><line style="stroke:#181818;stroke-width:0.5;" x1="773.5" x2="896.8652" y1="711" y2="711"/><line style="stroke:#181818;stroke-width:0.5;" x1="773.5" x2="896.8652" y1="719" y2="719"/></g><!--reverse link BaseEntity to NamedEntity--><g class="link" data-entity-1="BaseEntity" data-entity-2="NamedEntity" data-source-line="81" data-uid="lnk27" id="link_BaseEntity_NamedEntity"><path codeLine="81" d="M183.2536,423.8083 C197.7336,431.5283 197.66,431.7 212,440 C236.58,454.22 263.34,470.77 285.78,484.96" fill="none" id="BaseEntity-backto-NamedEntity" style="stroke:#181818;stroke-width:1;"/><polygon fill="none" points="167.37,415.34,180.4308,429.1028,186.0763,418.5138,167.37,415.34" style="stroke:#181818;stroke-width:1;"/></g><!--reverse link BaseEntity to Person--><g class="link" data-entity-1="BaseEntity" data-entity-2="Person" data-source-line="82" data-uid="lnk28" id="link_BaseEntity_Person"><path codeLine="82" d="M183.0969,355.1147 C215.1769,337.7847 241.56,323.54 275.88,305.01" fill="none" id="BaseEntity-backto-Person" style="stroke:#181818;stroke-width:1;"/><polygon fill="none" points="167.26,363.67,185.9487,360.3937,180.2451,349.8358,167.26,363.67" style="stroke:#181818;stroke-width:1;"/></g><!--reverse link BaseEntity to Visit--><g class="link" data-entity-1="BaseEntity" data-entity-2="Visit" data-source-line="83" data-uid="lnk29" id="link_BaseEntity_Visit"><path codeLine="83" d="M185.2447,392.7511 C216.0647,394.0211 238.27,394.93 271.81,396.31" fill="none" id="BaseEntity-backto-Visit" style="stroke:#181818;stroke-width:1;"/><polygon fill="none" points="167.26,392.01,184.9977,398.746,185.4918,386.7562,167.26,392.01" style="stroke:#181818;stroke-width:1;"/></g><!--reverse link ClinicService to ClinicServiceImpl--><g class="link" data-entity-1="ClinicService" data-entity-2="ClinicServiceImpl" data-source-line="84" data-uid="lnk30" id="link_ClinicService_ClinicServiceImpl"><path codeLine="84" d="M412.79,690 C433.36,690 439.55,690 463.62,690" fill="none" id="ClinicService-backto-ClinicServiceImpl" style="stroke:#181818;stroke-width:1;stroke-dasharray:7,7;"/><polygon fill="none" points="394.79,690,412.79,696,412.79,684,394.79,690" style="stroke:#181818;stroke-width:1;"/></g><!--link ClinicServiceImpl to OwnerRepository--><g class="link" data-entity-1="ClinicServiceImpl" data-entity-2="OwnerRepository" data-source-line="85" data-uid="lnk31" id="link_ClinicServiceImpl_OwnerRepository"><path codeLine="85" d="M705.02,656.33 C725.53,650.55 740.4452,646.3582 759.0652,641.1082" fill="none" id="ClinicServiceImpl-to-OwnerRepository" style="stroke:#181818;stroke-width:1;"/><polygon fill="#181818" points="764.84,639.48,755.0922,638.0725,760.0276,640.8369,757.2632,645.7723,764.84,639.48" style="stroke:#181818;stroke-width:1;"/></g><!--link ClinicServiceImpl to PetRepository--><g class="link" data-entity-1="ClinicServiceImpl" data-entity-2="PetRepository" data-source-line="86" data-uid="lnk32" id="link_ClinicServiceImpl_PetRepository"><path codeLine="86" d="M679.35,630.91 C706.88,613.72 737.08,595 765,578 C774.04,572.49 778.6428,569.7065 787.8928,564.2065" fill="none" id="ClinicServiceImpl-to-PetRepository" style="stroke:#181818;stroke-width:1;"/><polygon fill="#181818" points="793.05,561.14,783.2699,562.3015,788.7523,563.6954,787.3585,569.1778,793.05,561.14" style="stroke:#181818;stroke-width:1;"/></g><!--link ClinicServiceImpl to VetRepository--><g class="link" data-entity-1="ClinicServiceImpl" data-entity-2="VetRepository" data-source-line="87" data-uid="lnk33" id="link_ClinicServiceImpl_VetRepository"><path codeLine="87" d="M705.02,736.17 C729.26,745.54 748.1527,752.8388 769.1827,760.9588" fill="none" id="ClinicServiceImpl-to-VetRepository" style="stroke:#181818;stroke-width:1;"/><polygon fill="#181818" points="774.78,763.12,767.8249,756.1467,770.1156,761.319,764.9433,763.6097,774.78,763.12" style="stroke:#181818;stroke-width:1;"/></g><!--link ClinicServiceImpl to VisitRepository--><g class="link" data-entity-1="ClinicServiceImpl" data-entity-2="VisitRepository" data-source-line="88" data-uid="lnk34" id="link_ClinicServiceImpl_VisitRepository"><path codeLine="88" d="M705.02,696.25 C728.27,697.47 745.7482,698.3862 766.1782,699.4562" fill="none" id="ClinicServiceImpl-to-VisitRepository" style="stroke:#181818;stroke-width:1;"/><polygon fill="#181818" points="772.17,699.77,763.3915,695.3048,767.1768,699.5085,762.9731,703.2938,772.17,699.77" style="stroke:#181818;stroke-width:1;"/></g><!--reverse link NamedEntity to Pet--><g class="link" data-entity-1="NamedEntity" data-entity-2="Pet" data-source-line="89" data-uid="lnk35" id="link_NamedEntity_Pet"><path codeLine="89" d="M410.5182,484.946 C450.2282,466.586 487.29,449.46 527.25,430.99" fill="none" id="NamedEntity-backto-Pet" style="stroke:#181818;stroke-width:1;"/><polygon fill="none" points="394.18,492.5,413.0362,490.3921,408.0002,479.4999,394.18,492.5" style="stroke:#181818;stroke-width:1;"/></g><!--reverse link NamedEntity to PetType--><g class="link" data-entity-1="NamedEntity" data-entity-2="PetType" data-source-line="90" data-uid="lnk36" id="link_NamedEntity_PetType"><path codeLine="90" d="M412.1637,515.5651 C484.3437,512.4951 596.43,504.68 705,481 C735.06,474.45 767.85,463.2 792.85,453.72" fill="none" id="NamedEntity-backto-PetType" style="stroke:#181818;stroke-width:1;"/><polygon fill="none" points="394.18,516.33,412.4187,521.5597,411.9088,509.5705,394.18,516.33" style="stroke:#181818;stroke-width:1;"/></g><!--reverse link NamedEntity to Specialty--><g class="link" data-entity-1="NamedEntity" data-entity-2="Specialty" data-source-line="91" data-uid="lnk37" id="link_NamedEntity_Specialty"><path codeLine="91" d="M411.9203,530.5266 C456.0003,538.0966 499.2,545.52 539.91,552.51" fill="none" id="NamedEntity-backto-Specialty" style="stroke:#181818;stroke-width:1;"/><polygon fill="none" points="394.18,527.48,410.9048,536.44,412.9358,524.6132,394.18,527.48" style="stroke:#181818;stroke-width:1;"/></g><!--link OwnerResource to ClinicService--><g class="link" data-entity-1="OwnerResource" data-entity-2="ClinicService" data-source-line="92" data-uid="lnk38" id="link_OwnerResource_ClinicService"><path codeLine="92" d="M187.84,524.16 C196.3,529.32 204.57,534.97 212,541 C257.88,578.24 296.0475,629.2511 317.7575,660.9211" fill="none" id="OwnerResource-to-ClinicService" style="stroke:#181818;stroke-width:1;"/><polygon fill="#181818" points="321.15,665.87,319.3605,656.1851,318.3229,661.746,312.7621,660.7084,321.15,665.87" style="stroke:#181818;stroke-width:1;"/></g><!--reverse link Person to Owner--><g class="link" data-entity-1="Person" data-entity-2="Owner" data-source-line="93" data-uid="lnk39" id="link_Person_Owner"><path codeLine="93" d="M417.9961,285.2167 C438.2461,288.3667 443.15,288.8 464,291 C571.99,302.39 698.38,308.33 771.99,311.05" fill="none" id="Person-backto-Owner" style="stroke:#181818;stroke-width:1;"/><polygon fill="none" points="400.21,282.45,417.0739,291.1454,418.9183,279.288,400.21,282.45" style="stroke:#181818;stroke-width:1;"/></g><!--reverse link Person to Vet--><g class="link" data-entity-1="Person" data-entity-2="Vet" data-source-line="94" data-uid="lnk40" id="link_Person_Vet"><path codeLine="94" d="M417.927,261.9959 C456.967,257.0459 489.36,252.94 527.39,248.11" fill="none" id="Person-backto-Vet" style="stroke:#181818;stroke-width:1;"/><polygon fill="none" points="400.07,264.26,418.6817,267.9482,417.1723,256.0435,400.07,264.26" style="stroke:#181818;stroke-width:1;"/></g><!--link Pet to Owner--><g class="link" data-entity-1="Pet" data-entity-2="Owner" data-source-line="95" data-uid="lnk41" id="link_Pet_Owner"><path codeLine="95" d="M641.58,384.24 C680.23,369.93 726.0032,352.9831 765.9532,338.1931" fill="none" id="Pet-to-Owner" style="stroke:#181818;stroke-width:1;"/><polygon fill="#181818" points="771.58,336.11,761.7511,335.4835,766.891,337.8459,764.5286,342.9858,771.58,336.11" style="stroke:#181818;stroke-width:1;"/></g><!--link Pet to PetType--><g class="link" data-entity-1="Pet" data-entity-2="PetType" data-source-line="96" data-uid="lnk42" id="link_Pet_PetType"><path codeLine="96" d="M641.58,412.22 C687.53,418.14 745.5491,425.614 786.8791,430.934" fill="none" id="Pet-to-PetType" style="stroke:#181818;stroke-width:1;"/><polygon fill="#181818" points="792.83,431.7,784.4143,426.5837,787.8709,431.0617,783.393,434.5183,792.83,431.7" style="stroke:#181818;stroke-width:1;"/></g><!--link PetResource to ClinicService--><g class="link" data-entity-1="PetResource" data-entity-2="ClinicService" data-source-line="97" data-uid="lnk43" id="link_PetResource_ClinicService"><path codeLine="97" d="M192.17,625.04 C222.03,638.43 250.3953,651.1549 277.8453,663.4649" fill="none" id="PetResource-to-ClinicService" style="stroke:#181818;stroke-width:1;"/><polygon fill="#181818" points="283.32,665.92,276.7447,658.5875,278.7578,663.8741,273.4712,665.8871,283.32,665.92" style="stroke:#181818;stroke-width:1;"/></g><!--link VetResource to ClinicService--><g class="link" data-entity-1="VetResource" data-entity-2="ClinicService" data-source-line="98" data-uid="lnk44" id="link_VetResource_ClinicService"><path codeLine="98" d="M211.16,691.73 C235.01,691.4 253.9306,691.1416 275.2506,690.8516" fill="none" id="VetResource-to-ClinicService" style="stroke:#181818;stroke-width:1;"/><polygon fill="#181818" points="281.25,690.77,272.1964,686.8928,276.2505,690.838,272.3052,694.892,281.25,690.77" style="stroke:#181818;stroke-width:1;"/></g><!--link Visit to Pet--><g class="link" data-entity-1="Visit" data-entity-2="Pet" data-source-line="99" data-uid="lnk45" id="link_Visit_Pet"><path codeLine="99" d="M404.2,400.6 C442.54,401.54 484.5218,402.5728 521.2018,403.4728" fill="none" id="Visit-to-Pet" style="stroke:#181818;stroke-width:1;"/><polygon fill="#181818" points="527.2,403.62,518.3008,399.4004,522.2015,403.4974,518.1046,407.398,527.2,403.62" style="stroke:#181818;stroke-width:1;"/></g><!--link VisitController to ClinicService--><g class="link" data-entity-1="VisitController" data-entity-2="ClinicService" data-source-line="100" data-uid="lnk46" id="link_VisitController_ClinicService"><path codeLine="100" d="M187.93,760.95 C219.92,745.72 251.7723,730.5684 281.0423,716.6384" fill="none" id="VisitController-to-ClinicService" style="stroke:#181818;stroke-width:1;"/><polygon fill="#181818" points="286.46,714.06,276.6145,714.3157,281.9452,716.2086,280.0523,721.5394,286.46,714.06" style="stroke:#181818;stroke-width:1;"/></g><!--SRC=[fLHBRjim4Dth54IwQL4uw5em3BYE5mRoWvreJujZUH2A54ZQXTlaQ4MFr2kKf6c55DqWQ3U2EFFcz-QZdr1qLD6Mr9ngFJL6uNfdO55BiSBlGBuK73Q664aKDbj362ge3KfHTBH-eWsGYvcp14q-Bg6LUs3azw-Vv57KMogQy9eo1kpJ1HcFbzRQoZbC9kH7GOvXoLmOD8T7WrmxpFpchffVMSI7QnTqHNahXOU_z2PVgOQZcLSGyfaWAyb266X09T0PvVn62ZHIeMYckhCvz4OWw9g3jLnBoO6A8AwjpKpkX2a92XE4jAvtxOvJ0ypvVC0MIiAbQ48uYmIreJMG6KU1zGhK7kqhpJpHBTgEzxbqO9RGIUqoFPJaFdu6o3w5L6SWyfi05OFkKi794zfduYiL93dVqXROW6v1NVahuqXDm3vU3wECAT0wGdf-hQU1o027RYi53EIM5MSD9cDvKDY0vw3LSgT23tpWcFqoRKPYVWzAXwbpTXjKsjoc9JkvnGx5iO_NGLkZCjihEpibSTzJqOSEVASVx4_SmD2sk5a92ts0OmNJhkDOKxUPFGslH2MJDA39w_wT99zuxhAY71cruGQgbLq-fDmCiwWYfdJ08FobxzKRvLJ_KuurrhtLti_TDUgKShycFOWD6yf0rmexruXyZdsdSsypAOoId4TRyuwK8pxIpGsCl1JHZHm_ZqRn5cUwuxXdOk-wIC_P-FdoChzYHNxNHgD9TdpEez9JTnvJlGSpk67ntGfbchD2ltwPef_M8ZqcBbJQad0jlDLnSME9JRrmjw0df7-TGiTRc7kltjRwYGpUYk54PVW_]--></g></svg>