<svg xmlns="http://www.w3.org/2000/svg" xmlns:xlink="http://www.w3.org/1999/xlink" contentStyleType="text/css" data-diagram-type="CLASS" height="1241px" preserveAspectRatio="none" style="width:982px;height:1241px;background:#FFFFFF;" version="1.1" viewBox="0 0 982 1241" width="982px" zoomAndPan="magnify"><defs/><g><!--cluster Classes (Removed ? Unchanged ? Added)--><g class="cluster" data-entity="Classes .Removed . Unchanged . Added." data-source-line="3" data-uid="ent0002" id="cluster_Classes .Removed . Unchanged . Added."><rect fill="none" height="1228" rx="2.5" ry="2.5" style="stroke:#181818;stroke-width:1;" width="969" x="7" y="7"/><text fill="#000000" font-family="sans-serif" font-size="14" font-weight="bold" lengthAdjust="spacing" textLength="293.3779" x="344.811" y="23.5332">Classes (Removed &#65533; Unchanged &#65533; Added)</text></g><!--class ApiGatewayApplication--><g class="entity" data-entity="ApiGatewayApplication" data-source-line="4" data-uid="ent0003" id="entity_ApiGatewayApplication"><rect fill="#F1F1F1" height="48" rx="2.5" ry="2.5" style="stroke:#181818;stroke-width:0.5;" width="175.9717" x="39.5" y="346"/><ellipse cx="54.5" cy="362" fill="#ADD1B2" rx="11" ry="11" style="stroke:#181818;stroke-width:1;"/><path d="M57.2656,357.875 Q57.4219,357.6563 57.6094,357.5469 Q57.7969,357.4375 58.0156,357.4375 Q58.3906,357.4375 58.625,357.7031 Q58.8594,357.9531 58.8594,358.5625 L58.8594,360.0156 Q58.8594,360.625 58.625,360.8906 Q58.3906,361.1563 58.0156,361.1563 Q57.6719,361.1563 57.4688,360.9531 Q57.2656,360.7656 57.1563,360.25 Q57.1094,359.8906 56.9219,359.7031 Q56.5938,359.3281 55.9844,359.1094 Q55.375,358.8906 54.75,358.8906 Q53.9844,358.8906 53.3438,359.2188 Q52.7188,359.5469 52.2188,360.2969 Q51.7344,361.0469 51.7344,362.0781 L51.7344,363.1719 Q51.7344,364.4063 52.625,365.2344 Q53.5156,366.0469 55.1094,366.0469 Q56.0469,366.0469 56.7031,365.7969 Q57.0938,365.6406 57.5156,365.2031 Q57.7813,364.9375 57.9219,364.8594 Q58.0781,364.7813 58.2813,364.7813 Q58.6094,364.7813 58.8594,365.0469 Q59.125,365.2969 59.125,365.6406 Q59.125,365.9844 58.7813,366.3906 Q58.2813,366.9688 57.4844,367.2969 Q56.4063,367.75 55.1094,367.75 Q53.5938,367.75 52.3906,367.125 Q51.4063,366.625 50.7188,365.5625 Q50.0313,364.4844 50.0313,363.2031 L50.0313,362.0469 Q50.0313,360.7188 50.6406,359.5781 Q51.2656,358.4219 52.3594,357.8125 Q53.4531,357.1875 54.6875,357.1875 Q55.4219,357.1875 56.0625,357.3594 Q56.7188,357.5156 57.2656,357.875 Z " fill="#000000"/><text fill="#000000" font-family="sans-serif" font-size="14" lengthAdjust="spacing" textLength="143.9717" x="68.5" y="367.7285">ApiGatewayApplication</text><line style="stroke:#181818;stroke-width:0.5;" x1="40.5" x2="214.4717" y1="378" y2="378"/><line style="stroke:#181818;stroke-width:0.5;" x1="40.5" x2="214.4717" y1="386" y2="386"/></g><!--class BaseEntity--><g class="entity" data-entity="BaseEntity" data-source-line="6" data-uid="ent0004" id="entity_BaseEntity"><rect fill="#F1F1F1" height="65.6094" rx="2.5" ry="2.5" style="stroke:#181818;stroke-width:0.5;" width="98.9238" x="78" y="538"/><ellipse cx="93" cy="554" fill="#ADD1B2" rx="11" ry="11" style="stroke:#181818;stroke-width:1;"/><path d="M95.7656,549.875 Q95.9219,549.6563 96.1094,549.5469 Q96.2969,549.4375 96.5156,549.4375 Q96.8906,549.4375 97.125,549.7031 Q97.3594,549.9531 97.3594,550.5625 L97.3594,552.0156 Q97.3594,552.625 97.125,552.8906 Q96.8906,553.1563 96.5156,553.1563 Q96.1719,553.1563 95.9688,552.9531 Q95.7656,552.7656 95.6563,552.25 Q95.6094,551.8906 95.4219,551.7031 Q95.0938,551.3281 94.4844,551.1094 Q93.875,550.8906 93.25,550.8906 Q92.4844,550.8906 91.8438,551.2188 Q91.2188,551.5469 90.7188,552.2969 Q90.2344,553.0469 90.2344,554.0781 L90.2344,555.1719 Q90.2344,556.4063 91.125,557.2344 Q92.0156,558.0469 93.6094,558.0469 Q94.5469,558.0469 95.2031,557.7969 Q95.5938,557.6406 96.0156,557.2031 Q96.2813,556.9375 96.4219,556.8594 Q96.5781,556.7813 96.7813,556.7813 Q97.1094,556.7813 97.3594,557.0469 Q97.625,557.2969 97.625,557.6406 Q97.625,557.9844 97.2813,558.3906 Q96.7813,558.9688 95.9844,559.2969 Q94.9063,559.75 93.6094,559.75 Q92.0938,559.75 90.8906,559.125 Q89.9063,558.625 89.2188,557.5625 Q88.5313,556.4844 88.5313,555.2031 L88.5313,554.0469 Q88.5313,552.7188 89.1406,551.5781 Q89.7656,550.4219 90.8594,549.8125 Q91.9531,549.1875 93.1875,549.1875 Q93.9219,549.1875 94.5625,549.3594 Q95.2188,549.5156 95.7656,549.875 Z " fill="#000000"/><text fill="#000000" font-family="sans-serif" font-size="14" lengthAdjust="spacing" textLength="66.9238" x="107" y="559.7285">BaseEntity</text><line style="stroke:#181818;stroke-width:0.5;" x1="79" x2="175.9238" y1="570" y2="570"/><text fill="#000000" font-family="sans-serif" font-size="14" lengthAdjust="spacing" textLength="70.4375" x="84" y="588.5332">+id: Integer</text><line style="stroke:#181818;stroke-width:0.5;" x1="79" x2="175.9238" y1="595.6094" y2="595.6094"/></g><!--class CacheConfig--><g class="entity" data-entity="CacheConfig" data-source-line="9" data-uid="ent0005" id="entity_CacheConfig"><rect fill="#F1F1F1" height="65.6094" rx="2.5" ry="2.5" style="stroke:#181818;stroke-width:0.5;" width="209.2578" x="23" y="731"/><ellipse cx="82.9102" cy="747" fill="#ADD1B2" rx="11" ry="11" style="stroke:#181818;stroke-width:1;"/><path d="M85.6758,742.875 Q85.832,742.6563 86.0195,742.5469 Q86.207,742.4375 86.4258,742.4375 Q86.8008,742.4375 87.0352,742.7031 Q87.2695,742.9531 87.2695,743.5625 L87.2695,745.0156 Q87.2695,745.625 87.0352,745.8906 Q86.8008,746.1563 86.4258,746.1563 Q86.082,746.1563 85.8789,745.9531 Q85.6758,745.7656 85.5664,745.25 Q85.5195,744.8906 85.332,744.7031 Q85.0039,744.3281 84.3945,744.1094 Q83.7852,743.8906 83.1602,743.8906 Q82.3945,743.8906 81.7539,744.2188 Q81.1289,744.5469 80.6289,745.2969 Q80.1445,746.0469 80.1445,747.0781 L80.1445,748.1719 Q80.1445,749.4063 81.0352,750.2344 Q81.9258,751.0469 83.5195,751.0469 Q84.457,751.0469 85.1133,750.7969 Q85.5039,750.6406 85.9258,750.2031 Q86.1914,749.9375 86.332,749.8594 Q86.4883,749.7813 86.6914,749.7813 Q87.0195,749.7813 87.2695,750.0469 Q87.5352,750.2969 87.5352,750.6406 Q87.5352,750.9844 87.1914,751.3906 Q86.6914,751.9688 85.8945,752.2969 Q84.8164,752.75 83.5195,752.75 Q82.0039,752.75 80.8008,752.125 Q79.8164,751.625 79.1289,750.5625 Q78.4414,749.4844 78.4414,748.2031 L78.4414,747.0469 Q78.4414,745.7188 79.0508,744.5781 Q79.6758,743.4219 80.7695,742.8125 Q81.8633,742.1875 83.0977,742.1875 Q83.832,742.1875 84.4727,742.3594 Q85.1289,742.5156 85.6758,742.875 Z " fill="#000000"/><text fill="#000000" font-family="sans-serif" font-size="14" lengthAdjust="spacing" textLength="80.9375" x="103.4102" y="752.7285">CacheConfig</text><line style="stroke:#181818;stroke-width:0.5;" x1="24" x2="231.2578" y1="763" y2="763"/><text fill="#000000" font-family="sans-serif" font-size="14" lengthAdjust="spacing" textLength="197.2578" x="29" y="781.5332">+vetsProperties: VetsProperties</text><line style="stroke:#181818;stroke-width:0.5;" x1="24" x2="231.2578" y1="788.6094" y2="788.6094"/></g><!--class CallMonitoringAspect--><g class="entity" data-entity="CallMonitoringAspect" data-source-line="12" data-uid="ent0006" id="entity_CallMonitoringAspect"><rect fill="#F1F1F1" height="100.8281" rx="2.5" ry="2.5" style="stroke:#181818;stroke-width:0.5;" width="189.0303" x="33" y="209.5"/><ellipse cx="59.1366" cy="225.5" fill="#ADD1B2" rx="11" ry="11" style="stroke:#181818;stroke-width:1;"/><path d="M61.9022,221.375 Q62.0585,221.1563 62.246,221.0469 Q62.4335,220.9375 62.6522,220.9375 Q63.0272,220.9375 63.2616,221.2031 Q63.496,221.4531 63.496,222.0625 L63.496,223.5156 Q63.496,224.125 63.2616,224.3906 Q63.0272,224.6563 62.6522,224.6563 Q62.3085,224.6563 62.1054,224.4531 Q61.9022,224.2656 61.7929,223.75 Q61.746,223.3906 61.5585,223.2031 Q61.2304,222.8281 60.621,222.6094 Q60.0116,222.3906 59.3866,222.3906 Q58.621,222.3906 57.9804,222.7188 Q57.3554,223.0469 56.8554,223.7969 Q56.371,224.5469 56.371,225.5781 L56.371,226.6719 Q56.371,227.9063 57.2616,228.7344 Q58.1522,229.5469 59.746,229.5469 Q60.6835,229.5469 61.3397,229.2969 Q61.7304,229.1406 62.1522,228.7031 Q62.4179,228.4375 62.5585,228.3594 Q62.7147,228.2813 62.9179,228.2813 Q63.246,228.2813 63.496,228.5469 Q63.7616,228.7969 63.7616,229.1406 Q63.7616,229.4844 63.4179,229.8906 Q62.9179,230.4688 62.121,230.7969 Q61.0429,231.25 59.746,231.25 Q58.2304,231.25 57.0272,230.625 Q56.0429,230.125 55.3554,229.0625 Q54.6679,227.9844 54.6679,226.7031 L54.6679,225.5469 Q54.6679,224.2188 55.2772,223.0781 Q55.9022,221.9219 56.996,221.3125 Q58.0897,220.6875 59.3241,220.6875 Q60.0585,220.6875 60.6991,220.8594 Q61.3554,221.0156 61.9022,221.375 Z " fill="#000000"/><text fill="#000000" font-family="sans-serif" font-size="14" lengthAdjust="spacing" textLength="132.2822" x="75.6114" y="231.2285">CallMonitoringAspect</text><line style="stroke:#181818;stroke-width:0.5;" x1="34" x2="221.0303" y1="241.5" y2="241.5"/><text fill="#000000" font-family="sans-serif" font-size="14" lengthAdjust="spacing" textLength="115.6094" x="39" y="260.0332">+enabled: boolean</text><text fill="#000000" font-family="sans-serif" font-size="14" lengthAdjust="spacing" textLength="89.1064" x="39" y="277.6426">+callCount: int</text><text fill="#000000" font-family="sans-serif" font-size="14" lengthAdjust="spacing" textLength="177.0303" x="39" y="295.252">+accumulatedCallTime: long</text><line style="stroke:#181818;stroke-width:0.5;" x1="34" x2="221.0303" y1="302.3281" y2="302.3281"/></g><!--class ClientsServiceApplication--><g class="entity" data-entity="ClientsServiceApplication" data-source-line="17" data-uid="ent0007" id="entity_ClientsServiceApplication"><rect fill="#F1F1F1" height="48" rx="2.5" ry="2.5" style="stroke:#181818;stroke-width:0.5;" width="189.9648" x="32.5" y="126"/><ellipse cx="47.5" cy="142" fill="#ADD1B2" rx="11" ry="11" style="stroke:#181818;stroke-width:1;"/><path d="M50.2656,137.875 Q50.4219,137.6563 50.6094,137.5469 Q50.7969,137.4375 51.0156,137.4375 Q51.3906,137.4375 51.625,137.7031 Q51.8594,137.9531 51.8594,138.5625 L51.8594,140.0156 Q51.8594,140.625 51.625,140.8906 Q51.3906,141.1563 51.0156,141.1563 Q50.6719,141.1563 50.4688,140.9531 Q50.2656,140.7656 50.1563,140.25 Q50.1094,139.8906 49.9219,139.7031 Q49.5938,139.3281 48.9844,139.1094 Q48.375,138.8906 47.75,138.8906 Q46.9844,138.8906 46.3438,139.2188 Q45.7188,139.5469 45.2188,140.2969 Q44.7344,141.0469 44.7344,142.0781 L44.7344,143.1719 Q44.7344,144.4063 45.625,145.2344 Q46.5156,146.0469 48.1094,146.0469 Q49.0469,146.0469 49.7031,145.7969 Q50.0938,145.6406 50.5156,145.2031 Q50.7813,144.9375 50.9219,144.8594 Q51.0781,144.7813 51.2813,144.7813 Q51.6094,144.7813 51.8594,145.0469 Q52.125,145.2969 52.125,145.6406 Q52.125,145.9844 51.7813,146.3906 Q51.2813,146.9688 50.4844,147.2969 Q49.4063,147.75 48.1094,147.75 Q46.5938,147.75 45.3906,147.125 Q44.4063,146.625 43.7188,145.5625 Q43.0313,144.4844 43.0313,143.2031 L43.0313,142.0469 Q43.0313,140.7188 43.6406,139.5781 Q44.2656,138.4219 45.3594,137.8125 Q46.4531,137.1875 47.6875,137.1875 Q48.4219,137.1875 49.0625,137.3594 Q49.7188,137.5156 50.2656,137.875 Z " fill="#000000"/><text fill="#000000" font-family="sans-serif" font-size="14" lengthAdjust="spacing" textLength="157.9648" x="61.5" y="147.7285">ClientsServiceApplication</text><line style="stroke:#181818;stroke-width:0.5;" x1="33.5" x2="221.4648" y1="158" y2="158"/><line style="stroke:#181818;stroke-width:0.5;" x1="33.5" x2="221.4648" y1="166" y2="166"/></g><!--class ConfigServerApplication--><g class="entity" data-entity="ConfigServerApplication" data-source-line="19" data-uid="ent0008" id="entity_ConfigServerApplication"><rect fill="#F1F1F1" height="48" rx="2.5" ry="2.5" style="stroke:#181818;stroke-width:0.5;" width="182.1924" x="36.5" y="43"/><ellipse cx="51.5" cy="59" fill="#ADD1B2" rx="11" ry="11" style="stroke:#181818;stroke-width:1;"/><path d="M54.2656,54.875 Q54.4219,54.6563 54.6094,54.5469 Q54.7969,54.4375 55.0156,54.4375 Q55.3906,54.4375 55.625,54.7031 Q55.8594,54.9531 55.8594,55.5625 L55.8594,57.0156 Q55.8594,57.625 55.625,57.8906 Q55.3906,58.1563 55.0156,58.1563 Q54.6719,58.1563 54.4688,57.9531 Q54.2656,57.7656 54.1563,57.25 Q54.1094,56.8906 53.9219,56.7031 Q53.5938,56.3281 52.9844,56.1094 Q52.375,55.8906 51.75,55.8906 Q50.9844,55.8906 50.3438,56.2188 Q49.7188,56.5469 49.2188,57.2969 Q48.7344,58.0469 48.7344,59.0781 L48.7344,60.1719 Q48.7344,61.4063 49.625,62.2344 Q50.5156,63.0469 52.1094,63.0469 Q53.0469,63.0469 53.7031,62.7969 Q54.0938,62.6406 54.5156,62.2031 Q54.7813,61.9375 54.9219,61.8594 Q55.0781,61.7813 55.2813,61.7813 Q55.6094,61.7813 55.8594,62.0469 Q56.125,62.2969 56.125,62.6406 Q56.125,62.9844 55.7813,63.3906 Q55.2813,63.9688 54.4844,64.2969 Q53.4063,64.75 52.1094,64.75 Q50.5938,64.75 49.3906,64.125 Q48.4063,63.625 47.7188,62.5625 Q47.0313,61.4844 47.0313,60.2031 L47.0313,59.0469 Q47.0313,57.7188 47.6406,56.5781 Q48.2656,55.4219 49.3594,54.8125 Q50.4531,54.1875 51.6875,54.1875 Q52.4219,54.1875 53.0625,54.3594 Q53.7188,54.5156 54.2656,54.875 Z " fill="#000000"/><text fill="#000000" font-family="sans-serif" font-size="14" lengthAdjust="spacing" textLength="150.1924" x="65.5" y="64.7285">ConfigServerApplication</text><line style="stroke:#181818;stroke-width:0.5;" x1="37.5" x2="217.6924" y1="75" y2="75"/><line style="stroke:#181818;stroke-width:0.5;" x1="37.5" x2="217.6924" y1="83" y2="83"/></g><!--class DiscoveryServerApplication--><g class="entity" data-entity="DiscoveryServerApplication" data-source-line="21" data-uid="ent0009" id="entity_DiscoveryServerApplication"><rect fill="#F1F1F1" height="48" rx="2.5" ry="2.5" style="stroke:#181818;stroke-width:0.5;" width="203.1787" x="311" y="310"/><ellipse cx="326" cy="326" fill="#ADD1B2" rx="11" ry="11" style="stroke:#181818;stroke-width:1;"/><path d="M328.7656,321.875 Q328.9219,321.6563 329.1094,321.5469 Q329.2969,321.4375 329.5156,321.4375 Q329.8906,321.4375 330.125,321.7031 Q330.3594,321.9531 330.3594,322.5625 L330.3594,324.0156 Q330.3594,324.625 330.125,324.8906 Q329.8906,325.1563 329.5156,325.1563 Q329.1719,325.1563 328.9688,324.9531 Q328.7656,324.7656 328.6563,324.25 Q328.6094,323.8906 328.4219,323.7031 Q328.0938,323.3281 327.4844,323.1094 Q326.875,322.8906 326.25,322.8906 Q325.4844,322.8906 324.8438,323.2188 Q324.2188,323.5469 323.7188,324.2969 Q323.2344,325.0469 323.2344,326.0781 L323.2344,327.1719 Q323.2344,328.4063 324.125,329.2344 Q325.0156,330.0469 326.6094,330.0469 Q327.5469,330.0469 328.2031,329.7969 Q328.5938,329.6406 329.0156,329.2031 Q329.2813,328.9375 329.4219,328.8594 Q329.5781,328.7813 329.7813,328.7813 Q330.1094,328.7813 330.3594,329.0469 Q330.625,329.2969 330.625,329.6406 Q330.625,329.9844 330.2813,330.3906 Q329.7813,330.9688 328.9844,331.2969 Q327.9063,331.75 326.6094,331.75 Q325.0938,331.75 323.8906,331.125 Q322.9063,330.625 322.2188,329.5625 Q321.5313,328.4844 321.5313,327.2031 L321.5313,326.0469 Q321.5313,324.7188 322.1406,323.5781 Q322.7656,322.4219 323.8594,321.8125 Q324.9531,321.1875 326.1875,321.1875 Q326.9219,321.1875 327.5625,321.3594 Q328.2188,321.5156 328.7656,321.875 Z " fill="#000000"/><text fill="#000000" font-family="sans-serif" font-size="14" lengthAdjust="spacing" textLength="171.1787" x="340" y="331.7285">DiscoveryServerApplication</text><line style="stroke:#181818;stroke-width:0.5;" x1="312" x2="513.1787" y1="342" y2="342"/><line style="stroke:#181818;stroke-width:0.5;" x1="312" x2="513.1787" y1="350" y2="350"/></g><!--class NamedEntity--><g class="entity" data-entity="NamedEntity" data-source-line="23" data-uid="ent0010" id="entity_NamedEntity"><rect fill="#F1F1F1" height="65.6094" rx="2.5" ry="2.5" style="stroke:#181818;stroke-width:0.5;" width="112.1445" x="356.5" y="648"/><ellipse cx="371.5" cy="664" fill="#ADD1B2" rx="11" ry="11" style="stroke:#181818;stroke-width:1;"/><path d="M374.2656,659.875 Q374.4219,659.6563 374.6094,659.5469 Q374.7969,659.4375 375.0156,659.4375 Q375.3906,659.4375 375.625,659.7031 Q375.8594,659.9531 375.8594,660.5625 L375.8594,662.0156 Q375.8594,662.625 375.625,662.8906 Q375.3906,663.1563 375.0156,663.1563 Q374.6719,663.1563 374.4688,662.9531 Q374.2656,662.7656 374.1563,662.25 Q374.1094,661.8906 373.9219,661.7031 Q373.5938,661.3281 372.9844,661.1094 Q372.375,660.8906 371.75,660.8906 Q370.9844,660.8906 370.3438,661.2188 Q369.7188,661.5469 369.2188,662.2969 Q368.7344,663.0469 368.7344,664.0781 L368.7344,665.1719 Q368.7344,666.4063 369.625,667.2344 Q370.5156,668.0469 372.1094,668.0469 Q373.0469,668.0469 373.7031,667.7969 Q374.0938,667.6406 374.5156,667.2031 Q374.7813,666.9375 374.9219,666.8594 Q375.0781,666.7813 375.2813,666.7813 Q375.6094,666.7813 375.8594,667.0469 Q376.125,667.2969 376.125,667.6406 Q376.125,667.9844 375.7813,668.3906 Q375.2813,668.9688 374.4844,669.2969 Q373.4063,669.75 372.1094,669.75 Q370.5938,669.75 369.3906,669.125 Q368.4063,668.625 367.7188,667.5625 Q367.0313,666.4844 367.0313,665.2031 L367.0313,664.0469 Q367.0313,662.7188 367.6406,661.5781 Q368.2656,660.4219 369.3594,659.8125 Q370.4531,659.1875 371.6875,659.1875 Q372.4219,659.1875 373.0625,659.3594 Q373.7188,659.5156 374.2656,659.875 Z " fill="#000000"/><text fill="#000000" font-family="sans-serif" font-size="14" lengthAdjust="spacing" textLength="80.1445" x="385.5" y="669.7285">NamedEntity</text><line style="stroke:#181818;stroke-width:0.5;" x1="357.5" x2="467.6445" y1="680" y2="680"/><text fill="#000000" font-family="sans-serif" font-size="14" lengthAdjust="spacing" textLength="87.5479" x="362.5" y="698.5332">+name: String</text><line style="stroke:#181818;stroke-width:0.5;" x1="357.5" x2="467.6445" y1="705.6094" y2="705.6094"/></g><!--class Owner--><g class="entity" data-entity="Owner" data-source-line="26" data-uid="ent0011" id="entity_Owner"><rect fill="#F1F1F1" height="118.4375" rx="2.5" ry="2.5" style="stroke:#181818;stroke-width:0.5;" width="126.0303" x="834" y="509"/><ellipse cx="872.7582" cy="525" fill="#ADD1B2" rx="11" ry="11" style="stroke:#181818;stroke-width:1;"/><path d="M875.5238,520.875 Q875.68,520.6563 875.8675,520.5469 Q876.055,520.4375 876.2738,520.4375 Q876.6488,520.4375 876.8832,520.7031 Q877.1175,520.9531 877.1175,521.5625 L877.1175,523.0156 Q877.1175,523.625 876.8832,523.8906 Q876.6488,524.1563 876.2738,524.1563 Q875.93,524.1563 875.7269,523.9531 Q875.5238,523.7656 875.4144,523.25 Q875.3675,522.8906 875.18,522.7031 Q874.8519,522.3281 874.2425,522.1094 Q873.6332,521.8906 873.0082,521.8906 Q872.2425,521.8906 871.6019,522.2188 Q870.9769,522.5469 870.4769,523.2969 Q869.9925,524.0469 869.9925,525.0781 L869.9925,526.1719 Q869.9925,527.4063 870.8832,528.2344 Q871.7738,529.0469 873.3675,529.0469 Q874.305,529.0469 874.9613,528.7969 Q875.3519,528.6406 875.7738,528.2031 Q876.0394,527.9375 876.18,527.8594 Q876.3363,527.7813 876.5394,527.7813 Q876.8675,527.7813 877.1175,528.0469 Q877.3832,528.2969 877.3832,528.6406 Q877.3832,528.9844 877.0394,529.3906 Q876.5394,529.9688 875.7425,530.2969 Q874.6644,530.75 873.3675,530.75 Q871.8519,530.75 870.6488,530.125 Q869.6644,529.625 868.9769,528.5625 Q868.2894,527.4844 868.2894,526.2031 L868.2894,525.0469 Q868.2894,523.7188 868.8988,522.5781 Q869.5238,521.4219 870.6175,520.8125 Q871.7113,520.1875 872.9457,520.1875 Q873.68,520.1875 874.3207,520.3594 Q874.9769,520.5156 875.5238,520.875 Z " fill="#000000"/><text fill="#000000" font-family="sans-serif" font-size="14" lengthAdjust="spacing" textLength="41.2344" x="892.0377" y="530.7285">Owner</text><line style="stroke:#181818;stroke-width:0.5;" x1="835" x2="959.0303" y1="541" y2="541"/><text fill="#000000" font-family="sans-serif" font-size="14" lengthAdjust="spacing" textLength="102.334" x="840" y="559.5332">+address: String</text><text fill="#000000" font-family="sans-serif" font-size="14" lengthAdjust="spacing" textLength="73.5273" x="840" y="577.1426">+city: String</text><text fill="#000000" font-family="sans-serif" font-size="14" lengthAdjust="spacing" textLength="114.0303" x="840" y="594.752">+telephone: String</text><text fill="#000000" font-family="sans-serif" font-size="14" lengthAdjust="spacing" textLength="63.4307" x="840" y="612.3613">+pets: Set</text><line style="stroke:#181818;stroke-width:0.5;" x1="835" x2="959.0303" y1="619.4375" y2="619.4375"/></g><!--class OwnerRepository--><g class="entity" data-entity="OwnerRepository" data-source-line="32" data-uid="ent0012" id="entity_OwnerRepository"><rect fill="#F1F1F1" height="48" rx="2.5" ry="2.5" style="stroke:#181818;stroke-width:0.5;" width="140.1514" x="613.5" y="868"/><ellipse cx="628.5" cy="884" fill="#B4A7E5" rx="11" ry="11" style="stroke:#181818;stroke-width:1;"/><path d="M629.4531,880.6406 L629.4531,887.2969 L631.1719,887.2969 Q631.7813,887.2969 632.0469,887.5313 Q632.3125,887.7656 632.3125,888.1563 Q632.3125,888.5313 632.0469,888.7656 Q631.7813,889 631.1719,889 L626.0313,889 Q625.4219,889 625.1563,888.7656 Q624.8906,888.5313 624.8906,888.1406 Q624.8906,887.7656 625.1563,887.5313 Q625.4219,887.2969 626.0313,887.2969 L627.75,887.2969 L627.75,880.6406 L626.0313,880.6406 Q625.4219,880.6406 625.1563,880.4063 Q624.8906,880.1719 624.8906,879.7813 Q624.8906,879.4063 625.1563,879.1719 Q625.4219,878.9375 626.0313,878.9375 L631.1719,878.9375 Q631.7813,878.9375 632.0469,879.1719 Q632.3125,879.4063 632.3125,879.7813 Q632.3125,880.1719 632.0469,880.4063 Q631.7813,880.6406 631.1719,880.6406 L629.4531,880.6406 Z " fill="#000000"/><text fill="#000000" font-family="sans-serif" font-size="14" font-style="italic" lengthAdjust="spacing" textLength="108.1514" x="642.5" y="889.7285">OwnerRepository</text><line style="stroke:#181818;stroke-width:0.5;" x1="614.5" x2="752.6514" y1="900" y2="900"/><line style="stroke:#181818;stroke-width:0.5;" x1="614.5" x2="752.6514" y1="908" y2="908"/></g><!--class OwnerResource--><g class="entity" data-entity="OwnerResource" data-source-line="34" data-uid="ent0013" id="entity_OwnerResource"><rect fill="#F1F1F1" height="65.6094" rx="2.5" ry="2.5" style="stroke:#181818;stroke-width:0.5;" width="200.6855" x="27" y="832"/><ellipse cx="72.5171" cy="848" fill="#ADD1B2" rx="11" ry="11" style="stroke:#181818;stroke-width:1;"/><path d="M75.2827,843.875 Q75.439,843.6563 75.6265,843.5469 Q75.814,843.4375 76.0327,843.4375 Q76.4077,843.4375 76.6421,843.7031 Q76.8765,843.9531 76.8765,844.5625 L76.8765,846.0156 Q76.8765,846.625 76.6421,846.8906 Q76.4077,847.1563 76.0327,847.1563 Q75.689,847.1563 75.4858,846.9531 Q75.2827,846.7656 75.1733,846.25 Q75.1265,845.8906 74.939,845.7031 Q74.6108,845.3281 74.0015,845.1094 Q73.3921,844.8906 72.7671,844.8906 Q72.0015,844.8906 71.3608,845.2188 Q70.7358,845.5469 70.2358,846.2969 Q69.7515,847.0469 69.7515,848.0781 L69.7515,849.1719 Q69.7515,850.4063 70.6421,851.2344 Q71.5327,852.0469 73.1265,852.0469 Q74.064,852.0469 74.7202,851.7969 Q75.1108,851.6406 75.5327,851.2031 Q75.7983,850.9375 75.939,850.8594 Q76.0952,850.7813 76.2983,850.7813 Q76.6265,850.7813 76.8765,851.0469 Q77.1421,851.2969 77.1421,851.6406 Q77.1421,851.9844 76.7983,852.3906 Q76.2983,852.9688 75.5015,853.2969 Q74.4233,853.75 73.1265,853.75 Q71.6108,853.75 70.4077,853.125 Q69.4233,852.625 68.7358,851.5625 Q68.0483,850.4844 68.0483,849.2031 L68.0483,848.0469 Q68.0483,846.7188 68.6577,845.5781 Q69.2827,844.4219 70.3765,843.8125 Q71.4702,843.1875 72.7046,843.1875 Q73.439,843.1875 74.0796,843.3594 Q74.7358,843.5156 75.2827,843.875 Z " fill="#000000"/><text fill="#000000" font-family="sans-serif" font-size="14" lengthAdjust="spacing" textLength="101.1514" x="93.0171" y="853.7285">OwnerResource</text><line style="stroke:#181818;stroke-width:0.5;" x1="28" x2="226.6855" y1="864" y2="864"/><text fill="#000000" font-family="sans-serif" font-size="14" lengthAdjust="spacing" textLength="188.6855" x="33" y="882.5332">+ownerService: OwnerService</text><line style="stroke:#181818;stroke-width:0.5;" x1="28" x2="226.6855" y1="889.6094" y2="889.6094"/></g><!--class OwnerService--><g class="entity" data-entity="OwnerService" data-source-line="37" data-uid="ent0014" id="entity_OwnerService"><rect fill="#F1F1F1" height="65.6094" rx="2.5" ry="2.5" style="stroke:#181818;stroke-width:0.5;" width="241.1543" x="292" y="850"/><ellipse cx="364.3687" cy="866" fill="#ADD1B2" rx="11" ry="11" style="stroke:#181818;stroke-width:1;"/><path d="M367.1343,861.875 Q367.2905,861.6563 367.478,861.5469 Q367.6655,861.4375 367.8843,861.4375 Q368.2593,861.4375 368.4937,861.7031 Q368.728,861.9531 368.728,862.5625 L368.728,864.0156 Q368.728,864.625 368.4937,864.8906 Q368.2593,865.1563 367.8843,865.1563 Q367.5405,865.1563 367.3374,864.9531 Q367.1343,864.7656 367.0249,864.25 Q366.978,863.8906 366.7905,863.7031 Q366.4624,863.3281 365.853,863.1094 Q365.2437,862.8906 364.6187,862.8906 Q363.853,862.8906 363.2124,863.2188 Q362.5874,863.5469 362.0874,864.2969 Q361.603,865.0469 361.603,866.0781 L361.603,867.1719 Q361.603,868.4063 362.4937,869.2344 Q363.3843,870.0469 364.978,870.0469 Q365.9155,870.0469 366.5718,869.7969 Q366.9624,869.6406 367.3843,869.2031 Q367.6499,868.9375 367.7905,868.8594 Q367.9468,868.7813 368.1499,868.7813 Q368.478,868.7813 368.728,869.0469 Q368.9937,869.2969 368.9937,869.6406 Q368.9937,869.9844 368.6499,870.3906 Q368.1499,870.9688 367.353,871.2969 Q366.2749,871.75 364.978,871.75 Q363.4624,871.75 362.2593,871.125 Q361.2749,870.625 360.5874,869.5625 Q359.8999,868.4844 359.8999,867.2031 L359.8999,866.0469 Q359.8999,864.7188 360.5093,863.5781 Q361.1343,862.4219 362.228,861.8125 Q363.3218,861.1875 364.5562,861.1875 Q365.2905,861.1875 365.9312,861.3594 Q366.5874,861.5156 367.1343,861.875 Z " fill="#000000"/><text fill="#000000" font-family="sans-serif" font-size="14" lengthAdjust="spacing" textLength="87.917" x="384.8687" y="871.7285">OwnerService</text><line style="stroke:#181818;stroke-width:0.5;" x1="293" x2="532.1543" y1="882" y2="882"/><text fill="#000000" font-family="sans-serif" font-size="14" lengthAdjust="spacing" textLength="229.1543" x="298" y="900.5332">+ownerRepository: OwnerRepository</text><line style="stroke:#181818;stroke-width:0.5;" x1="293" x2="532.1543" y1="907.6094" y2="907.6094"/></g><!--class Person--><g class="entity" data-entity="Person" data-source-line="40" data-uid="ent0015" id="entity_Person"><rect fill="#F1F1F1" height="83.2188" rx="2.5" ry="2.5" style="stroke:#181818;stroke-width:0.5;" width="124.4238" x="350.5" y="529.5"/><ellipse cx="387.1294" cy="545.5" fill="#ADD1B2" rx="11" ry="11" style="stroke:#181818;stroke-width:1;"/><path d="M389.8951,541.375 Q390.0513,541.1563 390.2388,541.0469 Q390.4263,540.9375 390.6451,540.9375 Q391.0201,540.9375 391.2544,541.2031 Q391.4888,541.4531 391.4888,542.0625 L391.4888,543.5156 Q391.4888,544.125 391.2544,544.3906 Q391.0201,544.6563 390.6451,544.6563 Q390.3013,544.6563 390.0982,544.4531 Q389.8951,544.2656 389.7857,543.75 Q389.7388,543.3906 389.5513,543.2031 Q389.2232,542.8281 388.6138,542.6094 Q388.0044,542.3906 387.3794,542.3906 Q386.6138,542.3906 385.9732,542.7188 Q385.3482,543.0469 384.8482,543.7969 Q384.3638,544.5469 384.3638,545.5781 L384.3638,546.6719 Q384.3638,547.9063 385.2544,548.7344 Q386.1451,549.5469 387.7388,549.5469 Q388.6763,549.5469 389.3326,549.2969 Q389.7232,549.1406 390.1451,548.7031 Q390.4107,548.4375 390.5513,548.3594 Q390.7076,548.2813 390.9107,548.2813 Q391.2388,548.2813 391.4888,548.5469 Q391.7544,548.7969 391.7544,549.1406 Q391.7544,549.4844 391.4107,549.8906 Q390.9107,550.4688 390.1138,550.7969 Q389.0357,551.25 387.7388,551.25 Q386.2232,551.25 385.0201,550.625 Q384.0357,550.125 383.3482,549.0625 Q382.6607,547.9844 382.6607,546.7031 L382.6607,545.5469 Q382.6607,544.2188 383.2701,543.0781 Q383.8951,541.9219 384.9888,541.3125 Q386.0826,540.6875 387.3169,540.6875 Q388.0513,540.6875 388.6919,540.8594 Q389.3482,541.0156 389.8951,541.375 Z " fill="#000000"/><text fill="#000000" font-family="sans-serif" font-size="14" lengthAdjust="spacing" textLength="44.3584" x="405.936" y="551.2285">Person</text><line style="stroke:#181818;stroke-width:0.5;" x1="351.5" x2="473.9238" y1="561.5" y2="561.5"/><text fill="#000000" font-family="sans-serif" font-size="14" lengthAdjust="spacing" textLength="112.4238" x="356.5" y="580.0332">+firstName: String</text><text fill="#000000" font-family="sans-serif" font-size="14" lengthAdjust="spacing" textLength="111.6582" x="356.5" y="597.6426">+lastName: String</text><line style="stroke:#181818;stroke-width:0.5;" x1="351.5" x2="473.9238" y1="604.7188" y2="604.7188"/></g><!--class Pet--><g class="entity" data-entity="Pet" data-source-line="44" data-uid="ent0016" id="entity_Pet"><rect fill="#F1F1F1" height="100.8281" rx="2.5" ry="2.5" style="stroke:#181818;stroke-width:0.5;" width="114.334" x="626.5" y="611.5"/><ellipse cx="669.0941" cy="627.5" fill="#ADD1B2" rx="11" ry="11" style="stroke:#181818;stroke-width:1;"/><path d="M671.8598,623.375 Q672.016,623.1563 672.2035,623.0469 Q672.391,622.9375 672.6098,622.9375 Q672.9848,622.9375 673.2191,623.2031 Q673.4535,623.4531 673.4535,624.0625 L673.4535,625.5156 Q673.4535,626.125 673.2191,626.3906 Q672.9848,626.6563 672.6098,626.6563 Q672.266,626.6563 672.0629,626.4531 Q671.8598,626.2656 671.7504,625.75 Q671.7035,625.3906 671.516,625.2031 Q671.1879,624.8281 670.5785,624.6094 Q669.9691,624.3906 669.3441,624.3906 Q668.5785,624.3906 667.9379,624.7188 Q667.3129,625.0469 666.8129,625.7969 Q666.3285,626.5469 666.3285,627.5781 L666.3285,628.6719 Q666.3285,629.9063 667.2191,630.7344 Q668.1098,631.5469 669.7035,631.5469 Q670.641,631.5469 671.2973,631.2969 Q671.6879,631.1406 672.1098,630.7031 Q672.3754,630.4375 672.516,630.3594 Q672.6723,630.2813 672.8754,630.2813 Q673.2035,630.2813 673.4535,630.5469 Q673.7191,630.7969 673.7191,631.1406 Q673.7191,631.4844 673.3754,631.8906 Q672.8754,632.4688 672.0785,632.7969 Q671.0004,633.25 669.7035,633.25 Q668.1879,633.25 666.9848,632.625 Q666.0004,632.125 665.3129,631.0625 Q664.6254,629.9844 664.6254,628.7031 L664.6254,627.5469 Q664.6254,626.2188 665.2348,625.0781 Q665.8598,623.9219 666.9535,623.3125 Q668.0473,622.6875 669.2816,622.6875 Q670.016,622.6875 670.6566,622.8594 Q671.3129,623.0156 671.8598,623.375 Z " fill="#000000"/><text fill="#000000" font-family="sans-serif" font-size="14" lengthAdjust="spacing" textLength="21.0137" x="689.2262" y="633.2285">Pet</text><line style="stroke:#181818;stroke-width:0.5;" x1="627.5" x2="739.834" y1="643.5" y2="643.5"/><text fill="#000000" font-family="sans-serif" font-size="14" lengthAdjust="spacing" textLength="102.334" x="632.5" y="662.0332">+birthDate: Date</text><text fill="#000000" font-family="sans-serif" font-size="14" lengthAdjust="spacing" textLength="94.5547" x="632.5" y="679.6426">+type: PetType</text><text fill="#000000" font-family="sans-serif" font-size="14" lengthAdjust="spacing" textLength="95.3203" x="632.5" y="697.252">+owner: Owner</text><line style="stroke:#181818;stroke-width:0.5;" x1="627.5" x2="739.834" y1="704.3281" y2="704.3281"/></g><!--class PetRepository--><g class="entity" data-entity="PetRepository" data-source-line="49" data-uid="ent0017" id="entity_PetRepository"><rect fill="#F1F1F1" height="48" rx="2.5" ry="2.5" style="stroke:#181818;stroke-width:0.5;" width="119.9307" x="623.5" y="960"/><ellipse cx="638.5" cy="976" fill="#B4A7E5" rx="11" ry="11" style="stroke:#181818;stroke-width:1;"/><path d="M639.4531,972.6406 L639.4531,979.2969 L641.1719,979.2969 Q641.7813,979.2969 642.0469,979.5313 Q642.3125,979.7656 642.3125,980.1563 Q642.3125,980.5313 642.0469,980.7656 Q641.7813,981 641.1719,981 L636.0313,981 Q635.4219,981 635.1563,980.7656 Q634.8906,980.5313 634.8906,980.1406 Q634.8906,979.7656 635.1563,979.5313 Q635.4219,979.2969 636.0313,979.2969 L637.75,979.2969 L637.75,972.6406 L636.0313,972.6406 Q635.4219,972.6406 635.1563,972.4063 Q634.8906,972.1719 634.8906,971.7813 Q634.8906,971.4063 635.1563,971.1719 Q635.4219,970.9375 636.0313,970.9375 L641.1719,970.9375 Q641.7813,970.9375 642.0469,971.1719 Q642.3125,971.4063 642.3125,971.7813 Q642.3125,972.1719 642.0469,972.4063 Q641.7813,972.6406 641.1719,972.6406 L639.4531,972.6406 Z " fill="#000000"/><text fill="#000000" font-family="sans-serif" font-size="14" font-style="italic" lengthAdjust="spacing" textLength="87.9307" x="652.5" y="981.7285">PetRepository</text><line style="stroke:#181818;stroke-width:0.5;" x1="624.5" x2="742.4307" y1="992" y2="992"/><line style="stroke:#181818;stroke-width:0.5;" x1="624.5" x2="742.4307" y1="1000" y2="1000"/></g><!--class PetResource--><g class="entity" data-entity="PetResource" data-source-line="51" data-uid="ent0018" id="entity_PetResource"><rect fill="#F1F1F1" height="83.2188" rx="2.5" ry="2.5" style="stroke:#181818;stroke-width:0.5;" width="200.6855" x="27" y="933.5"/><ellipse cx="82.6274" cy="949.5" fill="#ADD1B2" rx="11" ry="11" style="stroke:#181818;stroke-width:1;"/><path d="M85.3931,945.375 Q85.5493,945.1563 85.7368,945.0469 Q85.9243,944.9375 86.1431,944.9375 Q86.5181,944.9375 86.7524,945.2031 Q86.9868,945.4531 86.9868,946.0625 L86.9868,947.5156 Q86.9868,948.125 86.7524,948.3906 Q86.5181,948.6563 86.1431,948.6563 Q85.7993,948.6563 85.5962,948.4531 Q85.3931,948.2656 85.2837,947.75 Q85.2368,947.3906 85.0493,947.2031 Q84.7212,946.8281 84.1118,946.6094 Q83.5024,946.3906 82.8774,946.3906 Q82.1118,946.3906 81.4712,946.7188 Q80.8462,947.0469 80.3462,947.7969 Q79.8618,948.5469 79.8618,949.5781 L79.8618,950.6719 Q79.8618,951.9063 80.7524,952.7344 Q81.6431,953.5469 83.2368,953.5469 Q84.1743,953.5469 84.8306,953.2969 Q85.2212,953.1406 85.6431,952.7031 Q85.9087,952.4375 86.0493,952.3594 Q86.2056,952.2813 86.4087,952.2813 Q86.7368,952.2813 86.9868,952.5469 Q87.2524,952.7969 87.2524,953.1406 Q87.2524,953.4844 86.9087,953.8906 Q86.4087,954.4688 85.6118,954.7969 Q84.5337,955.25 83.2368,955.25 Q81.7212,955.25 80.5181,954.625 Q79.5337,954.125 78.8462,953.0625 Q78.1587,951.9844 78.1587,950.7031 L78.1587,949.5469 Q78.1587,948.2188 78.7681,947.0781 Q79.3931,945.9219 80.4868,945.3125 Q81.5806,944.6875 82.8149,944.6875 Q83.5493,944.6875 84.1899,944.8594 Q84.8462,945.0156 85.3931,945.375 Z " fill="#000000"/><text fill="#000000" font-family="sans-serif" font-size="14" lengthAdjust="spacing" textLength="80.9307" x="103.1274" y="955.2285">PetResource</text><line style="stroke:#181818;stroke-width:0.5;" x1="28" x2="226.6855" y1="965.5" y2="965.5"/><text fill="#000000" font-family="sans-serif" font-size="14" lengthAdjust="spacing" textLength="149.7959" x="33" y="984.0332">+petService: PetService</text><text fill="#000000" font-family="sans-serif" font-size="14" lengthAdjust="spacing" textLength="188.6855" x="33" y="1001.6426">+ownerService: OwnerService</text><line style="stroke:#181818;stroke-width:0.5;" x1="28" x2="226.6855" y1="1008.7188" y2="1008.7188"/></g><!--class PetService--><g class="entity" data-entity="PetService" data-source-line="55" data-uid="ent0019" id="entity_PetService"><rect fill="#F1F1F1" height="65.6094" rx="2.5" ry="2.5" style="stroke:#181818;stroke-width:0.5;" width="202.2646" x="311.5" y="951"/><ellipse cx="374.5342" cy="967" fill="#ADD1B2" rx="11" ry="11" style="stroke:#181818;stroke-width:1;"/><path d="M377.2998,962.875 Q377.4561,962.6563 377.6436,962.5469 Q377.8311,962.4375 378.0498,962.4375 Q378.4248,962.4375 378.6592,962.7031 Q378.8936,962.9531 378.8936,963.5625 L378.8936,965.0156 Q378.8936,965.625 378.6592,965.8906 Q378.4248,966.1563 378.0498,966.1563 Q377.7061,966.1563 377.5029,965.9531 Q377.2998,965.7656 377.1904,965.25 Q377.1436,964.8906 376.9561,964.7031 Q376.6279,964.3281 376.0186,964.1094 Q375.4092,963.8906 374.7842,963.8906 Q374.0186,963.8906 373.3779,964.2188 Q372.7529,964.5469 372.2529,965.2969 Q371.7686,966.0469 371.7686,967.0781 L371.7686,968.1719 Q371.7686,969.4063 372.6592,970.2344 Q373.5498,971.0469 375.1436,971.0469 Q376.0811,971.0469 376.7373,970.7969 Q377.1279,970.6406 377.5498,970.2031 Q377.8154,969.9375 377.9561,969.8594 Q378.1123,969.7813 378.3154,969.7813 Q378.6436,969.7813 378.8936,970.0469 Q379.1592,970.2969 379.1592,970.6406 Q379.1592,970.9844 378.8154,971.3906 Q378.3154,971.9688 377.5186,972.2969 Q376.4404,972.75 375.1436,972.75 Q373.6279,972.75 372.4248,972.125 Q371.4404,971.625 370.7529,970.5625 Q370.0654,969.4844 370.0654,968.2031 L370.0654,967.0469 Q370.0654,965.7188 370.6748,964.5781 Q371.2998,963.4219 372.3936,962.8125 Q373.4873,962.1875 374.7217,962.1875 Q375.4561,962.1875 376.0967,962.3594 Q376.7529,962.5156 377.2998,962.875 Z " fill="#000000"/><text fill="#000000" font-family="sans-serif" font-size="14" lengthAdjust="spacing" textLength="67.6963" x="395.0342" y="972.7285">PetService</text><line style="stroke:#181818;stroke-width:0.5;" x1="312.5" x2="512.7646" y1="983" y2="983"/><text fill="#000000" font-family="sans-serif" font-size="14" lengthAdjust="spacing" textLength="190.2646" x="317.5" y="1001.5332">+petRepository: PetRepository</text><line style="stroke:#181818;stroke-width:0.5;" x1="312.5" x2="512.7646" y1="1008.6094" y2="1008.6094"/></g><!--class PetType--><g class="entity" data-entity="PetType" data-source-line="58" data-uid="ent0020" id="entity_PetType"><rect fill="#F1F1F1" height="48" rx="2.5" ry="2.5" style="stroke:#181818;stroke-width:0.5;" width="84.1377" x="855" y="782"/><ellipse cx="870" cy="798" fill="#ADD1B2" rx="11" ry="11" style="stroke:#181818;stroke-width:1;"/><path d="M872.7656,793.875 Q872.9219,793.6563 873.1094,793.5469 Q873.2969,793.4375 873.5156,793.4375 Q873.8906,793.4375 874.125,793.7031 Q874.3594,793.9531 874.3594,794.5625 L874.3594,796.0156 Q874.3594,796.625 874.125,796.8906 Q873.8906,797.1563 873.5156,797.1563 Q873.1719,797.1563 872.9688,796.9531 Q872.7656,796.7656 872.6563,796.25 Q872.6094,795.8906 872.4219,795.7031 Q872.0938,795.3281 871.4844,795.1094 Q870.875,794.8906 870.25,794.8906 Q869.4844,794.8906 868.8438,795.2188 Q868.2188,795.5469 867.7188,796.2969 Q867.2344,797.0469 867.2344,798.0781 L867.2344,799.1719 Q867.2344,800.4063 868.125,801.2344 Q869.0156,802.0469 870.6094,802.0469 Q871.5469,802.0469 872.2031,801.7969 Q872.5938,801.6406 873.0156,801.2031 Q873.2813,800.9375 873.4219,800.8594 Q873.5781,800.7813 873.7813,800.7813 Q874.1094,800.7813 874.3594,801.0469 Q874.625,801.2969 874.625,801.6406 Q874.625,801.9844 874.2813,802.3906 Q873.7813,802.9688 872.9844,803.2969 Q871.9063,803.75 870.6094,803.75 Q869.0938,803.75 867.8906,803.125 Q866.9063,802.625 866.2188,801.5625 Q865.5313,800.4844 865.5313,799.2031 L865.5313,798.0469 Q865.5313,796.7188 866.1406,795.5781 Q866.7656,794.4219 867.8594,793.8125 Q868.9531,793.1875 870.1875,793.1875 Q870.9219,793.1875 871.5625,793.3594 Q872.2188,793.5156 872.7656,793.875 Z " fill="#000000"/><text fill="#000000" font-family="sans-serif" font-size="14" lengthAdjust="spacing" textLength="52.1377" x="884" y="803.7285">PetType</text><line style="stroke:#181818;stroke-width:0.5;" x1="856" x2="938.1377" y1="814" y2="814"/><line style="stroke:#181818;stroke-width:0.5;" x1="856" x2="938.1377" y1="822" y2="822"/></g><!--class PetValidator--><g class="entity" data-entity="PetValidator" data-source-line="60" data-uid="ent0021" id="entity_PetValidator"><rect fill="#F1F1F1" height="48" rx="2.5" ry="2.5" style="stroke:#181818;stroke-width:0.5;" width="108.2686" x="358.5" y="227"/><ellipse cx="373.5" cy="243" fill="#ADD1B2" rx="11" ry="11" style="stroke:#181818;stroke-width:1;"/><path d="M376.2656,238.875 Q376.4219,238.6563 376.6094,238.5469 Q376.7969,238.4375 377.0156,238.4375 Q377.3906,238.4375 377.625,238.7031 Q377.8594,238.9531 377.8594,239.5625 L377.8594,241.0156 Q377.8594,241.625 377.625,241.8906 Q377.3906,242.1563 377.0156,242.1563 Q376.6719,242.1563 376.4688,241.9531 Q376.2656,241.7656 376.1563,241.25 Q376.1094,240.8906 375.9219,240.7031 Q375.5938,240.3281 374.9844,240.1094 Q374.375,239.8906 373.75,239.8906 Q372.9844,239.8906 372.3438,240.2188 Q371.7188,240.5469 371.2188,241.2969 Q370.7344,242.0469 370.7344,243.0781 L370.7344,244.1719 Q370.7344,245.4063 371.625,246.2344 Q372.5156,247.0469 374.1094,247.0469 Q375.0469,247.0469 375.7031,246.7969 Q376.0938,246.6406 376.5156,246.2031 Q376.7813,245.9375 376.9219,245.8594 Q377.0781,245.7813 377.2813,245.7813 Q377.6094,245.7813 377.8594,246.0469 Q378.125,246.2969 378.125,246.6406 Q378.125,246.9844 377.7813,247.3906 Q377.2813,247.9688 376.4844,248.2969 Q375.4063,248.75 374.1094,248.75 Q372.5938,248.75 371.3906,248.125 Q370.4063,247.625 369.7188,246.5625 Q369.0313,245.4844 369.0313,244.2031 L369.0313,243.0469 Q369.0313,241.7188 369.6406,240.5781 Q370.2656,239.4219 371.3594,238.8125 Q372.4531,238.1875 373.6875,238.1875 Q374.4219,238.1875 375.0625,238.3594 Q375.7188,238.5156 376.2656,238.875 Z " fill="#000000"/><text fill="#000000" font-family="sans-serif" font-size="14" lengthAdjust="spacing" textLength="76.2686" x="387.5" y="248.7285">PetValidator</text><line style="stroke:#181818;stroke-width:0.5;" x1="359.5" x2="465.7686" y1="259" y2="259"/><line style="stroke:#181818;stroke-width:0.5;" x1="359.5" x2="465.7686" y1="267" y2="267"/></g><!--class Specialty--><g class="entity" data-entity="Specialty" data-source-line="62" data-uid="ent0022" id="entity_Specialty"><rect fill="#F1F1F1" height="48" rx="2.5" ry="2.5" style="stroke:#181818;stroke-width:0.5;" width="88.8066" x="639" y="748"/><ellipse cx="654" cy="764" fill="#ADD1B2" rx="11" ry="11" style="stroke:#181818;stroke-width:1;"/><path d="M656.7656,759.875 Q656.9219,759.6563 657.1094,759.5469 Q657.2969,759.4375 657.5156,759.4375 Q657.8906,759.4375 658.125,759.7031 Q658.3594,759.9531 658.3594,760.5625 L658.3594,762.0156 Q658.3594,762.625 658.125,762.8906 Q657.8906,763.1563 657.5156,763.1563 Q657.1719,763.1563 656.9688,762.9531 Q656.7656,762.7656 656.6563,762.25 Q656.6094,761.8906 656.4219,761.7031 Q656.0938,761.3281 655.4844,761.1094 Q654.875,760.8906 654.25,760.8906 Q653.4844,760.8906 652.8438,761.2188 Q652.2188,761.5469 651.7188,762.2969 Q651.2344,763.0469 651.2344,764.0781 L651.2344,765.1719 Q651.2344,766.4063 652.125,767.2344 Q653.0156,768.0469 654.6094,768.0469 Q655.5469,768.0469 656.2031,767.7969 Q656.5938,767.6406 657.0156,767.2031 Q657.2813,766.9375 657.4219,766.8594 Q657.5781,766.7813 657.7813,766.7813 Q658.1094,766.7813 658.3594,767.0469 Q658.625,767.2969 658.625,767.6406 Q658.625,767.9844 658.2813,768.3906 Q657.7813,768.9688 656.9844,769.2969 Q655.9063,769.75 654.6094,769.75 Q653.0938,769.75 651.8906,769.125 Q650.9063,768.625 650.2188,767.5625 Q649.5313,766.4844 649.5313,765.2031 L649.5313,764.0469 Q649.5313,762.7188 650.1406,761.5781 Q650.7656,760.4219 651.8594,759.8125 Q652.9531,759.1875 654.1875,759.1875 Q654.9219,759.1875 655.5625,759.3594 Q656.2188,759.5156 656.7656,759.875 Z " fill="#000000"/><text fill="#000000" font-family="sans-serif" font-size="14" lengthAdjust="spacing" textLength="56.8066" x="668" y="769.7285">Specialty</text><line style="stroke:#181818;stroke-width:0.5;" x1="640" x2="726.8066" y1="780" y2="780"/><line style="stroke:#181818;stroke-width:0.5;" x1="640" x2="726.8066" y1="788" y2="788"/></g><!--class Vet--><g class="entity" data-entity="Vet" data-source-line="64" data-uid="ent0023" id="entity_Vet"><rect fill="#F1F1F1" height="65.6094" rx="2.5" ry="2.5" style="stroke:#181818;stroke-width:0.5;" width="114.334" x="626.5" y="510"/><ellipse cx="669.0941" cy="526" fill="#ADD1B2" rx="11" ry="11" style="stroke:#181818;stroke-width:1;"/><path d="M671.8598,521.875 Q672.016,521.6563 672.2035,521.5469 Q672.391,521.4375 672.6098,521.4375 Q672.9848,521.4375 673.2191,521.7031 Q673.4535,521.9531 673.4535,522.5625 L673.4535,524.0156 Q673.4535,524.625 673.2191,524.8906 Q672.9848,525.1563 672.6098,525.1563 Q672.266,525.1563 672.0629,524.9531 Q671.8598,524.7656 671.7504,524.25 Q671.7035,523.8906 671.516,523.7031 Q671.1879,523.3281 670.5785,523.1094 Q669.9691,522.8906 669.3441,522.8906 Q668.5785,522.8906 667.9379,523.2188 Q667.3129,523.5469 666.8129,524.2969 Q666.3285,525.0469 666.3285,526.0781 L666.3285,527.1719 Q666.3285,528.4063 667.2191,529.2344 Q668.1098,530.0469 669.7035,530.0469 Q670.641,530.0469 671.2973,529.7969 Q671.6879,529.6406 672.1098,529.2031 Q672.3754,528.9375 672.516,528.8594 Q672.6723,528.7813 672.8754,528.7813 Q673.2035,528.7813 673.4535,529.0469 Q673.7191,529.2969 673.7191,529.6406 Q673.7191,529.9844 673.3754,530.3906 Q672.8754,530.9688 672.0785,531.2969 Q671.0004,531.75 669.7035,531.75 Q668.1879,531.75 666.9848,531.125 Q666.0004,530.625 665.3129,529.5625 Q664.6254,528.4844 664.6254,527.2031 L664.6254,526.0469 Q664.6254,524.7188 665.2348,523.5781 Q665.8598,522.4219 666.9535,521.8125 Q668.0473,521.1875 669.2816,521.1875 Q670.016,521.1875 670.6566,521.3594 Q671.3129,521.5156 671.8598,521.875 Z " fill="#000000"/><text fill="#000000" font-family="sans-serif" font-size="14" lengthAdjust="spacing" textLength="21.0137" x="689.2262" y="531.7285">Vet</text><line style="stroke:#181818;stroke-width:0.5;" x1="627.5" x2="739.834" y1="542" y2="542"/><text fill="#000000" font-family="sans-serif" font-size="14" lengthAdjust="spacing" textLength="102.334" x="632.5" y="560.5332">+specialties: Set</text><line style="stroke:#181818;stroke-width:0.5;" x1="627.5" x2="739.834" y1="567.6094" y2="567.6094"/></g><!--class VetRepository--><g class="entity" data-entity="VetRepository" data-source-line="67" data-uid="ent0024" id="entity_VetRepository"><rect fill="#F1F1F1" height="48" rx="2.5" ry="2.5" style="stroke:#181818;stroke-width:0.5;" width="119.9307" x="623.5" y="1061"/><ellipse cx="638.5" cy="1077" fill="#B4A7E5" rx="11" ry="11" style="stroke:#181818;stroke-width:1;"/><path d="M639.4531,1073.6406 L639.4531,1080.2969 L641.1719,1080.2969 Q641.7813,1080.2969 642.0469,1080.5313 Q642.3125,1080.7656 642.3125,1081.1563 Q642.3125,1081.5313 642.0469,1081.7656 Q641.7813,1082 641.1719,1082 L636.0313,1082 Q635.4219,1082 635.1563,1081.7656 Q634.8906,1081.5313 634.8906,1081.1406 Q634.8906,1080.7656 635.1563,1080.5313 Q635.4219,1080.2969 636.0313,1080.2969 L637.75,1080.2969 L637.75,1073.6406 L636.0313,1073.6406 Q635.4219,1073.6406 635.1563,1073.4063 Q634.8906,1073.1719 634.8906,1072.7813 Q634.8906,1072.4063 635.1563,1072.1719 Q635.4219,1071.9375 636.0313,1071.9375 L641.1719,1071.9375 Q641.7813,1071.9375 642.0469,1072.1719 Q642.3125,1072.4063 642.3125,1072.7813 Q642.3125,1073.1719 642.0469,1073.4063 Q641.7813,1073.6406 641.1719,1073.6406 L639.4531,1073.6406 Z " fill="#000000"/><text fill="#000000" font-family="sans-serif" font-size="14" font-style="italic" lengthAdjust="spacing" textLength="87.9307" x="652.5" y="1082.7285">VetRepository</text><line style="stroke:#181818;stroke-width:0.5;" x1="624.5" x2="742.4307" y1="1093" y2="1093"/><line style="stroke:#181818;stroke-width:0.5;" x1="624.5" x2="742.4307" y1="1101" y2="1101"/></g><!--class VetResource--><g class="entity" data-entity="VetResource" data-source-line="69" data-uid="ent0025" id="entity_VetResource"><rect fill="#F1F1F1" height="65.6094" rx="2.5" ry="2.5" style="stroke:#181818;stroke-width:0.5;" width="161.0098" x="47" y="1052"/><ellipse cx="83.6356" cy="1068" fill="#ADD1B2" rx="11" ry="11" style="stroke:#181818;stroke-width:1;"/><path d="M86.4012,1063.875 Q86.5575,1063.6563 86.745,1063.5469 Q86.9325,1063.4375 87.1512,1063.4375 Q87.5262,1063.4375 87.7606,1063.7031 Q87.995,1063.9531 87.995,1064.5625 L87.995,1066.0156 Q87.995,1066.625 87.7606,1066.8906 Q87.5262,1067.1563 87.1512,1067.1563 Q86.8075,1067.1563 86.6043,1066.9531 Q86.4012,1066.7656 86.2918,1066.25 Q86.245,1065.8906 86.0575,1065.7031 Q85.7293,1065.3281 85.12,1065.1094 Q84.5106,1064.8906 83.8856,1064.8906 Q83.12,1064.8906 82.4793,1065.2188 Q81.8543,1065.5469 81.3543,1066.2969 Q80.87,1067.0469 80.87,1068.0781 L80.87,1069.1719 Q80.87,1070.4063 81.7606,1071.2344 Q82.6512,1072.0469 84.245,1072.0469 Q85.1825,1072.0469 85.8387,1071.7969 Q86.2293,1071.6406 86.6512,1071.2031 Q86.9168,1070.9375 87.0575,1070.8594 Q87.2137,1070.7813 87.4168,1070.7813 Q87.745,1070.7813 87.995,1071.0469 Q88.2606,1071.2969 88.2606,1071.6406 Q88.2606,1071.9844 87.9168,1072.3906 Q87.4168,1072.9688 86.62,1073.2969 Q85.5418,1073.75 84.245,1073.75 Q82.7293,1073.75 81.5262,1073.125 Q80.5418,1072.625 79.8543,1071.5625 Q79.1668,1070.4844 79.1668,1069.2031 L79.1668,1068.0469 Q79.1668,1066.7188 79.7762,1065.5781 Q80.4012,1064.4219 81.495,1063.8125 Q82.5887,1063.1875 83.8231,1063.1875 Q84.5575,1063.1875 85.1981,1063.3594 Q85.8543,1063.5156 86.4012,1063.875 Z " fill="#000000"/><text fill="#000000" font-family="sans-serif" font-size="14" lengthAdjust="spacing" textLength="80.9307" x="102.4435" y="1073.7285">VetResource</text><line style="stroke:#181818;stroke-width:0.5;" x1="48" x2="207.0098" y1="1084" y2="1084"/><text fill="#000000" font-family="sans-serif" font-size="14" lengthAdjust="spacing" textLength="149.0098" x="53" y="1102.5332">+vetService: VetService</text><line style="stroke:#181818;stroke-width:0.5;" x1="48" x2="207.0098" y1="1109.6094" y2="1109.6094"/></g><!--class VetService--><g class="entity" data-entity="VetService" data-source-line="72" data-uid="ent0026" id="entity_VetService"><rect fill="#F1F1F1" height="65.6094" rx="2.5" ry="2.5" style="stroke:#181818;stroke-width:0.5;" width="201.4785" x="312" y="1052"/><ellipse cx="374.6411" cy="1068" fill="#ADD1B2" rx="11" ry="11" style="stroke:#181818;stroke-width:1;"/><path d="M377.4067,1063.875 Q377.563,1063.6563 377.7505,1063.5469 Q377.938,1063.4375 378.1567,1063.4375 Q378.5317,1063.4375 378.7661,1063.7031 Q379.0005,1063.9531 379.0005,1064.5625 L379.0005,1066.0156 Q379.0005,1066.625 378.7661,1066.8906 Q378.5317,1067.1563 378.1567,1067.1563 Q377.813,1067.1563 377.6099,1066.9531 Q377.4067,1066.7656 377.2974,1066.25 Q377.2505,1065.8906 377.063,1065.7031 Q376.7349,1065.3281 376.1255,1065.1094 Q375.5161,1064.8906 374.8911,1064.8906 Q374.1255,1064.8906 373.4849,1065.2188 Q372.8599,1065.5469 372.3599,1066.2969 Q371.8755,1067.0469 371.8755,1068.0781 L371.8755,1069.1719 Q371.8755,1070.4063 372.7661,1071.2344 Q373.6567,1072.0469 375.2505,1072.0469 Q376.188,1072.0469 376.8442,1071.7969 Q377.2349,1071.6406 377.6567,1071.2031 Q377.9224,1070.9375 378.063,1070.8594 Q378.2192,1070.7813 378.4224,1070.7813 Q378.7505,1070.7813 379.0005,1071.0469 Q379.2661,1071.2969 379.2661,1071.6406 Q379.2661,1071.9844 378.9224,1072.3906 Q378.4224,1072.9688 377.6255,1073.2969 Q376.5474,1073.75 375.2505,1073.75 Q373.7349,1073.75 372.5317,1073.125 Q371.5474,1072.625 370.8599,1071.5625 Q370.1724,1070.4844 370.1724,1069.2031 L370.1724,1068.0469 Q370.1724,1066.7188 370.7817,1065.5781 Q371.4067,1064.4219 372.5005,1063.8125 Q373.5942,1063.1875 374.8286,1063.1875 Q375.563,1063.1875 376.2036,1063.3594 Q376.8599,1063.5156 377.4067,1063.875 Z " fill="#000000"/><text fill="#000000" font-family="sans-serif" font-size="14" lengthAdjust="spacing" textLength="67.6963" x="395.1411" y="1073.7285">VetService</text><line style="stroke:#181818;stroke-width:0.5;" x1="313" x2="512.4785" y1="1084" y2="1084"/><text fill="#000000" font-family="sans-serif" font-size="14" lengthAdjust="spacing" textLength="189.4785" x="318" y="1102.5332">+vetRepository: VetRepository</text><line style="stroke:#181818;stroke-width:0.5;" x1="313" x2="512.4785" y1="1109.6094" y2="1109.6094"/></g><!--class Vets--><g class="entity" data-entity="Vets" data-source-line="75" data-uid="ent0027" id="entity_Vets"><rect fill="#F1F1F1" height="65.6094" rx="2.5" ry="2.5" style="stroke:#181818;stroke-width:0.5;" width="75.417" x="375" y="126"/><ellipse cx="396.9315" cy="142" fill="#ADD1B2" rx="11" ry="11" style="stroke:#181818;stroke-width:1;"/><path d="M399.6971,137.875 Q399.8534,137.6563 400.0409,137.5469 Q400.2284,137.4375 400.4471,137.4375 Q400.8221,137.4375 401.0565,137.7031 Q401.2909,137.9531 401.2909,138.5625 L401.2909,140.0156 Q401.2909,140.625 401.0565,140.8906 Q400.8221,141.1563 400.4471,141.1563 Q400.1034,141.1563 399.9002,140.9531 Q399.6971,140.7656 399.5877,140.25 Q399.5409,139.8906 399.3534,139.7031 Q399.0252,139.3281 398.4159,139.1094 Q397.8065,138.8906 397.1815,138.8906 Q396.4159,138.8906 395.7752,139.2188 Q395.1502,139.5469 394.6502,140.2969 Q394.1659,141.0469 394.1659,142.0781 L394.1659,143.1719 Q394.1659,144.4063 395.0565,145.2344 Q395.9471,146.0469 397.5409,146.0469 Q398.4784,146.0469 399.1346,145.7969 Q399.5252,145.6406 399.9471,145.2031 Q400.2127,144.9375 400.3534,144.8594 Q400.5096,144.7813 400.7127,144.7813 Q401.0409,144.7813 401.2909,145.0469 Q401.5565,145.2969 401.5565,145.6406 Q401.5565,145.9844 401.2127,146.3906 Q400.7127,146.9688 399.9159,147.2969 Q398.8377,147.75 397.5409,147.75 Q396.0252,147.75 394.8221,147.125 Q393.8377,146.625 393.1502,145.5625 Q392.4627,144.4844 392.4627,143.2031 L392.4627,142.0469 Q392.4627,140.7188 393.0721,139.5781 Q393.6971,138.4219 394.7909,137.8125 Q395.8846,137.1875 397.119,137.1875 Q397.8534,137.1875 398.494,137.3594 Q399.1502,137.5156 399.6971,137.875 Z " fill="#000000"/><text fill="#000000" font-family="sans-serif" font-size="14" lengthAdjust="spacing" textLength="28.0137" x="412.4718" y="147.7285">Vets</text><line style="stroke:#181818;stroke-width:0.5;" x1="376" x2="449.417" y1="158" y2="158"/><text fill="#000000" font-family="sans-serif" font-size="14" lengthAdjust="spacing" textLength="63.417" x="381" y="176.5332">+vets: List</text><line style="stroke:#181818;stroke-width:0.5;" x1="376" x2="449.417" y1="183.6094" y2="183.6094"/></g><!--class VetsProperties--><g class="entity" data-entity="VetsProperties" data-source-line="78" data-uid="ent0028" id="entity_VetsProperties"><rect fill="#F1F1F1" height="65.6094" rx="2.5" ry="2.5" style="stroke:#181818;stroke-width:0.5;" width="123.8203" x="350.5" y="749"/><ellipse cx="365.5" cy="765" fill="#ADD1B2" rx="11" ry="11" style="stroke:#181818;stroke-width:1;"/><path d="M368.2656,760.875 Q368.4219,760.6563 368.6094,760.5469 Q368.7969,760.4375 369.0156,760.4375 Q369.3906,760.4375 369.625,760.7031 Q369.8594,760.9531 369.8594,761.5625 L369.8594,763.0156 Q369.8594,763.625 369.625,763.8906 Q369.3906,764.1563 369.0156,764.1563 Q368.6719,764.1563 368.4688,763.9531 Q368.2656,763.7656 368.1563,763.25 Q368.1094,762.8906 367.9219,762.7031 Q367.5938,762.3281 366.9844,762.1094 Q366.375,761.8906 365.75,761.8906 Q364.9844,761.8906 364.3438,762.2188 Q363.7188,762.5469 363.2188,763.2969 Q362.7344,764.0469 362.7344,765.0781 L362.7344,766.1719 Q362.7344,767.4063 363.625,768.2344 Q364.5156,769.0469 366.1094,769.0469 Q367.0469,769.0469 367.7031,768.7969 Q368.0938,768.6406 368.5156,768.2031 Q368.7813,767.9375 368.9219,767.8594 Q369.0781,767.7813 369.2813,767.7813 Q369.6094,767.7813 369.8594,768.0469 Q370.125,768.2969 370.125,768.6406 Q370.125,768.9844 369.7813,769.3906 Q369.2813,769.9688 368.4844,770.2969 Q367.4063,770.75 366.1094,770.75 Q364.5938,770.75 363.3906,770.125 Q362.4063,769.625 361.7188,768.5625 Q361.0313,767.4844 361.0313,766.2031 L361.0313,765.0469 Q361.0313,763.7188 361.6406,762.5781 Q362.2656,761.4219 363.3594,760.8125 Q364.4531,760.1875 365.6875,760.1875 Q366.4219,760.1875 367.0625,760.3594 Q367.7188,760.5156 368.2656,760.875 Z " fill="#000000"/><text fill="#000000" font-family="sans-serif" font-size="14" lengthAdjust="spacing" textLength="91.8203" x="379.5" y="770.7285">VetsProperties</text><line style="stroke:#181818;stroke-width:0.5;" x1="351.5" x2="473.3203" y1="781" y2="781"/><text fill="#000000" font-family="sans-serif" font-size="14" lengthAdjust="spacing" textLength="93.7822" x="356.5" y="799.5332">+cache: Cache</text><line style="stroke:#181818;stroke-width:0.5;" x1="351.5" x2="473.3203" y1="806.6094" y2="806.6094"/></g><!--class VetsServiceApplication--><g class="entity" data-entity="VetsServiceApplication" data-source-line="81" data-uid="ent0029" id="entity_VetsServiceApplication"><rect fill="#F1F1F1" height="48" rx="2.5" ry="2.5" style="stroke:#181818;stroke-width:0.5;" width="175.1855" x="325" y="43"/><ellipse cx="340" cy="59" fill="#ADD1B2" rx="11" ry="11" style="stroke:#181818;stroke-width:1;"/><path d="M342.7656,54.875 Q342.9219,54.6563 343.1094,54.5469 Q343.2969,54.4375 343.5156,54.4375 Q343.8906,54.4375 344.125,54.7031 Q344.3594,54.9531 344.3594,55.5625 L344.3594,57.0156 Q344.3594,57.625 344.125,57.8906 Q343.8906,58.1563 343.5156,58.1563 Q343.1719,58.1563 342.9688,57.9531 Q342.7656,57.7656 342.6563,57.25 Q342.6094,56.8906 342.4219,56.7031 Q342.0938,56.3281 341.4844,56.1094 Q340.875,55.8906 340.25,55.8906 Q339.4844,55.8906 338.8438,56.2188 Q338.2188,56.5469 337.7188,57.2969 Q337.2344,58.0469 337.2344,59.0781 L337.2344,60.1719 Q337.2344,61.4063 338.125,62.2344 Q339.0156,63.0469 340.6094,63.0469 Q341.5469,63.0469 342.2031,62.7969 Q342.5938,62.6406 343.0156,62.2031 Q343.2813,61.9375 343.4219,61.8594 Q343.5781,61.7813 343.7813,61.7813 Q344.1094,61.7813 344.3594,62.0469 Q344.625,62.2969 344.625,62.6406 Q344.625,62.9844 344.2813,63.3906 Q343.7813,63.9688 342.9844,64.2969 Q341.9063,64.75 340.6094,64.75 Q339.0938,64.75 337.8906,64.125 Q336.9063,63.625 336.2188,62.5625 Q335.5313,61.4844 335.5313,60.2031 L335.5313,59.0469 Q335.5313,57.7188 336.1406,56.5781 Q336.7656,55.4219 337.8594,54.8125 Q338.9531,54.1875 340.1875,54.1875 Q340.9219,54.1875 341.5625,54.3594 Q342.2188,54.5156 342.7656,54.875 Z " fill="#000000"/><text fill="#000000" font-family="sans-serif" font-size="14" lengthAdjust="spacing" textLength="143.1855" x="354" y="64.7285">VetsServiceApplication</text><line style="stroke:#181818;stroke-width:0.5;" x1="326" x2="499.1855" y1="75" y2="75"/><line style="stroke:#181818;stroke-width:0.5;" x1="326" x2="499.1855" y1="83" y2="83"/></g><!--class Visit--><g class="entity" data-entity="Visit" data-source-line="83" data-uid="ent0030" id="entity_Visit"><rect fill="#F1F1F1" height="100.8281" rx="2.5" ry="2.5" style="stroke:#181818;stroke-width:0.5;" width="132.2305" x="346.5" y="393.5"/><ellipse cx="395.1411" cy="409.5" fill="#ADD1B2" rx="11" ry="11" style="stroke:#181818;stroke-width:1;"/><path d="M397.9067,405.375 Q398.063,405.1563 398.2505,405.0469 Q398.438,404.9375 398.6567,404.9375 Q399.0317,404.9375 399.2661,405.2031 Q399.5005,405.4531 399.5005,406.0625 L399.5005,407.5156 Q399.5005,408.125 399.2661,408.3906 Q399.0317,408.6563 398.6567,408.6563 Q398.313,408.6563 398.1099,408.4531 Q397.9067,408.2656 397.7974,407.75 Q397.7505,407.3906 397.563,407.2031 Q397.2349,406.8281 396.6255,406.6094 Q396.0161,406.3906 395.3911,406.3906 Q394.6255,406.3906 393.9849,406.7188 Q393.3599,407.0469 392.8599,407.7969 Q392.3755,408.5469 392.3755,409.5781 L392.3755,410.6719 Q392.3755,411.9063 393.2661,412.7344 Q394.1567,413.5469 395.7505,413.5469 Q396.688,413.5469 397.3442,413.2969 Q397.7349,413.1406 398.1567,412.7031 Q398.4224,412.4375 398.563,412.3594 Q398.7192,412.2813 398.9224,412.2813 Q399.2505,412.2813 399.5005,412.5469 Q399.7661,412.7969 399.7661,413.1406 Q399.7661,413.4844 399.4224,413.8906 Q398.9224,414.4688 398.1255,414.7969 Q397.0474,415.25 395.7505,415.25 Q394.2349,415.25 393.0317,414.625 Q392.0474,414.125 391.3599,413.0625 Q390.6724,411.9844 390.6724,410.7031 L390.6724,409.5469 Q390.6724,408.2188 391.2817,407.0781 Q391.9067,405.9219 393.0005,405.3125 Q394.0942,404.6875 395.3286,404.6875 Q396.063,404.6875 396.7036,404.8594 Q397.3599,405.0156 397.9067,405.375 Z " fill="#000000"/><text fill="#000000" font-family="sans-serif" font-size="14" lengthAdjust="spacing" textLength="26.4482" x="415.6411" y="415.2285">Visit</text><line style="stroke:#181818;stroke-width:0.5;" x1="347.5" x2="477.7305" y1="425.5" y2="425.5"/><text fill="#000000" font-family="sans-serif" font-size="14" lengthAdjust="spacing" textLength="72.7754" x="352.5" y="444.0332">+date: Date</text><text fill="#000000" font-family="sans-serif" font-size="14" lengthAdjust="spacing" textLength="120.2305" x="352.5" y="461.6426">+description: String</text><text fill="#000000" font-family="sans-serif" font-size="14" lengthAdjust="spacing" textLength="61.8789" x="352.5" y="479.252">+petId: int</text><line style="stroke:#181818;stroke-width:0.5;" x1="347.5" x2="477.7305" y1="486.3281" y2="486.3281"/></g><!--class VisitRepository--><g class="entity" data-entity="VisitRepository" data-source-line="88" data-uid="ent0031" id="entity_VisitRepository"><rect fill="#F1F1F1" height="48" rx="2.5" ry="2.5" style="stroke:#181818;stroke-width:0.5;" width="125.3652" x="621" y="1162"/><ellipse cx="636" cy="1178" fill="#B4A7E5" rx="11" ry="11" style="stroke:#181818;stroke-width:1;"/><path d="M636.9531,1174.6406 L636.9531,1181.2969 L638.6719,1181.2969 Q639.2813,1181.2969 639.5469,1181.5313 Q639.8125,1181.7656 639.8125,1182.1563 Q639.8125,1182.5313 639.5469,1182.7656 Q639.2813,1183 638.6719,1183 L633.5313,1183 Q632.9219,1183 632.6563,1182.7656 Q632.3906,1182.5313 632.3906,1182.1406 Q632.3906,1181.7656 632.6563,1181.5313 Q632.9219,1181.2969 633.5313,1181.2969 L635.25,1181.2969 L635.25,1174.6406 L633.5313,1174.6406 Q632.9219,1174.6406 632.6563,1174.4063 Q632.3906,1174.1719 632.3906,1173.7813 Q632.3906,1173.4063 632.6563,1173.1719 Q632.9219,1172.9375 633.5313,1172.9375 L638.6719,1172.9375 Q639.2813,1172.9375 639.5469,1173.1719 Q639.8125,1173.4063 639.8125,1173.7813 Q639.8125,1174.1719 639.5469,1174.4063 Q639.2813,1174.6406 638.6719,1174.6406 L636.9531,1174.6406 Z " fill="#000000"/><text fill="#000000" font-family="sans-serif" font-size="14" font-style="italic" lengthAdjust="spacing" textLength="93.3652" x="650" y="1183.7285">VisitRepository</text><line style="stroke:#181818;stroke-width:0.5;" x1="622" x2="745.3652" y1="1194" y2="1194"/><line style="stroke:#181818;stroke-width:0.5;" x1="622" x2="745.3652" y1="1202" y2="1202"/></g><!--class VisitResource--><g class="entity" data-entity="VisitResource" data-source-line="90" data-uid="ent0032" id="entity_VisitResource"><rect fill="#F1F1F1" height="65.6094" rx="2.5" ry="2.5" style="stroke:#181818;stroke-width:0.5;" width="171.8789" x="41.5" y="1153"/><ellipse cx="80.5812" cy="1169" fill="#ADD1B2" rx="11" ry="11" style="stroke:#181818;stroke-width:1;"/><path d="M83.3468,1164.875 Q83.503,1164.6563 83.6905,1164.5469 Q83.878,1164.4375 84.0968,1164.4375 Q84.4718,1164.4375 84.7062,1164.7031 Q84.9405,1164.9531 84.9405,1165.5625 L84.9405,1167.0156 Q84.9405,1167.625 84.7062,1167.8906 Q84.4718,1168.1563 84.0968,1168.1563 Q83.753,1168.1563 83.5499,1167.9531 Q83.3468,1167.7656 83.2374,1167.25 Q83.1905,1166.8906 83.003,1166.7031 Q82.6749,1166.3281 82.0655,1166.1094 Q81.4562,1165.8906 80.8312,1165.8906 Q80.0655,1165.8906 79.4249,1166.2188 Q78.7999,1166.5469 78.2999,1167.2969 Q77.8155,1168.0469 77.8155,1169.0781 L77.8155,1170.1719 Q77.8155,1171.4063 78.7062,1172.2344 Q79.5968,1173.0469 81.1905,1173.0469 Q82.128,1173.0469 82.7843,1172.7969 Q83.1749,1172.6406 83.5968,1172.2031 Q83.8624,1171.9375 84.003,1171.8594 Q84.1593,1171.7813 84.3624,1171.7813 Q84.6905,1171.7813 84.9405,1172.0469 Q85.2062,1172.2969 85.2062,1172.6406 Q85.2062,1172.9844 84.8624,1173.3906 Q84.3624,1173.9688 83.5655,1174.2969 Q82.4874,1174.75 81.1905,1174.75 Q79.6749,1174.75 78.4718,1174.125 Q77.4874,1173.625 76.7999,1172.5625 Q76.1124,1171.4844 76.1124,1170.2031 L76.1124,1169.0469 Q76.1124,1167.7188 76.7218,1166.5781 Q77.3468,1165.4219 78.4405,1164.8125 Q79.5343,1164.1875 80.7687,1164.1875 Q81.503,1164.1875 82.1437,1164.3594 Q82.7999,1164.5156 83.3468,1164.875 Z " fill="#000000"/><text fill="#000000" font-family="sans-serif" font-size="14" lengthAdjust="spacing" textLength="86.3652" x="99.9325" y="1174.7285">VisitResource</text><line style="stroke:#181818;stroke-width:0.5;" x1="42.5" x2="212.3789" y1="1185" y2="1185"/><text fill="#000000" font-family="sans-serif" font-size="14" lengthAdjust="spacing" textLength="159.8789" x="47.5" y="1203.5332">+visitService: VisitService</text><line style="stroke:#181818;stroke-width:0.5;" x1="42.5" x2="212.3789" y1="1210.6094" y2="1210.6094"/></g><!--class VisitService--><g class="entity" data-entity="VisitService" data-source-line="93" data-uid="ent0033" id="entity_VisitService"><rect fill="#F1F1F1" height="65.6094" rx="2.5" ry="2.5" style="stroke:#181818;stroke-width:0.5;" width="212.3477" x="306.5" y="1153"/><ellipse cx="371.8584" cy="1169" fill="#ADD1B2" rx="11" ry="11" style="stroke:#181818;stroke-width:1;"/><path d="M374.624,1164.875 Q374.7803,1164.6563 374.9678,1164.5469 Q375.1553,1164.4375 375.374,1164.4375 Q375.749,1164.4375 375.9834,1164.7031 Q376.2178,1164.9531 376.2178,1165.5625 L376.2178,1167.0156 Q376.2178,1167.625 375.9834,1167.8906 Q375.749,1168.1563 375.374,1168.1563 Q375.0303,1168.1563 374.8271,1167.9531 Q374.624,1167.7656 374.5146,1167.25 Q374.4678,1166.8906 374.2803,1166.7031 Q373.9521,1166.3281 373.3428,1166.1094 Q372.7334,1165.8906 372.1084,1165.8906 Q371.3428,1165.8906 370.7021,1166.2188 Q370.0771,1166.5469 369.5771,1167.2969 Q369.0928,1168.0469 369.0928,1169.0781 L369.0928,1170.1719 Q369.0928,1171.4063 369.9834,1172.2344 Q370.874,1173.0469 372.4678,1173.0469 Q373.4053,1173.0469 374.0615,1172.7969 Q374.4521,1172.6406 374.874,1172.2031 Q375.1396,1171.9375 375.2803,1171.8594 Q375.4365,1171.7813 375.6396,1171.7813 Q375.9678,1171.7813 376.2178,1172.0469 Q376.4834,1172.2969 376.4834,1172.6406 Q376.4834,1172.9844 376.1396,1173.3906 Q375.6396,1173.9688 374.8428,1174.2969 Q373.7646,1174.75 372.4678,1174.75 Q370.9521,1174.75 369.749,1174.125 Q368.7646,1173.625 368.0771,1172.5625 Q367.3896,1171.4844 367.3896,1170.2031 L367.3896,1169.0469 Q367.3896,1167.7188 367.999,1166.5781 Q368.624,1165.4219 369.7178,1164.8125 Q370.8115,1164.1875 372.0459,1164.1875 Q372.7803,1164.1875 373.4209,1164.3594 Q374.0771,1164.5156 374.624,1164.875 Z " fill="#000000"/><text fill="#000000" font-family="sans-serif" font-size="14" lengthAdjust="spacing" textLength="73.1309" x="392.3584" y="1174.7285">VisitService</text><line style="stroke:#181818;stroke-width:0.5;" x1="307.5" x2="517.8477" y1="1185" y2="1185"/><text fill="#000000" font-family="sans-serif" font-size="14" lengthAdjust="spacing" textLength="200.3477" x="312.5" y="1203.5332">+visitRepository: VisitRepository</text><line style="stroke:#181818;stroke-width:0.5;" x1="307.5" x2="517.8477" y1="1210.6094" y2="1210.6094"/></g><!--class VisitsServiceApplication--><g class="entity" data-entity="VisitsServiceApplication" data-source-line="96" data-uid="ent0034" id="entity_VisitsServiceApplication"><rect fill="#F1F1F1" height="48" rx="2.5" ry="2.5" style="stroke:#181818;stroke-width:0.5;" width="180.6201" x="593" y="315"/><ellipse cx="608" cy="331" fill="#ADD1B2" rx="11" ry="11" style="stroke:#181818;stroke-width:1;"/><path d="M610.7656,326.875 Q610.9219,326.6563 611.1094,326.5469 Q611.2969,326.4375 611.5156,326.4375 Q611.8906,326.4375 612.125,326.7031 Q612.3594,326.9531 612.3594,327.5625 L612.3594,329.0156 Q612.3594,329.625 612.125,329.8906 Q611.8906,330.1563 611.5156,330.1563 Q611.1719,330.1563 610.9688,329.9531 Q610.7656,329.7656 610.6563,329.25 Q610.6094,328.8906 610.4219,328.7031 Q610.0938,328.3281 609.4844,328.1094 Q608.875,327.8906 608.25,327.8906 Q607.4844,327.8906 606.8438,328.2188 Q606.2188,328.5469 605.7188,329.2969 Q605.2344,330.0469 605.2344,331.0781 L605.2344,332.1719 Q605.2344,333.4063 606.125,334.2344 Q607.0156,335.0469 608.6094,335.0469 Q609.5469,335.0469 610.2031,334.7969 Q610.5938,334.6406 611.0156,334.2031 Q611.2813,333.9375 611.4219,333.8594 Q611.5781,333.7813 611.7813,333.7813 Q612.1094,333.7813 612.3594,334.0469 Q612.625,334.2969 612.625,334.6406 Q612.625,334.9844 612.2813,335.3906 Q611.7813,335.9688 610.9844,336.2969 Q609.9063,336.75 608.6094,336.75 Q607.0938,336.75 605.8906,336.125 Q604.9063,335.625 604.2188,334.5625 Q603.5313,333.4844 603.5313,332.2031 L603.5313,331.0469 Q603.5313,329.7188 604.1406,328.5781 Q604.7656,327.4219 605.8594,326.8125 Q606.9531,326.1875 608.1875,326.1875 Q608.9219,326.1875 609.5625,326.3594 Q610.2188,326.5156 610.7656,326.875 Z " fill="#000000"/><text fill="#000000" font-family="sans-serif" font-size="14" lengthAdjust="spacing" textLength="148.6201" x="622" y="336.7285">VisitsServiceApplication</text><line style="stroke:#181818;stroke-width:0.5;" x1="594" x2="772.6201" y1="347" y2="347"/><line style="stroke:#181818;stroke-width:0.5;" x1="594" x2="772.6201" y1="355" y2="355"/></g><!--class WebConfig--><g class="entity" data-entity="WebConfig" data-source-line="98" data-uid="ent0035" id="entity_WebConfig"><rect fill="#F1F1F1" height="48" rx="2.5" ry="2.5" style="stroke:#181818;stroke-width:0.5;" width="101.2549" x="633" y="232"/><ellipse cx="648" cy="248" fill="#ADD1B2" rx="11" ry="11" style="stroke:#181818;stroke-width:1;"/><path d="M650.7656,243.875 Q650.9219,243.6563 651.1094,243.5469 Q651.2969,243.4375 651.5156,243.4375 Q651.8906,243.4375 652.125,243.7031 Q652.3594,243.9531 652.3594,244.5625 L652.3594,246.0156 Q652.3594,246.625 652.125,246.8906 Q651.8906,247.1563 651.5156,247.1563 Q651.1719,247.1563 650.9688,246.9531 Q650.7656,246.7656 650.6563,246.25 Q650.6094,245.8906 650.4219,245.7031 Q650.0938,245.3281 649.4844,245.1094 Q648.875,244.8906 648.25,244.8906 Q647.4844,244.8906 646.8438,245.2188 Q646.2188,245.5469 645.7188,246.2969 Q645.2344,247.0469 645.2344,248.0781 L645.2344,249.1719 Q645.2344,250.4063 646.125,251.2344 Q647.0156,252.0469 648.6094,252.0469 Q649.5469,252.0469 650.2031,251.7969 Q650.5938,251.6406 651.0156,251.2031 Q651.2813,250.9375 651.4219,250.8594 Q651.5781,250.7813 651.7813,250.7813 Q652.1094,250.7813 652.3594,251.0469 Q652.625,251.2969 652.625,251.6406 Q652.625,251.9844 652.2813,252.3906 Q651.7813,252.9688 650.9844,253.2969 Q649.9063,253.75 648.6094,253.75 Q647.0938,253.75 645.8906,253.125 Q644.9063,252.625 644.2188,251.5625 Q643.5313,250.4844 643.5313,249.2031 L643.5313,248.0469 Q643.5313,246.7188 644.1406,245.5781 Q644.7656,244.4219 645.8594,243.8125 Q646.9531,243.1875 648.1875,243.1875 Q648.9219,243.1875 649.5625,243.3594 Q650.2188,243.5156 650.7656,243.875 Z " fill="#000000"/><text fill="#000000" font-family="sans-serif" font-size="14" lengthAdjust="spacing" textLength="69.2549" x="662" y="253.7285">WebConfig</text><line style="stroke:#181818;stroke-width:0.5;" x1="634" x2="733.2549" y1="264" y2="264"/><line style="stroke:#181818;stroke-width:0.5;" x1="634" x2="733.2549" y1="272" y2="272"/></g><!--class Monitored--><g class="entity" data-entity="Monitored" data-source-line="100" data-uid="ent0036" id="entity_Monitored"><rect fill="#90EE90" height="58.7031" rx="2.5" ry="2.5" style="stroke:#181818;stroke-width:0.5;" width="94.2549" x="636.5" y="137.5"/><ellipse cx="651.5" cy="158.8516" fill="#ADD1B2" rx="11" ry="11" style="stroke:#181818;stroke-width:1;"/><path d="M654.2656,154.7266 Q654.4219,154.5078 654.6094,154.3984 Q654.7969,154.2891 655.0156,154.2891 Q655.3906,154.2891 655.625,154.5547 Q655.8594,154.8047 655.8594,155.4141 L655.8594,156.8672 Q655.8594,157.4766 655.625,157.7422 Q655.3906,158.0078 655.0156,158.0078 Q654.6719,158.0078 654.4688,157.8047 Q654.2656,157.6172 654.1563,157.1016 Q654.1094,156.7422 653.9219,156.5547 Q653.5938,156.1797 652.9844,155.9609 Q652.375,155.7422 651.75,155.7422 Q650.9844,155.7422 650.3438,156.0703 Q649.7188,156.3984 649.2188,157.1484 Q648.7344,157.8984 648.7344,158.9297 L648.7344,160.0234 Q648.7344,161.2578 649.625,162.0859 Q650.5156,162.8984 652.1094,162.8984 Q653.0469,162.8984 653.7031,162.6484 Q654.0938,162.4922 654.5156,162.0547 Q654.7813,161.7891 654.9219,161.7109 Q655.0781,161.6328 655.2813,161.6328 Q655.6094,161.6328 655.8594,161.8984 Q656.125,162.1484 656.125,162.4922 Q656.125,162.8359 655.7813,163.2422 Q655.2813,163.8203 654.4844,164.1484 Q653.4063,164.6016 652.1094,164.6016 Q650.5938,164.6016 649.3906,163.9766 Q648.4063,163.4766 647.7188,162.4141 Q647.0313,161.3359 647.0313,160.0547 L647.0313,158.8984 Q647.0313,157.5703 647.6406,156.4297 Q648.2656,155.2734 649.3594,154.6641 Q650.4531,154.0391 651.6875,154.0391 Q652.4219,154.0391 653.0625,154.2109 Q653.7188,154.3672 654.2656,154.7266 Z " fill="#000000"/><text fill="#000000" font-family="sans-serif" font-size="12" font-style="italic" lengthAdjust="spacing" textLength="55.3535" x="668.9507" y="154.957">&#171;ADDED&#187;</text><text fill="#000000" font-family="sans-serif" font-size="14" lengthAdjust="spacing" textLength="62.2549" x="665.5" y="172.127">Monitored</text><line style="stroke:#181818;stroke-width:0.5;" x1="637.5" x2="729.7549" y1="180.2031" y2="180.2031"/><line style="stroke:#181818;stroke-width:0.5;" x1="637.5" x2="729.7549" y1="188.2031" y2="188.2031"/></g><!--class MonitoringConfig--><g class="entity" data-entity="MonitoringConfig" data-source-line="102" data-uid="ent0037" id="entity_MonitoringConfig"><rect fill="#90EE90" height="58.7031" rx="2.5" ry="2.5" style="stroke:#181818;stroke-width:0.5;" width="137.834" x="614.5" y="43.5"/><ellipse cx="629.5" cy="64.8516" fill="#ADD1B2" rx="11" ry="11" style="stroke:#181818;stroke-width:1;"/><path d="M632.2656,60.7266 Q632.4219,60.5078 632.6094,60.3984 Q632.7969,60.2891 633.0156,60.2891 Q633.3906,60.2891 633.625,60.5547 Q633.8594,60.8047 633.8594,61.4141 L633.8594,62.8672 Q633.8594,63.4766 633.625,63.7422 Q633.3906,64.0078 633.0156,64.0078 Q632.6719,64.0078 632.4688,63.8047 Q632.2656,63.6172 632.1563,63.1016 Q632.1094,62.7422 631.9219,62.5547 Q631.5938,62.1797 630.9844,61.9609 Q630.375,61.7422 629.75,61.7422 Q628.9844,61.7422 628.3438,62.0703 Q627.7188,62.3984 627.2188,63.1484 Q626.7344,63.8984 626.7344,64.9297 L626.7344,66.0234 Q626.7344,67.2578 627.625,68.0859 Q628.5156,68.8984 630.1094,68.8984 Q631.0469,68.8984 631.7031,68.6484 Q632.0938,68.4922 632.5156,68.0547 Q632.7813,67.7891 632.9219,67.7109 Q633.0781,67.6328 633.2813,67.6328 Q633.6094,67.6328 633.8594,67.8984 Q634.125,68.1484 634.125,68.4922 Q634.125,68.8359 633.7813,69.2422 Q633.2813,69.8203 632.4844,70.1484 Q631.4063,70.6016 630.1094,70.6016 Q628.5938,70.6016 627.3906,69.9766 Q626.4063,69.4766 625.7188,68.4141 Q625.0313,67.3359 625.0313,66.0547 L625.0313,64.8984 Q625.0313,63.5703 625.6406,62.4297 Q626.2656,61.2734 627.3594,60.6641 Q628.4531,60.0391 629.6875,60.0391 Q630.4219,60.0391 631.0625,60.2109 Q631.7188,60.3672 632.2656,60.7266 Z " fill="#000000"/><text fill="#000000" font-family="sans-serif" font-size="12" font-style="italic" lengthAdjust="spacing" textLength="55.3535" x="668.7402" y="60.957">&#171;ADDED&#187;</text><text fill="#000000" font-family="sans-serif" font-size="14" lengthAdjust="spacing" textLength="105.834" x="643.5" y="78.127">MonitoringConfig</text><line style="stroke:#181818;stroke-width:0.5;" x1="615.5" x2="751.334" y1="86.2031" y2="86.2031"/><line style="stroke:#181818;stroke-width:0.5;" x1="615.5" x2="751.334" y1="94.2031" y2="94.2031"/></g><!--reverse link BaseEntity to NamedEntity--><g class="link" data-entity-1="BaseEntity" data-entity-2="NamedEntity" data-source-line="105" data-uid="lnk38" id="link_BaseEntity_NamedEntity"><path codeLine="105" d="M193.9271,596.4314 C243.7071,615.7814 304.16,639.28 356.22,659.51" fill="none" id="BaseEntity-backto-NamedEntity" style="stroke:#181818;stroke-width:1;"/><polygon fill="none" points="177.15,589.91,191.7533,602.0238,196.1009,590.8391,177.15,589.91" style="stroke:#181818;stroke-width:1;"/></g><!--reverse link BaseEntity to Person--><g class="link" data-entity-1="BaseEntity" data-entity-2="Person" data-source-line="106" data-uid="lnk39" id="link_BaseEntity_Person"><path codeLine="106" d="M195.15,571 C243.11,571 298.56,571 350.42,571" fill="none" id="BaseEntity-backto-Person" style="stroke:#181818;stroke-width:1;"/><polygon fill="none" points="177.15,571,195.15,577,195.15,565,177.15,571" style="stroke:#181818;stroke-width:1;"/></g><!--reverse link BaseEntity to Visit--><g class="link" data-entity-1="BaseEntity" data-entity-2="Visit" data-source-line="107" data-uid="lnk40" id="link_BaseEntity_Visit"><path codeLine="107" d="M193.5718,541.7995 C240.2718,520.8395 294.71,496.41 346.28,473.27" fill="none" id="BaseEntity-backto-Visit" style="stroke:#181818;stroke-width:1;"/><polygon fill="none" points="177.15,549.17,196.0286,547.2735,191.115,536.3256,177.15,549.17" style="stroke:#181818;stroke-width:1;"/></g><!--link CacheConfig to VetsProperties--><g class="link" data-entity-1="CacheConfig" data-entity-2="VetsProperties" data-source-line="108" data-uid="lnk41" id="link_CacheConfig_VetsProperties"><path codeLine="108" d="M232.27,770.6 C271.87,773.12 309.7221,775.529 344.1421,777.719" fill="none" id="CacheConfig-to-VetsProperties" style="stroke:#181818;stroke-width:1;"/><polygon fill="#181818" points="350.13,778.1,341.4022,773.5366,345.1401,777.7825,340.8942,781.5205,350.13,778.1" style="stroke:#181818;stroke-width:1;"/></g><!--reverse link NamedEntity to Pet--><g class="link" data-entity-1="NamedEntity" data-entity-2="Pet" data-source-line="109" data-uid="lnk42" id="link_NamedEntity_Pet"><path codeLine="109" d="M486.5451,675.84 C532.4951,672.59 579.78,669.26 626.1,665.98" fill="none" id="NamedEntity-backto-Pet" style="stroke:#181818;stroke-width:1;"/><polygon fill="none" points="468.59,677.11,486.9685,681.8251,486.1218,669.855,468.59,677.11" style="stroke:#181818;stroke-width:1;"/></g><!--reverse link NamedEntity to PetType--><g class="link" data-entity-1="NamedEntity" data-entity-2="PetType" data-source-line="110" data-uid="lnk43" id="link_NamedEntity_PetType"><path codeLine="110" d="M485.5012,703.2071 C507.0112,711.1671 514.1,716.1 533,731 C568.46,758.96 552.73,792.57 593,813 C677.81,856.03 793.91,834.81 854.83,818.61" fill="none" id="NamedEntity-backto-PetType" style="stroke:#181818;stroke-width:1;"/><polygon fill="none" points="468.62,696.96,483.4188,708.8341,487.5835,697.58,468.62,696.96" style="stroke:#181818;stroke-width:1;"/></g><!--reverse link NamedEntity to Specialty--><g class="link" data-entity-1="NamedEntity" data-entity-2="Specialty" data-source-line="111" data-uid="lnk44" id="link_NamedEntity_Specialty"><path codeLine="111" d="M485.64,705.4004 C535.9,722.4104 592.16,741.44 638.58,757.14" fill="none" id="NamedEntity-backto-Specialty" style="stroke:#181818;stroke-width:1;"/><polygon fill="none" points="468.59,699.63,483.7165,711.0837,487.5635,699.7171,468.59,699.63" style="stroke:#181818;stroke-width:1;"/></g><!--link OwnerResource to OwnerService--><g class="link" data-entity-1="OwnerResource" data-entity-2="OwnerService" data-source-line="112" data-uid="lnk45" id="link_OwnerResource_OwnerService"><path codeLine="112" d="M228.28,871.35 C248.8,872.65 264.632,873.6606 285.782,875.0006" fill="none" id="OwnerResource-to-OwnerService" style="stroke:#181818;stroke-width:1;"/><polygon fill="#181818" points="291.77,875.38,283.0409,870.8189,286.78,875.0638,282.5351,878.8029,291.77,875.38" style="stroke:#181818;stroke-width:1;"/></g><!--link OwnerService to OwnerRepository--><g class="link" data-entity-1="OwnerService" data-entity-2="OwnerRepository" data-source-line="113" data-uid="lnk46" id="link_OwnerService_OwnerRepository"><path codeLine="113" d="M533.05,887 C560.56,887.92 582.9034,888.6695 607.4234,889.4895" fill="none" id="OwnerService-to-OwnerRepository" style="stroke:#181818;stroke-width:1;"/><polygon fill="#181818" points="613.42,889.69,604.5587,885.3914,608.4228,889.5229,604.2913,893.387,613.42,889.69" style="stroke:#181818;stroke-width:1;"/></g><!--reverse link Person to Owner--><g class="link" data-entity-1="Person" data-entity-2="Owner" data-source-line="114" data-uid="lnk47" id="link_Person_Owner"><path codeLine="114" d="M490.7496,533.1463 C532.9396,512.9763 569.34,496.98 593,492 C671.72,475.44 696.66,469.88 774,492 C794.87,497.97 815.65,508.66 833.98,520.17" fill="none" id="Person-backto-Owner" style="stroke:#181818;stroke-width:1;"/><polygon fill="none" points="474.51,540.91,493.3375,538.5594,488.1617,527.7331,474.51,540.91" style="stroke:#181818;stroke-width:1;"/></g><!--reverse link Person to Vet--><g class="link" data-entity-1="Person" data-entity-2="Vet" data-source-line="115" data-uid="lnk48" id="link_Person_Vet"><path codeLine="115" d="M492.443,562.7839 C538.013,558.0339 581.92,553.47 626.29,548.85" fill="none" id="Person-backto-Vet" style="stroke:#181818;stroke-width:1;"/><polygon fill="none" points="474.54,564.65,493.065,568.7515,491.821,556.8162,474.54,564.65" style="stroke:#181818;stroke-width:1;"/></g><!--link Pet to Owner--><g class="link" data-entity-1="Pet" data-entity-2="Owner" data-source-line="116" data-uid="lnk49" id="link_Pet_Owner"><path codeLine="116" d="M740.62,637.06 C769.26,624.33 798.6973,611.2472 828.1673,598.1472" fill="none" id="Pet-to-Owner" style="stroke:#181818;stroke-width:1;"/><polygon fill="#181818" points="833.65,595.71,823.8011,595.7106,829.0811,597.741,827.0507,603.0209,833.65,595.71" style="stroke:#181818;stroke-width:1;"/></g><!--link Pet to PetType--><g class="link" data-entity-1="Pet" data-entity-2="PetType" data-source-line="117" data-uid="lnk50" id="link_Pet_PetType"><path codeLine="117" d="M740.62,700.21 C778.68,726.12 822.8701,756.2137 855.6001,778.4937" fill="none" id="Pet-to-PetType" style="stroke:#181818;stroke-width:1;"/><polygon fill="#181818" points="860.56,781.87,855.371,773.4989,856.4268,779.0564,850.8693,780.1121,860.56,781.87" style="stroke:#181818;stroke-width:1;"/></g><!--link PetResource to OwnerService--><g class="link" data-entity-1="PetResource" data-entity-2="OwnerService" data-source-line="118" data-uid="lnk51" id="link_PetResource_OwnerService"><path codeLine="118" d="M228.28,942.56 C254.69,933.98 277.5345,926.5567 304.0545,917.9267" fill="none" id="PetResource-to-OwnerService" style="stroke:#181818;stroke-width:1;"/><polygon fill="#181818" points="309.76,916.07,299.964,915.0513,305.0054,917.6172,302.4395,922.6587,309.76,916.07" style="stroke:#181818;stroke-width:1;"/></g><!--link PetResource to PetService--><g class="link" data-entity-1="PetResource" data-entity-2="PetService" data-source-line="119" data-uid="lnk52" id="link_PetResource_PetService"><path codeLine="119" d="M228.28,978.17 C255.17,979.03 278.2731,979.7584 305.1931,980.6184" fill="none" id="PetResource-to-PetService" style="stroke:#181818;stroke-width:1;"/><polygon fill="#181818" points="311.19,980.81,302.3223,976.5247,306.1925,980.6503,302.0669,984.5206,311.19,980.81" style="stroke:#181818;stroke-width:1;"/></g><!--link PetService to PetRepository--><g class="link" data-entity-1="PetService" data-entity-2="PetRepository" data-source-line="120" data-uid="lnk53" id="link_PetService_PetRepository"><path codeLine="120" d="M513.67,984 C550.56,984 585.15,984 617.28,984" fill="none" id="PetService-to-PetRepository" style="stroke:#181818;stroke-width:1;"/><polygon fill="#181818" points="623.28,984,614.28,980,618.28,984,614.28,988,623.28,984" style="stroke:#181818;stroke-width:1;"/></g><!--link VetResource to VetService--><g class="link" data-entity-1="VetResource" data-entity-2="VetService" data-source-line="121" data-uid="lnk54" id="link_VetResource_VetService"><path codeLine="121" d="M208.08,1085 C240.29,1085 271.83,1085 305.83,1085" fill="none" id="VetResource-to-VetService" style="stroke:#181818;stroke-width:1;"/><polygon fill="#181818" points="311.83,1085,302.83,1081,306.83,1085,302.83,1089,311.83,1085" style="stroke:#181818;stroke-width:1;"/></g><!--link VetService to VetRepository--><g class="link" data-entity-1="VetService" data-entity-2="VetRepository" data-source-line="122" data-uid="lnk55" id="link_VetService_VetRepository"><path codeLine="122" d="M513.28,1085 C550.22,1085 584.9,1085 617.11,1085" fill="none" id="VetService-to-VetRepository" style="stroke:#181818;stroke-width:1;"/><polygon fill="#181818" points="623.11,1085,614.11,1081,618.11,1085,614.11,1089,623.11,1085" style="stroke:#181818;stroke-width:1;"/></g><!--link VisitResource to VisitService--><g class="link" data-entity-1="VisitResource" data-entity-2="VisitService" data-source-line="123" data-uid="lnk56" id="link_VisitResource_VisitService"><path codeLine="123" d="M213.79,1186 C242.93,1186 269.85,1186 300.36,1186" fill="none" id="VisitResource-to-VisitService" style="stroke:#181818;stroke-width:1;"/><polygon fill="#181818" points="306.36,1186,297.36,1182,301.36,1186,297.36,1190,306.36,1186" style="stroke:#181818;stroke-width:1;"/></g><!--link VisitService to VisitRepository--><g class="link" data-entity-1="VisitService" data-entity-2="VisitRepository" data-source-line="124" data-uid="lnk57" id="link_VisitService_VisitRepository"><path codeLine="124" d="M518.66,1186 C553.29,1186 584.64,1186 614.93,1186" fill="none" id="VisitService-to-VisitRepository" style="stroke:#181818;stroke-width:1;"/><polygon fill="#181818" points="620.93,1186,611.93,1182,615.93,1186,611.93,1190,620.93,1186" style="stroke:#181818;stroke-width:1;"/></g><!--SRC=[bLNRRXiX47tVhq3fIwlAKfzNLYJNZg98QHh5wVOPmtYDWc45s97RvjEgVb9_eR2BMIvsehvOoymvCyCn7FGJ4nrMU8i8nrhFZ55ijJDmGwHOiX-0FbKSrWOPYHHhDmPHfe0O9aNLOVA4Mq0NSyS4ZTu_m5RkWQA_VtwZRu9ii6ZzQaOfq0yNQ3fzi6mRvt1vYNvMQ6YBPXsxnWQUyM7MTPmHx3hq-PU0-OmrN0d3pA5F8FGHCLgZ6s6W1PL0vvXiO2x5chK1kmUZxvNiG1a6kaPDiixed7-HWXcfc6XdkhCpXpeWy8g3RRoIaWCMFamiPovtmjI82UE3c93TTiVjpgYh-SYsK2CkHPksumo4qKjGUqRWl033XXmCr7dKWcbY_mLrU0juXxT0Cq45TXCkZTjt0lxwB4056APKWTOHifV0Lif21ZXq6oaWYtTMV1i2uvjOoK2jCO6XqGDqKZlv3zdCFglbJbdiSHpfebw-Ui3uLKdsYPGxzglp0P8Azw2qrz5nrqnfSvTAvk8McuVZ6kDPMZ5bDWjxF6haVe-Y7JeRiBX7-n6FwOShDBFGiuhrkKmlgtvGwpvy_v-O8oyk6mkPJ9LptTRAIHlC6SKMdwMMzWOop4s-kIRIKdjCVxbFdQpc5PMQ4ohj8vMQMAM4bekmJqLepehW_2SnfnhTCcqApEXH0KsSlTM3onNuDssaONQQK8lcfu-29efrZbXUsXjwjBTCMrVplBf3DjVNHKU5erL9BbHE-zNv06M5jtNv3gleoHZZ_YMmBzbqEbiihXRsvNftwnx3QmKWJgEjQhxOQwINAdhKfhycazYKYzpWFaMutruLFtcJoMN-lCLcxukPay7USuf4k81Lwi2kKs8HYSU6RFJ7U0ljgmvk5aVir9KpoC0Cg-DeiPyLtVDaP6wHN_bCD5IJyQBhtgIyz3wd1xlFnySuEReXE_B_0G00]--></g></svg>