<svg xmlns="http://www.w3.org/2000/svg" xmlns:xlink="http://www.w3.org/1999/xlink" contentStyleType="text/css" data-diagram-type="CLASS" height="1276px" preserveAspectRatio="none" style="width:1071px;height:1276px;background:#FFFFFF;" version="1.1" viewBox="0 0 1071 1276" width="1071px" zoomAndPan="magnify"><defs/><g><!--cluster Classes (Removed ? Unchanged ? Added)--><g class="cluster" data-entity="Classes .Removed . Unchanged . Added." data-source-line="3" data-uid="ent0002" id="cluster_Classes .Removed . Unchanged . Added."><rect fill="none" height="1263" rx="2.5" ry="2.5" style="stroke:#181818;stroke-width:1;" width="1058" x="7" y="7"/><text fill="#000000" font-family="sans-serif" font-size="14" font-weight="bold" lengthAdjust="spacing" textLength="293.3779" x="389.311" y="23.5332">Classes (Removed &#65533; Unchanged &#65533; Added)</text></g><!--class ClientsServiceApplication--><g class="entity" data-entity="ClientsServiceApplication" data-source-line="4" data-uid="ent0003" id="entity_ClientsServiceApplication"><rect fill="#FFA07A" height="58.7031" rx="2.5" ry="2.5" style="stroke:#181818;stroke-width:0.5;" width="189.9648" x="32.5" y="346.5"/><ellipse cx="47.5" cy="367.8516" fill="#ADD1B2" rx="11" ry="11" style="stroke:#181818;stroke-width:1;"/><path d="M50.2656,363.7266 Q50.4219,363.5078 50.6094,363.3984 Q50.7969,363.2891 51.0156,363.2891 Q51.3906,363.2891 51.625,363.5547 Q51.8594,363.8047 51.8594,364.4141 L51.8594,365.8672 Q51.8594,366.4766 51.625,366.7422 Q51.3906,367.0078 51.0156,367.0078 Q50.6719,367.0078 50.4688,366.8047 Q50.2656,366.6172 50.1563,366.1016 Q50.1094,365.7422 49.9219,365.5547 Q49.5938,365.1797 48.9844,364.9609 Q48.375,364.7422 47.75,364.7422 Q46.9844,364.7422 46.3438,365.0703 Q45.7188,365.3984 45.2188,366.1484 Q44.7344,366.8984 44.7344,367.9297 L44.7344,369.0234 Q44.7344,370.2578 45.625,371.0859 Q46.5156,371.8984 48.1094,371.8984 Q49.0469,371.8984 49.7031,371.6484 Q50.0938,371.4922 50.5156,371.0547 Q50.7813,370.7891 50.9219,370.7109 Q51.0781,370.6328 51.2813,370.6328 Q51.6094,370.6328 51.8594,370.8984 Q52.125,371.1484 52.125,371.4922 Q52.125,371.8359 51.7813,372.2422 Q51.2813,372.8203 50.4844,373.1484 Q49.4063,373.6016 48.1094,373.6016 Q46.5938,373.6016 45.3906,372.9766 Q44.4063,372.4766 43.7188,371.4141 Q43.0313,370.3359 43.0313,369.0547 L43.0313,367.8984 Q43.0313,366.5703 43.6406,365.4297 Q44.2656,364.2734 45.3594,363.6641 Q46.4531,363.0391 47.6875,363.0391 Q48.4219,363.0391 49.0625,363.2109 Q49.7188,363.3672 50.2656,363.7266 Z " fill="#000000"/><text fill="#000000" font-family="sans-serif" font-size="12" font-style="italic" lengthAdjust="spacing" textLength="74.0215" x="103.4717" y="363.957">&#171;REMOVED&#187;</text><text fill="#000000" font-family="sans-serif" font-size="14" lengthAdjust="spacing" textLength="157.9648" x="61.5" y="381.127">ClientsServiceApplication</text><line style="stroke:#181818;stroke-width:0.5;" x1="33.5" x2="221.4648" y1="389.2031" y2="389.2031"/><line style="stroke:#181818;stroke-width:0.5;" x1="33.5" x2="221.4648" y1="397.2031" y2="397.2031"/></g><!--class ApiGatewayApplication--><g class="entity" data-entity="ApiGatewayApplication" data-source-line="6" data-uid="ent0004" id="entity_ApiGatewayApplication"><rect fill="#F1F1F1" height="48" rx="2.5" ry="2.5" style="stroke:#181818;stroke-width:0.5;" width="175.9717" x="39.5" y="263"/><ellipse cx="54.5" cy="279" fill="#ADD1B2" rx="11" ry="11" style="stroke:#181818;stroke-width:1;"/><path d="M57.2656,274.875 Q57.4219,274.6563 57.6094,274.5469 Q57.7969,274.4375 58.0156,274.4375 Q58.3906,274.4375 58.625,274.7031 Q58.8594,274.9531 58.8594,275.5625 L58.8594,277.0156 Q58.8594,277.625 58.625,277.8906 Q58.3906,278.1563 58.0156,278.1563 Q57.6719,278.1563 57.4688,277.9531 Q57.2656,277.7656 57.1563,277.25 Q57.1094,276.8906 56.9219,276.7031 Q56.5938,276.3281 55.9844,276.1094 Q55.375,275.8906 54.75,275.8906 Q53.9844,275.8906 53.3438,276.2188 Q52.7188,276.5469 52.2188,277.2969 Q51.7344,278.0469 51.7344,279.0781 L51.7344,280.1719 Q51.7344,281.4063 52.625,282.2344 Q53.5156,283.0469 55.1094,283.0469 Q56.0469,283.0469 56.7031,282.7969 Q57.0938,282.6406 57.5156,282.2031 Q57.7813,281.9375 57.9219,281.8594 Q58.0781,281.7813 58.2813,281.7813 Q58.6094,281.7813 58.8594,282.0469 Q59.125,282.2969 59.125,282.6406 Q59.125,282.9844 58.7813,283.3906 Q58.2813,283.9688 57.4844,284.2969 Q56.4063,284.75 55.1094,284.75 Q53.5938,284.75 52.3906,284.125 Q51.4063,283.625 50.7188,282.5625 Q50.0313,281.4844 50.0313,280.2031 L50.0313,279.0469 Q50.0313,277.7188 50.6406,276.5781 Q51.2656,275.4219 52.3594,274.8125 Q53.4531,274.1875 54.6875,274.1875 Q55.4219,274.1875 56.0625,274.3594 Q56.7188,274.5156 57.2656,274.875 Z " fill="#000000"/><text fill="#000000" font-family="sans-serif" font-size="14" lengthAdjust="spacing" textLength="143.9717" x="68.5" y="284.7285">ApiGatewayApplication</text><line style="stroke:#181818;stroke-width:0.5;" x1="40.5" x2="214.4717" y1="295" y2="295"/><line style="stroke:#181818;stroke-width:0.5;" x1="40.5" x2="214.4717" y1="303" y2="303"/></g><!--class BaseEntity--><g class="entity" data-entity="BaseEntity" data-source-line="8" data-uid="ent0005" id="entity_BaseEntity"><rect fill="#F1F1F1" height="65.6094" rx="2.5" ry="2.5" style="stroke:#181818;stroke-width:0.5;" width="98.9238" x="78" y="520"/><ellipse cx="93" cy="536" fill="#ADD1B2" rx="11" ry="11" style="stroke:#181818;stroke-width:1;"/><path d="M95.7656,531.875 Q95.9219,531.6563 96.1094,531.5469 Q96.2969,531.4375 96.5156,531.4375 Q96.8906,531.4375 97.125,531.7031 Q97.3594,531.9531 97.3594,532.5625 L97.3594,534.0156 Q97.3594,534.625 97.125,534.8906 Q96.8906,535.1563 96.5156,535.1563 Q96.1719,535.1563 95.9688,534.9531 Q95.7656,534.7656 95.6563,534.25 Q95.6094,533.8906 95.4219,533.7031 Q95.0938,533.3281 94.4844,533.1094 Q93.875,532.8906 93.25,532.8906 Q92.4844,532.8906 91.8438,533.2188 Q91.2188,533.5469 90.7188,534.2969 Q90.2344,535.0469 90.2344,536.0781 L90.2344,537.1719 Q90.2344,538.4063 91.125,539.2344 Q92.0156,540.0469 93.6094,540.0469 Q94.5469,540.0469 95.2031,539.7969 Q95.5938,539.6406 96.0156,539.2031 Q96.2813,538.9375 96.4219,538.8594 Q96.5781,538.7813 96.7813,538.7813 Q97.1094,538.7813 97.3594,539.0469 Q97.625,539.2969 97.625,539.6406 Q97.625,539.9844 97.2813,540.3906 Q96.7813,540.9688 95.9844,541.2969 Q94.9063,541.75 93.6094,541.75 Q92.0938,541.75 90.8906,541.125 Q89.9063,540.625 89.2188,539.5625 Q88.5313,538.4844 88.5313,537.2031 L88.5313,536.0469 Q88.5313,534.7188 89.1406,533.5781 Q89.7656,532.4219 90.8594,531.8125 Q91.9531,531.1875 93.1875,531.1875 Q93.9219,531.1875 94.5625,531.3594 Q95.2188,531.5156 95.7656,531.875 Z " fill="#000000"/><text fill="#000000" font-family="sans-serif" font-size="14" lengthAdjust="spacing" textLength="66.9238" x="107" y="541.7285">BaseEntity</text><line style="stroke:#181818;stroke-width:0.5;" x1="79" x2="175.9238" y1="552" y2="552"/><text fill="#000000" font-family="sans-serif" font-size="14" lengthAdjust="spacing" textLength="70.4375" x="84" y="570.5332">+id: Integer</text><line style="stroke:#181818;stroke-width:0.5;" x1="79" x2="175.9238" y1="577.6094" y2="577.6094"/></g><!--class CacheConfig--><g class="entity" data-entity="CacheConfig" data-source-line="11" data-uid="ent0006" id="entity_CacheConfig"><rect fill="#F1F1F1" height="65.6094" rx="2.5" ry="2.5" style="stroke:#181818;stroke-width:0.5;" width="209.2578" x="23" y="731"/><ellipse cx="82.9102" cy="747" fill="#ADD1B2" rx="11" ry="11" style="stroke:#181818;stroke-width:1;"/><path d="M85.6758,742.875 Q85.832,742.6563 86.0195,742.5469 Q86.207,742.4375 86.4258,742.4375 Q86.8008,742.4375 87.0352,742.7031 Q87.2695,742.9531 87.2695,743.5625 L87.2695,745.0156 Q87.2695,745.625 87.0352,745.8906 Q86.8008,746.1563 86.4258,746.1563 Q86.082,746.1563 85.8789,745.9531 Q85.6758,745.7656 85.5664,745.25 Q85.5195,744.8906 85.332,744.7031 Q85.0039,744.3281 84.3945,744.1094 Q83.7852,743.8906 83.1602,743.8906 Q82.3945,743.8906 81.7539,744.2188 Q81.1289,744.5469 80.6289,745.2969 Q80.1445,746.0469 80.1445,747.0781 L80.1445,748.1719 Q80.1445,749.4063 81.0352,750.2344 Q81.9258,751.0469 83.5195,751.0469 Q84.457,751.0469 85.1133,750.7969 Q85.5039,750.6406 85.9258,750.2031 Q86.1914,749.9375 86.332,749.8594 Q86.4883,749.7813 86.6914,749.7813 Q87.0195,749.7813 87.2695,750.0469 Q87.5352,750.2969 87.5352,750.6406 Q87.5352,750.9844 87.1914,751.3906 Q86.6914,751.9688 85.8945,752.2969 Q84.8164,752.75 83.5195,752.75 Q82.0039,752.75 80.8008,752.125 Q79.8164,751.625 79.1289,750.5625 Q78.4414,749.4844 78.4414,748.2031 L78.4414,747.0469 Q78.4414,745.7188 79.0508,744.5781 Q79.6758,743.4219 80.7695,742.8125 Q81.8633,742.1875 83.0977,742.1875 Q83.832,742.1875 84.4727,742.3594 Q85.1289,742.5156 85.6758,742.875 Z " fill="#000000"/><text fill="#000000" font-family="sans-serif" font-size="14" lengthAdjust="spacing" textLength="80.9375" x="103.4102" y="752.7285">CacheConfig</text><line style="stroke:#181818;stroke-width:0.5;" x1="24" x2="231.2578" y1="763" y2="763"/><text fill="#000000" font-family="sans-serif" font-size="14" lengthAdjust="spacing" textLength="197.2578" x="29" y="781.5332">+vetsProperties: VetsProperties</text><line style="stroke:#181818;stroke-width:0.5;" x1="24" x2="231.2578" y1="788.6094" y2="788.6094"/></g><!--class CallMonitoringAspect--><g class="entity" data-entity="CallMonitoringAspect" data-source-line="14" data-uid="ent0007" id="entity_CallMonitoringAspect"><rect fill="#F1F1F1" height="100.8281" rx="2.5" ry="2.5" style="stroke:#181818;stroke-width:0.5;" width="189.0303" x="33" y="126.5"/><ellipse cx="59.1366" cy="142.5" fill="#ADD1B2" rx="11" ry="11" style="stroke:#181818;stroke-width:1;"/><path d="M61.9022,138.375 Q62.0585,138.1563 62.246,138.0469 Q62.4335,137.9375 62.6522,137.9375 Q63.0272,137.9375 63.2616,138.2031 Q63.496,138.4531 63.496,139.0625 L63.496,140.5156 Q63.496,141.125 63.2616,141.3906 Q63.0272,141.6563 62.6522,141.6563 Q62.3085,141.6563 62.1054,141.4531 Q61.9022,141.2656 61.7929,140.75 Q61.746,140.3906 61.5585,140.2031 Q61.2304,139.8281 60.621,139.6094 Q60.0116,139.3906 59.3866,139.3906 Q58.621,139.3906 57.9804,139.7188 Q57.3554,140.0469 56.8554,140.7969 Q56.371,141.5469 56.371,142.5781 L56.371,143.6719 Q56.371,144.9063 57.2616,145.7344 Q58.1522,146.5469 59.746,146.5469 Q60.6835,146.5469 61.3397,146.2969 Q61.7304,146.1406 62.1522,145.7031 Q62.4179,145.4375 62.5585,145.3594 Q62.7147,145.2813 62.9179,145.2813 Q63.246,145.2813 63.496,145.5469 Q63.7616,145.7969 63.7616,146.1406 Q63.7616,146.4844 63.4179,146.8906 Q62.9179,147.4688 62.121,147.7969 Q61.0429,148.25 59.746,148.25 Q58.2304,148.25 57.0272,147.625 Q56.0429,147.125 55.3554,146.0625 Q54.6679,144.9844 54.6679,143.7031 L54.6679,142.5469 Q54.6679,141.2188 55.2772,140.0781 Q55.9022,138.9219 56.996,138.3125 Q58.0897,137.6875 59.3241,137.6875 Q60.0585,137.6875 60.6991,137.8594 Q61.3554,138.0156 61.9022,138.375 Z " fill="#000000"/><text fill="#000000" font-family="sans-serif" font-size="14" lengthAdjust="spacing" textLength="132.2822" x="75.6114" y="148.2285">CallMonitoringAspect</text><line style="stroke:#181818;stroke-width:0.5;" x1="34" x2="221.0303" y1="158.5" y2="158.5"/><text fill="#000000" font-family="sans-serif" font-size="14" lengthAdjust="spacing" textLength="115.6094" x="39" y="177.0332">+enabled: boolean</text><text fill="#000000" font-family="sans-serif" font-size="14" lengthAdjust="spacing" textLength="89.1064" x="39" y="194.6426">+callCount: int</text><text fill="#000000" font-family="sans-serif" font-size="14" lengthAdjust="spacing" textLength="177.0303" x="39" y="212.252">+accumulatedCallTime: long</text><line style="stroke:#181818;stroke-width:0.5;" x1="34" x2="221.0303" y1="219.3281" y2="219.3281"/></g><!--class ConfigServerApplication--><g class="entity" data-entity="ConfigServerApplication" data-source-line="19" data-uid="ent0008" id="entity_ConfigServerApplication"><rect fill="#F1F1F1" height="48" rx="2.5" ry="2.5" style="stroke:#181818;stroke-width:0.5;" width="182.1924" x="36.5" y="43"/><ellipse cx="51.5" cy="59" fill="#ADD1B2" rx="11" ry="11" style="stroke:#181818;stroke-width:1;"/><path d="M54.2656,54.875 Q54.4219,54.6563 54.6094,54.5469 Q54.7969,54.4375 55.0156,54.4375 Q55.3906,54.4375 55.625,54.7031 Q55.8594,54.9531 55.8594,55.5625 L55.8594,57.0156 Q55.8594,57.625 55.625,57.8906 Q55.3906,58.1563 55.0156,58.1563 Q54.6719,58.1563 54.4688,57.9531 Q54.2656,57.7656 54.1563,57.25 Q54.1094,56.8906 53.9219,56.7031 Q53.5938,56.3281 52.9844,56.1094 Q52.375,55.8906 51.75,55.8906 Q50.9844,55.8906 50.3438,56.2188 Q49.7188,56.5469 49.2188,57.2969 Q48.7344,58.0469 48.7344,59.0781 L48.7344,60.1719 Q48.7344,61.4063 49.625,62.2344 Q50.5156,63.0469 52.1094,63.0469 Q53.0469,63.0469 53.7031,62.7969 Q54.0938,62.6406 54.5156,62.2031 Q54.7813,61.9375 54.9219,61.8594 Q55.0781,61.7813 55.2813,61.7813 Q55.6094,61.7813 55.8594,62.0469 Q56.125,62.2969 56.125,62.6406 Q56.125,62.9844 55.7813,63.3906 Q55.2813,63.9688 54.4844,64.2969 Q53.4063,64.75 52.1094,64.75 Q50.5938,64.75 49.3906,64.125 Q48.4063,63.625 47.7188,62.5625 Q47.0313,61.4844 47.0313,60.2031 L47.0313,59.0469 Q47.0313,57.7188 47.6406,56.5781 Q48.2656,55.4219 49.3594,54.8125 Q50.4531,54.1875 51.6875,54.1875 Q52.4219,54.1875 53.0625,54.3594 Q53.7188,54.5156 54.2656,54.875 Z " fill="#000000"/><text fill="#000000" font-family="sans-serif" font-size="14" lengthAdjust="spacing" textLength="150.1924" x="65.5" y="64.7285">ConfigServerApplication</text><line style="stroke:#181818;stroke-width:0.5;" x1="37.5" x2="217.6924" y1="75" y2="75"/><line style="stroke:#181818;stroke-width:0.5;" x1="37.5" x2="217.6924" y1="83" y2="83"/></g><!--class DiscoveryServerApplication--><g class="entity" data-entity="DiscoveryServerApplication" data-source-line="21" data-uid="ent0009" id="entity_DiscoveryServerApplication"><rect fill="#F1F1F1" height="48" rx="2.5" ry="2.5" style="stroke:#181818;stroke-width:0.5;" width="203.1787" x="311" y="292"/><ellipse cx="326" cy="308" fill="#ADD1B2" rx="11" ry="11" style="stroke:#181818;stroke-width:1;"/><path d="M328.7656,303.875 Q328.9219,303.6563 329.1094,303.5469 Q329.2969,303.4375 329.5156,303.4375 Q329.8906,303.4375 330.125,303.7031 Q330.3594,303.9531 330.3594,304.5625 L330.3594,306.0156 Q330.3594,306.625 330.125,306.8906 Q329.8906,307.1563 329.5156,307.1563 Q329.1719,307.1563 328.9688,306.9531 Q328.7656,306.7656 328.6563,306.25 Q328.6094,305.8906 328.4219,305.7031 Q328.0938,305.3281 327.4844,305.1094 Q326.875,304.8906 326.25,304.8906 Q325.4844,304.8906 324.8438,305.2188 Q324.2188,305.5469 323.7188,306.2969 Q323.2344,307.0469 323.2344,308.0781 L323.2344,309.1719 Q323.2344,310.4063 324.125,311.2344 Q325.0156,312.0469 326.6094,312.0469 Q327.5469,312.0469 328.2031,311.7969 Q328.5938,311.6406 329.0156,311.2031 Q329.2813,310.9375 329.4219,310.8594 Q329.5781,310.7813 329.7813,310.7813 Q330.1094,310.7813 330.3594,311.0469 Q330.625,311.2969 330.625,311.6406 Q330.625,311.9844 330.2813,312.3906 Q329.7813,312.9688 328.9844,313.2969 Q327.9063,313.75 326.6094,313.75 Q325.0938,313.75 323.8906,313.125 Q322.9063,312.625 322.2188,311.5625 Q321.5313,310.4844 321.5313,309.2031 L321.5313,308.0469 Q321.5313,306.7188 322.1406,305.5781 Q322.7656,304.4219 323.8594,303.8125 Q324.9531,303.1875 326.1875,303.1875 Q326.9219,303.1875 327.5625,303.3594 Q328.2188,303.5156 328.7656,303.875 Z " fill="#000000"/><text fill="#000000" font-family="sans-serif" font-size="14" lengthAdjust="spacing" textLength="171.1787" x="340" y="313.7285">DiscoveryServerApplication</text><line style="stroke:#181818;stroke-width:0.5;" x1="312" x2="513.1787" y1="324" y2="324"/><line style="stroke:#181818;stroke-width:0.5;" x1="312" x2="513.1787" y1="332" y2="332"/></g><!--class Monitored--><g class="entity" data-entity="Monitored" data-source-line="23" data-uid="ent0010" id="entity_Monitored"><rect fill="#F1F1F1" height="48" rx="2.5" ry="2.5" style="stroke:#181818;stroke-width:0.5;" width="94.2549" x="365.5" y="209"/><ellipse cx="380.5" cy="225" fill="#ADD1B2" rx="11" ry="11" style="stroke:#181818;stroke-width:1;"/><path d="M383.2656,220.875 Q383.4219,220.6563 383.6094,220.5469 Q383.7969,220.4375 384.0156,220.4375 Q384.3906,220.4375 384.625,220.7031 Q384.8594,220.9531 384.8594,221.5625 L384.8594,223.0156 Q384.8594,223.625 384.625,223.8906 Q384.3906,224.1563 384.0156,224.1563 Q383.6719,224.1563 383.4688,223.9531 Q383.2656,223.7656 383.1563,223.25 Q383.1094,222.8906 382.9219,222.7031 Q382.5938,222.3281 381.9844,222.1094 Q381.375,221.8906 380.75,221.8906 Q379.9844,221.8906 379.3438,222.2188 Q378.7188,222.5469 378.2188,223.2969 Q377.7344,224.0469 377.7344,225.0781 L377.7344,226.1719 Q377.7344,227.4063 378.625,228.2344 Q379.5156,229.0469 381.1094,229.0469 Q382.0469,229.0469 382.7031,228.7969 Q383.0938,228.6406 383.5156,228.2031 Q383.7813,227.9375 383.9219,227.8594 Q384.0781,227.7813 384.2813,227.7813 Q384.6094,227.7813 384.8594,228.0469 Q385.125,228.2969 385.125,228.6406 Q385.125,228.9844 384.7813,229.3906 Q384.2813,229.9688 383.4844,230.2969 Q382.4063,230.75 381.1094,230.75 Q379.5938,230.75 378.3906,230.125 Q377.4063,229.625 376.7188,228.5625 Q376.0313,227.4844 376.0313,226.2031 L376.0313,225.0469 Q376.0313,223.7188 376.6406,222.5781 Q377.2656,221.4219 378.3594,220.8125 Q379.4531,220.1875 380.6875,220.1875 Q381.4219,220.1875 382.0625,220.3594 Q382.7188,220.5156 383.2656,220.875 Z " fill="#000000"/><text fill="#000000" font-family="sans-serif" font-size="14" lengthAdjust="spacing" textLength="62.2549" x="394.5" y="230.7285">Monitored</text><line style="stroke:#181818;stroke-width:0.5;" x1="366.5" x2="458.7549" y1="241" y2="241"/><line style="stroke:#181818;stroke-width:0.5;" x1="366.5" x2="458.7549" y1="249" y2="249"/></g><!--class MonitoringConfig--><g class="entity" data-entity="MonitoringConfig" data-source-line="25" data-uid="ent0011" id="entity_MonitoringConfig"><rect fill="#F1F1F1" height="48" rx="2.5" ry="2.5" style="stroke:#181818;stroke-width:0.5;" width="137.834" x="343.5" y="126"/><ellipse cx="358.5" cy="142" fill="#ADD1B2" rx="11" ry="11" style="stroke:#181818;stroke-width:1;"/><path d="M361.2656,137.875 Q361.4219,137.6563 361.6094,137.5469 Q361.7969,137.4375 362.0156,137.4375 Q362.3906,137.4375 362.625,137.7031 Q362.8594,137.9531 362.8594,138.5625 L362.8594,140.0156 Q362.8594,140.625 362.625,140.8906 Q362.3906,141.1563 362.0156,141.1563 Q361.6719,141.1563 361.4688,140.9531 Q361.2656,140.7656 361.1563,140.25 Q361.1094,139.8906 360.9219,139.7031 Q360.5938,139.3281 359.9844,139.1094 Q359.375,138.8906 358.75,138.8906 Q357.9844,138.8906 357.3438,139.2188 Q356.7188,139.5469 356.2188,140.2969 Q355.7344,141.0469 355.7344,142.0781 L355.7344,143.1719 Q355.7344,144.4063 356.625,145.2344 Q357.5156,146.0469 359.1094,146.0469 Q360.0469,146.0469 360.7031,145.7969 Q361.0938,145.6406 361.5156,145.2031 Q361.7813,144.9375 361.9219,144.8594 Q362.0781,144.7813 362.2813,144.7813 Q362.6094,144.7813 362.8594,145.0469 Q363.125,145.2969 363.125,145.6406 Q363.125,145.9844 362.7813,146.3906 Q362.2813,146.9688 361.4844,147.2969 Q360.4063,147.75 359.1094,147.75 Q357.5938,147.75 356.3906,147.125 Q355.4063,146.625 354.7188,145.5625 Q354.0313,144.4844 354.0313,143.2031 L354.0313,142.0469 Q354.0313,140.7188 354.6406,139.5781 Q355.2656,138.4219 356.3594,137.8125 Q357.4531,137.1875 358.6875,137.1875 Q359.4219,137.1875 360.0625,137.3594 Q360.7188,137.5156 361.2656,137.875 Z " fill="#000000"/><text fill="#000000" font-family="sans-serif" font-size="14" lengthAdjust="spacing" textLength="105.834" x="372.5" y="147.7285">MonitoringConfig</text><line style="stroke:#181818;stroke-width:0.5;" x1="344.5" x2="480.334" y1="158" y2="158"/><line style="stroke:#181818;stroke-width:0.5;" x1="344.5" x2="480.334" y1="166" y2="166"/></g><!--class NamedEntity--><g class="entity" data-entity="NamedEntity" data-source-line="27" data-uid="ent0012" id="entity_NamedEntity"><rect fill="#F1F1F1" height="65.6094" rx="2.5" ry="2.5" style="stroke:#181818;stroke-width:0.5;" width="112.1445" x="356.5" y="630"/><ellipse cx="371.5" cy="646" fill="#ADD1B2" rx="11" ry="11" style="stroke:#181818;stroke-width:1;"/><path d="M374.2656,641.875 Q374.4219,641.6563 374.6094,641.5469 Q374.7969,641.4375 375.0156,641.4375 Q375.3906,641.4375 375.625,641.7031 Q375.8594,641.9531 375.8594,642.5625 L375.8594,644.0156 Q375.8594,644.625 375.625,644.8906 Q375.3906,645.1563 375.0156,645.1563 Q374.6719,645.1563 374.4688,644.9531 Q374.2656,644.7656 374.1563,644.25 Q374.1094,643.8906 373.9219,643.7031 Q373.5938,643.3281 372.9844,643.1094 Q372.375,642.8906 371.75,642.8906 Q370.9844,642.8906 370.3438,643.2188 Q369.7188,643.5469 369.2188,644.2969 Q368.7344,645.0469 368.7344,646.0781 L368.7344,647.1719 Q368.7344,648.4063 369.625,649.2344 Q370.5156,650.0469 372.1094,650.0469 Q373.0469,650.0469 373.7031,649.7969 Q374.0938,649.6406 374.5156,649.2031 Q374.7813,648.9375 374.9219,648.8594 Q375.0781,648.7813 375.2813,648.7813 Q375.6094,648.7813 375.8594,649.0469 Q376.125,649.2969 376.125,649.6406 Q376.125,649.9844 375.7813,650.3906 Q375.2813,650.9688 374.4844,651.2969 Q373.4063,651.75 372.1094,651.75 Q370.5938,651.75 369.3906,651.125 Q368.4063,650.625 367.7188,649.5625 Q367.0313,648.4844 367.0313,647.2031 L367.0313,646.0469 Q367.0313,644.7188 367.6406,643.5781 Q368.2656,642.4219 369.3594,641.8125 Q370.4531,641.1875 371.6875,641.1875 Q372.4219,641.1875 373.0625,641.3594 Q373.7188,641.5156 374.2656,641.875 Z " fill="#000000"/><text fill="#000000" font-family="sans-serif" font-size="14" lengthAdjust="spacing" textLength="80.1445" x="385.5" y="651.7285">NamedEntity</text><line style="stroke:#181818;stroke-width:0.5;" x1="357.5" x2="467.6445" y1="662" y2="662"/><text fill="#000000" font-family="sans-serif" font-size="14" lengthAdjust="spacing" textLength="87.5479" x="362.5" y="680.5332">+name: String</text><line style="stroke:#181818;stroke-width:0.5;" x1="357.5" x2="467.6445" y1="687.6094" y2="687.6094"/></g><!--class Owner--><g class="entity" data-entity="Owner" data-source-line="30" data-uid="ent0013" id="entity_Owner"><rect fill="#F1F1F1" height="118.4375" rx="2.5" ry="2.5" style="stroke:#181818;stroke-width:0.5;" width="126.0303" x="878.5" y="501"/><ellipse cx="917.2582" cy="517" fill="#ADD1B2" rx="11" ry="11" style="stroke:#181818;stroke-width:1;"/><path d="M920.0238,512.875 Q920.18,512.6563 920.3675,512.5469 Q920.555,512.4375 920.7738,512.4375 Q921.1488,512.4375 921.3832,512.7031 Q921.6175,512.9531 921.6175,513.5625 L921.6175,515.0156 Q921.6175,515.625 921.3832,515.8906 Q921.1488,516.1563 920.7738,516.1563 Q920.43,516.1563 920.2269,515.9531 Q920.0238,515.7656 919.9144,515.25 Q919.8675,514.8906 919.68,514.7031 Q919.3519,514.3281 918.7425,514.1094 Q918.1332,513.8906 917.5082,513.8906 Q916.7425,513.8906 916.1019,514.2188 Q915.4769,514.5469 914.9769,515.2969 Q914.4925,516.0469 914.4925,517.0781 L914.4925,518.1719 Q914.4925,519.4063 915.3832,520.2344 Q916.2738,521.0469 917.8675,521.0469 Q918.805,521.0469 919.4613,520.7969 Q919.8519,520.6406 920.2738,520.2031 Q920.5394,519.9375 920.68,519.8594 Q920.8363,519.7813 921.0394,519.7813 Q921.3675,519.7813 921.6175,520.0469 Q921.8832,520.2969 921.8832,520.6406 Q921.8832,520.9844 921.5394,521.3906 Q921.0394,521.9688 920.2425,522.2969 Q919.1644,522.75 917.8675,522.75 Q916.3519,522.75 915.1488,522.125 Q914.1644,521.625 913.4769,520.5625 Q912.7894,519.4844 912.7894,518.2031 L912.7894,517.0469 Q912.7894,515.7188 913.3988,514.5781 Q914.0238,513.4219 915.1175,512.8125 Q916.2113,512.1875 917.4457,512.1875 Q918.18,512.1875 918.8207,512.3594 Q919.4769,512.5156 920.0238,512.875 Z " fill="#000000"/><text fill="#000000" font-family="sans-serif" font-size="14" lengthAdjust="spacing" textLength="41.2344" x="936.5377" y="522.7285">Owner</text><line style="stroke:#181818;stroke-width:0.5;" x1="879.5" x2="1003.5303" y1="533" y2="533"/><text fill="#000000" font-family="sans-serif" font-size="14" lengthAdjust="spacing" textLength="102.334" x="884.5" y="551.5332">+address: String</text><text fill="#000000" font-family="sans-serif" font-size="14" lengthAdjust="spacing" textLength="73.5273" x="884.5" y="569.1426">+city: String</text><text fill="#000000" font-family="sans-serif" font-size="14" lengthAdjust="spacing" textLength="114.0303" x="884.5" y="586.752">+telephone: String</text><text fill="#000000" font-family="sans-serif" font-size="14" lengthAdjust="spacing" textLength="63.4307" x="884.5" y="604.3613">+pets: Set</text><line style="stroke:#181818;stroke-width:0.5;" x1="879.5" x2="1003.5303" y1="611.4375" y2="611.4375"/></g><!--class OwnerRepository--><g class="entity" data-entity="OwnerRepository" data-source-line="36" data-uid="ent0014" id="entity_OwnerRepository"><rect fill="#F1F1F1" height="48" rx="2.5" ry="2.5" style="stroke:#181818;stroke-width:0.5;" width="140.1514" x="613.5" y="860"/><ellipse cx="628.5" cy="876" fill="#B4A7E5" rx="11" ry="11" style="stroke:#181818;stroke-width:1;"/><path d="M629.4531,872.6406 L629.4531,879.2969 L631.1719,879.2969 Q631.7813,879.2969 632.0469,879.5313 Q632.3125,879.7656 632.3125,880.1563 Q632.3125,880.5313 632.0469,880.7656 Q631.7813,881 631.1719,881 L626.0313,881 Q625.4219,881 625.1563,880.7656 Q624.8906,880.5313 624.8906,880.1406 Q624.8906,879.7656 625.1563,879.5313 Q625.4219,879.2969 626.0313,879.2969 L627.75,879.2969 L627.75,872.6406 L626.0313,872.6406 Q625.4219,872.6406 625.1563,872.4063 Q624.8906,872.1719 624.8906,871.7813 Q624.8906,871.4063 625.1563,871.1719 Q625.4219,870.9375 626.0313,870.9375 L631.1719,870.9375 Q631.7813,870.9375 632.0469,871.1719 Q632.3125,871.4063 632.3125,871.7813 Q632.3125,872.1719 632.0469,872.4063 Q631.7813,872.6406 631.1719,872.6406 L629.4531,872.6406 Z " fill="#000000"/><text fill="#000000" font-family="sans-serif" font-size="14" font-style="italic" lengthAdjust="spacing" textLength="108.1514" x="642.5" y="881.7285">OwnerRepository</text><line style="stroke:#181818;stroke-width:0.5;" x1="614.5" x2="752.6514" y1="892" y2="892"/><line style="stroke:#181818;stroke-width:0.5;" x1="614.5" x2="752.6514" y1="900" y2="900"/></g><!--class OwnerResource--><g class="entity" data-entity="OwnerResource" data-source-line="38" data-uid="ent0015" id="entity_OwnerResource"><rect fill="#F1F1F1" height="65.6094" rx="2.5" ry="2.5" style="stroke:#181818;stroke-width:0.5;" width="200.6855" x="27" y="841"/><ellipse cx="72.5171" cy="857" fill="#ADD1B2" rx="11" ry="11" style="stroke:#181818;stroke-width:1;"/><path d="M75.2827,852.875 Q75.439,852.6563 75.6265,852.5469 Q75.814,852.4375 76.0327,852.4375 Q76.4077,852.4375 76.6421,852.7031 Q76.8765,852.9531 76.8765,853.5625 L76.8765,855.0156 Q76.8765,855.625 76.6421,855.8906 Q76.4077,856.1563 76.0327,856.1563 Q75.689,856.1563 75.4858,855.9531 Q75.2827,855.7656 75.1733,855.25 Q75.1265,854.8906 74.939,854.7031 Q74.6108,854.3281 74.0015,854.1094 Q73.3921,853.8906 72.7671,853.8906 Q72.0015,853.8906 71.3608,854.2188 Q70.7358,854.5469 70.2358,855.2969 Q69.7515,856.0469 69.7515,857.0781 L69.7515,858.1719 Q69.7515,859.4063 70.6421,860.2344 Q71.5327,861.0469 73.1265,861.0469 Q74.064,861.0469 74.7202,860.7969 Q75.1108,860.6406 75.5327,860.2031 Q75.7983,859.9375 75.939,859.8594 Q76.0952,859.7813 76.2983,859.7813 Q76.6265,859.7813 76.8765,860.0469 Q77.1421,860.2969 77.1421,860.6406 Q77.1421,860.9844 76.7983,861.3906 Q76.2983,861.9688 75.5015,862.2969 Q74.4233,862.75 73.1265,862.75 Q71.6108,862.75 70.4077,862.125 Q69.4233,861.625 68.7358,860.5625 Q68.0483,859.4844 68.0483,858.2031 L68.0483,857.0469 Q68.0483,855.7188 68.6577,854.5781 Q69.2827,853.4219 70.3765,852.8125 Q71.4702,852.1875 72.7046,852.1875 Q73.439,852.1875 74.0796,852.3594 Q74.7358,852.5156 75.2827,852.875 Z " fill="#000000"/><text fill="#000000" font-family="sans-serif" font-size="14" lengthAdjust="spacing" textLength="101.1514" x="93.0171" y="862.7285">OwnerResource</text><line style="stroke:#181818;stroke-width:0.5;" x1="28" x2="226.6855" y1="873" y2="873"/><text fill="#000000" font-family="sans-serif" font-size="14" lengthAdjust="spacing" textLength="188.6855" x="33" y="891.5332">+ownerService: OwnerService</text><line style="stroke:#181818;stroke-width:0.5;" x1="28" x2="226.6855" y1="898.6094" y2="898.6094"/></g><!--class OwnerService--><g class="entity" data-entity="OwnerService" data-source-line="41" data-uid="ent0016" id="entity_OwnerService"><rect fill="#F1F1F1" height="83.2188" rx="2.5" ry="2.5" style="stroke:#181818;stroke-width:0.5;" width="241.1543" x="292" y="832.5"/><ellipse cx="364.3687" cy="848.5" fill="#ADD1B2" rx="11" ry="11" style="stroke:#181818;stroke-width:1;"/><path d="M367.1343,844.375 Q367.2905,844.1563 367.478,844.0469 Q367.6655,843.9375 367.8843,843.9375 Q368.2593,843.9375 368.4937,844.2031 Q368.728,844.4531 368.728,845.0625 L368.728,846.5156 Q368.728,847.125 368.4937,847.3906 Q368.2593,847.6563 367.8843,847.6563 Q367.5405,847.6563 367.3374,847.4531 Q367.1343,847.2656 367.0249,846.75 Q366.978,846.3906 366.7905,846.2031 Q366.4624,845.8281 365.853,845.6094 Q365.2437,845.3906 364.6187,845.3906 Q363.853,845.3906 363.2124,845.7188 Q362.5874,846.0469 362.0874,846.7969 Q361.603,847.5469 361.603,848.5781 L361.603,849.6719 Q361.603,850.9063 362.4937,851.7344 Q363.3843,852.5469 364.978,852.5469 Q365.9155,852.5469 366.5718,852.2969 Q366.9624,852.1406 367.3843,851.7031 Q367.6499,851.4375 367.7905,851.3594 Q367.9468,851.2813 368.1499,851.2813 Q368.478,851.2813 368.728,851.5469 Q368.9937,851.7969 368.9937,852.1406 Q368.9937,852.4844 368.6499,852.8906 Q368.1499,853.4688 367.353,853.7969 Q366.2749,854.25 364.978,854.25 Q363.4624,854.25 362.2593,853.625 Q361.2749,853.125 360.5874,852.0625 Q359.8999,850.9844 359.8999,849.7031 L359.8999,848.5469 Q359.8999,847.2188 360.5093,846.0781 Q361.1343,844.9219 362.228,844.3125 Q363.3218,843.6875 364.5562,843.6875 Q365.2905,843.6875 365.9312,843.8594 Q366.5874,844.0156 367.1343,844.375 Z " fill="#000000"/><text fill="#000000" font-family="sans-serif" font-size="14" lengthAdjust="spacing" textLength="87.917" x="384.8687" y="854.2285">OwnerService</text><line style="stroke:#181818;stroke-width:0.5;" x1="293" x2="532.1543" y1="864.5" y2="864.5"/><text fill="#000000" font-family="sans-serif" font-size="14" lengthAdjust="spacing" textLength="89.1133" x="298" y="883.0332">+LOG: Logger</text><text fill="#000000" font-family="sans-serif" font-size="14" lengthAdjust="spacing" textLength="229.1543" x="298" y="900.6426">+ownerRepository: OwnerRepository</text><line style="stroke:#181818;stroke-width:0.5;" x1="293" x2="532.1543" y1="907.7188" y2="907.7188"/></g><!--class Person--><g class="entity" data-entity="Person" data-source-line="45" data-uid="ent0017" id="entity_Person"><rect fill="#F1F1F1" height="83.2188" rx="2.5" ry="2.5" style="stroke:#181818;stroke-width:0.5;" width="124.4238" x="350.5" y="511.5"/><ellipse cx="387.1294" cy="527.5" fill="#ADD1B2" rx="11" ry="11" style="stroke:#181818;stroke-width:1;"/><path d="M389.8951,523.375 Q390.0513,523.1563 390.2388,523.0469 Q390.4263,522.9375 390.6451,522.9375 Q391.0201,522.9375 391.2544,523.2031 Q391.4888,523.4531 391.4888,524.0625 L391.4888,525.5156 Q391.4888,526.125 391.2544,526.3906 Q391.0201,526.6563 390.6451,526.6563 Q390.3013,526.6563 390.0982,526.4531 Q389.8951,526.2656 389.7857,525.75 Q389.7388,525.3906 389.5513,525.2031 Q389.2232,524.8281 388.6138,524.6094 Q388.0044,524.3906 387.3794,524.3906 Q386.6138,524.3906 385.9732,524.7188 Q385.3482,525.0469 384.8482,525.7969 Q384.3638,526.5469 384.3638,527.5781 L384.3638,528.6719 Q384.3638,529.9063 385.2544,530.7344 Q386.1451,531.5469 387.7388,531.5469 Q388.6763,531.5469 389.3326,531.2969 Q389.7232,531.1406 390.1451,530.7031 Q390.4107,530.4375 390.5513,530.3594 Q390.7076,530.2813 390.9107,530.2813 Q391.2388,530.2813 391.4888,530.5469 Q391.7544,530.7969 391.7544,531.1406 Q391.7544,531.4844 391.4107,531.8906 Q390.9107,532.4688 390.1138,532.7969 Q389.0357,533.25 387.7388,533.25 Q386.2232,533.25 385.0201,532.625 Q384.0357,532.125 383.3482,531.0625 Q382.6607,529.9844 382.6607,528.7031 L382.6607,527.5469 Q382.6607,526.2188 383.2701,525.0781 Q383.8951,523.9219 384.9888,523.3125 Q386.0826,522.6875 387.3169,522.6875 Q388.0513,522.6875 388.6919,522.8594 Q389.3482,523.0156 389.8951,523.375 Z " fill="#000000"/><text fill="#000000" font-family="sans-serif" font-size="14" lengthAdjust="spacing" textLength="44.3584" x="405.936" y="533.2285">Person</text><line style="stroke:#181818;stroke-width:0.5;" x1="351.5" x2="473.9238" y1="543.5" y2="543.5"/><text fill="#000000" font-family="sans-serif" font-size="14" lengthAdjust="spacing" textLength="112.4238" x="356.5" y="562.0332">+firstName: String</text><text fill="#000000" font-family="sans-serif" font-size="14" lengthAdjust="spacing" textLength="111.6582" x="356.5" y="579.6426">+lastName: String</text><line style="stroke:#181818;stroke-width:0.5;" x1="351.5" x2="473.9238" y1="586.7188" y2="586.7188"/></g><!--class Pet--><g class="entity" data-entity="Pet" data-source-line="49" data-uid="ent0018" id="entity_Pet"><rect fill="#F1F1F1" height="100.8281" rx="2.5" ry="2.5" style="stroke:#181818;stroke-width:0.5;" width="114.334" x="626.5" y="603.5"/><ellipse cx="669.0941" cy="619.5" fill="#ADD1B2" rx="11" ry="11" style="stroke:#181818;stroke-width:1;"/><path d="M671.8598,615.375 Q672.016,615.1563 672.2035,615.0469 Q672.391,614.9375 672.6098,614.9375 Q672.9848,614.9375 673.2191,615.2031 Q673.4535,615.4531 673.4535,616.0625 L673.4535,617.5156 Q673.4535,618.125 673.2191,618.3906 Q672.9848,618.6563 672.6098,618.6563 Q672.266,618.6563 672.0629,618.4531 Q671.8598,618.2656 671.7504,617.75 Q671.7035,617.3906 671.516,617.2031 Q671.1879,616.8281 670.5785,616.6094 Q669.9691,616.3906 669.3441,616.3906 Q668.5785,616.3906 667.9379,616.7188 Q667.3129,617.0469 666.8129,617.7969 Q666.3285,618.5469 666.3285,619.5781 L666.3285,620.6719 Q666.3285,621.9063 667.2191,622.7344 Q668.1098,623.5469 669.7035,623.5469 Q670.641,623.5469 671.2973,623.2969 Q671.6879,623.1406 672.1098,622.7031 Q672.3754,622.4375 672.516,622.3594 Q672.6723,622.2813 672.8754,622.2813 Q673.2035,622.2813 673.4535,622.5469 Q673.7191,622.7969 673.7191,623.1406 Q673.7191,623.4844 673.3754,623.8906 Q672.8754,624.4688 672.0785,624.7969 Q671.0004,625.25 669.7035,625.25 Q668.1879,625.25 666.9848,624.625 Q666.0004,624.125 665.3129,623.0625 Q664.6254,621.9844 664.6254,620.7031 L664.6254,619.5469 Q664.6254,618.2188 665.2348,617.0781 Q665.8598,615.9219 666.9535,615.3125 Q668.0473,614.6875 669.2816,614.6875 Q670.016,614.6875 670.6566,614.8594 Q671.3129,615.0156 671.8598,615.375 Z " fill="#000000"/><text fill="#000000" font-family="sans-serif" font-size="14" lengthAdjust="spacing" textLength="21.0137" x="689.2262" y="625.2285">Pet</text><line style="stroke:#181818;stroke-width:0.5;" x1="627.5" x2="739.834" y1="635.5" y2="635.5"/><text fill="#000000" font-family="sans-serif" font-size="14" lengthAdjust="spacing" textLength="102.334" x="632.5" y="654.0332">+birthDate: Date</text><text fill="#000000" font-family="sans-serif" font-size="14" lengthAdjust="spacing" textLength="94.5547" x="632.5" y="671.6426">+type: PetType</text><text fill="#000000" font-family="sans-serif" font-size="14" lengthAdjust="spacing" textLength="95.3203" x="632.5" y="689.252">+owner: Owner</text><line style="stroke:#181818;stroke-width:0.5;" x1="627.5" x2="739.834" y1="696.3281" y2="696.3281"/></g><!--class PetRepository--><g class="entity" data-entity="PetRepository" data-source-line="54" data-uid="ent0019" id="entity_PetRepository"><rect fill="#F1F1F1" height="48" rx="2.5" ry="2.5" style="stroke:#181818;stroke-width:0.5;" width="119.9307" x="623.5" y="968"/><ellipse cx="638.5" cy="984" fill="#B4A7E5" rx="11" ry="11" style="stroke:#181818;stroke-width:1;"/><path d="M639.4531,980.6406 L639.4531,987.2969 L641.1719,987.2969 Q641.7813,987.2969 642.0469,987.5313 Q642.3125,987.7656 642.3125,988.1563 Q642.3125,988.5313 642.0469,988.7656 Q641.7813,989 641.1719,989 L636.0313,989 Q635.4219,989 635.1563,988.7656 Q634.8906,988.5313 634.8906,988.1406 Q634.8906,987.7656 635.1563,987.5313 Q635.4219,987.2969 636.0313,987.2969 L637.75,987.2969 L637.75,980.6406 L636.0313,980.6406 Q635.4219,980.6406 635.1563,980.4063 Q634.8906,980.1719 634.8906,979.7813 Q634.8906,979.4063 635.1563,979.1719 Q635.4219,978.9375 636.0313,978.9375 L641.1719,978.9375 Q641.7813,978.9375 642.0469,979.1719 Q642.3125,979.4063 642.3125,979.7813 Q642.3125,980.1719 642.0469,980.4063 Q641.7813,980.6406 641.1719,980.6406 L639.4531,980.6406 Z " fill="#000000"/><text fill="#000000" font-family="sans-serif" font-size="14" font-style="italic" lengthAdjust="spacing" textLength="87.9307" x="652.5" y="989.7285">PetRepository</text><line style="stroke:#181818;stroke-width:0.5;" x1="624.5" x2="742.4307" y1="1000" y2="1000"/><line style="stroke:#181818;stroke-width:0.5;" x1="624.5" x2="742.4307" y1="1008" y2="1008"/></g><!--class PetResource--><g class="entity" data-entity="PetResource" data-source-line="56" data-uid="ent0020" id="entity_PetResource"><rect fill="#F1F1F1" height="83.2188" rx="2.5" ry="2.5" style="stroke:#181818;stroke-width:0.5;" width="200.6855" x="27" y="946.5"/><ellipse cx="82.6274" cy="962.5" fill="#ADD1B2" rx="11" ry="11" style="stroke:#181818;stroke-width:1;"/><path d="M85.3931,958.375 Q85.5493,958.1563 85.7368,958.0469 Q85.9243,957.9375 86.1431,957.9375 Q86.5181,957.9375 86.7524,958.2031 Q86.9868,958.4531 86.9868,959.0625 L86.9868,960.5156 Q86.9868,961.125 86.7524,961.3906 Q86.5181,961.6563 86.1431,961.6563 Q85.7993,961.6563 85.5962,961.4531 Q85.3931,961.2656 85.2837,960.75 Q85.2368,960.3906 85.0493,960.2031 Q84.7212,959.8281 84.1118,959.6094 Q83.5024,959.3906 82.8774,959.3906 Q82.1118,959.3906 81.4712,959.7188 Q80.8462,960.0469 80.3462,960.7969 Q79.8618,961.5469 79.8618,962.5781 L79.8618,963.6719 Q79.8618,964.9063 80.7524,965.7344 Q81.6431,966.5469 83.2368,966.5469 Q84.1743,966.5469 84.8306,966.2969 Q85.2212,966.1406 85.6431,965.7031 Q85.9087,965.4375 86.0493,965.3594 Q86.2056,965.2813 86.4087,965.2813 Q86.7368,965.2813 86.9868,965.5469 Q87.2524,965.7969 87.2524,966.1406 Q87.2524,966.4844 86.9087,966.8906 Q86.4087,967.4688 85.6118,967.7969 Q84.5337,968.25 83.2368,968.25 Q81.7212,968.25 80.5181,967.625 Q79.5337,967.125 78.8462,966.0625 Q78.1587,964.9844 78.1587,963.7031 L78.1587,962.5469 Q78.1587,961.2188 78.7681,960.0781 Q79.3931,958.9219 80.4868,958.3125 Q81.5806,957.6875 82.8149,957.6875 Q83.5493,957.6875 84.1899,957.8594 Q84.8462,958.0156 85.3931,958.375 Z " fill="#000000"/><text fill="#000000" font-family="sans-serif" font-size="14" lengthAdjust="spacing" textLength="80.9307" x="103.1274" y="968.2285">PetResource</text><line style="stroke:#181818;stroke-width:0.5;" x1="28" x2="226.6855" y1="978.5" y2="978.5"/><text fill="#000000" font-family="sans-serif" font-size="14" lengthAdjust="spacing" textLength="149.7959" x="33" y="997.0332">+petService: PetService</text><text fill="#000000" font-family="sans-serif" font-size="14" lengthAdjust="spacing" textLength="188.6855" x="33" y="1014.6426">+ownerService: OwnerService</text><line style="stroke:#181818;stroke-width:0.5;" x1="28" x2="226.6855" y1="1021.7188" y2="1021.7188"/></g><!--class PetService--><g class="entity" data-entity="PetService" data-source-line="60" data-uid="ent0021" id="entity_PetService"><rect fill="#F1F1F1" height="83.2188" rx="2.5" ry="2.5" style="stroke:#181818;stroke-width:0.5;" width="202.2646" x="311.5" y="950.5"/><ellipse cx="374.5342" cy="966.5" fill="#ADD1B2" rx="11" ry="11" style="stroke:#181818;stroke-width:1;"/><path d="M377.2998,962.375 Q377.4561,962.1563 377.6436,962.0469 Q377.8311,961.9375 378.0498,961.9375 Q378.4248,961.9375 378.6592,962.2031 Q378.8936,962.4531 378.8936,963.0625 L378.8936,964.5156 Q378.8936,965.125 378.6592,965.3906 Q378.4248,965.6563 378.0498,965.6563 Q377.7061,965.6563 377.5029,965.4531 Q377.2998,965.2656 377.1904,964.75 Q377.1436,964.3906 376.9561,964.2031 Q376.6279,963.8281 376.0186,963.6094 Q375.4092,963.3906 374.7842,963.3906 Q374.0186,963.3906 373.3779,963.7188 Q372.7529,964.0469 372.2529,964.7969 Q371.7686,965.5469 371.7686,966.5781 L371.7686,967.6719 Q371.7686,968.9063 372.6592,969.7344 Q373.5498,970.5469 375.1436,970.5469 Q376.0811,970.5469 376.7373,970.2969 Q377.1279,970.1406 377.5498,969.7031 Q377.8154,969.4375 377.9561,969.3594 Q378.1123,969.2813 378.3154,969.2813 Q378.6436,969.2813 378.8936,969.5469 Q379.1592,969.7969 379.1592,970.1406 Q379.1592,970.4844 378.8154,970.8906 Q378.3154,971.4688 377.5186,971.7969 Q376.4404,972.25 375.1436,972.25 Q373.6279,972.25 372.4248,971.625 Q371.4404,971.125 370.7529,970.0625 Q370.0654,968.9844 370.0654,967.7031 L370.0654,966.5469 Q370.0654,965.2188 370.6748,964.0781 Q371.2998,962.9219 372.3936,962.3125 Q373.4873,961.6875 374.7217,961.6875 Q375.4561,961.6875 376.0967,961.8594 Q376.7529,962.0156 377.2998,962.375 Z " fill="#000000"/><text fill="#000000" font-family="sans-serif" font-size="14" lengthAdjust="spacing" textLength="67.6963" x="395.0342" y="972.2285">PetService</text><line style="stroke:#181818;stroke-width:0.5;" x1="312.5" x2="512.7646" y1="982.5" y2="982.5"/><text fill="#000000" font-family="sans-serif" font-size="14" lengthAdjust="spacing" textLength="89.1133" x="317.5" y="1001.0332">+LOG: Logger</text><text fill="#000000" font-family="sans-serif" font-size="14" lengthAdjust="spacing" textLength="190.2646" x="317.5" y="1018.6426">+petRepository: PetRepository</text><line style="stroke:#181818;stroke-width:0.5;" x1="312.5" x2="512.7646" y1="1025.7188" y2="1025.7188"/></g><!--class PetType--><g class="entity" data-entity="PetType" data-source-line="64" data-uid="ent0022" id="entity_PetType"><rect fill="#F1F1F1" height="48" rx="2.5" ry="2.5" style="stroke:#181818;stroke-width:0.5;" width="84.1377" x="899.5" y="774"/><ellipse cx="914.5" cy="790" fill="#ADD1B2" rx="11" ry="11" style="stroke:#181818;stroke-width:1;"/><path d="M917.2656,785.875 Q917.4219,785.6563 917.6094,785.5469 Q917.7969,785.4375 918.0156,785.4375 Q918.3906,785.4375 918.625,785.7031 Q918.8594,785.9531 918.8594,786.5625 L918.8594,788.0156 Q918.8594,788.625 918.625,788.8906 Q918.3906,789.1563 918.0156,789.1563 Q917.6719,789.1563 917.4688,788.9531 Q917.2656,788.7656 917.1563,788.25 Q917.1094,787.8906 916.9219,787.7031 Q916.5938,787.3281 915.9844,787.1094 Q915.375,786.8906 914.75,786.8906 Q913.9844,786.8906 913.3438,787.2188 Q912.7188,787.5469 912.2188,788.2969 Q911.7344,789.0469 911.7344,790.0781 L911.7344,791.1719 Q911.7344,792.4063 912.625,793.2344 Q913.5156,794.0469 915.1094,794.0469 Q916.0469,794.0469 916.7031,793.7969 Q917.0938,793.6406 917.5156,793.2031 Q917.7813,792.9375 917.9219,792.8594 Q918.0781,792.7813 918.2813,792.7813 Q918.6094,792.7813 918.8594,793.0469 Q919.125,793.2969 919.125,793.6406 Q919.125,793.9844 918.7813,794.3906 Q918.2813,794.9688 917.4844,795.2969 Q916.4063,795.75 915.1094,795.75 Q913.5938,795.75 912.3906,795.125 Q911.4063,794.625 910.7188,793.5625 Q910.0313,792.4844 910.0313,791.2031 L910.0313,790.0469 Q910.0313,788.7188 910.6406,787.5781 Q911.2656,786.4219 912.3594,785.8125 Q913.4531,785.1875 914.6875,785.1875 Q915.4219,785.1875 916.0625,785.3594 Q916.7188,785.5156 917.2656,785.875 Z " fill="#000000"/><text fill="#000000" font-family="sans-serif" font-size="14" lengthAdjust="spacing" textLength="52.1377" x="928.5" y="795.7285">PetType</text><line style="stroke:#181818;stroke-width:0.5;" x1="900.5" x2="982.6377" y1="806" y2="806"/><line style="stroke:#181818;stroke-width:0.5;" x1="900.5" x2="982.6377" y1="814" y2="814"/></g><!--class PetValidator--><g class="entity" data-entity="PetValidator" data-source-line="66" data-uid="ent0023" id="entity_PetValidator"><rect fill="#F1F1F1" height="48" rx="2.5" ry="2.5" style="stroke:#181818;stroke-width:0.5;" width="108.2686" x="358.5" y="43"/><ellipse cx="373.5" cy="59" fill="#ADD1B2" rx="11" ry="11" style="stroke:#181818;stroke-width:1;"/><path d="M376.2656,54.875 Q376.4219,54.6563 376.6094,54.5469 Q376.7969,54.4375 377.0156,54.4375 Q377.3906,54.4375 377.625,54.7031 Q377.8594,54.9531 377.8594,55.5625 L377.8594,57.0156 Q377.8594,57.625 377.625,57.8906 Q377.3906,58.1563 377.0156,58.1563 Q376.6719,58.1563 376.4688,57.9531 Q376.2656,57.7656 376.1563,57.25 Q376.1094,56.8906 375.9219,56.7031 Q375.5938,56.3281 374.9844,56.1094 Q374.375,55.8906 373.75,55.8906 Q372.9844,55.8906 372.3438,56.2188 Q371.7188,56.5469 371.2188,57.2969 Q370.7344,58.0469 370.7344,59.0781 L370.7344,60.1719 Q370.7344,61.4063 371.625,62.2344 Q372.5156,63.0469 374.1094,63.0469 Q375.0469,63.0469 375.7031,62.7969 Q376.0938,62.6406 376.5156,62.2031 Q376.7813,61.9375 376.9219,61.8594 Q377.0781,61.7813 377.2813,61.7813 Q377.6094,61.7813 377.8594,62.0469 Q378.125,62.2969 378.125,62.6406 Q378.125,62.9844 377.7813,63.3906 Q377.2813,63.9688 376.4844,64.2969 Q375.4063,64.75 374.1094,64.75 Q372.5938,64.75 371.3906,64.125 Q370.4063,63.625 369.7188,62.5625 Q369.0313,61.4844 369.0313,60.2031 L369.0313,59.0469 Q369.0313,57.7188 369.6406,56.5781 Q370.2656,55.4219 371.3594,54.8125 Q372.4531,54.1875 373.6875,54.1875 Q374.4219,54.1875 375.0625,54.3594 Q375.7188,54.5156 376.2656,54.875 Z " fill="#000000"/><text fill="#000000" font-family="sans-serif" font-size="14" lengthAdjust="spacing" textLength="76.2686" x="387.5" y="64.7285">PetValidator</text><line style="stroke:#181818;stroke-width:0.5;" x1="359.5" x2="465.7686" y1="75" y2="75"/><line style="stroke:#181818;stroke-width:0.5;" x1="359.5" x2="465.7686" y1="83" y2="83"/></g><!--class Specialty--><g class="entity" data-entity="Specialty" data-source-line="68" data-uid="ent0024" id="entity_Specialty"><rect fill="#F1F1F1" height="48" rx="2.5" ry="2.5" style="stroke:#181818;stroke-width:0.5;" width="88.8066" x="639" y="740"/><ellipse cx="654" cy="756" fill="#ADD1B2" rx="11" ry="11" style="stroke:#181818;stroke-width:1;"/><path d="M656.7656,751.875 Q656.9219,751.6563 657.1094,751.5469 Q657.2969,751.4375 657.5156,751.4375 Q657.8906,751.4375 658.125,751.7031 Q658.3594,751.9531 658.3594,752.5625 L658.3594,754.0156 Q658.3594,754.625 658.125,754.8906 Q657.8906,755.1563 657.5156,755.1563 Q657.1719,755.1563 656.9688,754.9531 Q656.7656,754.7656 656.6563,754.25 Q656.6094,753.8906 656.4219,753.7031 Q656.0938,753.3281 655.4844,753.1094 Q654.875,752.8906 654.25,752.8906 Q653.4844,752.8906 652.8438,753.2188 Q652.2188,753.5469 651.7188,754.2969 Q651.2344,755.0469 651.2344,756.0781 L651.2344,757.1719 Q651.2344,758.4063 652.125,759.2344 Q653.0156,760.0469 654.6094,760.0469 Q655.5469,760.0469 656.2031,759.7969 Q656.5938,759.6406 657.0156,759.2031 Q657.2813,758.9375 657.4219,758.8594 Q657.5781,758.7813 657.7813,758.7813 Q658.1094,758.7813 658.3594,759.0469 Q658.625,759.2969 658.625,759.6406 Q658.625,759.9844 658.2813,760.3906 Q657.7813,760.9688 656.9844,761.2969 Q655.9063,761.75 654.6094,761.75 Q653.0938,761.75 651.8906,761.125 Q650.9063,760.625 650.2188,759.5625 Q649.5313,758.4844 649.5313,757.2031 L649.5313,756.0469 Q649.5313,754.7188 650.1406,753.5781 Q650.7656,752.4219 651.8594,751.8125 Q652.9531,751.1875 654.1875,751.1875 Q654.9219,751.1875 655.5625,751.3594 Q656.2188,751.5156 656.7656,751.875 Z " fill="#000000"/><text fill="#000000" font-family="sans-serif" font-size="14" lengthAdjust="spacing" textLength="56.8066" x="668" y="761.7285">Specialty</text><line style="stroke:#181818;stroke-width:0.5;" x1="640" x2="726.8066" y1="772" y2="772"/><line style="stroke:#181818;stroke-width:0.5;" x1="640" x2="726.8066" y1="780" y2="780"/></g><!--class Vet--><g class="entity" data-entity="Vet" data-source-line="70" data-uid="ent0025" id="entity_Vet"><rect fill="#F1F1F1" height="65.6094" rx="2.5" ry="2.5" style="stroke:#181818;stroke-width:0.5;" width="114.334" x="626.5" y="502"/><ellipse cx="669.0941" cy="518" fill="#ADD1B2" rx="11" ry="11" style="stroke:#181818;stroke-width:1;"/><path d="M671.8598,513.875 Q672.016,513.6563 672.2035,513.5469 Q672.391,513.4375 672.6098,513.4375 Q672.9848,513.4375 673.2191,513.7031 Q673.4535,513.9531 673.4535,514.5625 L673.4535,516.0156 Q673.4535,516.625 673.2191,516.8906 Q672.9848,517.1563 672.6098,517.1563 Q672.266,517.1563 672.0629,516.9531 Q671.8598,516.7656 671.7504,516.25 Q671.7035,515.8906 671.516,515.7031 Q671.1879,515.3281 670.5785,515.1094 Q669.9691,514.8906 669.3441,514.8906 Q668.5785,514.8906 667.9379,515.2188 Q667.3129,515.5469 666.8129,516.2969 Q666.3285,517.0469 666.3285,518.0781 L666.3285,519.1719 Q666.3285,520.4063 667.2191,521.2344 Q668.1098,522.0469 669.7035,522.0469 Q670.641,522.0469 671.2973,521.7969 Q671.6879,521.6406 672.1098,521.2031 Q672.3754,520.9375 672.516,520.8594 Q672.6723,520.7813 672.8754,520.7813 Q673.2035,520.7813 673.4535,521.0469 Q673.7191,521.2969 673.7191,521.6406 Q673.7191,521.9844 673.3754,522.3906 Q672.8754,522.9688 672.0785,523.2969 Q671.0004,523.75 669.7035,523.75 Q668.1879,523.75 666.9848,523.125 Q666.0004,522.625 665.3129,521.5625 Q664.6254,520.4844 664.6254,519.2031 L664.6254,518.0469 Q664.6254,516.7188 665.2348,515.5781 Q665.8598,514.4219 666.9535,513.8125 Q668.0473,513.1875 669.2816,513.1875 Q670.016,513.1875 670.6566,513.3594 Q671.3129,513.5156 671.8598,513.875 Z " fill="#000000"/><text fill="#000000" font-family="sans-serif" font-size="14" lengthAdjust="spacing" textLength="21.0137" x="689.2262" y="523.7285">Vet</text><line style="stroke:#181818;stroke-width:0.5;" x1="627.5" x2="739.834" y1="534" y2="534"/><text fill="#000000" font-family="sans-serif" font-size="14" lengthAdjust="spacing" textLength="102.334" x="632.5" y="552.5332">+specialties: Set</text><line style="stroke:#181818;stroke-width:0.5;" x1="627.5" x2="739.834" y1="559.6094" y2="559.6094"/></g><!--class VetRepository--><g class="entity" data-entity="VetRepository" data-source-line="73" data-uid="ent0026" id="entity_VetRepository"><rect fill="#F1F1F1" height="48" rx="2.5" ry="2.5" style="stroke:#181818;stroke-width:0.5;" width="119.9307" x="623.5" y="1078"/><ellipse cx="638.5" cy="1094" fill="#B4A7E5" rx="11" ry="11" style="stroke:#181818;stroke-width:1;"/><path d="M639.4531,1090.6406 L639.4531,1097.2969 L641.1719,1097.2969 Q641.7813,1097.2969 642.0469,1097.5313 Q642.3125,1097.7656 642.3125,1098.1563 Q642.3125,1098.5313 642.0469,1098.7656 Q641.7813,1099 641.1719,1099 L636.0313,1099 Q635.4219,1099 635.1563,1098.7656 Q634.8906,1098.5313 634.8906,1098.1406 Q634.8906,1097.7656 635.1563,1097.5313 Q635.4219,1097.2969 636.0313,1097.2969 L637.75,1097.2969 L637.75,1090.6406 L636.0313,1090.6406 Q635.4219,1090.6406 635.1563,1090.4063 Q634.8906,1090.1719 634.8906,1089.7813 Q634.8906,1089.4063 635.1563,1089.1719 Q635.4219,1088.9375 636.0313,1088.9375 L641.1719,1088.9375 Q641.7813,1088.9375 642.0469,1089.1719 Q642.3125,1089.4063 642.3125,1089.7813 Q642.3125,1090.1719 642.0469,1090.4063 Q641.7813,1090.6406 641.1719,1090.6406 L639.4531,1090.6406 Z " fill="#000000"/><text fill="#000000" font-family="sans-serif" font-size="14" font-style="italic" lengthAdjust="spacing" textLength="87.9307" x="652.5" y="1099.7285">VetRepository</text><line style="stroke:#181818;stroke-width:0.5;" x1="624.5" x2="742.4307" y1="1110" y2="1110"/><line style="stroke:#181818;stroke-width:0.5;" x1="624.5" x2="742.4307" y1="1118" y2="1118"/></g><!--class VetResource--><g class="entity" data-entity="VetResource" data-source-line="75" data-uid="ent0027" id="entity_VetResource"><rect fill="#F1F1F1" height="65.6094" rx="2.5" ry="2.5" style="stroke:#181818;stroke-width:0.5;" width="161.0098" x="47" y="1069"/><ellipse cx="83.6356" cy="1085" fill="#ADD1B2" rx="11" ry="11" style="stroke:#181818;stroke-width:1;"/><path d="M86.4012,1080.875 Q86.5575,1080.6563 86.745,1080.5469 Q86.9325,1080.4375 87.1512,1080.4375 Q87.5262,1080.4375 87.7606,1080.7031 Q87.995,1080.9531 87.995,1081.5625 L87.995,1083.0156 Q87.995,1083.625 87.7606,1083.8906 Q87.5262,1084.1563 87.1512,1084.1563 Q86.8075,1084.1563 86.6043,1083.9531 Q86.4012,1083.7656 86.2918,1083.25 Q86.245,1082.8906 86.0575,1082.7031 Q85.7293,1082.3281 85.12,1082.1094 Q84.5106,1081.8906 83.8856,1081.8906 Q83.12,1081.8906 82.4793,1082.2188 Q81.8543,1082.5469 81.3543,1083.2969 Q80.87,1084.0469 80.87,1085.0781 L80.87,1086.1719 Q80.87,1087.4063 81.7606,1088.2344 Q82.6512,1089.0469 84.245,1089.0469 Q85.1825,1089.0469 85.8387,1088.7969 Q86.2293,1088.6406 86.6512,1088.2031 Q86.9168,1087.9375 87.0575,1087.8594 Q87.2137,1087.7813 87.4168,1087.7813 Q87.745,1087.7813 87.995,1088.0469 Q88.2606,1088.2969 88.2606,1088.6406 Q88.2606,1088.9844 87.9168,1089.3906 Q87.4168,1089.9688 86.62,1090.2969 Q85.5418,1090.75 84.245,1090.75 Q82.7293,1090.75 81.5262,1090.125 Q80.5418,1089.625 79.8543,1088.5625 Q79.1668,1087.4844 79.1668,1086.2031 L79.1668,1085.0469 Q79.1668,1083.7188 79.7762,1082.5781 Q80.4012,1081.4219 81.495,1080.8125 Q82.5887,1080.1875 83.8231,1080.1875 Q84.5575,1080.1875 85.1981,1080.3594 Q85.8543,1080.5156 86.4012,1080.875 Z " fill="#000000"/><text fill="#000000" font-family="sans-serif" font-size="14" lengthAdjust="spacing" textLength="80.9307" x="102.4435" y="1090.7285">VetResource</text><line style="stroke:#181818;stroke-width:0.5;" x1="48" x2="207.0098" y1="1101" y2="1101"/><text fill="#000000" font-family="sans-serif" font-size="14" lengthAdjust="spacing" textLength="149.0098" x="53" y="1119.5332">+vetService: VetService</text><line style="stroke:#181818;stroke-width:0.5;" x1="48" x2="207.0098" y1="1126.6094" y2="1126.6094"/></g><!--class VetService--><g class="entity" data-entity="VetService" data-source-line="78" data-uid="ent0028" id="entity_VetService"><rect fill="#F1F1F1" height="65.6094" rx="2.5" ry="2.5" style="stroke:#181818;stroke-width:0.5;" width="201.4785" x="312" y="1069"/><ellipse cx="374.6411" cy="1085" fill="#ADD1B2" rx="11" ry="11" style="stroke:#181818;stroke-width:1;"/><path d="M377.4067,1080.875 Q377.563,1080.6563 377.7505,1080.5469 Q377.938,1080.4375 378.1567,1080.4375 Q378.5317,1080.4375 378.7661,1080.7031 Q379.0005,1080.9531 379.0005,1081.5625 L379.0005,1083.0156 Q379.0005,1083.625 378.7661,1083.8906 Q378.5317,1084.1563 378.1567,1084.1563 Q377.813,1084.1563 377.6099,1083.9531 Q377.4067,1083.7656 377.2974,1083.25 Q377.2505,1082.8906 377.063,1082.7031 Q376.7349,1082.3281 376.1255,1082.1094 Q375.5161,1081.8906 374.8911,1081.8906 Q374.1255,1081.8906 373.4849,1082.2188 Q372.8599,1082.5469 372.3599,1083.2969 Q371.8755,1084.0469 371.8755,1085.0781 L371.8755,1086.1719 Q371.8755,1087.4063 372.7661,1088.2344 Q373.6567,1089.0469 375.2505,1089.0469 Q376.188,1089.0469 376.8442,1088.7969 Q377.2349,1088.6406 377.6567,1088.2031 Q377.9224,1087.9375 378.063,1087.8594 Q378.2192,1087.7813 378.4224,1087.7813 Q378.7505,1087.7813 379.0005,1088.0469 Q379.2661,1088.2969 379.2661,1088.6406 Q379.2661,1088.9844 378.9224,1089.3906 Q378.4224,1089.9688 377.6255,1090.2969 Q376.5474,1090.75 375.2505,1090.75 Q373.7349,1090.75 372.5317,1090.125 Q371.5474,1089.625 370.8599,1088.5625 Q370.1724,1087.4844 370.1724,1086.2031 L370.1724,1085.0469 Q370.1724,1083.7188 370.7817,1082.5781 Q371.4067,1081.4219 372.5005,1080.8125 Q373.5942,1080.1875 374.8286,1080.1875 Q375.563,1080.1875 376.2036,1080.3594 Q376.8599,1080.5156 377.4067,1080.875 Z " fill="#000000"/><text fill="#000000" font-family="sans-serif" font-size="14" lengthAdjust="spacing" textLength="67.6963" x="395.1411" y="1090.7285">VetService</text><line style="stroke:#181818;stroke-width:0.5;" x1="313" x2="512.4785" y1="1101" y2="1101"/><text fill="#000000" font-family="sans-serif" font-size="14" lengthAdjust="spacing" textLength="189.4785" x="318" y="1119.5332">+vetRepository: VetRepository</text><line style="stroke:#181818;stroke-width:0.5;" x1="313" x2="512.4785" y1="1126.6094" y2="1126.6094"/></g><!--class Vets--><g class="entity" data-entity="Vets" data-source-line="81" data-uid="ent0029" id="entity_Vets"><rect fill="#F1F1F1" height="65.6094" rx="2.5" ry="2.5" style="stroke:#181818;stroke-width:0.5;" width="75.417" x="646" y="292"/><ellipse cx="667.9315" cy="308" fill="#ADD1B2" rx="11" ry="11" style="stroke:#181818;stroke-width:1;"/><path d="M670.6971,303.875 Q670.8534,303.6563 671.0409,303.5469 Q671.2284,303.4375 671.4471,303.4375 Q671.8221,303.4375 672.0565,303.7031 Q672.2909,303.9531 672.2909,304.5625 L672.2909,306.0156 Q672.2909,306.625 672.0565,306.8906 Q671.8221,307.1563 671.4471,307.1563 Q671.1034,307.1563 670.9002,306.9531 Q670.6971,306.7656 670.5877,306.25 Q670.5409,305.8906 670.3534,305.7031 Q670.0252,305.3281 669.4159,305.1094 Q668.8065,304.8906 668.1815,304.8906 Q667.4159,304.8906 666.7752,305.2188 Q666.1502,305.5469 665.6502,306.2969 Q665.1659,307.0469 665.1659,308.0781 L665.1659,309.1719 Q665.1659,310.4063 666.0565,311.2344 Q666.9471,312.0469 668.5409,312.0469 Q669.4784,312.0469 670.1346,311.7969 Q670.5252,311.6406 670.9471,311.2031 Q671.2127,310.9375 671.3534,310.8594 Q671.5096,310.7813 671.7127,310.7813 Q672.0409,310.7813 672.2909,311.0469 Q672.5565,311.2969 672.5565,311.6406 Q672.5565,311.9844 672.2127,312.3906 Q671.7127,312.9688 670.9159,313.2969 Q669.8377,313.75 668.5409,313.75 Q667.0252,313.75 665.8221,313.125 Q664.8377,312.625 664.1502,311.5625 Q663.4627,310.4844 663.4627,309.2031 L663.4627,308.0469 Q663.4627,306.7188 664.0721,305.5781 Q664.6971,304.4219 665.7909,303.8125 Q666.8846,303.1875 668.119,303.1875 Q668.8534,303.1875 669.494,303.3594 Q670.1502,303.5156 670.6971,303.875 Z " fill="#000000"/><text fill="#000000" font-family="sans-serif" font-size="14" lengthAdjust="spacing" textLength="28.0137" x="683.4718" y="313.7285">Vets</text><line style="stroke:#181818;stroke-width:0.5;" x1="647" x2="720.417" y1="324" y2="324"/><text fill="#000000" font-family="sans-serif" font-size="14" lengthAdjust="spacing" textLength="63.417" x="652" y="342.5332">+vets: List</text><line style="stroke:#181818;stroke-width:0.5;" x1="647" x2="720.417" y1="349.6094" y2="349.6094"/></g><!--class VetsProperties--><g class="entity" data-entity="VetsProperties" data-source-line="84" data-uid="ent0030" id="entity_VetsProperties"><rect fill="#F1F1F1" height="65.6094" rx="2.5" ry="2.5" style="stroke:#181818;stroke-width:0.5;" width="123.8203" x="350.5" y="731"/><ellipse cx="365.5" cy="747" fill="#ADD1B2" rx="11" ry="11" style="stroke:#181818;stroke-width:1;"/><path d="M368.2656,742.875 Q368.4219,742.6563 368.6094,742.5469 Q368.7969,742.4375 369.0156,742.4375 Q369.3906,742.4375 369.625,742.7031 Q369.8594,742.9531 369.8594,743.5625 L369.8594,745.0156 Q369.8594,745.625 369.625,745.8906 Q369.3906,746.1563 369.0156,746.1563 Q368.6719,746.1563 368.4688,745.9531 Q368.2656,745.7656 368.1563,745.25 Q368.1094,744.8906 367.9219,744.7031 Q367.5938,744.3281 366.9844,744.1094 Q366.375,743.8906 365.75,743.8906 Q364.9844,743.8906 364.3438,744.2188 Q363.7188,744.5469 363.2188,745.2969 Q362.7344,746.0469 362.7344,747.0781 L362.7344,748.1719 Q362.7344,749.4063 363.625,750.2344 Q364.5156,751.0469 366.1094,751.0469 Q367.0469,751.0469 367.7031,750.7969 Q368.0938,750.6406 368.5156,750.2031 Q368.7813,749.9375 368.9219,749.8594 Q369.0781,749.7813 369.2813,749.7813 Q369.6094,749.7813 369.8594,750.0469 Q370.125,750.2969 370.125,750.6406 Q370.125,750.9844 369.7813,751.3906 Q369.2813,751.9688 368.4844,752.2969 Q367.4063,752.75 366.1094,752.75 Q364.5938,752.75 363.3906,752.125 Q362.4063,751.625 361.7188,750.5625 Q361.0313,749.4844 361.0313,748.2031 L361.0313,747.0469 Q361.0313,745.7188 361.6406,744.5781 Q362.2656,743.4219 363.3594,742.8125 Q364.4531,742.1875 365.6875,742.1875 Q366.4219,742.1875 367.0625,742.3594 Q367.7188,742.5156 368.2656,742.875 Z " fill="#000000"/><text fill="#000000" font-family="sans-serif" font-size="14" lengthAdjust="spacing" textLength="91.8203" x="379.5" y="752.7285">VetsProperties</text><line style="stroke:#181818;stroke-width:0.5;" x1="351.5" x2="473.3203" y1="763" y2="763"/><text fill="#000000" font-family="sans-serif" font-size="14" lengthAdjust="spacing" textLength="93.7822" x="356.5" y="781.5332">+cache: Cache</text><line style="stroke:#181818;stroke-width:0.5;" x1="351.5" x2="473.3203" y1="788.6094" y2="788.6094"/></g><!--class VetsServiceApplication--><g class="entity" data-entity="VetsServiceApplication" data-source-line="87" data-uid="ent0031" id="entity_VetsServiceApplication"><rect fill="#F1F1F1" height="48" rx="2.5" ry="2.5" style="stroke:#181818;stroke-width:0.5;" width="175.1855" x="596" y="209"/><ellipse cx="611" cy="225" fill="#ADD1B2" rx="11" ry="11" style="stroke:#181818;stroke-width:1;"/><path d="M613.7656,220.875 Q613.9219,220.6563 614.1094,220.5469 Q614.2969,220.4375 614.5156,220.4375 Q614.8906,220.4375 615.125,220.7031 Q615.3594,220.9531 615.3594,221.5625 L615.3594,223.0156 Q615.3594,223.625 615.125,223.8906 Q614.8906,224.1563 614.5156,224.1563 Q614.1719,224.1563 613.9688,223.9531 Q613.7656,223.7656 613.6563,223.25 Q613.6094,222.8906 613.4219,222.7031 Q613.0938,222.3281 612.4844,222.1094 Q611.875,221.8906 611.25,221.8906 Q610.4844,221.8906 609.8438,222.2188 Q609.2188,222.5469 608.7188,223.2969 Q608.2344,224.0469 608.2344,225.0781 L608.2344,226.1719 Q608.2344,227.4063 609.125,228.2344 Q610.0156,229.0469 611.6094,229.0469 Q612.5469,229.0469 613.2031,228.7969 Q613.5938,228.6406 614.0156,228.2031 Q614.2813,227.9375 614.4219,227.8594 Q614.5781,227.7813 614.7813,227.7813 Q615.1094,227.7813 615.3594,228.0469 Q615.625,228.2969 615.625,228.6406 Q615.625,228.9844 615.2813,229.3906 Q614.7813,229.9688 613.9844,230.2969 Q612.9063,230.75 611.6094,230.75 Q610.0938,230.75 608.8906,230.125 Q607.9063,229.625 607.2188,228.5625 Q606.5313,227.4844 606.5313,226.2031 L606.5313,225.0469 Q606.5313,223.7188 607.1406,222.5781 Q607.7656,221.4219 608.8594,220.8125 Q609.9531,220.1875 611.1875,220.1875 Q611.9219,220.1875 612.5625,220.3594 Q613.2188,220.5156 613.7656,220.875 Z " fill="#000000"/><text fill="#000000" font-family="sans-serif" font-size="14" lengthAdjust="spacing" textLength="143.1855" x="625" y="230.7285">VetsServiceApplication</text><line style="stroke:#181818;stroke-width:0.5;" x1="597" x2="770.1855" y1="241" y2="241"/><line style="stroke:#181818;stroke-width:0.5;" x1="597" x2="770.1855" y1="249" y2="249"/></g><!--class Visit--><g class="entity" data-entity="Visit" data-source-line="89" data-uid="ent0032" id="entity_Visit"><rect fill="#F1F1F1" height="100.8281" rx="2.5" ry="2.5" style="stroke:#181818;stroke-width:0.5;" width="132.2305" x="346.5" y="375.5"/><ellipse cx="395.1411" cy="391.5" fill="#ADD1B2" rx="11" ry="11" style="stroke:#181818;stroke-width:1;"/><path d="M397.9067,387.375 Q398.063,387.1563 398.2505,387.0469 Q398.438,386.9375 398.6567,386.9375 Q399.0317,386.9375 399.2661,387.2031 Q399.5005,387.4531 399.5005,388.0625 L399.5005,389.5156 Q399.5005,390.125 399.2661,390.3906 Q399.0317,390.6563 398.6567,390.6563 Q398.313,390.6563 398.1099,390.4531 Q397.9067,390.2656 397.7974,389.75 Q397.7505,389.3906 397.563,389.2031 Q397.2349,388.8281 396.6255,388.6094 Q396.0161,388.3906 395.3911,388.3906 Q394.6255,388.3906 393.9849,388.7188 Q393.3599,389.0469 392.8599,389.7969 Q392.3755,390.5469 392.3755,391.5781 L392.3755,392.6719 Q392.3755,393.9063 393.2661,394.7344 Q394.1567,395.5469 395.7505,395.5469 Q396.688,395.5469 397.3442,395.2969 Q397.7349,395.1406 398.1567,394.7031 Q398.4224,394.4375 398.563,394.3594 Q398.7192,394.2813 398.9224,394.2813 Q399.2505,394.2813 399.5005,394.5469 Q399.7661,394.7969 399.7661,395.1406 Q399.7661,395.4844 399.4224,395.8906 Q398.9224,396.4688 398.1255,396.7969 Q397.0474,397.25 395.7505,397.25 Q394.2349,397.25 393.0317,396.625 Q392.0474,396.125 391.3599,395.0625 Q390.6724,393.9844 390.6724,392.7031 L390.6724,391.5469 Q390.6724,390.2188 391.2817,389.0781 Q391.9067,387.9219 393.0005,387.3125 Q394.0942,386.6875 395.3286,386.6875 Q396.063,386.6875 396.7036,386.8594 Q397.3599,387.0156 397.9067,387.375 Z " fill="#000000"/><text fill="#000000" font-family="sans-serif" font-size="14" lengthAdjust="spacing" textLength="26.4482" x="415.6411" y="397.2285">Visit</text><line style="stroke:#181818;stroke-width:0.5;" x1="347.5" x2="477.7305" y1="407.5" y2="407.5"/><text fill="#000000" font-family="sans-serif" font-size="14" lengthAdjust="spacing" textLength="72.7754" x="352.5" y="426.0332">+date: Date</text><text fill="#000000" font-family="sans-serif" font-size="14" lengthAdjust="spacing" textLength="120.2305" x="352.5" y="443.6426">+description: String</text><text fill="#000000" font-family="sans-serif" font-size="14" lengthAdjust="spacing" textLength="61.8789" x="352.5" y="461.252">+petId: int</text><line style="stroke:#181818;stroke-width:0.5;" x1="347.5" x2="477.7305" y1="468.3281" y2="468.3281"/></g><!--class VisitRepository--><g class="entity" data-entity="VisitRepository" data-source-line="94" data-uid="ent0033" id="entity_VisitRepository"><rect fill="#F1F1F1" height="48" rx="2.5" ry="2.5" style="stroke:#181818;stroke-width:0.5;" width="125.3652" x="621" y="1188"/><ellipse cx="636" cy="1204" fill="#B4A7E5" rx="11" ry="11" style="stroke:#181818;stroke-width:1;"/><path d="M636.9531,1200.6406 L636.9531,1207.2969 L638.6719,1207.2969 Q639.2813,1207.2969 639.5469,1207.5313 Q639.8125,1207.7656 639.8125,1208.1563 Q639.8125,1208.5313 639.5469,1208.7656 Q639.2813,1209 638.6719,1209 L633.5313,1209 Q632.9219,1209 632.6563,1208.7656 Q632.3906,1208.5313 632.3906,1208.1406 Q632.3906,1207.7656 632.6563,1207.5313 Q632.9219,1207.2969 633.5313,1207.2969 L635.25,1207.2969 L635.25,1200.6406 L633.5313,1200.6406 Q632.9219,1200.6406 632.6563,1200.4063 Q632.3906,1200.1719 632.3906,1199.7813 Q632.3906,1199.4063 632.6563,1199.1719 Q632.9219,1198.9375 633.5313,1198.9375 L638.6719,1198.9375 Q639.2813,1198.9375 639.5469,1199.1719 Q639.8125,1199.4063 639.8125,1199.7813 Q639.8125,1200.1719 639.5469,1200.4063 Q639.2813,1200.6406 638.6719,1200.6406 L636.9531,1200.6406 Z " fill="#000000"/><text fill="#000000" font-family="sans-serif" font-size="14" font-style="italic" lengthAdjust="spacing" textLength="93.3652" x="650" y="1209.7285">VisitRepository</text><line style="stroke:#181818;stroke-width:0.5;" x1="622" x2="745.3652" y1="1220" y2="1220"/><line style="stroke:#181818;stroke-width:0.5;" x1="622" x2="745.3652" y1="1228" y2="1228"/></g><!--class VisitResource--><g class="entity" data-entity="VisitResource" data-source-line="96" data-uid="ent0034" id="entity_VisitResource"><rect fill="#F1F1F1" height="65.6094" rx="2.5" ry="2.5" style="stroke:#181818;stroke-width:0.5;" width="171.8789" x="41.5" y="1179"/><ellipse cx="80.5812" cy="1195" fill="#ADD1B2" rx="11" ry="11" style="stroke:#181818;stroke-width:1;"/><path d="M83.3468,1190.875 Q83.503,1190.6563 83.6905,1190.5469 Q83.878,1190.4375 84.0968,1190.4375 Q84.4718,1190.4375 84.7062,1190.7031 Q84.9405,1190.9531 84.9405,1191.5625 L84.9405,1193.0156 Q84.9405,1193.625 84.7062,1193.8906 Q84.4718,1194.1563 84.0968,1194.1563 Q83.753,1194.1563 83.5499,1193.9531 Q83.3468,1193.7656 83.2374,1193.25 Q83.1905,1192.8906 83.003,1192.7031 Q82.6749,1192.3281 82.0655,1192.1094 Q81.4562,1191.8906 80.8312,1191.8906 Q80.0655,1191.8906 79.4249,1192.2188 Q78.7999,1192.5469 78.2999,1193.2969 Q77.8155,1194.0469 77.8155,1195.0781 L77.8155,1196.1719 Q77.8155,1197.4063 78.7062,1198.2344 Q79.5968,1199.0469 81.1905,1199.0469 Q82.128,1199.0469 82.7843,1198.7969 Q83.1749,1198.6406 83.5968,1198.2031 Q83.8624,1197.9375 84.003,1197.8594 Q84.1593,1197.7813 84.3624,1197.7813 Q84.6905,1197.7813 84.9405,1198.0469 Q85.2062,1198.2969 85.2062,1198.6406 Q85.2062,1198.9844 84.8624,1199.3906 Q84.3624,1199.9688 83.5655,1200.2969 Q82.4874,1200.75 81.1905,1200.75 Q79.6749,1200.75 78.4718,1200.125 Q77.4874,1199.625 76.7999,1198.5625 Q76.1124,1197.4844 76.1124,1196.2031 L76.1124,1195.0469 Q76.1124,1193.7188 76.7218,1192.5781 Q77.3468,1191.4219 78.4405,1190.8125 Q79.5343,1190.1875 80.7687,1190.1875 Q81.503,1190.1875 82.1437,1190.3594 Q82.7999,1190.5156 83.3468,1190.875 Z " fill="#000000"/><text fill="#000000" font-family="sans-serif" font-size="14" lengthAdjust="spacing" textLength="86.3652" x="99.9325" y="1200.7285">VisitResource</text><line style="stroke:#181818;stroke-width:0.5;" x1="42.5" x2="212.3789" y1="1211" y2="1211"/><text fill="#000000" font-family="sans-serif" font-size="14" lengthAdjust="spacing" textLength="159.8789" x="47.5" y="1229.5332">+visitService: VisitService</text><line style="stroke:#181818;stroke-width:0.5;" x1="42.5" x2="212.3789" y1="1236.6094" y2="1236.6094"/></g><!--class VisitService--><g class="entity" data-entity="VisitService" data-source-line="99" data-uid="ent0035" id="entity_VisitService"><rect fill="#F1F1F1" height="83.2188" rx="2.5" ry="2.5" style="stroke:#181818;stroke-width:0.5;" width="212.3477" x="306.5" y="1170.5"/><ellipse cx="371.8584" cy="1186.5" fill="#ADD1B2" rx="11" ry="11" style="stroke:#181818;stroke-width:1;"/><path d="M374.624,1182.375 Q374.7803,1182.1563 374.9678,1182.0469 Q375.1553,1181.9375 375.374,1181.9375 Q375.749,1181.9375 375.9834,1182.2031 Q376.2178,1182.4531 376.2178,1183.0625 L376.2178,1184.5156 Q376.2178,1185.125 375.9834,1185.3906 Q375.749,1185.6563 375.374,1185.6563 Q375.0303,1185.6563 374.8271,1185.4531 Q374.624,1185.2656 374.5146,1184.75 Q374.4678,1184.3906 374.2803,1184.2031 Q373.9521,1183.8281 373.3428,1183.6094 Q372.7334,1183.3906 372.1084,1183.3906 Q371.3428,1183.3906 370.7021,1183.7188 Q370.0771,1184.0469 369.5771,1184.7969 Q369.0928,1185.5469 369.0928,1186.5781 L369.0928,1187.6719 Q369.0928,1188.9063 369.9834,1189.7344 Q370.874,1190.5469 372.4678,1190.5469 Q373.4053,1190.5469 374.0615,1190.2969 Q374.4521,1190.1406 374.874,1189.7031 Q375.1396,1189.4375 375.2803,1189.3594 Q375.4365,1189.2813 375.6396,1189.2813 Q375.9678,1189.2813 376.2178,1189.5469 Q376.4834,1189.7969 376.4834,1190.1406 Q376.4834,1190.4844 376.1396,1190.8906 Q375.6396,1191.4688 374.8428,1191.7969 Q373.7646,1192.25 372.4678,1192.25 Q370.9521,1192.25 369.749,1191.625 Q368.7646,1191.125 368.0771,1190.0625 Q367.3896,1188.9844 367.3896,1187.7031 L367.3896,1186.5469 Q367.3896,1185.2188 367.999,1184.0781 Q368.624,1182.9219 369.7178,1182.3125 Q370.8115,1181.6875 372.0459,1181.6875 Q372.7803,1181.6875 373.4209,1181.8594 Q374.0771,1182.0156 374.624,1182.375 Z " fill="#000000"/><text fill="#000000" font-family="sans-serif" font-size="14" lengthAdjust="spacing" textLength="73.1309" x="392.3584" y="1192.2285">VisitService</text><line style="stroke:#181818;stroke-width:0.5;" x1="307.5" x2="517.8477" y1="1202.5" y2="1202.5"/><text fill="#000000" font-family="sans-serif" font-size="14" lengthAdjust="spacing" textLength="89.1133" x="312.5" y="1221.0332">+LOG: Logger</text><text fill="#000000" font-family="sans-serif" font-size="14" lengthAdjust="spacing" textLength="200.3477" x="312.5" y="1238.6426">+visitRepository: VisitRepository</text><line style="stroke:#181818;stroke-width:0.5;" x1="307.5" x2="517.8477" y1="1245.7188" y2="1245.7188"/></g><!--class VisitsServiceApplication--><g class="entity" data-entity="VisitsServiceApplication" data-source-line="103" data-uid="ent0036" id="entity_VisitsServiceApplication"><rect fill="#F1F1F1" height="48" rx="2.5" ry="2.5" style="stroke:#181818;stroke-width:0.5;" width="180.6201" x="593" y="126"/><ellipse cx="608" cy="142" fill="#ADD1B2" rx="11" ry="11" style="stroke:#181818;stroke-width:1;"/><path d="M610.7656,137.875 Q610.9219,137.6563 611.1094,137.5469 Q611.2969,137.4375 611.5156,137.4375 Q611.8906,137.4375 612.125,137.7031 Q612.3594,137.9531 612.3594,138.5625 L612.3594,140.0156 Q612.3594,140.625 612.125,140.8906 Q611.8906,141.1563 611.5156,141.1563 Q611.1719,141.1563 610.9688,140.9531 Q610.7656,140.7656 610.6563,140.25 Q610.6094,139.8906 610.4219,139.7031 Q610.0938,139.3281 609.4844,139.1094 Q608.875,138.8906 608.25,138.8906 Q607.4844,138.8906 606.8438,139.2188 Q606.2188,139.5469 605.7188,140.2969 Q605.2344,141.0469 605.2344,142.0781 L605.2344,143.1719 Q605.2344,144.4063 606.125,145.2344 Q607.0156,146.0469 608.6094,146.0469 Q609.5469,146.0469 610.2031,145.7969 Q610.5938,145.6406 611.0156,145.2031 Q611.2813,144.9375 611.4219,144.8594 Q611.5781,144.7813 611.7813,144.7813 Q612.1094,144.7813 612.3594,145.0469 Q612.625,145.2969 612.625,145.6406 Q612.625,145.9844 612.2813,146.3906 Q611.7813,146.9688 610.9844,147.2969 Q609.9063,147.75 608.6094,147.75 Q607.0938,147.75 605.8906,147.125 Q604.9063,146.625 604.2188,145.5625 Q603.5313,144.4844 603.5313,143.2031 L603.5313,142.0469 Q603.5313,140.7188 604.1406,139.5781 Q604.7656,138.4219 605.8594,137.8125 Q606.9531,137.1875 608.1875,137.1875 Q608.9219,137.1875 609.5625,137.3594 Q610.2188,137.5156 610.7656,137.875 Z " fill="#000000"/><text fill="#000000" font-family="sans-serif" font-size="14" lengthAdjust="spacing" textLength="148.6201" x="622" y="147.7285">VisitsServiceApplication</text><line style="stroke:#181818;stroke-width:0.5;" x1="594" x2="772.6201" y1="158" y2="158"/><line style="stroke:#181818;stroke-width:0.5;" x1="594" x2="772.6201" y1="166" y2="166"/></g><!--class WebConfig--><g class="entity" data-entity="WebConfig" data-source-line="105" data-uid="ent0037" id="entity_WebConfig"><rect fill="#F1F1F1" height="48" rx="2.5" ry="2.5" style="stroke:#181818;stroke-width:0.5;" width="101.2549" x="633" y="43"/><ellipse cx="648" cy="59" fill="#ADD1B2" rx="11" ry="11" style="stroke:#181818;stroke-width:1;"/><path d="M650.7656,54.875 Q650.9219,54.6563 651.1094,54.5469 Q651.2969,54.4375 651.5156,54.4375 Q651.8906,54.4375 652.125,54.7031 Q652.3594,54.9531 652.3594,55.5625 L652.3594,57.0156 Q652.3594,57.625 652.125,57.8906 Q651.8906,58.1563 651.5156,58.1563 Q651.1719,58.1563 650.9688,57.9531 Q650.7656,57.7656 650.6563,57.25 Q650.6094,56.8906 650.4219,56.7031 Q650.0938,56.3281 649.4844,56.1094 Q648.875,55.8906 648.25,55.8906 Q647.4844,55.8906 646.8438,56.2188 Q646.2188,56.5469 645.7188,57.2969 Q645.2344,58.0469 645.2344,59.0781 L645.2344,60.1719 Q645.2344,61.4063 646.125,62.2344 Q647.0156,63.0469 648.6094,63.0469 Q649.5469,63.0469 650.2031,62.7969 Q650.5938,62.6406 651.0156,62.2031 Q651.2813,61.9375 651.4219,61.8594 Q651.5781,61.7813 651.7813,61.7813 Q652.1094,61.7813 652.3594,62.0469 Q652.625,62.2969 652.625,62.6406 Q652.625,62.9844 652.2813,63.3906 Q651.7813,63.9688 650.9844,64.2969 Q649.9063,64.75 648.6094,64.75 Q647.0938,64.75 645.8906,64.125 Q644.9063,63.625 644.2188,62.5625 Q643.5313,61.4844 643.5313,60.2031 L643.5313,59.0469 Q643.5313,57.7188 644.1406,56.5781 Q644.7656,55.4219 645.8594,54.8125 Q646.9531,54.1875 648.1875,54.1875 Q648.9219,54.1875 649.5625,54.3594 Q650.2188,54.5156 650.7656,54.875 Z " fill="#000000"/><text fill="#000000" font-family="sans-serif" font-size="14" lengthAdjust="spacing" textLength="69.2549" x="662" y="64.7285">WebConfig</text><line style="stroke:#181818;stroke-width:0.5;" x1="634" x2="733.2549" y1="75" y2="75"/><line style="stroke:#181818;stroke-width:0.5;" x1="634" x2="733.2549" y1="83" y2="83"/></g><!--class CustomersServiceApplication--><g class="entity" data-entity="CustomersServiceApplication" data-source-line="107" data-uid="ent0038" id="entity_CustomersServiceApplication"><rect fill="#90EE90" height="58.7031" rx="2.5" ry="2.5" style="stroke:#181818;stroke-width:0.5;" width="214.8545" x="834" y="295.5"/><ellipse cx="849" cy="316.8516" fill="#ADD1B2" rx="11" ry="11" style="stroke:#181818;stroke-width:1;"/><path d="M851.7656,312.7266 Q851.9219,312.5078 852.1094,312.3984 Q852.2969,312.2891 852.5156,312.2891 Q852.8906,312.2891 853.125,312.5547 Q853.3594,312.8047 853.3594,313.4141 L853.3594,314.8672 Q853.3594,315.4766 853.125,315.7422 Q852.8906,316.0078 852.5156,316.0078 Q852.1719,316.0078 851.9688,315.8047 Q851.7656,315.6172 851.6563,315.1016 Q851.6094,314.7422 851.4219,314.5547 Q851.0938,314.1797 850.4844,313.9609 Q849.875,313.7422 849.25,313.7422 Q848.4844,313.7422 847.8438,314.0703 Q847.2188,314.3984 846.7188,315.1484 Q846.2344,315.8984 846.2344,316.9297 L846.2344,318.0234 Q846.2344,319.2578 847.125,320.0859 Q848.0156,320.8984 849.6094,320.8984 Q850.5469,320.8984 851.2031,320.6484 Q851.5938,320.4922 852.0156,320.0547 Q852.2813,319.7891 852.4219,319.7109 Q852.5781,319.6328 852.7813,319.6328 Q853.1094,319.6328 853.3594,319.8984 Q853.625,320.1484 853.625,320.4922 Q853.625,320.8359 853.2813,321.2422 Q852.7813,321.8203 851.9844,322.1484 Q850.9063,322.6016 849.6094,322.6016 Q848.0938,322.6016 846.8906,321.9766 Q845.9063,321.4766 845.2188,320.4141 Q844.5313,319.3359 844.5313,318.0547 L844.5313,316.8984 Q844.5313,315.5703 845.1406,314.4297 Q845.7656,313.2734 846.8594,312.6641 Q847.9531,312.0391 849.1875,312.0391 Q849.9219,312.0391 850.5625,312.2109 Q851.2188,312.3672 851.7656,312.7266 Z " fill="#000000"/><text fill="#000000" font-family="sans-serif" font-size="12" font-style="italic" lengthAdjust="spacing" textLength="55.3535" x="926.7505" y="312.957">&#171;ADDED&#187;</text><text fill="#000000" font-family="sans-serif" font-size="14" lengthAdjust="spacing" textLength="182.8545" x="863" y="330.127">CustomersServiceApplication</text><line style="stroke:#181818;stroke-width:0.5;" x1="835" x2="1047.8545" y1="338.2031" y2="338.2031"/><line style="stroke:#181818;stroke-width:0.5;" x1="835" x2="1047.8545" y1="346.2031" y2="346.2031"/></g><!--reverse link BaseEntity to NamedEntity--><g class="link" data-entity-1="BaseEntity" data-entity-2="NamedEntity" data-source-line="110" data-uid="lnk39" id="link_BaseEntity_NamedEntity"><path codeLine="110" d="M193.9271,578.4314 C243.7071,597.7814 304.16,621.28 356.22,641.51" fill="none" id="BaseEntity-backto-NamedEntity" style="stroke:#181818;stroke-width:1;"/><polygon fill="none" points="177.15,571.91,191.7533,584.0238,196.1009,572.8391,177.15,571.91" style="stroke:#181818;stroke-width:1;"/></g><!--reverse link BaseEntity to Person--><g class="link" data-entity-1="BaseEntity" data-entity-2="Person" data-source-line="111" data-uid="lnk40" id="link_BaseEntity_Person"><path codeLine="111" d="M195.15,553 C243.11,553 298.56,553 350.42,553" fill="none" id="BaseEntity-backto-Person" style="stroke:#181818;stroke-width:1;"/><polygon fill="none" points="177.15,553,195.15,559,195.15,547,177.15,553" style="stroke:#181818;stroke-width:1;"/></g><!--reverse link BaseEntity to Visit--><g class="link" data-entity-1="BaseEntity" data-entity-2="Visit" data-source-line="112" data-uid="lnk41" id="link_BaseEntity_Visit"><path codeLine="112" d="M193.5718,523.7995 C240.2718,502.8395 294.71,478.41 346.28,455.27" fill="none" id="BaseEntity-backto-Visit" style="stroke:#181818;stroke-width:1;"/><polygon fill="none" points="177.15,531.17,196.0286,529.2735,191.115,518.3256,177.15,531.17" style="stroke:#181818;stroke-width:1;"/></g><!--link CacheConfig to VetsProperties--><g class="link" data-entity-1="CacheConfig" data-entity-2="VetsProperties" data-source-line="113" data-uid="lnk42" id="link_CacheConfig_VetsProperties"><path codeLine="113" d="M232.27,764 C271.87,764 309.71,764 344.13,764" fill="none" id="CacheConfig-to-VetsProperties" style="stroke:#181818;stroke-width:1;"/><polygon fill="#181818" points="350.13,764,341.13,760,345.13,764,341.13,768,350.13,764" style="stroke:#181818;stroke-width:1;"/></g><!--reverse link NamedEntity to Pet--><g class="link" data-entity-1="NamedEntity" data-entity-2="Pet" data-source-line="114" data-uid="lnk43" id="link_NamedEntity_Pet"><path codeLine="114" d="M486.5799,660.5571 C532.5299,659.0171 579.78,657.44 626.1,655.89" fill="none" id="NamedEntity-backto-Pet" style="stroke:#181818;stroke-width:1;"/><polygon fill="none" points="468.59,661.16,486.7809,666.5537,486.3789,654.5604,468.59,661.16" style="stroke:#181818;stroke-width:1;"/></g><!--reverse link NamedEntity to PetType--><g class="link" data-entity-1="NamedEntity" data-entity-2="PetType" data-source-line="115" data-uid="lnk44" id="link_NamedEntity_PetType"><path codeLine="115" d="M485.6394,684.5002 C507.2894,692.4002 514.43,697.53 533,713 C570.51,744.25 550.08,781.75 593,805 C691.95,858.6 831.16,830.39 899.45,811.12" fill="none" id="NamedEntity-backto-PetType" style="stroke:#181818;stroke-width:1;"/><polygon fill="none" points="468.73,678.33,483.5827,690.1367,487.6962,678.8637,468.73,678.33" style="stroke:#181818;stroke-width:1;"/></g><!--reverse link NamedEntity to Specialty--><g class="link" data-entity-1="NamedEntity" data-entity-2="Specialty" data-source-line="116" data-uid="lnk45" id="link_NamedEntity_Specialty"><path codeLine="116" d="M485.4414,690.0068 C535.7014,708.8768 592.16,730.08 638.58,747.51" fill="none" id="NamedEntity-backto-Specialty" style="stroke:#181818;stroke-width:1;"/><polygon fill="none" points="468.59,683.68,483.3325,695.624,487.5504,684.3897,468.59,683.68" style="stroke:#181818;stroke-width:1;"/></g><!--link OwnerResource to OwnerService--><g class="link" data-entity-1="OwnerResource" data-entity-2="OwnerService" data-source-line="117" data-uid="lnk46" id="link_OwnerResource_OwnerService"><path codeLine="117" d="M228.28,874 C248.8,874 264.62,874 285.77,874" fill="none" id="OwnerResource-to-OwnerService" style="stroke:#181818;stroke-width:1;"/><polygon fill="#181818" points="291.77,874,282.77,870,286.77,874,282.77,878,291.77,874" style="stroke:#181818;stroke-width:1;"/></g><!--link OwnerService to OwnerRepository--><g class="link" data-entity-1="OwnerService" data-entity-2="OwnerRepository" data-source-line="118" data-uid="lnk47" id="link_OwnerService_OwnerRepository"><path codeLine="118" d="M533.05,878.44 C560.56,879.47 582.9041,880.2975 607.4241,881.2075" fill="none" id="OwnerService-to-OwnerRepository" style="stroke:#181818;stroke-width:1;"/><polygon fill="#181818" points="613.42,881.43,604.5745,877.099,608.4234,881.2446,604.2778,885.0935,613.42,881.43" style="stroke:#181818;stroke-width:1;"/></g><!--reverse link Person to Owner--><g class="link" data-entity-1="Person" data-entity-2="Owner" data-source-line="119" data-uid="lnk48" id="link_Person_Owner"><path codeLine="119" d="M491.0505,515.829 C525.0305,500.849 552.13,491.58 593,484 C672.09,469.32 695.39,466.91 774,484 C810.17,491.87 847.9,508.31 878.28,523.9" fill="none" id="Person-backto-Owner" style="stroke:#181818;stroke-width:1;"/><polygon fill="none" points="474.58,523.09,493.4708,521.3192,488.6302,510.3388,474.58,523.09" style="stroke:#181818;stroke-width:1;"/></g><!--reverse link Person to Vet--><g class="link" data-entity-1="Person" data-entity-2="Vet" data-source-line="120" data-uid="lnk49" id="link_Person_Vet"><path codeLine="120" d="M492.4998,547.7179 C538.0698,544.6679 581.92,541.73 626.29,538.76" fill="none" id="Person-backto-Vet" style="stroke:#181818;stroke-width:1;"/><polygon fill="none" points="474.54,548.92,492.9005,553.7046,492.0991,541.7313,474.54,548.92" style="stroke:#181818;stroke-width:1;"/></g><!--link Pet to Owner--><g class="link" data-entity-1="Pet" data-entity-2="Owner" data-source-line="121" data-uid="lnk50" id="link_Pet_Owner"><path codeLine="121" d="M740.68,633.37 C781.3,618.46 830.5575,600.3676 872.5375,584.9576" fill="none" id="Pet-to-Owner" style="stroke:#181818;stroke-width:1;"/><polygon fill="#181818" points="878.17,582.89,868.3429,582.2364,873.4762,584.613,871.0996,589.7464,878.17,582.89" style="stroke:#181818;stroke-width:1;"/></g><!--link Pet to PetType--><g class="link" data-entity-1="Pet" data-entity-2="PetType" data-source-line="122" data-uid="lnk51" id="link_Pet_PetType"><path codeLine="122" d="M740.68,685.6 C788.51,712.51 850.9006,747.5983 893.9206,771.7983" fill="none" id="Pet-to-PetType" style="stroke:#181818;stroke-width:1;"/><polygon fill="#181818" points="899.15,774.74,893.267,766.8412,894.7922,772.2886,889.3448,773.8137,899.15,774.74" style="stroke:#181818;stroke-width:1;"/></g><!--link PetResource to OwnerService--><g class="link" data-entity-1="PetResource" data-entity-2="OwnerService" data-source-line="123" data-uid="lnk52" id="link_PetResource_OwnerService"><path codeLine="123" d="M228.28,947.81 C254.21,937.36 276.6447,928.3223 302.7547,917.8023" fill="none" id="PetResource-to-OwnerService" style="stroke:#181818;stroke-width:1;"/><polygon fill="#181818" points="308.32,915.56,298.4772,915.2133,303.6823,917.4286,301.467,922.6336,308.32,915.56" style="stroke:#181818;stroke-width:1;"/></g><!--link PetResource to PetService--><g class="link" data-entity-1="PetResource" data-entity-2="PetService" data-source-line="124" data-uid="lnk53" id="link_PetResource_PetService"><path codeLine="124" d="M228.28,989.41 C255.17,989.79 278.2706,990.1153 305.1906,990.4953" fill="none" id="PetResource-to-PetService" style="stroke:#181818;stroke-width:1;"/><polygon fill="#181818" points="311.19,990.58,302.2474,986.4534,306.1905,990.5094,302.1344,994.4526,311.19,990.58" style="stroke:#181818;stroke-width:1;"/></g><!--link PetService to PetRepository--><g class="link" data-entity-1="PetService" data-entity-2="PetRepository" data-source-line="125" data-uid="lnk54" id="link_PetService_PetRepository"><path codeLine="125" d="M513.67,992 C550.56,992 585.15,992 617.28,992" fill="none" id="PetService-to-PetRepository" style="stroke:#181818;stroke-width:1;"/><polygon fill="#181818" points="623.28,992,614.28,988,618.28,992,614.28,996,623.28,992" style="stroke:#181818;stroke-width:1;"/></g><!--link VetResource to VetService--><g class="link" data-entity-1="VetResource" data-entity-2="VetService" data-source-line="126" data-uid="lnk55" id="link_VetResource_VetService"><path codeLine="126" d="M208.08,1102 C240.29,1102 271.83,1102 305.83,1102" fill="none" id="VetResource-to-VetService" style="stroke:#181818;stroke-width:1;"/><polygon fill="#181818" points="311.83,1102,302.83,1098,306.83,1102,302.83,1106,311.83,1102" style="stroke:#181818;stroke-width:1;"/></g><!--link VetService to VetRepository--><g class="link" data-entity-1="VetService" data-entity-2="VetRepository" data-source-line="127" data-uid="lnk56" id="link_VetService_VetRepository"><path codeLine="127" d="M513.28,1102 C550.22,1102 584.9,1102 617.11,1102" fill="none" id="VetService-to-VetRepository" style="stroke:#181818;stroke-width:1;"/><polygon fill="#181818" points="623.11,1102,614.11,1098,618.11,1102,614.11,1106,623.11,1102" style="stroke:#181818;stroke-width:1;"/></g><!--link VisitResource to VisitService--><g class="link" data-entity-1="VisitResource" data-entity-2="VisitService" data-source-line="128" data-uid="lnk57" id="link_VisitResource_VisitService"><path codeLine="128" d="M213.79,1212 C242.93,1212 269.85,1212 300.36,1212" fill="none" id="VisitResource-to-VisitService" style="stroke:#181818;stroke-width:1;"/><polygon fill="#181818" points="306.36,1212,297.36,1208,301.36,1212,297.36,1216,306.36,1212" style="stroke:#181818;stroke-width:1;"/></g><!--link VisitService to VisitRepository--><g class="link" data-entity-1="VisitService" data-entity-2="VisitRepository" data-source-line="129" data-uid="lnk58" id="link_VisitService_VisitRepository"><path codeLine="129" d="M518.66,1212 C553.29,1212 584.64,1212 614.93,1212" fill="none" id="VisitService-to-VisitRepository" style="stroke:#181818;stroke-width:1;"/><polygon fill="#181818" points="620.93,1212,611.93,1208,615.93,1212,611.93,1216,620.93,1212" style="stroke:#181818;stroke-width:1;"/></g><!--SRC=[bLNRRXiX47tVhq3fIwlAKfzNKIJNZg98kIbEjy-O7QzHM5W1TkIs-RIgdzHVwB2BCR1sehvOtfavm-4m7CmpbntLj2LCK6Ecrcg-t5YuPaek-0yWNme1Aqki8fetQqjghe5PhcJHKVPC6o1dCuS4Gpu-GgksK9E_VtwJRvAjgMpyrxIkeVvqHixF7n6DSG4N5-HdGOPboKnmaDOiG6yvWsdN2SweMyKXBc_lgyivrd-uSHGMLBIOSE3Nq63QyIjguONkOd1QyvKQk9IMsrsV8EGpuNL9hgM51dHIEgDi3JCbLxm9jLkmva6h3hJbO4fI9TyPN8XR9RbLcijcQZhSTEW3aYu5uC9BfGHGwSCCCJEraROaN5eVf8njset0dTMkvnDleIH2oIPThYVgn0DzUljpRXWUZzwzL-YPuz4TZUEE8cKEwJlQGftfAwaZlB0Eb1JVlqZGeOpMjGPZeifU4UoKXIm8wDPAGXRly2mm1DOlWWg2Nb46mqAFq2dZkEyopZvhr4PZxPwESb4_Y-LGux_6O9y8s9lxgvBSg6QOgD3jmA3CAIKz7q0RVo0Ek-BQsBjKH1V7sZmSzpWCsv9hkvxZ_9J4_Uvbt7KOmBed_1FJzEH6AcBfIGtxNAOWdaVGxo7y_pzv3xWtnErYOcNAC-_cDZlcNb71QuhrMMg1bvPJOVFjLf6wnjVqVd1i-getTAkEwBQDTAjYtH9OBiis5Q4wAOAphCJFK4rkxAZcO6kXcZb7B0TZ7DKVyUrihnpPX5vrFeyr6APvvu3ZYtrTxnqnqzRrFAtkaCtrTT63mj7N6Fp-y6rJ1cLEQTppVQM-m_AekyusngeMtU7e6pcTpwCNyae3xFk-5j6pT_vhCebzUfGRx6SKxhaNyQCucLpa3s3i_xwPFHhiJMUK2FUjI4tPhPHuH6Ax8HkfxZsqxphOMHn1reLpo80CNtjgiQ6DLi-JaRj5XkKp4QagmqMtkqfnwVLDvxZFnrERJ6h87l3_0000]--></g></svg>